G04 ================== begin FILE IDENTIFICATION RECORD ==================*
G04 Layout Name:  LAY-27792_D.brd*
G04 Film Name:    L3_PWR*
G04 File Format:  Gerber RS274X*
G04 File Origin:  Cadence Allegro 16.5-S035*
G04 Origin Date:  Tue Oct 22 17:05:33 2013*
G04 *
G04 Layer:  VIA CLASS/L3_PWR*
G04 Layer:  PIN/L3_PWR*
G04 Layer:  ETCH/L3_PWR*
G04 Layer:  DRAWING FORMAT/FILM_TITLE_BLOCK*
G04 Layer:  DRAWING FORMAT/FILM_OUTLINE*
G04 Layer:  BOARD GEOMETRY/OUTLINE*
G04 *
G04 Offset:    (0.00 0.00)*
G04 Mirror:    No*
G04 Mode:      Positive*
G04 Rotation:  0*
G04 FullContactRelief:  No*
G04 UndefLineWidth:     8.00*
G04 ================== end FILE IDENTIFICATION RECORD ====================*
%FSLAX55Y55*MOIN*%
%IR0*IPPOS*OFA0.00000B0.00000*MIA0B0*SFA1.00000B1.00000*%
%ADD12C,.06*%
%ADD10C,.018*%
%ADD14C,.066*%
%ADD13C,.067*%
%ADD11O,.066X.042*%
%ADD15C,.01*%
%ADD16C,.02*%
%ADD17C,.025*%
%ADD18C,.005*%
%ADD19C,.006*%
%ADD20C,.008*%
%ADD23C,.08004*%
%ADD24C,.08104*%
%ADD25C,.07404*%
%ADD22C,.03804*%
%ADD26C,.09704*%
%ADD21C,.06539*%
%ADD27C,.10504*%
G75*
%LPD*%
G75*
G36*
G01X177900Y-9805D02*
X177880Y-68137D01*
X151598D01*
G02X151286Y-67487I0J400D01*
G03X151178Y-64989I-1486J1187D01*
G02X151346Y-64333I290J275D01*
G03X148569Y-64122I-1129J3526D01*
G02X148635Y-64796I-179J-358D01*
G03X148314Y-67487I1165J-1504D01*
G02X148002Y-68137I-312J-250D01*
G01X136259D01*
G02X135976Y-67454I0J400D01*
G01X139094Y-64336D01*
X139207Y-64368D01*
G03X136656Y-61817I1010J3561D01*
G01X136688Y-61930D01*
X133649Y-64968D01*
X111539D01*
G02X111185Y-64383I0J400D01*
G03X107815I-1685J883D01*
G02X107461Y-64968I-354J-185D01*
G01X106773D01*
X88974Y-47170D01*
X72993D01*
G02X72652Y-46560I0J400D01*
G03X71581Y-43744I-1621J995D01*
G02X71301Y-43303I116J383D01*
G03X68870Y-44845I-1881J279D01*
G02X69150Y-45286I-116J-383D01*
G03X69410Y-46560I1881J-280D01*
G02X69069Y-47170I-341J-210D01*
G01X52929D01*
X38947Y-33188D01*
G02X39034Y-32557I283J282D01*
G03X38508Y-29042I-934J1657D01*
G02X38204Y-28559I85J391D01*
G03X37439Y-26561I-1851J437D01*
G02Y-25904I229J329D01*
G03X37424Y-22771I-1086J1561D01*
G02X37403Y-22124I225J331D01*
G03X37095Y-18925I-1166J1502D01*
G02X37065Y-18228I181J357D01*
G03X34424Y-15646I-1002J1617D01*
G02X33747Y-15667I-345J202D01*
G03X31106Y-18305I-1579J-1060D01*
G02X31116Y-18961I-224J-331D01*
G03X31236Y-22130I1110J-1545D01*
G02X31246Y-22807I-208J-342D01*
G03X31174Y-25946I1038J-1594D01*
G02X31164Y-26602I-234J-325D01*
G03X32383Y-30076I1062J-1578D01*
G02X32795Y-30600I32J-398D01*
G03X33037Y-32284I1805J-600D01*
G02X32709Y-32912I-328J-228D01*
G01X30377D01*
G03Y-36316I-850J-1702D01*
G01X37262D01*
X51519Y-50572D01*
X87564D01*
X104446Y-67454D01*
G02X104163Y-68137I-283J-283D01*
G01X83367D01*
G02X83138Y-67409I0J400D01*
G03X83118Y-64279I-1091J1558D01*
G02X83097Y-63632I225J331D01*
G03X80301Y-61150I-1166J1503D01*
G02X79604Y-61130I-343J206D01*
G03X76930Y-63638I-1684J-884D01*
G02X76940Y-64315I-208J-342D01*
G03X76822Y-67419I1038J-1594D01*
G02X76579Y-68137I-243J-318D01*
G01X74543D01*
G02X74221Y-67500I0J400D01*
G03X71049Y-65409I-1533J1126D01*
G02X70372Y-65430I-345J202D01*
G03X67194Y-67520I-1579J-1060D01*
G02X66858Y-68137I-336J-217D01*
G01X65511D01*
G02X65222Y-67460I0J400D01*
G03X62212Y-65177I-1371J1318D01*
G02X61535Y-65198I-345J202D01*
G03X58499Y-67480I-1579J-1060D01*
G02X58192Y-68137I-307J-257D01*
G01X48413D01*
G02X48122Y-67463I0J400D01*
G03X45169Y-65082I-1386J1302D01*
G02X44621Y-65189I-329J227D01*
G03X42076Y-65613I-1043J-1591D01*
G02X41444I-316J245D01*
G03X38212Y-67571I-1503J-1166D01*
G02X37848Y-68137I-364J-166D01*
G01X37499D01*
G02X37147Y-67548I0J400D01*
G03X33769Y-65798I-1676J900D01*
G02X33055Y-65801I-358J178D01*
G03X29677Y-67551I-1695J-863D01*
G02X29323Y-68137I-354J-186D01*
G01X-8001D01*
Y-3579D01*
G02X-7239Y-3409I400J0D01*
G03X-4133Y-6852I7239J3408D01*
G02X-4269Y-7588I-207J-342D01*
G03X-4924Y-11084I335J-1872D01*
G02X-4914Y-11761I-208J-342D01*
G03X-4986Y-14900I1038J-1594D01*
G02X-4996Y-15556I-234J-325D01*
G03X-2217Y-17953I1062J-1578D01*
G02X-1500Y-17943I361J-172D01*
G03X1279Y-15515I1693J867D01*
G02Y-14858I229J329D01*
G03X1264Y-11725I-1086J1561D01*
G02X1243Y-11078I225J331D01*
G03X1590Y-8424I-1166J1502D01*
G02X1818Y-7792I319J242D01*
G03X-7239Y3409I-1818J7792D01*
G02X-8001Y3579I-362J170D01*
G01Y16371D01*
G02X-7530Y16765I400J0D01*
G03Y20509I336J1872D01*
G02X-8001Y20903I-71J394D01*
G01Y29760D01*
G02X-7498Y30147I400J1D01*
G03Y33823I489J1838D01*
G02X-8001Y34210I-103J386D01*
G01Y92965D01*
G02X-7318Y93247I400J0D01*
G01X-2670Y88600D01*
X2308D01*
G02X2653Y87997I0J-400D01*
G03X2682Y86026I1641J-962D01*
G02X2397Y85417I-339J-213D01*
G03X1089Y82445I253J-1885D01*
G02X966Y81873I-328J-229D01*
G03X3504Y81328I977J-1632D01*
G02X3627Y81900I328J229D01*
G03X4365Y82710I-977J1632D01*
G02X5087I361J-173D01*
G03X5989Y81813I1715J822D01*
G02X6175Y81271I-171J-362D01*
G03X8686Y82134I1698J-856D01*
G02X8500Y82676I171J362D01*
G03X8518Y82711I-1682J887D01*
G02X9239I360J-173D01*
G03X10672Y81651I1716J821D01*
G02X10985Y81110I-59J-395D01*
G03X14518Y81132I1771J-695D01*
G02X14875Y81682I371J150D01*
G03X16382Y84656I-63J1901D01*
G02X16622Y85272I330J226D01*
G03X17876Y88013I-428J1853D01*
G02X18230Y88600I354J187D01*
G01X26616D01*
X27819Y87396D01*
G02X27536Y86714I-283J-282D01*
G01X26235D01*
G03X22792Y85413I-1551J-1101D01*
G02X22447Y84975I-397J-42D01*
G03X24589Y83288I250J-1886D01*
G02X24934Y83726I397J42D01*
G03X26235Y84510I-250J1886D01*
G01X27877D01*
X29672Y82715D01*
X29570Y82468D01*
X29466D01*
Y82397D01*
G02X30010Y82377I261J-303D01*
G01X34251Y78136D01*
X41949D01*
X46687Y82874D01*
X62374D01*
G02X62684Y82223I-1J-400D01*
G03X65638I1477J-1199D01*
G02X65948Y82874I311J251D01*
G01X73003D01*
X77281Y78596D01*
X78100D01*
X78167Y78530D01*
G03X78415Y78415I282J283D01*
G02X78769Y77926I-36J-398D01*
G03X82098Y76296I1853J-430D01*
G02X82335Y76353I156J-126D01*
G03X82498Y76318I164J365D01*
G01X83389D01*
X83412Y76144D01*
G03X87016Y77209I1885J251D01*
G02X87230Y77751I362J170D01*
G03X88360Y80031I-702J1768D01*
G02X88745Y80539I385J108D01*
G03X89776Y80842I1J1902D01*
G02X90298Y80764I217J-336D01*
G03X92507Y83735I1455J1225D01*
G02X92283Y84220I158J367D01*
G03X90242Y86669I-1818J560D01*
G01X90145Y86657D01*
X86071Y90732D01*
X70121D01*
X68169Y88780D01*
X44255D01*
X40606Y92429D01*
G02X40325Y93096I16J399D01*
G03X34825I-2750J2479D01*
G02X34528Y92428I-297J-268D01*
G01X1019D01*
X-238Y93685D01*
Y94547D01*
G03X849Y95373I-1100J2576D01*
G02X1473I312J-250D01*
G03X3661Y94322I2187J1750D01*
G01X6061D01*
G03X7811Y99311I0J2801D01*
G02Y99935I250J312D01*
G03Y104311I-1750J2188D01*
G02Y104935I250J312D01*
G03Y109311I-1750J2188D01*
G02Y109935I250J312D01*
G03Y114311I-1750J2188D01*
G02Y114935I250J312D01*
G03X6061Y119924I-1750J2188D01*
G01X3661D01*
G03X1473Y118873I-1J-2801D01*
G02X849I-312J250D01*
G03X-1339Y119924I-2187J-1750D01*
G01X-3739D01*
G03X-5489Y114935I0J-2801D01*
G02Y114311I-250J-312D01*
G03Y109935I1750J-2188D01*
G02Y109311I-250J-312D01*
G03Y104935I1750J-2188D01*
G02Y104311I-250J-312D01*
G03X-6530Y102365I1750J-2188D01*
G01X-6536Y102292D01*
X-7318Y101511D01*
G02X-8001Y101793I-283J282D01*
G01Y144778D01*
G02X-7497Y145164I400J0D01*
G03Y148836I497J1836D01*
G02X-8001Y149222I-104J386D01*
G01Y151592D01*
G02X-7342Y151896I400J0D01*
G03X-4456Y152402I1234J1448D01*
G02X-3760I348J-198D01*
G03X-482Y152358I1652J942D01*
G02X232Y152298I342J-207D01*
G03X3548Y151895I1768J702D01*
G02X4137Y151964I326J-232D01*
G03X7040Y152454I1251J1432D01*
G02X7736I348J-198D01*
G03X11040I1652J942D01*
G02X11736I348J-198D01*
G03X14396Y151783I1652J942D01*
G02X14979Y151593I212J-339D01*
G03X14974Y155203I4501J1811D01*
G02X14391Y155012I-372J149D01*
G03X14330Y155048I-997J-1620D01*
G02Y155744I198J348D01*
G03Y159048I-942J1652D01*
G02Y159744I198J348D01*
G03X13755Y163262I-942J1652D01*
G02X13437Y163716I77J393D01*
G03X13441Y164274I-1879J292D01*
G02X13759Y164723I396J56D01*
G03X14330Y168240I-371J1865D01*
G02Y168936I198J348D01*
G03X15200Y170009I-942J1653D01*
G02X15878Y170155I381J-122D01*
G03X21794Y177669I3603J3249D01*
G02X21985Y178421I191J352D01*
G01X36975D01*
G02X37166Y177669I0J-400D01*
G03X43691Y170995I2314J-4264D01*
G02X44379Y171005I347J-199D01*
G03X45058Y170348I1621J995D01*
G02Y169652I-198J-348D01*
G03X47652Y167058I942J-1652D01*
G02X48348I348J-198D01*
G03X51652I1652J942D01*
G02X52348I348J-198D01*
G03X54942Y169652I1652J942D01*
G02Y170348I198J348D01*
G03X55756Y171270I-942J1652D01*
G02X56451Y171349I369J-153D01*
G03X58118Y170555I1549J1104D01*
G02X58330Y170365I12J-200D01*
G03X62132Y170430I1900J92D01*
G02X62308Y170625I200J-3D01*
G03X63574Y171334I-226J1889D01*
G02X64254Y171245I313J-248D01*
G03X67652Y171058I1746J755D01*
G02X68348I348J-198D01*
G03X70438Y170149I1652J942D01*
G02X70675Y170014I46J-194D01*
G03X72053Y172431I1816J566D01*
G02X71816Y172566I-46J194D01*
G03X70942Y173652I-1816J-567D01*
G02Y174348I198J348D01*
G03X68348Y176942I-942J1652D01*
G02X67652I-348J198D01*
G03X64348I-1652J-942D01*
G02X63652I-348J198D01*
G03X60348I-1652J-942D01*
G02X59652I-348J198D01*
G03X56348I-1652J-942D01*
G02X55652I-348J198D01*
G03X52348I-1652J-942D01*
G02X51652I-348J198D01*
G03X48348I-1652J-942D01*
G02X47652I-348J198D01*
G03X44138Y176387I-1652J-942D01*
G02X43421Y176235I-392J81D01*
G03X41794Y177669I-3940J-2831D01*
G02X41985Y178421I191J352D01*
G01X128015D01*
G02X128206Y177669I0J-400D01*
G03X132834I2314J-4264D01*
G02X133025Y178421I191J352D01*
G01X148015D01*
G02X148206Y177669I0J-400D01*
G03X154821Y171160I2314J-4264D01*
G02X155505Y171202I355J-185D01*
G03X156128Y170631I1564J1082D01*
G02Y169935I-198J-348D01*
G03X158722Y167341I942J-1652D01*
G02X159418I348J-198D01*
G03X162173Y166734I1652J942D01*
G02X162767Y166579I232J-326D01*
G03X176767Y165730I7233J3421D01*
G02X177505Y165517I338J-214D01*
G01X177546Y148542D01*
G02X177037Y148157I-400J0D01*
G03X174862Y147270I-523J-1829D01*
G02X174166I-348J198D01*
G03X170862I-1652J-942D01*
G02X170166I-348J198D01*
G03X167201Y147704I-1652J-942D01*
G02X166594Y147770I-276J290D01*
G03X163366Y147647I-1576J-1065D01*
G02X162670I-348J198D01*
G03X161960Y148357I-1652J-942D01*
G02Y149053I198J348D01*
G03X159366Y151647I-942J1652D01*
G02X158670I-348J198D01*
G03X155937Y152270I-1652J-942D01*
G02X155315Y152660I-227J329D01*
G03X155343Y153938I-4795J744D01*
G02X155962Y154315I397J44D01*
G03X158670Y154955I1056J1582D01*
G02X159366I348J-198D01*
G03X161960Y157549I1652J942D01*
G02Y158245I198J348D01*
G03Y161549I-942J1652D01*
G02Y162245I198J348D01*
G03X159366Y164839I-942J1652D01*
G02X158670I-348J198D01*
G03X156076Y162245I-1652J-942D01*
G02Y161549I-198J-348D01*
G03Y158245I942J-1652D01*
G02Y157549I-198J-348D01*
G03X155175Y156367I942J-1652D01*
G02X154463Y156233I-387J99D01*
G03X154430Y150533I-3943J-2827D01*
G02X155146Y150367I322J-237D01*
G03X156076Y149053I1872J339D01*
G02Y148357I-198J-348D01*
G03Y145053I942J-1652D01*
G02Y144357I-198J-348D01*
G03X158670Y141763I942J-1652D01*
G02X159366I348J-198D01*
G03X162670I1652J942D01*
G02X163366I348J-198D01*
G03X166269Y141273I1652J942D01*
G02X166858Y141204I263J-301D01*
G03X170174Y141607I1548J1105D01*
G02X170888Y141667I372J-147D01*
G03X174166Y141711I1626J986D01*
G02X174862I348J-198D01*
G03X177053Y140829I1652J942D01*
G02X177566Y140446I113J-384D01*
G01X177901Y3786D01*
G02X177144Y3604I-400J-1D01*
G03X177161Y-3569I-7144J-3603D01*
G02X177919Y-3747I358J-179D01*
G01X177934Y-9805D01*
X177900D01*
G37*
%LPC*%
G75*
G36*
G01X135362Y-22935D02*
X135411Y-22936D01*
X135379Y-22958D01*
X135362Y-22935D01*
G37*
G36*
G01X67770Y135911D02*
G03X67909Y136519I-175J360D01*
G02X67830Y136626I1490J1183D01*
G03X67170I-330J-226D01*
G02X65891Y135820I-1570J1074D01*
G03X65558Y135360I61J-395D01*
G02X63390Y136930I-1877J-310D01*
G03X63723Y137390I-61J395D01*
G02X67170Y138774I1877J310D01*
G03X67830I330J226D01*
G02X70230Y135989I1570J-1074D01*
G03X70091Y135381I175J-360D01*
G02X67770Y135911I-1491J-1181D01*
G37*
G36*
G01X136338Y85220D02*
Y73025D01*
G02X132436I-1951J-3146D01*
G01Y86836D01*
X141624Y96024D01*
Y104890D01*
G02X145526I1951J0D01*
G01Y94408D01*
X136338Y85220D01*
G37*
G36*
G01X91278Y66329D02*
G03X91148Y65759I201J-346D01*
G02X87935Y65659I-1575J-1067D01*
G03X87770Y66221I-344J204D01*
G02X91278Y66329I1654J3312D01*
G37*
G36*
G01X81395Y31851D02*
X81462Y31980D01*
X78898Y34544D01*
Y37247D01*
G03X78184Y37494I-400J0D01*
G02Y42506I-3184J2506D01*
G03X78898Y42753I314J247D01*
G01Y43125D01*
X80954Y45180D01*
X80942Y45277D01*
G02X84524Y44633I1889J223D01*
G03X84891Y44051I356J-182D01*
G02X81816Y37494I109J-4051D01*
G03X81102Y37247I-314J-247D01*
G01Y35456D01*
X83020Y33538D01*
X83149Y33605D01*
G02X81395Y31851I1851J-3605D01*
G37*
G36*
G01X96851Y26395D02*
G02X98536Y28022I-1852J3604D01*
G01X101256Y25302D01*
X112149D01*
G02X112811Y25881I1549J-1103D01*
G03X112838Y26573I-187J354D01*
G02X115493Y25978I2162J3427D01*
G03X115222Y25341I49J-397D01*
G02X112149Y23098I-1522J-1141D01*
G01X100344D01*
X96980Y26462D01*
X96851Y26395D01*
G37*
G36*
G01X32053Y17878D02*
G03X32058Y17246I247J-314D01*
G02X29729Y17224I-1150J-1515D01*
G03X29724Y17856I-247J314D01*
G02X32053Y17878I1150J1515D01*
G37*
G36*
G01X14826Y-4635D02*
G03X15448Y-4661I321J238D01*
G02X15351Y-7047I1431J-1253D01*
G03X14729Y-7021I-321J-238D01*
G02X14826Y-4635I-1431J1253D01*
G37*
G36*
G01X24338Y-15981D02*
G03Y-15324I-229J329D01*
G02X24258Y-12261I1086J1561D01*
G03X24237Y-11614I-246J316D01*
G02X23960Y-8700I1071J1572D01*
G03X23888Y-8079I-284J282D01*
G02X23285Y-7478I1007J1614D01*
G03X22650Y-7422I-339J-213D01*
G02X22850Y-5135I-1411J1276D01*
G03X23485Y-5191I339J213D01*
G02X26244Y-7808I1412J-1274D01*
G03X26316Y-8429I284J-282D01*
G02X26474Y-11544I-1008J-1613D01*
G03X26495Y-12191I246J-316D01*
G02X26510Y-15324I-1071J-1572D01*
G03Y-15981I229J-328D01*
G02X24338I-1086J-1561D01*
G37*
G36*
G01X90350Y-21062D02*
G03X90875Y-21067I265J299D01*
G02X90847Y-23939I1233J-1448D01*
G03X90322Y-23934I-265J-299D01*
G02X87663Y-23744I-1233J1448D01*
G03X87068Y-23739I-300J-265D01*
G02X87089Y-21199I-1405J1282D01*
G03X87684Y-21204I300J265D01*
G02X90350Y-21062I1405J-1282D01*
G37*
G36*
G01X26989Y-42263D02*
G03X27021Y-41716I-275J291D01*
G02X29786Y-41877I1458J1221D01*
G03X29754Y-42424I275J-291D01*
G02X26989Y-42263I-1458J-1221D01*
G37*
G36*
G01X160635Y-46572D02*
G03X160904Y-47169I344J-204D01*
G02X157988Y-47851I-687J-3638D01*
G03X157965Y-47196I-240J319D01*
G02X157748Y-44168I1035J1596D01*
G03X157751Y-43568I-263J301D01*
G02X161067Y-44410I2466J2761D01*
G03X160783Y-44939I91J-390D01*
G02X160635Y-46572I-1783J-662D01*
G37*
G36*
G01X122498Y-57891D02*
G02X117936I-2281J-2916D01*
G03X117689Y-57176I-247J315D01*
G01X116179D01*
X114020Y-55017D01*
Y-27346D01*
G03X113307Y-27096I-400J0D01*
G02Y-22474I-2892J2311D01*
G03X114020Y-22224I313J250D01*
G01Y-7505D01*
G03X113291Y-7278I-400J0D01*
G02X106819Y-7429I-3291J2278D01*
G03X106102Y-7672I-317J-243D01*
G01Y-12249D01*
G02X103898I-1102J-1551D01*
G01Y-7672D01*
G03X103181Y-7429I-400J0D01*
G02Y-2571I-3181J2429D01*
G03X103898Y-2328I317J243D01*
G01Y-456D01*
X101944Y1499D01*
X101814Y1433D01*
G02X103567Y3186I-1814J3567D01*
G01X103501Y3056D01*
X106102Y456D01*
Y-2328D01*
G03X106819Y-2571I400J0D01*
G02X113291Y-2722I3181J-2429D01*
G03X114020Y-2495I329J227D01*
G01Y2495D01*
G03X113291Y2722I-400J0D01*
G02Y7278I-3291J2278D01*
G03X114020Y7505I329J227D01*
G01Y7977D01*
X115553Y9511D01*
G03X115432Y10160I-282J283D01*
G02X114741Y10680I768J1740D01*
G03X114081Y10610I-306J-257D01*
G02X113859Y12720I-1681J890D01*
G03X114519Y12790I306J257D01*
G02X117940Y12668I1681J-890D01*
G03X118589Y12547I366J161D01*
G01X119716Y13674D01*
Y43051D01*
X113274Y49493D01*
Y67316D01*
G03X112538Y67533I-400J0D01*
G02Y71533I-3115J2000D01*
G03X113274Y71750I336J217D01*
G01Y73764D01*
X107259Y79780D01*
X103253D01*
G03X102970Y79097I0J-400D01*
G01X103964Y78103D01*
Y77592D01*
G02X103281Y77309I-400J0D01*
G01X100810Y79780D01*
X99696D01*
G02X97609Y82706I-1551J1101D01*
G03X97858Y83261I-113J384D01*
G02X101457Y84361I1719J814D01*
G01X101483Y84192D01*
X109920D01*
X111174Y82938D01*
G03X111855Y83184I283J283D01*
G02X113925Y81114I1894J-176D01*
G03X113679Y80433I37J-398D01*
G01X117810Y76301D01*
Y52125D01*
X123678Y46257D01*
Y19917D01*
G03X124325Y19602I400J0D01*
G02Y16610I1175J-1496D01*
G03X123678Y16295I-247J-315D01*
G01Y12879D01*
X126454Y10104D01*
Y8078D01*
G03X127139Y7799I400J1D01*
G02Y2201I2861J-2799D01*
G03X126454Y1922I-285J-280D01*
G01Y-1922D01*
G03X127139Y-2201I400J1D01*
G02Y-7799I2861J-2799D01*
G03X126454Y-8078I-285J-280D01*
G01Y-22750D01*
G03X127201Y-22948I400J0D01*
G02Y-26622I3214J-1837D01*
G03X126454Y-26820I-347J-198D01*
G01Y-38459D01*
G03X127181Y-38688I400J0D01*
G02Y-42926I3036J-2119D01*
G03X126454Y-43155I-327J-229D01*
G01Y-46128D01*
X123495Y-49087D01*
G02X116973Y-52591I-3278J-1721D01*
G03X116222Y-52783I-351J-192D01*
G01Y-54105D01*
X117091Y-54974D01*
X124493D01*
X126939Y-52527D01*
G02X133799Y-51743I3278J1720D01*
G03X134397Y-52184I387J-101D01*
G02X136062Y-52017I1003J-1616D01*
G03X136592Y-51560I139J375D01*
G02X141227Y-47246I3625J753D01*
G01X141340Y-47278D01*
X143598Y-45019D01*
Y-43624D01*
G03X142908Y-43350I-400J-1D01*
G02Y-38264I-2691J2543D01*
G03X143598Y-37990I290J275D01*
G01Y-27798D01*
G03X142927Y-27504I-400J0D01*
G02Y-22066I-2512J2719D01*
G03X143598Y-21772I271J294D01*
G01Y-10305D01*
X136640Y-3347D01*
Y8114D01*
G03X136081Y8481I-400J0D01*
G02Y11969I-758J1744D01*
G03X136640Y12336I159J367D01*
G01Y56763D01*
X135052Y58351D01*
G03X134370Y58069I-282J-283D01*
G01Y48451D01*
G02X132166I-1102J-1551D01*
G01Y57973D01*
X121548Y68592D01*
Y108526D01*
G03X120964Y108882I-400J0D01*
G02Y112262I-872J1690D01*
G03X121548Y112618I184J356D01*
G01Y127211D01*
X114388Y134370D01*
X93303D01*
G02X90541Y134005I-1551J1102D01*
G03X89897Y133787I-254J-308D01*
G02X88079Y132314I-1853J429D01*
G03X87736Y131721I7J-400D01*
G02X84374Y129943I-1666J-917D01*
G03X83680Y129977I-357J-181D01*
G02X80464Y129990I-1604J1022D01*
G03X80208Y130064I-169J-106D01*
G02X80998Y132788I-822J1715D01*
G03X81254Y132714I169J106D01*
G02X83772Y131860I822J-1715D01*
G03X84466Y131826I357J181D01*
G02X86035Y132706I1604J-1022D01*
G03X86378Y133299I-7J400D01*
G02X89255Y135683I1666J917D01*
G03X89899Y135901I254J308D01*
G02X90757Y137093I1853J-429D01*
G03X90755Y137776I-209J341D01*
G02X90091Y138459I988J1625D01*
G03X89395I-348J-198D01*
G02X85943Y138788I-1652J942D01*
G03X85379Y139013I-379J-129D01*
G02X84762Y138816I-879J1687D01*
G03X84418Y138389I55J-396D01*
G02X84076Y137143I-1896J-150D01*
G03X84128Y136621I327J-231D01*
G02X81268Y136335I-1306J-1382D01*
G03X81216Y136857I-327J231D01*
G02X80920Y137214I1305J1383D01*
G03X80653Y137281I-169J-108D01*
G02X78334Y140240I-931J1658D01*
G03X78348Y140772I-291J274D01*
G02X81188Y140699I1453J1228D01*
G03X81174Y140167I291J-274D01*
G02X81324Y139964I-1451J-1229D01*
G03X81591Y139897I169J108D01*
G02X82260Y140123I933J-1657D01*
G03X82604Y140550I-55J396D01*
G02X86300Y141313I1896J149D01*
G03X86864Y141088I379J129D01*
G02X87158Y141211I879J-1687D01*
G03Y141591I-62J190D01*
G02X86801Y145053I585J1810D01*
G03Y145749I-198J348D01*
G02X86445Y146011I942J1652D01*
G03X85882Y145993I-272J-293D01*
G02X84852Y145431I-1382J1307D01*
G03X84690Y145212I37J-197D01*
G02X82448Y146869I-1890J-212D01*
G03X82610Y147088I-37J197D01*
G02X83241Y148725I1890J212D01*
G03X83142Y149389I-265J300D01*
G02X85427Y152293I788J1731D01*
G03X86090Y152342I315J246D01*
G02X86801Y153053I1653J-942D01*
G03Y153749I-198J348D01*
G02Y157053I942J1652D01*
G03Y157749I-198J348D01*
G02X89395Y160343I942J1652D01*
G03X90091I348J198D01*
G02X93395I1652J-942D01*
G03X94091I348J198D01*
G02X97395I1652J-942D01*
G03X98091I348J198D01*
G02X101395I1652J-942D01*
G03X102091I348J198D01*
G02X105395I1652J-942D01*
G03X106091I348J198D01*
G02X109395I1652J-942D01*
G03X110091I348J198D01*
G02X113395I1652J-942D01*
G03X114091I348J198D01*
G02X117395I1652J-942D01*
G03X118091I348J198D01*
G02X121395I1652J-942D01*
G03X122091I348J198D01*
G02X124685Y157749I1652J-942D01*
G03Y157053I198J-348D01*
G02X125576Y155907I-942J-1652D01*
G03X126309Y155815I386J107D01*
G02X126310Y150992I4211J-2411D01*
G03X125578Y150899I-347J-199D01*
G02X122091Y150459I-1835J502D01*
G03X121395I-348J-198D01*
G02X120685Y149749I-1652J942D01*
G03Y149053I198J-348D01*
G02X118091Y146459I-942J-1652D01*
G03X117395I-348J-198D01*
G02X114091I-1652J942D01*
G03X113395I-348J-198D01*
G02X110091I-1652J942D01*
G03X109395I-348J-198D01*
G02X106091I-1652J942D01*
G03X105395I-348J-198D01*
G02X102091I-1652J942D01*
G03X101395I-348J-198D01*
G02X98091I-1652J942D01*
G03X97395I-348J-198D01*
G02X96685Y145749I-1652J942D01*
G03Y145053I198J-348D01*
G02X94091Y142459I-942J-1652D01*
G03X93395I-348J-198D01*
G02X92685Y141749I-1652J942D01*
G03Y141053I198J-348D01*
G02X92738Y137780I-942J-1652D01*
G03X92740Y137097I209J-341D01*
G02X93303Y136574I-986J-1626D01*
G01X115300D01*
X123750Y128123D01*
Y77837D01*
G03X124319Y77474I400J0D01*
G02X126822Y74899I801J-1725D01*
G01Y71395D01*
X140044Y58173D01*
Y36120D01*
G03X140726Y35838I400J1D01*
G01X148382Y43493D01*
Y67903D01*
G03X147631Y68095I-400J0D01*
G02Y71663I-3244J1784D01*
G03X148382Y71855I351J192D01*
G01Y94788D01*
X152046Y98452D01*
X152014Y98565D01*
G02X154565Y96014I3561J1010D01*
G01X154452Y96046D01*
X151784Y93378D01*
Y91884D01*
G03X152515Y91659I400J0D01*
G02Y87491I3060J-2084D01*
G03X151784Y87266I-331J-225D01*
G01Y42083D01*
X143274Y33572D01*
Y-59D01*
X146860Y-3646D01*
X146902Y-3661D01*
G02X146391Y-7348I-643J-1790D01*
G03X146136Y-8030I28J-399D01*
G01X147002Y-8895D01*
Y-37824D01*
G03X147676Y-38115I400J0D01*
G02Y-43499I2541J-2692D01*
G03X147002Y-43790I-274J-291D01*
G01Y-46429D01*
X143746Y-49684D01*
X143778Y-49797D01*
G02X137936Y-53723I-3561J-1010D01*
G03X137292Y-53997I-246J-315D01*
G02X133499Y-53739I-1892J196D01*
G03X132818Y-53441I-400J13D01*
G02X128497Y-54085I-2601J2634D01*
G01X125405Y-57176D01*
X122745D01*
G03X122498Y-57891I0J-400D01*
G37*
G36*
G01X97744Y-46982D02*
G02X95572Y-46949I-1110J-1545D01*
G03X95582Y-46293I-224J331D01*
G02X95654Y-43154I1110J1545D01*
G03X95644Y-42477I-218J335D01*
G02X95524Y-39308I990J1624D01*
G03X95514Y-38652I-234J325D01*
G02X98155Y-36014I1062J1578D01*
G03X98832Y-35993I332J223D01*
G02X101473Y-38575I1639J-965D01*
G03X101503Y-39272I211J-340D01*
G02X101811Y-42471I-858J-1697D01*
G03X101832Y-43118I246J-316D01*
G02X99093Y-45603I-1071J-1572D01*
G03X98386Y-45613I-351J-192D01*
G02X97754Y-46326I-1694J865D01*
G03X97744Y-46982I224J-331D01*
G37*
G36*
G01X106697Y-46866D02*
G02X104525Y-46833I-1110J-1545D01*
G03X104535Y-46177I-224J331D01*
G02X104607Y-43038I1110J1545D01*
G03X104597Y-42361I-218J335D01*
G02X104477Y-39192I990J1624D01*
G03X104467Y-38536I-234J325D01*
G02X106639Y-38503I1062J1578D01*
G03X106649Y-39159I234J-325D01*
G02X106625Y-42331I-1062J-1578D01*
G03X106635Y-43008I218J-335D01*
G02X106707Y-46210I-990J-1624D01*
G03X106697Y-46866I224J-331D01*
G37*
G36*
G01X70358Y-35766D02*
G02X69622Y-33805I-1854J423D01*
G03X70248Y-33570I236J324D01*
G02X71040Y-32415I1854J-423D01*
G03X71050Y-31759I-224J331D01*
G02X71122Y-28620I1110J1545D01*
G03X71112Y-27943I-218J335D01*
G02X70992Y-24774I990J1624D01*
G03X70982Y-24118I-234J325D01*
G02X73623Y-21480I1062J1578D01*
G03X74300Y-21459I332J223D01*
G02X76941Y-24041I1639J-965D01*
G03X76971Y-24738I211J-340D01*
G02X77279Y-27937I-858J-1697D01*
G03X77300Y-28584I246J-316D01*
G02X77315Y-31717I-1071J-1572D01*
G03Y-32374I229J-328D01*
G02X74536Y-34802I-1086J-1561D01*
G03X73819Y-34812I-356J-182D01*
G02X70984Y-35531I-1716J819D01*
G03X70358Y-35766I-236J-324D01*
G37*
G36*
G01X82746Y-30007D02*
G02X80574Y-29974I-1110J-1545D01*
G03X80584Y-29318I-224J331D01*
G02X80656Y-26179I1110J1545D01*
G03X80646Y-25502I-218J335D01*
G02X82674Y-25472I990J1624D01*
G03X82684Y-26149I218J-335D01*
G02X82756Y-29351I-990J-1624D01*
G03X82746Y-30007I224J-331D01*
G37*
G36*
G01X5664Y-15589D02*
G02X3492Y-15556I-1110J-1545D01*
G03X3502Y-14900I-224J331D01*
G02X3574Y-11761I1110J1545D01*
G03X3564Y-11084I-218J335D01*
G02X5592Y-11054I990J1624D01*
G03X5602Y-11731I218J-335D01*
G02X5674Y-14933I-990J-1624D01*
G03X5664Y-15589I224J-331D01*
G37*
G36*
G01X151097Y1972D02*
G02X147638Y3243I-1567J1078D01*
G03X147073Y3646I-398J40D01*
G02X148169Y5181I-796J1727D01*
G03X148734Y4778I398J-40D01*
G02X150747Y4512I796J-1728D01*
G03X151332Y4593I256J308D01*
G02X154400Y4683I1567J-1078D01*
G03X155046Y4704I315J246D01*
G02X157114Y5468I1571J-1072D01*
G03X157619Y5851I105J386D01*
G02X159487Y7741I1902J-12D01*
G03X159810Y8366I-7J400D01*
G02X160580Y11165I1570J1074D01*
G03X160781Y11680I-169J363D01*
G02X161659Y14087I1760J722D01*
G03X161735Y14372I-93J177D01*
G02X161657Y14506I1603J1023D01*
G03X161333Y14547I-176J-94D01*
G02X158031Y15690I-1405J1283D01*
G03X157557Y16053I-399J-30D01*
G02X158206Y19533I-360J1868D01*
G03X158794Y19735I212J339D01*
G02X162296Y19903I1786J-653D01*
G03X162916Y19772I360J173D01*
G02X166051Y18443I1237J-1445D01*
G03X166596Y18094I399J24D01*
G02X168036Y14574I693J-1771D01*
G03X167837Y14024I157J-368D01*
G02X164890Y11727I-1693J-866D01*
G03X164264Y11596I-264J-301D01*
G02X163341Y10677I-1722J807D01*
G03X163140Y10162I169J-363D01*
G02X161414Y7538I-1760J-722D01*
G03X161091Y6913I7J-400D01*
G02X159024Y4003I-1570J-1074D01*
G03X158519Y3620I-105J-386D01*
G02X155116Y2464I-1902J12D01*
G03X154470Y2443I-315J-246D01*
G02X151682Y2053I-1571J1072D01*
G03X151097Y1972I-256J-308D01*
G37*
G36*
G01X49565Y14469D02*
X49577Y14372D01*
G02X47911Y16038I-1889J-223D01*
G01X48008Y16026D01*
X49144Y17163D01*
Y27592D01*
G03X48408Y27808I-400J0D01*
G02Y32192I-3408J2192D01*
G03X49144Y32408I336J216D01*
G01Y37592D01*
G03X48408Y37808I-400J0D01*
G02Y42192I-3408J2192D01*
G03X49144Y42408I336J216D01*
G01Y45722D01*
X47310Y47557D01*
X47213Y47545D01*
G02X48879Y49211I-223J1889D01*
G01X48867Y49114D01*
X51348Y46634D01*
Y43040D01*
G03X52040Y42767I400J0D01*
G02Y37233I2960J-2767D01*
G03X51348Y36960I-292J-273D01*
G01Y33040D01*
G03X52040Y32767I400J0D01*
G02Y27233I2960J-2767D01*
G03X51348Y26960I-292J-273D01*
G01Y16251D01*
X49565Y14469D01*
G37*
G36*
G01X110732Y88272D02*
G02X109034Y86269I201J-1891D01*
G03X108593Y86644I-399J-23D01*
G02X108615Y90424I-201J1891D01*
G01X108712Y90412D01*
X114054Y95754D01*
Y108296D01*
G03X113388Y108595I-400J0D01*
G02X113689Y111104I-1261J1424D01*
G01X113749Y111018D01*
X114054D01*
Y111556D01*
X108464Y117146D01*
X106268D01*
G03X105943Y116512I0J-400D01*
G02X104259Y113503I-1543J-1112D01*
G03X103882Y112906I-30J-399D01*
G02X103403Y110469I-1653J-941D01*
G03X103497Y109785I247J-314D01*
G02X104039Y109443I-730J-1757D01*
G03X104574Y109444I267J298D01*
G02X107253Y106748I1275J-1412D01*
G03X107258Y106203I295J-270D01*
G02X104475Y106177I-1379J-1310D01*
G03X104470Y106722I-295J270D01*
G02X104457Y106736I1387J1301D01*
G03X104164I-147J-136D01*
G02X101594Y109524I-1396J1292D01*
G03X101500Y110208I-247J314D01*
G02X102370Y113862I729J1757D01*
G03X102747Y114459I30J399D01*
G02X102499Y115342I1653J941D01*
G03X102129Y115728I-400J-13D01*
G02X100385Y117848I145J1897D01*
G01X100397Y117945D01*
X97424Y120918D01*
Y126092D01*
X95753Y127762D01*
X93196D01*
G03X92827Y127207I0J-400D01*
G02X90820Y124585I-1753J-737D01*
G01X90722Y124598D01*
X82858Y116734D01*
X72638D01*
X67406Y121966D01*
X65306D01*
G03X65070Y121243I0J-400D01*
G02X62830I-1120J-1537D01*
G03X62594Y121966I-236J323D01*
G01X49908D01*
G03X49531Y121433I0J-400D01*
G02X47326Y122653I-1792J-637D01*
G03X47521Y123326I-87J390D01*
G01X44942Y125906D01*
X36933D01*
G03X36565Y125347I-1J-400D01*
G02X33075I-1745J-756D01*
G03X32707Y125906I-367J159D01*
G01X22213D01*
G02Y128108I-1551J1101D01*
G01X45854D01*
X49793Y124170D01*
X51098D01*
G03X51474Y124705I0J400D01*
G02X55052I1789J646D01*
G03X55428Y124170I376J-135D01*
G01X66930D01*
G03X67213Y124852I0J400D01*
G01X60415Y131650D01*
X53668D01*
G03X53284Y131138I0J-400D01*
G02X49636I-1824J-538D01*
G03X49252Y131650I-384J112D01*
G01X38656D01*
G02X39589Y134056I-2769J2458D01*
G01Y133854D01*
X45867D01*
G03X46251Y134366I0J400D01*
G02X49901I1825J534D01*
G03X50285Y133854I384J-112D01*
G01X61327D01*
X74391Y120790D01*
X80833D01*
X80953Y120909D01*
G03X80707Y121590I-283J283D01*
G02X79001Y123225I178J1894D01*
G03X78798Y123398I-198J-27D01*
G02X77229Y124160I-46J1901D01*
G03X76528Y124043I-320J-239D01*
G02X76240Y125765I-1811J582D01*
G03X76941Y125882I320J239D01*
G02X80636Y125558I1811J-583D01*
G03X80839Y125385I198J27D01*
G02X82779Y123662I46J-1901D01*
G03X83460Y123416I398J37D01*
G01X90009Y129966D01*
X96665D01*
X99626Y127004D01*
Y121830D01*
X101954Y119502D01*
X102051Y119514D01*
G02X102607Y119498I224J-1889D01*
G03X103067Y119982I70J394D01*
G02X103692Y121869I1852J434D01*
G03X103709Y122465I-258J306D01*
G02X106242Y122394I1306J1383D01*
G03X106225Y121798I258J-306D01*
G02X106740Y119864I-1306J-1383D01*
G03X107122Y119348I383J-116D01*
G01X109376D01*
X116256Y112468D01*
Y94842D01*
X110269Y88855D01*
X110281Y88758D01*
G02X110291Y88647I-1889J-226D01*
G03X110732Y88272I399J23D01*
G37*
G36*
G01X19799Y94383D02*
G02X16669Y94003I-1693J867D01*
G03X16066Y94004I-302J-262D01*
G02X16070Y96502I-1433J1251D01*
G03X16673Y96501I302J262D01*
G02X16815Y96647I1433J-1251D01*
G03X16760Y96976I-136J146D01*
G02X16765Y100456I771J1739D01*
G03X16788Y101178I-160J366D01*
G02X18426Y101127I872J1690D01*
G03X18403Y100405I160J-366D01*
G02X18982Y97485I-872J-1690D01*
G03X19082Y96883I305J-259D01*
G02X19797Y96121I-976J-1633D01*
G03X20508Y96122I355J184D01*
G02X20510Y94384I1693J-867D01*
G03X19799Y94383I-355J-184D01*
G37*
G36*
G01X91406Y98293D02*
G02X89822Y96856I265J-1883D01*
G03X89377Y97346I-389J94D01*
G02X88587Y97401I-266J1883D01*
G03X88087Y96926I-110J-384D01*
G02X86759Y98324I-1853J-430D01*
G03X87259Y98799I110J384D01*
G02X87274Y99719I1853J430D01*
G03X86769Y100204I-386J103D01*
G02X88042Y101530I-565J1816D01*
G03X88547Y101045I386J-103D01*
G02X89761Y101017I565J-1816D01*
G03X90276Y101522I137J376D01*
G02X91428Y100346I1801J612D01*
G03X90913Y99841I-137J-376D01*
G02X90961Y98783I-1801J-612D01*
G03X91406Y98293I389J-94D01*
G37*
G36*
G01X76511Y97067D02*
G02X75208Y98269I-1793J-636D01*
G03X75687Y98789I102J386D01*
G02X75601Y99721I1793J635D01*
G03X75106Y100170I-395J62D01*
G02X76510Y101716I-475J1842D01*
G03X77005Y101267I395J-62D01*
G02X77731Y101310I473J-1842D01*
G03X78181Y101760I53J397D01*
G02X79815Y100127I1885J252D01*
G03X79365Y99677I-53J-397D01*
G02X79296Y98858I-1885J-254D01*
G03X79735Y98343I382J-119D01*
G02X78192Y97028I272J-1882D01*
G03X77753Y97543I-382J119D01*
G02X76990Y97587I-274J1882D01*
G03X76511Y97067I-102J-386D01*
G37*
G36*
G01X26525Y106933D02*
G02X24579Y106098I-350J-1869D01*
G03X24317Y106709I-336J218D01*
G02X22883Y107918I350J1869D01*
G03X22141Y107938I-375J-139D01*
G02X15200Y108335I-3398J1469D01*
G03X14574Y108537I-383J-116D01*
G02X14900Y111243I-1154J1512D01*
G03X15556Y111291I311J251D01*
G02X22414Y109887I3187J-1884D01*
G03X23133Y109702I397J52D01*
G02X23826Y110284I1535J-1124D01*
G03X23871Y110975I-177J359D01*
G02X25768Y110851I1056J1582D01*
G03X25723Y110160I177J-359D01*
G02X26263Y107544I-1056J-1582D01*
G03X26525Y106933I336J-218D01*
G37*
G36*
G01X77006Y108669D02*
G02X75332Y110104I-1846J-459D01*
G03X75756Y110599I36J398D01*
G02X75722Y111343I1846J457D01*
G03X75312Y111803I-396J60D01*
G02X77127Y113419I-65J1901D01*
G03X77537Y112959I396J-60D01*
G02X78067Y112902I64J-1901D01*
G03X78552Y113392I98J388D01*
G02X79926Y112033I1839J485D01*
G03X79441Y111543I-98J-388D01*
G02X79454Y110626I-1839J-485D01*
G03X79873Y110136I389J-91D01*
G02X78163Y108671I142J-1897D01*
G03X77744Y109161I-389J91D01*
G02X77430Y109164I-139J1897D01*
G03X77006Y108669I-36J-398D01*
G37*
G36*
G01X92096Y108260D02*
G02X92087Y110232I-1631J979D01*
G03X92771Y110236I341J209D01*
G02X92780Y108264I1631J-979D01*
G03X92096Y108260I-341J-209D01*
G37*
G36*
G01X55144Y117240D02*
G02X53261Y117215I-920J-1665D01*
G03X53252Y117910I-202J345D01*
G02X55135Y117935I920J1665D01*
G03X55144Y117240I202J-345D01*
G37*
G36*
G01X171480Y118337D02*
G02X169652Y118118I-716J-1762D01*
G03X169569Y118813I-234J325D01*
G02X171397Y119032I716J1762D01*
G03X171480Y118337I234J-325D01*
G37*
G36*
G01X53638Y143553D02*
G02X50097Y143567I-1773J-687D01*
G03X49773Y144112I-372J148D01*
G02X48348Y145058I227J1888D01*
G03X47652I-348J-198D01*
G02X45058Y147652I-1652J942D01*
G03Y148348I-198J348D01*
G02Y151652I942J1652D01*
G03Y152348I-198J348D01*
G02X44833Y152498I940J1653D01*
G03X44199Y152275I-245J-316D01*
G02X43916Y155370I-4719J1129D01*
G03X44580Y155266I366J162D01*
G02X45058Y155652I1418J-1267D01*
G03Y156348I-198J348D01*
G02X47652Y158942I942J1652D01*
G03X48348I348J198D01*
G02X51652I1652J-942D01*
G03X52348I348J198D01*
G02X55652I1652J-942D01*
G03X56348I348J198D01*
G02X59652I1652J-942D01*
G03X60348I348J198D01*
G02X62942Y156348I1652J-942D01*
G03Y155652I198J-348D01*
G02X63652Y154942I-942J-1652D01*
G03X64348I348J198D01*
G02X66942Y152348I1652J-942D01*
G03Y151652I198J-348D01*
G02X67454Y151226I-942J-1652D01*
G03X68080Y151243I306J257D01*
G02X71043Y148861I1521J-1142D01*
G03Y148339I303J-261D01*
G02X68433Y145598I-1443J-1239D01*
G03X67807Y145407I-246J-316D01*
G02X67281Y144594I-1807J593D01*
G02X64519Y144806I-1481J-1194D01*
G02X64348Y145058I1483J1191D01*
G03X63652I-348J-198D01*
G02X60348I-1652J942D01*
G03X59652I-348J-198D01*
G02X56348I-1652J942D01*
G03X55652I-348J-198D01*
G02X54009Y144098I-1652J942D01*
G03X53638Y143553I2J-400D01*
G37*
G36*
G01X79652Y167058D02*
G02X77058Y169652I-1652J942D01*
G03Y170348I-198J348D01*
G02Y173652I942J1652D01*
G03Y174348I-198J348D01*
G02X79652Y176942I942J1652D01*
G03X80348I348J198D01*
G02X82942Y174348I1652J-942D01*
G03Y173652I198J-348D01*
G02Y170348I-942J-1652D01*
G03Y169652I198J-348D01*
G02X80348Y167058I-942J-1652D01*
G03X79652I-348J-198D01*
G37*
G36*
G01X99652D02*
G02X96302Y167143I-1652J942D01*
G03X95629Y167207I-357J-180D01*
G02X92223Y168299I-1505J1164D01*
G03X91625Y168631I-399J-15D01*
G02X89282Y171573I-947J1649D01*
G03X89276Y171851I-147J136D01*
G02X89249Y171879I1355J1334D01*
G03X88575Y171706I-288J-278D01*
G02X87636Y170528I-1835J500D01*
G03X87643Y169819I188J-353D01*
G02X85886Y169801I-861J-1696D01*
G03X85879Y170510I-188J353D01*
G02X85668Y173777I861J1696D01*
G03X85689Y174422I-226J330D01*
G02X88364Y177087I1175J1496D01*
G03X89007Y177103I316J246D01*
G02X91988Y177272I1557J-1092D01*
G03X92585Y177270I299J266D01*
G02X95652Y176942I1415J-1270D01*
G03X96348I348J198D01*
G02X99652I1652J-942D01*
G03X100348I348J198D01*
G02X103652I1652J-942D01*
G03X104348I348J198D01*
G02X107652I1652J-942D01*
G03X108348I348J198D01*
G02X111652I1652J-942D01*
G03X112348I348J198D01*
G02X115652I1652J-942D01*
G03X116348I348J198D01*
G02X119652I1652J-942D01*
G03X120348I348J198D01*
G02X122942Y174348I1652J-942D01*
G03Y173652I198J-348D01*
G02Y170348I-942J-1652D01*
G03Y169652I198J-348D01*
G02X120348Y167058I-942J-1652D01*
G03X119652I-348J-198D01*
G02X116348I-1652J942D01*
G03X115652I-348J-198D01*
G02X112348I-1652J942D01*
G03X111652I-348J-198D01*
G02X108348I-1652J942D01*
G03X107652I-348J-198D01*
G02X104348I-1652J942D01*
G03X103652I-348J-198D01*
G02X100348I-1652J942D01*
G03X99652I-348J-198D01*
G37*
G54D23*
X-1942Y72790D03*
Y62790D03*
X8058D03*
Y72790D03*
X40000Y-5000D03*
Y5000D03*
X70000Y-5000D03*
X60000D03*
X50000D03*
X70000Y5000D03*
X60000D03*
X50000D03*
X90000Y-5000D03*
X80000D03*
X90000Y5000D03*
X80000D03*
G54D24*
X35000Y30000D03*
Y40000D03*
X65000Y30000D03*
Y40000D03*
X75000Y30000D03*
X95000Y40000D03*
X105000Y30000D03*
X115000Y40000D03*
X105000D03*
G54D25*
X37683Y72442D03*
Y62442D03*
X18743Y119407D03*
X25887Y134108D03*
X50859Y72786D03*
Y62786D03*
X99423Y69533D03*
X130217Y-60807D03*
X150217Y-50807D03*
X160217Y-60807D03*
X170774Y36079D03*
Y46079D03*
Y56079D03*
X160774Y36079D03*
Y46079D03*
Y56079D03*
X170774Y66079D03*
X160774D03*
G54D22*
X-267Y24065D03*
X2461Y32049D03*
X6867Y15547D03*
X-2536Y36530D03*
X-3638Y80241D03*
X14984Y64360D03*
X9830Y133323D03*
X12167Y119371D03*
X8966Y123480D03*
X-4357Y123091D03*
X4469Y123307D03*
X10958Y146793D03*
X29403Y-57549D03*
X35890Y-54317D03*
X30481Y-49502D03*
X31051Y4947D03*
Y667D03*
X16972Y15768D03*
X30082Y11471D03*
X40234Y23436D03*
X20430Y48267D03*
X19907Y79892D03*
X22232Y103030D03*
X31174Y95007D03*
X27138Y100533D03*
X36833Y105684D03*
X33566Y112340D03*
X54698Y-65512D03*
X50774Y-63070D03*
X51542Y-25708D03*
X42431Y-32784D03*
X60167Y-38720D03*
X51481Y-38626D03*
X55824Y-34870D03*
X56070Y-42969D03*
X62842Y63199D03*
X61766Y72786D03*
X65170Y106035D03*
X57183Y103789D03*
X62999Y98185D03*
X54056Y91333D03*
X53095Y102028D03*
X51300Y97000D03*
X61075Y126811D03*
X64110Y113933D03*
X59000Y138100D03*
X90600Y-65100D03*
X80200Y23200D03*
X74663Y21052D03*
X87255Y49997D03*
X72900Y77000D03*
X92357Y113970D03*
X87728Y115902D03*
X95500Y15000D03*
X110000Y15455D03*
X100269Y88907D03*
X102012Y98185D03*
X110655Y100219D03*
X114416Y89694D03*
X112700Y128958D03*
X108848Y126214D03*
X146800Y29900D03*
X131500Y38300D03*
X142600Y42700D03*
Y50800D03*
X144485Y62761D03*
X133722Y94517D03*
X127292Y92279D03*
X132567Y113339D03*
X142000Y136000D03*
X162400Y-23300D03*
X158000Y-33100D03*
X168500Y-23400D03*
X153600Y-34900D03*
X171000Y-34600D03*
X171500Y-27300D03*
X152400Y-29000D03*
X153100Y-12300D03*
X165200Y-11100D03*
X160600Y-5700D03*
X171400Y-13900D03*
X147801Y17891D03*
X171487Y26617D03*
X158845Y24002D03*
X151538Y38083D03*
X166000Y134113D03*
X161355Y124215D03*
X152352Y123741D03*
X161070Y135642D03*
X151307Y142347D03*
G54D26*
X29480Y163405D03*
X140520D03*
G54D21*
X11596Y-52310D03*
Y-34984D03*
G54D27*
X152841Y11425D03*
%LPD*%
G75*
G54D10*
X15921Y55821D03*
X14426Y45631D03*
X-3902Y83797D03*
X29527Y-34614D03*
X35961Y-37918D03*
X24684Y85612D03*
X20662Y127007D03*
X57378Y-51901D03*
X66665Y-24113D03*
X47688Y14149D03*
X46990Y49434D03*
X53950Y81024D03*
X48336Y78631D03*
X42581Y94075D03*
X64855Y93627D03*
X61446Y90283D03*
X74439Y-54026D03*
X82831Y45500D03*
X86528Y79519D03*
X88745Y82441D03*
X90465Y84780D03*
X91752Y135472D03*
X91074Y126470D03*
X105000Y-13800D03*
X113700Y24200D03*
X99577Y84074D03*
X98145Y80881D03*
X108821Y105387D03*
X110765Y96219D03*
X108392Y88535D03*
X115996Y126059D03*
X119916Y113926D03*
X102274Y117625D03*
X146259Y-5451D03*
X133268Y46900D03*
X125120Y75749D03*
X143575Y104890D03*
X150978Y27778D03*
X173928Y50845D03*
X173973Y41065D03*
G54D20*
G01X-1339Y97123D02*
Y93229D01*
X563Y91327D01*
X40150D01*
X43799Y87678D01*
X68625D01*
X70577Y89630D01*
X85615D01*
X90465Y84780D01*
G01X-1339Y102123D02*
X-5148D01*
X-7142Y100129D01*
Y94629D01*
X-2214Y89701D01*
X27072D01*
X35697Y81076D01*
X40079D01*
X44886Y85883D01*
X70759D01*
X72880Y88004D01*
X83182D01*
X88745Y82441D01*
G01X86528Y79519D02*
X86349Y79698D01*
X77737D01*
X73459Y83976D01*
X46231D01*
X41493Y79238D01*
X34707D01*
X28333Y85612D01*
X24684D01*
G01X91074Y126470D02*
X91036D01*
X82402Y117836D01*
X73094D01*
X67862Y123068D01*
X49337D01*
X45398Y127007D01*
X20662D01*
G01X35887Y134108D02*
X37243Y132752D01*
X60871D01*
X73935Y119688D01*
X81289D01*
X90465Y128864D01*
X96209D01*
X98525Y126548D01*
Y121374D01*
X102274Y117625D01*
G01X46990Y49434D02*
X50246Y46178D01*
Y16707D01*
X47688Y14149D01*
G01X82831Y45500D02*
X80000Y42669D01*
Y35000D01*
X85000Y30000D01*
G01X133268Y46900D02*
Y58429D01*
X122649Y69048D01*
Y127667D01*
X114844Y135472D01*
X91752D01*
G01X130217Y-50807D02*
X124949Y-56075D01*
X116635D01*
X115121Y-54561D01*
Y7521D01*
X120818Y13218D01*
Y43507D01*
X114376Y49949D01*
Y74220D01*
X107715Y80881D01*
X98145D01*
G01X105000Y-13800D02*
Y0D01*
X100000Y5000D01*
G01X113700Y24200D02*
X100800D01*
X95000Y30000D01*
G01X120217Y-50807D02*
X125352Y-45672D01*
Y9648D01*
X122577Y12423D01*
Y45801D01*
X116709Y51669D01*
Y75845D01*
X109464Y83090D01*
X100561D01*
X99577Y84074D01*
G01X108392Y88535D02*
X115155Y95298D01*
Y112012D01*
X108920Y118247D01*
X102896D01*
X102274Y117625D01*
G54D11*
X-2539Y102123D03*
Y97123D03*
X4861D03*
G54D12*
X37683Y62442D03*
X35887Y134108D03*
X120217Y-50807D03*
X130217D03*
X140217Y-60807D03*
Y-50807D03*
X134387Y69879D03*
X170774Y46079D03*
X155575Y99575D03*
G54D13*
X95000Y30000D03*
X85000D03*
G54D14*
X100000Y5000D03*
G54D15*
G01X-108925Y-231425D02*
X291075D01*
G01X-108925Y-201425D02*
Y-181425D01*
X291075D01*
G01X-58925Y-251425D02*
Y-231425D01*
G01X66575Y-251425D02*
Y-231425D01*
G01X66075Y-181425D02*
Y-151425D01*
G01X116075Y-251425D02*
Y-231425D01*
G54D16*
G01X291075Y-151425D02*
Y-251425D01*
X-108925D01*
G01D02*
Y-151425D01*
X291075D01*
G01X3661Y94121D02*
Y97123D01*
G01D02*
X9063Y94121D01*
G01X140217Y-60807D02*
X134354Y-66670D01*
X106068D01*
X88269Y-48871D01*
X52224D01*
X37967Y-34614D01*
X29527D01*
G01X37683Y62442D02*
X40642Y59483D01*
G01X34724Y65401D02*
X37683Y62442D01*
G01D02*
X40642Y65401D01*
G01X34724Y59483D02*
X37683Y62442D01*
G01X140217Y-50807D02*
X145300Y-45724D01*
Y-9600D01*
X138342Y-2642D01*
Y57468D01*
X125120Y70690D01*
Y75749D01*
G01X146259Y-5451D02*
X141572Y-764D01*
Y34277D01*
X150083Y42788D01*
Y94083D01*
X155575Y99575D01*
G01X170774Y46079D02*
X173733Y43120D01*
G01X167815Y49038D02*
X170774Y46079D01*
G01D02*
X173733Y49038D01*
G01X167815Y43120D02*
X170774Y46079D01*
G54D17*
G01X143575Y104890D02*
Y95216D01*
X134387Y86028D01*
Y69879D01*
G54D18*
G01X185100Y-15000D02*
Y-75100D01*
X-15075D01*
X-15146Y-75029D01*
Y184956D01*
X-15142Y184960D01*
X185094D01*
X185100Y184954D01*
Y-15000D01*
G54D19*
G01X-105563Y-245300D02*
X-105015Y-244565D01*
X-104545Y-244145D01*
X-103918Y-243935D01*
X-103370Y-244145D01*
X-102978Y-244565D01*
X-102665Y-245195D01*
X-102587Y-245930D01*
X-102665Y-246560D01*
X-102978Y-247190D01*
X-103448Y-247715D01*
X-103997Y-247925D01*
X-104623Y-247715D01*
X-105172Y-247085D01*
X-105485Y-246140D01*
X-105563Y-245090D01*
X-105407Y-243725D01*
X-105172Y-242990D01*
X-104780Y-242255D01*
X-104232Y-241730D01*
X-103683Y-241625D01*
X-103135Y-241835D01*
X-102743Y-242360D01*
G01X-91475Y-247925D02*
X-92102Y-247820D01*
X-92650Y-247400D01*
X-93120Y-246770D01*
X-93433Y-246035D01*
X-93590Y-245195D01*
Y-244355D01*
X-93433Y-243515D01*
X-93120Y-242780D01*
X-92650Y-242150D01*
X-92102Y-241730D01*
X-91475Y-241625D01*
X-90848Y-241730D01*
X-90300Y-242150D01*
X-89830Y-242780D01*
X-89517Y-243515D01*
X-89360Y-244355D01*
Y-245195D01*
X-89517Y-246035D01*
X-89830Y-246770D01*
X-90300Y-247400D01*
X-90848Y-247820D01*
X-91475Y-247925D01*
G01X-86663D02*
Y-241625D01*
X-83687D01*
G01X-84783Y-244670D02*
X-86663D01*
G01X-73907Y-247190D02*
X-73358Y-247715D01*
X-72732Y-247925D01*
X-72105Y-247715D01*
X-71557Y-247085D01*
X-71165Y-246140D01*
X-71008Y-245195D01*
Y-244040D01*
X-71165Y-243095D01*
X-71557Y-242255D01*
X-72027Y-241835D01*
X-72575Y-241625D01*
X-73202Y-241835D01*
X-73672Y-242255D01*
X-73985Y-242885D01*
X-74142Y-243725D01*
X-73985Y-244460D01*
X-73593Y-245195D01*
X-73123Y-245615D01*
X-72575Y-245720D01*
X-71948Y-245510D01*
X-71478Y-244985D01*
X-71008Y-244040D01*
G01X-105400Y-238892D02*
X-104933Y-239225D01*
X-104408Y-239425D01*
X-103942D01*
X-103475Y-239225D01*
X-103125Y-238892D01*
X-102950Y-238425D01*
X-103067Y-237958D01*
X-103358Y-237558D01*
X-103883Y-237292D01*
X-104583Y-237158D01*
X-104992Y-236892D01*
X-105167Y-236425D01*
X-105050Y-235958D01*
X-104758Y-235625D01*
X-104350Y-235425D01*
X-103942D01*
X-103533Y-235558D01*
X-103183Y-235892D01*
G01X-100600Y-239425D02*
Y-235425D01*
G01X-98150D02*
Y-239425D01*
G01Y-237425D02*
X-100600D01*
G01X-93408Y-239425D02*
X-95742D01*
Y-235425D01*
X-93408D01*
G01X-94342Y-237358D02*
X-95742D01*
G01X-88608Y-239425D02*
X-90942D01*
Y-235425D01*
X-88608D01*
G01X-89542Y-237358D02*
X-90942D01*
G01X-84975Y-235425D02*
Y-239425D01*
G01X-86317Y-235425D02*
X-83633D01*
G01X-97283Y-228425D02*
Y-224425D01*
X-95067D01*
G01X-95883Y-226358D02*
X-97283D01*
G01X-92542Y-228425D02*
Y-224425D01*
X-91083D01*
X-90617Y-224625D01*
X-90325Y-224892D01*
X-90208Y-225425D01*
X-90325Y-225958D01*
X-90675Y-226292D01*
X-91083Y-226492D01*
X-92542D01*
G01X-91083D02*
X-90208Y-228425D01*
G01X-85408D02*
X-87742D01*
Y-224425D01*
X-85408D01*
G01X-86342Y-226358D02*
X-87742D01*
G01X-80608Y-228425D02*
X-82942D01*
Y-224425D01*
X-80608D01*
G01X-81542Y-226358D02*
X-82942D01*
G01X-78200Y-227892D02*
X-77733Y-228225D01*
X-77208Y-228425D01*
X-76742D01*
X-76275Y-228225D01*
X-75925Y-227892D01*
X-75750Y-227425D01*
X-75867Y-226958D01*
X-76158Y-226558D01*
X-76683Y-226292D01*
X-77383Y-226158D01*
X-77792Y-225892D01*
X-77967Y-225425D01*
X-77850Y-224958D01*
X-77558Y-224625D01*
X-77150Y-224425D01*
X-76742D01*
X-76333Y-224558D01*
X-75983Y-224892D01*
G01X-70892Y-224758D02*
X-71242Y-224558D01*
X-71650Y-224425D01*
X-72117D01*
X-72642Y-224625D01*
X-73050Y-224958D01*
X-73342Y-225358D01*
X-73575Y-226025D01*
X-73633Y-226625D01*
X-73517Y-227225D01*
X-73342Y-227625D01*
X-72992Y-228025D01*
X-72583Y-228292D01*
X-72175Y-228425D01*
X-71767D01*
X-71358Y-228292D01*
X-71008Y-228092D01*
X-70717Y-227825D01*
G01X-68833Y-228425D02*
X-67375Y-224425D01*
X-65917Y-228425D01*
G01X-66442Y-227025D02*
X-68308D01*
G01X-63742Y-224425D02*
Y-228425D01*
X-61408D01*
G01X-56608D02*
X-58942D01*
Y-224425D01*
X-56608D01*
G01X-57542Y-226358D02*
X-58942D01*
G01X-52975Y-228558D02*
X-53092Y-228492D01*
Y-228358D01*
X-52975Y-228292D01*
X-52858Y-228358D01*
Y-228492D01*
X-52975Y-228558D01*
G01X-97175Y-220425D02*
X-97642Y-220358D01*
X-98050Y-220092D01*
X-98400Y-219692D01*
X-98633Y-219225D01*
X-98750Y-218692D01*
Y-218158D01*
X-98633Y-217625D01*
X-98400Y-217158D01*
X-98050Y-216758D01*
X-97642Y-216492D01*
X-97175Y-216425D01*
X-96708Y-216492D01*
X-96300Y-216758D01*
X-95950Y-217158D01*
X-95717Y-217625D01*
X-95600Y-218158D01*
Y-218692D01*
X-95717Y-219225D01*
X-95950Y-219692D01*
X-96300Y-220092D01*
X-96708Y-220358D01*
X-97175Y-220425D01*
G01X-93542D02*
Y-216425D01*
X-92083D01*
X-91617Y-216625D01*
X-91325Y-216892D01*
X-91208Y-217425D01*
X-91325Y-217958D01*
X-91675Y-218292D01*
X-92083Y-218492D01*
X-93542D01*
G01X-92083D02*
X-91208Y-220425D01*
G01X-83475Y-216425D02*
X-82075D01*
G01X-82775D02*
Y-220425D01*
G01X-83475D02*
X-82075D01*
G01X-79317D02*
Y-216425D01*
X-76633Y-220425D01*
Y-216425D01*
G01X-69542Y-220425D02*
Y-216425D01*
X-68142D01*
X-67675Y-216625D01*
X-67325Y-217092D01*
X-67208Y-217625D01*
X-67325Y-218158D01*
X-67617Y-218558D01*
X-68142Y-218758D01*
X-69542D01*
G01X-65033Y-220425D02*
X-63575Y-216425D01*
X-62117Y-220425D01*
G01X-62642Y-219025D02*
X-64508D01*
G01X-59942Y-220425D02*
Y-216425D01*
X-58483D01*
X-58017Y-216625D01*
X-57725Y-216892D01*
X-57608Y-217425D01*
X-57725Y-217958D01*
X-58075Y-218292D01*
X-58483Y-218492D01*
X-59942D01*
G01X-58483D02*
X-57608Y-220425D01*
G01X-53975Y-216425D02*
Y-220425D01*
G01X-55317Y-216425D02*
X-52633D01*
G01X-46125D02*
X-45308Y-220425D01*
X-44375Y-216425D01*
X-43442Y-220425D01*
X-42625Y-216425D01*
G01X-40275D02*
X-38875D01*
G01X-39575D02*
Y-220425D01*
G01X-40275D02*
X-38875D01*
G01X-34775Y-216425D02*
Y-220425D01*
G01X-36117Y-216425D02*
X-33433D01*
G01X-31200Y-220425D02*
Y-216425D01*
G01X-28750D02*
Y-220425D01*
G01Y-218425D02*
X-31200D01*
G01X-25175Y-220425D02*
X-25642Y-220358D01*
X-26050Y-220092D01*
X-26400Y-219692D01*
X-26633Y-219225D01*
X-26750Y-218692D01*
Y-218158D01*
X-26633Y-217625D01*
X-26400Y-217158D01*
X-26050Y-216758D01*
X-25642Y-216492D01*
X-25175Y-216425D01*
X-24708Y-216492D01*
X-24300Y-216758D01*
X-23950Y-217158D01*
X-23717Y-217625D01*
X-23600Y-218158D01*
Y-218692D01*
X-23717Y-219225D01*
X-23950Y-219692D01*
X-24300Y-220092D01*
X-24708Y-220358D01*
X-25175Y-220425D01*
G01X-21658Y-216425D02*
Y-219292D01*
X-21425Y-219892D01*
X-20958Y-220292D01*
X-20375Y-220425D01*
X-19792Y-220292D01*
X-19325Y-219892D01*
X-19092Y-219292D01*
Y-216425D01*
G01X-15575D02*
Y-220425D01*
G01X-16917Y-216425D02*
X-14233D01*
G01X-5975D02*
Y-220425D01*
G01X-7317Y-216425D02*
X-4633D01*
G01X-2400Y-220425D02*
Y-216425D01*
G01X50D02*
Y-220425D01*
G01Y-218425D02*
X-2400D01*
G01X4792Y-220425D02*
X2458D01*
Y-216425D01*
X4792D01*
G01X3858Y-218358D02*
X2458D01*
G01X14508Y-216758D02*
X14158Y-216558D01*
X13750Y-216425D01*
X13283D01*
X12758Y-216625D01*
X12350Y-216958D01*
X12058Y-217358D01*
X11825Y-218025D01*
X11767Y-218625D01*
X11883Y-219225D01*
X12058Y-219625D01*
X12408Y-220025D01*
X12817Y-220292D01*
X13225Y-220425D01*
X13633D01*
X14042Y-220292D01*
X14392Y-220092D01*
X14683Y-219825D01*
G01X18025Y-220425D02*
X17558Y-220358D01*
X17150Y-220092D01*
X16800Y-219692D01*
X16567Y-219225D01*
X16450Y-218692D01*
Y-218158D01*
X16567Y-217625D01*
X16800Y-217158D01*
X17150Y-216758D01*
X17558Y-216492D01*
X18025Y-216425D01*
X18492Y-216492D01*
X18900Y-216758D01*
X19250Y-217158D01*
X19483Y-217625D01*
X19600Y-218158D01*
Y-218692D01*
X19483Y-219225D01*
X19250Y-219692D01*
X18900Y-220092D01*
X18492Y-220358D01*
X18025Y-220425D01*
G01X21483D02*
Y-216425D01*
X24167Y-220425D01*
Y-216425D01*
G01X26400Y-219892D02*
X26867Y-220225D01*
X27392Y-220425D01*
X27858D01*
X28325Y-220225D01*
X28675Y-219892D01*
X28850Y-219425D01*
X28733Y-218958D01*
X28442Y-218558D01*
X27917Y-218292D01*
X27217Y-218158D01*
X26808Y-217892D01*
X26633Y-217425D01*
X26750Y-216958D01*
X27042Y-216625D01*
X27450Y-216425D01*
X27858D01*
X28267Y-216558D01*
X28617Y-216892D01*
G01X33592Y-220425D02*
X31258D01*
Y-216425D01*
X33592D01*
G01X32658Y-218358D02*
X31258D01*
G01X35883Y-220425D02*
Y-216425D01*
X38567Y-220425D01*
Y-216425D01*
G01X42025D02*
Y-220425D01*
G01X40683Y-216425D02*
X43367D01*
G01X51625Y-220425D02*
X51158Y-220358D01*
X50750Y-220092D01*
X50400Y-219692D01*
X50167Y-219225D01*
X50050Y-218692D01*
Y-218158D01*
X50167Y-217625D01*
X50400Y-217158D01*
X50750Y-216758D01*
X51158Y-216492D01*
X51625Y-216425D01*
X52092Y-216492D01*
X52500Y-216758D01*
X52850Y-217158D01*
X53083Y-217625D01*
X53200Y-218158D01*
Y-218692D01*
X53083Y-219225D01*
X52850Y-219692D01*
X52500Y-220092D01*
X52092Y-220358D01*
X51625Y-220425D01*
G01X55317D02*
Y-216425D01*
X57533D01*
G01X56717Y-218358D02*
X55317D01*
G01X-98342Y-212425D02*
Y-208425D01*
X-96942D01*
X-96475Y-208625D01*
X-96125Y-209092D01*
X-96008Y-209625D01*
X-96125Y-210158D01*
X-96417Y-210558D01*
X-96942Y-210758D01*
X-98342D01*
G01X-93542Y-212425D02*
Y-208425D01*
X-92083D01*
X-91617Y-208625D01*
X-91325Y-208892D01*
X-91208Y-209425D01*
X-91325Y-209958D01*
X-91675Y-210292D01*
X-92083Y-210492D01*
X-93542D01*
G01X-92083D02*
X-91208Y-212425D01*
G01X-87575D02*
X-88042Y-212358D01*
X-88450Y-212092D01*
X-88800Y-211692D01*
X-89033Y-211225D01*
X-89150Y-210692D01*
Y-210158D01*
X-89033Y-209625D01*
X-88800Y-209158D01*
X-88450Y-208758D01*
X-88042Y-208492D01*
X-87575Y-208425D01*
X-87108Y-208492D01*
X-86700Y-208758D01*
X-86350Y-209158D01*
X-86117Y-209625D01*
X-86000Y-210158D01*
Y-210692D01*
X-86117Y-211225D01*
X-86350Y-211692D01*
X-86700Y-212092D01*
X-87108Y-212358D01*
X-87575Y-212425D01*
G01X-81492Y-208758D02*
X-81842Y-208558D01*
X-82250Y-208425D01*
X-82717D01*
X-83242Y-208625D01*
X-83650Y-208958D01*
X-83942Y-209358D01*
X-84175Y-210025D01*
X-84233Y-210625D01*
X-84117Y-211225D01*
X-83942Y-211625D01*
X-83592Y-212025D01*
X-83183Y-212292D01*
X-82775Y-212425D01*
X-82367D01*
X-81958Y-212292D01*
X-81608Y-212092D01*
X-81317Y-211825D01*
G01X-79258Y-208425D02*
Y-211292D01*
X-79025Y-211892D01*
X-78558Y-212292D01*
X-77975Y-212425D01*
X-77392Y-212292D01*
X-76925Y-211892D01*
X-76692Y-211292D01*
Y-208425D01*
G01X-74342Y-212425D02*
Y-208425D01*
X-72883D01*
X-72417Y-208625D01*
X-72125Y-208892D01*
X-72008Y-209425D01*
X-72125Y-209958D01*
X-72475Y-210292D01*
X-72883Y-210492D01*
X-74342D01*
G01X-72883D02*
X-72008Y-212425D01*
G01X-67208D02*
X-69542D01*
Y-208425D01*
X-67208D01*
G01X-68142Y-210358D02*
X-69542D01*
G01X-65092Y-212425D02*
Y-208425D01*
X-63575Y-211758D01*
X-62058Y-208425D01*
Y-212425D01*
G01X-57608D02*
X-59942D01*
Y-208425D01*
X-57608D01*
G01X-58542Y-210358D02*
X-59942D01*
G01X-55317Y-212425D02*
Y-208425D01*
X-52633Y-212425D01*
Y-208425D01*
G01X-49175D02*
Y-212425D01*
G01X-50517Y-208425D02*
X-47833D01*
G01X-39575Y-212425D02*
X-40042Y-212358D01*
X-40450Y-212092D01*
X-40800Y-211692D01*
X-41033Y-211225D01*
X-41150Y-210692D01*
Y-210158D01*
X-41033Y-209625D01*
X-40800Y-209158D01*
X-40450Y-208758D01*
X-40042Y-208492D01*
X-39575Y-208425D01*
X-39108Y-208492D01*
X-38700Y-208758D01*
X-38350Y-209158D01*
X-38117Y-209625D01*
X-38000Y-210158D01*
Y-210692D01*
X-38117Y-211225D01*
X-38350Y-211692D01*
X-38700Y-212092D01*
X-39108Y-212358D01*
X-39575Y-212425D01*
G01X-35942D02*
Y-208425D01*
X-34483D01*
X-34017Y-208625D01*
X-33725Y-208892D01*
X-33608Y-209425D01*
X-33725Y-209958D01*
X-34075Y-210292D01*
X-34483Y-210492D01*
X-35942D01*
G01X-34483D02*
X-33608Y-212425D01*
G01X-26692D02*
Y-208425D01*
X-25175Y-211758D01*
X-23658Y-208425D01*
Y-212425D01*
G01X-21833D02*
X-20375Y-208425D01*
X-18917Y-212425D01*
G01X-19442Y-211025D02*
X-21308D01*
G01X-16917Y-212425D02*
Y-208425D01*
X-14233Y-212425D01*
Y-208425D01*
G01X-12058D02*
Y-211292D01*
X-11825Y-211892D01*
X-11358Y-212292D01*
X-10775Y-212425D01*
X-10192Y-212292D01*
X-9725Y-211892D01*
X-9492Y-211292D01*
Y-208425D01*
G01X-7083Y-212425D02*
Y-208425D01*
X-4867D01*
G01X-5683Y-210358D02*
X-7083D01*
G01X-2633Y-212425D02*
X-1175Y-208425D01*
X283Y-212425D01*
G01X-242Y-211025D02*
X-2108D01*
G01X4908Y-208758D02*
X4558Y-208558D01*
X4150Y-208425D01*
X3683D01*
X3158Y-208625D01*
X2750Y-208958D01*
X2458Y-209358D01*
X2225Y-210025D01*
X2167Y-210625D01*
X2283Y-211225D01*
X2458Y-211625D01*
X2808Y-212025D01*
X3217Y-212292D01*
X3625Y-212425D01*
X4033D01*
X4442Y-212292D01*
X4792Y-212092D01*
X5083Y-211825D01*
G01X8425Y-208425D02*
Y-212425D01*
G01X7083Y-208425D02*
X9767D01*
G01X11942D02*
Y-211292D01*
X12175Y-211892D01*
X12642Y-212292D01*
X13225Y-212425D01*
X13808Y-212292D01*
X14275Y-211892D01*
X14508Y-211292D01*
Y-208425D01*
G01X16858Y-212425D02*
Y-208425D01*
X18317D01*
X18783Y-208625D01*
X19075Y-208892D01*
X19192Y-209425D01*
X19075Y-209958D01*
X18725Y-210292D01*
X18317Y-210492D01*
X16858D01*
G01X18317D02*
X19192Y-212425D01*
G01X23992D02*
X21658D01*
Y-208425D01*
X23992D01*
G01X23058Y-210358D02*
X21658D01*
G01X31725Y-208425D02*
X33125D01*
G01X32425D02*
Y-212425D01*
G01X31725D02*
X33125D01*
G01X35883D02*
Y-208425D01*
X38567Y-212425D01*
Y-208425D01*
G01X45075D02*
X45892Y-212425D01*
X46825Y-208425D01*
X47758Y-212425D01*
X48575Y-208425D01*
G01X50400Y-212425D02*
Y-208425D01*
G01X52850D02*
Y-212425D01*
G01Y-210425D02*
X50400D01*
G01X56425Y-212425D02*
X55958Y-212358D01*
X55550Y-212092D01*
X55200Y-211692D01*
X54967Y-211225D01*
X54850Y-210692D01*
Y-210158D01*
X54967Y-209625D01*
X55200Y-209158D01*
X55550Y-208758D01*
X55958Y-208492D01*
X56425Y-208425D01*
X56892Y-208492D01*
X57300Y-208758D01*
X57650Y-209158D01*
X57883Y-209625D01*
X58000Y-210158D01*
Y-210692D01*
X57883Y-211225D01*
X57650Y-211692D01*
X57300Y-212092D01*
X56892Y-212358D01*
X56425Y-212425D01*
G01X60058Y-208425D02*
Y-212425D01*
X62392D01*
G01X67192D02*
X64858D01*
Y-208425D01*
X67192D01*
G01X66258Y-210358D02*
X64858D01*
G01X-98517Y-204425D02*
Y-200425D01*
X-95833Y-204425D01*
Y-200425D01*
G01X-92375Y-204425D02*
X-92842Y-204358D01*
X-93250Y-204092D01*
X-93600Y-203692D01*
X-93833Y-203225D01*
X-93950Y-202692D01*
Y-202158D01*
X-93833Y-201625D01*
X-93600Y-201158D01*
X-93250Y-200758D01*
X-92842Y-200492D01*
X-92375Y-200425D01*
X-91908Y-200492D01*
X-91500Y-200758D01*
X-91150Y-201158D01*
X-90917Y-201625D01*
X-90800Y-202158D01*
Y-202692D01*
X-90917Y-203225D01*
X-91150Y-203692D01*
X-91500Y-204092D01*
X-91908Y-204358D01*
X-92375Y-204425D01*
G01X-87575Y-200425D02*
Y-204425D01*
G01X-88917Y-200425D02*
X-86233D01*
G01X-77508Y-202292D02*
X-77275Y-202092D01*
X-77100Y-201758D01*
X-76983Y-201292D01*
X-77100Y-200892D01*
X-77333Y-200625D01*
X-77742Y-200425D01*
X-79317D01*
Y-204425D01*
X-77392D01*
X-76983Y-204158D01*
X-76750Y-203758D01*
X-76633Y-203292D01*
X-76750Y-202825D01*
X-77100Y-202425D01*
X-77508Y-202292D01*
X-79317D01*
G01X-72008Y-204425D02*
X-74342D01*
Y-200425D01*
X-72008D01*
G01X-72942Y-202358D02*
X-74342D01*
G01X-64858Y-200425D02*
Y-203292D01*
X-64625Y-203892D01*
X-64158Y-204292D01*
X-63575Y-204425D01*
X-62992Y-204292D01*
X-62525Y-203892D01*
X-62292Y-203292D01*
Y-200425D01*
G01X-60000Y-203892D02*
X-59533Y-204225D01*
X-59008Y-204425D01*
X-58542D01*
X-58075Y-204225D01*
X-57725Y-203892D01*
X-57550Y-203425D01*
X-57667Y-202958D01*
X-57958Y-202558D01*
X-58483Y-202292D01*
X-59183Y-202158D01*
X-59592Y-201892D01*
X-59767Y-201425D01*
X-59650Y-200958D01*
X-59358Y-200625D01*
X-58950Y-200425D01*
X-58542D01*
X-58133Y-200558D01*
X-57783Y-200892D01*
G01X-52808Y-204425D02*
X-55142D01*
Y-200425D01*
X-52808D01*
G01X-53742Y-202358D02*
X-55142D01*
G01X-50458Y-204425D02*
Y-200425D01*
X-49292D01*
X-48825Y-200625D01*
X-48475Y-200892D01*
X-48183Y-201292D01*
X-47950Y-201758D01*
X-47892Y-202425D01*
X-47950Y-203092D01*
X-48183Y-203558D01*
X-48475Y-203958D01*
X-48825Y-204225D01*
X-49292Y-204425D01*
X-50458D01*
G01X-40683D02*
Y-200425D01*
X-38467D01*
G01X-39283Y-202358D02*
X-40683D01*
G01X-34775Y-204425D02*
X-35242Y-204358D01*
X-35650Y-204092D01*
X-36000Y-203692D01*
X-36233Y-203225D01*
X-36350Y-202692D01*
Y-202158D01*
X-36233Y-201625D01*
X-36000Y-201158D01*
X-35650Y-200758D01*
X-35242Y-200492D01*
X-34775Y-200425D01*
X-34308Y-200492D01*
X-33900Y-200758D01*
X-33550Y-201158D01*
X-33317Y-201625D01*
X-33200Y-202158D01*
Y-202692D01*
X-33317Y-203225D01*
X-33550Y-203692D01*
X-33900Y-204092D01*
X-34308Y-204358D01*
X-34775Y-204425D01*
G01X-31142D02*
Y-200425D01*
X-29683D01*
X-29217Y-200625D01*
X-28925Y-200892D01*
X-28808Y-201425D01*
X-28925Y-201958D01*
X-29275Y-202292D01*
X-29683Y-202492D01*
X-31142D01*
G01X-29683D02*
X-28808Y-204425D01*
G01X-19208D02*
X-21542D01*
Y-200425D01*
X-19208D01*
G01X-20142Y-202358D02*
X-21542D01*
G01X-16917Y-204425D02*
Y-200425D01*
X-14233Y-204425D01*
Y-200425D01*
G01X-10425Y-202425D02*
X-9258D01*
Y-203625D01*
X-9608Y-204025D01*
X-10017Y-204292D01*
X-10600Y-204425D01*
X-11183Y-204292D01*
X-11592Y-204025D01*
X-11942Y-203625D01*
X-12175Y-203158D01*
X-12292Y-202625D01*
Y-202158D01*
X-12175Y-201758D01*
X-11942Y-201292D01*
X-11592Y-200892D01*
X-11242Y-200625D01*
X-10775Y-200425D01*
X-10367D01*
X-9900Y-200558D01*
X-9550Y-200825D01*
G01X-6675Y-200425D02*
X-5275D01*
G01X-5975D02*
Y-204425D01*
G01X-6675D02*
X-5275D01*
G01X-2517D02*
Y-200425D01*
X167Y-204425D01*
Y-200425D01*
G01X4792Y-204425D02*
X2458D01*
Y-200425D01*
X4792D01*
G01X3858Y-202358D02*
X2458D01*
G01X9592Y-204425D02*
X7258D01*
Y-200425D01*
X9592D01*
G01X8658Y-202358D02*
X7258D01*
G01X12058Y-204425D02*
Y-200425D01*
X13517D01*
X13983Y-200625D01*
X14275Y-200892D01*
X14392Y-201425D01*
X14275Y-201958D01*
X13925Y-202292D01*
X13517Y-202492D01*
X12058D01*
G01X13517D02*
X14392Y-204425D01*
G01X17325Y-200425D02*
X18725D01*
G01X18025D02*
Y-204425D01*
G01X17325D02*
X18725D01*
G01X21483D02*
Y-200425D01*
X24167Y-204425D01*
Y-200425D01*
G01X27975Y-202425D02*
X29142D01*
Y-203625D01*
X28792Y-204025D01*
X28383Y-204292D01*
X27800Y-204425D01*
X27217Y-204292D01*
X26808Y-204025D01*
X26458Y-203625D01*
X26225Y-203158D01*
X26108Y-202625D01*
Y-202158D01*
X26225Y-201758D01*
X26458Y-201292D01*
X26808Y-200892D01*
X27158Y-200625D01*
X27625Y-200425D01*
X28033D01*
X28500Y-200558D01*
X28850Y-200825D01*
G01X35942Y-204425D02*
Y-200425D01*
X37108D01*
X37575Y-200625D01*
X37925Y-200892D01*
X38217Y-201292D01*
X38450Y-201758D01*
X38508Y-202425D01*
X38450Y-203092D01*
X38217Y-203558D01*
X37925Y-203958D01*
X37575Y-204225D01*
X37108Y-204425D01*
X35942D01*
G01X43192D02*
X40858D01*
Y-200425D01*
X43192D01*
G01X42258Y-202358D02*
X40858D01*
G01X45600Y-203892D02*
X46067Y-204225D01*
X46592Y-204425D01*
X47058D01*
X47525Y-204225D01*
X47875Y-203892D01*
X48050Y-203425D01*
X47933Y-202958D01*
X47642Y-202558D01*
X47117Y-202292D01*
X46417Y-202158D01*
X46008Y-201892D01*
X45833Y-201425D01*
X45950Y-200958D01*
X46242Y-200625D01*
X46650Y-200425D01*
X47058D01*
X47467Y-200558D01*
X47817Y-200892D01*
G01X50925Y-200425D02*
X52325D01*
G01X51625D02*
Y-204425D01*
G01X50925D02*
X52325D01*
G01X56775Y-202425D02*
X57942D01*
Y-203625D01*
X57592Y-204025D01*
X57183Y-204292D01*
X56600Y-204425D01*
X56017Y-204292D01*
X55608Y-204025D01*
X55258Y-203625D01*
X55025Y-203158D01*
X54908Y-202625D01*
Y-202158D01*
X55025Y-201758D01*
X55258Y-201292D01*
X55608Y-200892D01*
X55958Y-200625D01*
X56425Y-200425D01*
X56833D01*
X57300Y-200558D01*
X57650Y-200825D01*
G01X59883Y-204425D02*
Y-200425D01*
X62567Y-204425D01*
Y-200425D01*
G01X-105633Y-178425D02*
X-104175Y-174425D01*
X-102717Y-178425D01*
G01X-103242Y-177025D02*
X-105108D01*
G01X-100658Y-174425D02*
Y-177292D01*
X-100425Y-177892D01*
X-99958Y-178292D01*
X-99375Y-178425D01*
X-98792Y-178292D01*
X-98325Y-177892D01*
X-98092Y-177292D01*
Y-174425D01*
G01X-95800Y-177892D02*
X-95333Y-178225D01*
X-94808Y-178425D01*
X-94342D01*
X-93875Y-178225D01*
X-93525Y-177892D01*
X-93350Y-177425D01*
X-93467Y-176958D01*
X-93758Y-176558D01*
X-94283Y-176292D01*
X-94983Y-176158D01*
X-95392Y-175892D01*
X-95567Y-175425D01*
X-95450Y-174958D01*
X-95158Y-174625D01*
X-94750Y-174425D01*
X-94342D01*
X-93933Y-174558D01*
X-93583Y-174892D01*
G01X-89775Y-174425D02*
Y-178425D01*
G01X-91117Y-174425D02*
X-88433D01*
G01X-85675D02*
X-84275D01*
G01X-84975D02*
Y-178425D01*
G01X-85675D02*
X-84275D01*
G01X-81517D02*
Y-174425D01*
X-78833Y-178425D01*
Y-174425D01*
G01X-75375Y-178558D02*
X-75492Y-178492D01*
Y-178358D01*
X-75375Y-178292D01*
X-75258Y-178358D01*
Y-178492D01*
X-75375Y-178558D01*
G01X-65775Y-174425D02*
Y-178425D01*
G01X-67117Y-174425D02*
X-64433D01*
G01X-59808Y-178425D02*
X-62142D01*
Y-174425D01*
X-59808D01*
G01X-60742Y-176358D02*
X-62142D01*
G01X-57400Y-178425D02*
X-54950Y-174425D01*
G01X-57400D02*
X-54950Y-178425D01*
G01X-52833D02*
X-51375Y-174425D01*
X-49917Y-178425D01*
G01X-50442Y-177025D02*
X-52308D01*
G01X-47800Y-177892D02*
X-47333Y-178225D01*
X-46808Y-178425D01*
X-46342D01*
X-45875Y-178225D01*
X-45525Y-177892D01*
X-45350Y-177425D01*
X-45467Y-176958D01*
X-45758Y-176558D01*
X-46283Y-176292D01*
X-46983Y-176158D01*
X-47392Y-175892D01*
X-47567Y-175425D01*
X-47450Y-174958D01*
X-47158Y-174625D01*
X-46750Y-174425D01*
X-46342D01*
X-45933Y-174558D01*
X-45583Y-174892D01*
G01X-37092Y-178425D02*
X-36975Y-177558D01*
X-36800Y-176825D01*
X-36567Y-176158D01*
X-36275Y-175425D01*
X-35808Y-174425D01*
X-38142D01*
G01X-32175Y-178425D02*
X-31767Y-178358D01*
X-31300Y-178158D01*
X-31008Y-177825D01*
X-30892Y-177358D01*
X-31008Y-176892D01*
X-31358Y-176492D01*
X-31883Y-176292D01*
X-32467D01*
X-32817Y-176158D01*
X-33108Y-175825D01*
X-33225Y-175358D01*
X-33050Y-174892D01*
X-32642Y-174558D01*
X-32175Y-174425D01*
X-31708Y-174558D01*
X-31300Y-174892D01*
X-31125Y-175358D01*
X-31242Y-175825D01*
X-31533Y-176158D01*
X-31883Y-176292D01*
X-32467D01*
X-32992Y-176492D01*
X-33342Y-176892D01*
X-33458Y-177358D01*
X-33342Y-177825D01*
X-33050Y-178158D01*
X-32583Y-178358D01*
X-32175Y-178425D01*
G01X-27492D02*
X-27375Y-177558D01*
X-27200Y-176825D01*
X-26967Y-176158D01*
X-26675Y-175425D01*
X-26208Y-174425D01*
X-28542D01*
G01X-23858Y-177625D02*
X-23508Y-178092D01*
X-23042Y-178358D01*
X-22517Y-178425D01*
X-22050Y-178358D01*
X-21583Y-178025D01*
X-21292Y-177625D01*
X-21233Y-177225D01*
X-21350Y-176758D01*
X-21758Y-176425D01*
X-22167Y-176292D01*
X-22692D01*
G01X-22167D02*
X-21817Y-176092D01*
X-21525Y-175758D01*
X-21408Y-175358D01*
X-21525Y-174958D01*
X-21817Y-174625D01*
X-22342Y-174425D01*
X-22867Y-174492D01*
X-23392Y-174758D01*
G01X-19058Y-177825D02*
X-18708Y-178158D01*
X-18300Y-178358D01*
X-17775Y-178425D01*
X-17250Y-178292D01*
X-16842Y-178025D01*
X-16550Y-177558D01*
X-16492Y-177025D01*
X-16608Y-176492D01*
X-16900Y-176158D01*
X-17308Y-175892D01*
X-17717Y-175825D01*
X-18125Y-175892D01*
X-18650Y-176158D01*
X-18475Y-174425D01*
X-16900D01*
G01X-9458D02*
Y-177292D01*
X-9225Y-177892D01*
X-8758Y-178292D01*
X-8175Y-178425D01*
X-7592Y-178292D01*
X-7125Y-177892D01*
X-6892Y-177292D01*
Y-174425D01*
G01X-4600Y-177892D02*
X-4133Y-178225D01*
X-3608Y-178425D01*
X-3142D01*
X-2675Y-178225D01*
X-2325Y-177892D01*
X-2150Y-177425D01*
X-2267Y-176958D01*
X-2558Y-176558D01*
X-3083Y-176292D01*
X-3783Y-176158D01*
X-4192Y-175892D01*
X-4367Y-175425D01*
X-4250Y-174958D01*
X-3958Y-174625D01*
X-3550Y-174425D01*
X-3142D01*
X-2733Y-174558D01*
X-2383Y-174892D01*
G01X-33Y-178425D02*
X1425Y-174425D01*
X2883Y-178425D01*
G01X2358Y-177025D02*
X492D01*
G01X-98342Y-196425D02*
Y-192425D01*
X-96942D01*
X-96475Y-192625D01*
X-96125Y-193092D01*
X-96008Y-193625D01*
X-96125Y-194158D01*
X-96417Y-194558D01*
X-96942Y-194758D01*
X-98342D01*
G01X-93542Y-196425D02*
Y-192425D01*
X-92083D01*
X-91617Y-192625D01*
X-91325Y-192892D01*
X-91208Y-193425D01*
X-91325Y-193958D01*
X-91675Y-194292D01*
X-92083Y-194492D01*
X-93542D01*
G01X-92083D02*
X-91208Y-196425D01*
G01X-87575D02*
X-88042Y-196358D01*
X-88450Y-196092D01*
X-88800Y-195692D01*
X-89033Y-195225D01*
X-89150Y-194692D01*
Y-194158D01*
X-89033Y-193625D01*
X-88800Y-193158D01*
X-88450Y-192758D01*
X-88042Y-192492D01*
X-87575Y-192425D01*
X-87108Y-192492D01*
X-86700Y-192758D01*
X-86350Y-193158D01*
X-86117Y-193625D01*
X-86000Y-194158D01*
Y-194692D01*
X-86117Y-195225D01*
X-86350Y-195692D01*
X-86700Y-196092D01*
X-87108Y-196358D01*
X-87575Y-196425D01*
G01X-83942D02*
Y-192425D01*
X-82542D01*
X-82075Y-192625D01*
X-81725Y-193092D01*
X-81608Y-193625D01*
X-81725Y-194158D01*
X-82017Y-194558D01*
X-82542Y-194758D01*
X-83942D01*
G01X-79142Y-196425D02*
Y-192425D01*
X-77683D01*
X-77217Y-192625D01*
X-76925Y-192892D01*
X-76808Y-193425D01*
X-76925Y-193958D01*
X-77275Y-194292D01*
X-77683Y-194492D01*
X-79142D01*
G01X-77683D02*
X-76808Y-196425D01*
G01X-73875Y-192425D02*
X-72475D01*
G01X-73175D02*
Y-196425D01*
G01X-73875D02*
X-72475D01*
G01X-67208D02*
X-69542D01*
Y-192425D01*
X-67208D01*
G01X-68142Y-194358D02*
X-69542D01*
G01X-63575Y-192425D02*
Y-196425D01*
G01X-64917Y-192425D02*
X-62233D01*
G01X-60233Y-196425D02*
X-58775Y-192425D01*
X-57317Y-196425D01*
G01X-57842Y-195025D02*
X-59708D01*
G01X-55142Y-196425D02*
Y-192425D01*
X-53683D01*
X-53217Y-192625D01*
X-52925Y-192892D01*
X-52808Y-193425D01*
X-52925Y-193958D01*
X-53275Y-194292D01*
X-53683Y-194492D01*
X-55142D01*
G01X-53683D02*
X-52808Y-196425D01*
G01X-49175D02*
Y-194625D01*
X-50342Y-192425D01*
G01X-48008D02*
X-49175Y-194625D01*
G01X-39575Y-192425D02*
Y-196425D01*
G01X-40917Y-192425D02*
X-38233D01*
G01X-34775Y-196425D02*
X-35242Y-196358D01*
X-35650Y-196092D01*
X-36000Y-195692D01*
X-36233Y-195225D01*
X-36350Y-194692D01*
Y-194158D01*
X-36233Y-193625D01*
X-36000Y-193158D01*
X-35650Y-192758D01*
X-35242Y-192492D01*
X-34775Y-192425D01*
X-34308Y-192492D01*
X-33900Y-192758D01*
X-33550Y-193158D01*
X-33317Y-193625D01*
X-33200Y-194158D01*
Y-194692D01*
X-33317Y-195225D01*
X-33550Y-195692D01*
X-33900Y-196092D01*
X-34308Y-196358D01*
X-34775Y-196425D01*
G01X-26283D02*
Y-192425D01*
X-24067D01*
G01X-24883Y-194358D02*
X-26283D01*
G01X-21542Y-196425D02*
Y-192425D01*
X-20083D01*
X-19617Y-192625D01*
X-19325Y-192892D01*
X-19208Y-193425D01*
X-19325Y-193958D01*
X-19675Y-194292D01*
X-20083Y-194492D01*
X-21542D01*
G01X-20083D02*
X-19208Y-196425D01*
G01X-14408D02*
X-16742D01*
Y-192425D01*
X-14408D01*
G01X-15342Y-194358D02*
X-16742D01*
G01X-9608Y-196425D02*
X-11942D01*
Y-192425D01*
X-9608D01*
G01X-10542Y-194358D02*
X-11942D01*
G01X-7200Y-195892D02*
X-6733Y-196225D01*
X-6208Y-196425D01*
X-5742D01*
X-5275Y-196225D01*
X-4925Y-195892D01*
X-4750Y-195425D01*
X-4867Y-194958D01*
X-5158Y-194558D01*
X-5683Y-194292D01*
X-6383Y-194158D01*
X-6792Y-193892D01*
X-6967Y-193425D01*
X-6850Y-192958D01*
X-6558Y-192625D01*
X-6150Y-192425D01*
X-5742D01*
X-5333Y-192558D01*
X-4983Y-192892D01*
G01X108Y-192758D02*
X-242Y-192558D01*
X-650Y-192425D01*
X-1117D01*
X-1642Y-192625D01*
X-2050Y-192958D01*
X-2342Y-193358D01*
X-2575Y-194025D01*
X-2633Y-194625D01*
X-2517Y-195225D01*
X-2342Y-195625D01*
X-1992Y-196025D01*
X-1583Y-196292D01*
X-1175Y-196425D01*
X-767D01*
X-358Y-196292D01*
X-8Y-196092D01*
X283Y-195825D01*
G01X2167Y-196425D02*
X3625Y-192425D01*
X5083Y-196425D01*
G01X4558Y-195025D02*
X2692D01*
G01X7258Y-192425D02*
Y-196425D01*
X9592D01*
G01X14392D02*
X12058D01*
Y-192425D01*
X14392D01*
G01X13458Y-194358D02*
X12058D01*
G01X21367Y-196425D02*
X22825Y-192425D01*
X24283Y-196425D01*
G01X23758Y-195025D02*
X21892D01*
G01X26283Y-196425D02*
Y-192425D01*
X28967Y-196425D01*
Y-192425D01*
G01X31142Y-196425D02*
Y-192425D01*
X32308D01*
X32775Y-192625D01*
X33125Y-192892D01*
X33417Y-193292D01*
X33650Y-193758D01*
X33708Y-194425D01*
X33650Y-195092D01*
X33417Y-195558D01*
X33125Y-195958D01*
X32775Y-196225D01*
X32308Y-196425D01*
X31142D01*
G01X40800Y-195892D02*
X41267Y-196225D01*
X41792Y-196425D01*
X42258D01*
X42725Y-196225D01*
X43075Y-195892D01*
X43250Y-195425D01*
X43133Y-194958D01*
X42842Y-194558D01*
X42317Y-194292D01*
X41617Y-194158D01*
X41208Y-193892D01*
X41033Y-193425D01*
X41150Y-192958D01*
X41442Y-192625D01*
X41850Y-192425D01*
X42258D01*
X42667Y-192558D01*
X43017Y-192892D01*
G01X45600Y-196425D02*
Y-192425D01*
G01X48050D02*
Y-196425D01*
G01Y-194425D02*
X45600D01*
G01X50167Y-196425D02*
X51625Y-192425D01*
X53083Y-196425D01*
G01X52558Y-195025D02*
X50692D01*
G01X55258Y-192425D02*
Y-196425D01*
X57592D01*
G01X60058Y-192425D02*
Y-196425D01*
X62392D01*
G01X-98175Y-184425D02*
Y-188425D01*
G01X-99517Y-184425D02*
X-96833D01*
G01X-94600Y-188425D02*
Y-184425D01*
G01X-92150D02*
Y-188425D01*
G01Y-186425D02*
X-94600D01*
G01X-89275Y-184425D02*
X-87875D01*
G01X-88575D02*
Y-188425D01*
G01X-89275D02*
X-87875D01*
G01X-85000Y-187892D02*
X-84533Y-188225D01*
X-84008Y-188425D01*
X-83542D01*
X-83075Y-188225D01*
X-82725Y-187892D01*
X-82550Y-187425D01*
X-82667Y-186958D01*
X-82958Y-186558D01*
X-83483Y-186292D01*
X-84183Y-186158D01*
X-84592Y-185892D01*
X-84767Y-185425D01*
X-84650Y-184958D01*
X-84358Y-184625D01*
X-83950Y-184425D01*
X-83542D01*
X-83133Y-184558D01*
X-82783Y-184892D01*
G01X-75458Y-188425D02*
Y-184425D01*
X-74292D01*
X-73825Y-184625D01*
X-73475Y-184892D01*
X-73183Y-185292D01*
X-72950Y-185758D01*
X-72892Y-186425D01*
X-72950Y-187092D01*
X-73183Y-187558D01*
X-73475Y-187958D01*
X-73825Y-188225D01*
X-74292Y-188425D01*
X-75458D01*
G01X-69375D02*
X-69842Y-188358D01*
X-70250Y-188092D01*
X-70600Y-187692D01*
X-70833Y-187225D01*
X-70950Y-186692D01*
Y-186158D01*
X-70833Y-185625D01*
X-70600Y-185158D01*
X-70250Y-184758D01*
X-69842Y-184492D01*
X-69375Y-184425D01*
X-68908Y-184492D01*
X-68500Y-184758D01*
X-68150Y-185158D01*
X-67917Y-185625D01*
X-67800Y-186158D01*
Y-186692D01*
X-67917Y-187225D01*
X-68150Y-187692D01*
X-68500Y-188092D01*
X-68908Y-188358D01*
X-69375Y-188425D01*
G01X-63292Y-184758D02*
X-63642Y-184558D01*
X-64050Y-184425D01*
X-64517D01*
X-65042Y-184625D01*
X-65450Y-184958D01*
X-65742Y-185358D01*
X-65975Y-186025D01*
X-66033Y-186625D01*
X-65917Y-187225D01*
X-65742Y-187625D01*
X-65392Y-188025D01*
X-64983Y-188292D01*
X-64575Y-188425D01*
X-64167D01*
X-63758Y-188292D01*
X-63408Y-188092D01*
X-63117Y-187825D01*
G01X-61058Y-184425D02*
Y-187292D01*
X-60825Y-187892D01*
X-60358Y-188292D01*
X-59775Y-188425D01*
X-59192Y-188292D01*
X-58725Y-187892D01*
X-58492Y-187292D01*
Y-184425D01*
G01X-56492Y-188425D02*
Y-184425D01*
X-54975Y-187758D01*
X-53458Y-184425D01*
Y-188425D01*
G01X-49008D02*
X-51342D01*
Y-184425D01*
X-49008D01*
G01X-49942Y-186358D02*
X-51342D01*
G01X-46717Y-188425D02*
Y-184425D01*
X-44033Y-188425D01*
Y-184425D01*
G01X-40575D02*
Y-188425D01*
G01X-41917Y-184425D02*
X-39233D01*
G01X-29692Y-184758D02*
X-30042Y-184558D01*
X-30450Y-184425D01*
X-30917D01*
X-31442Y-184625D01*
X-31850Y-184958D01*
X-32142Y-185358D01*
X-32375Y-186025D01*
X-32433Y-186625D01*
X-32317Y-187225D01*
X-32142Y-187625D01*
X-31792Y-188025D01*
X-31383Y-188292D01*
X-30975Y-188425D01*
X-30567D01*
X-30158Y-188292D01*
X-29808Y-188092D01*
X-29517Y-187825D01*
G01X-26175Y-188425D02*
X-26642Y-188358D01*
X-27050Y-188092D01*
X-27400Y-187692D01*
X-27633Y-187225D01*
X-27750Y-186692D01*
Y-186158D01*
X-27633Y-185625D01*
X-27400Y-185158D01*
X-27050Y-184758D01*
X-26642Y-184492D01*
X-26175Y-184425D01*
X-25708Y-184492D01*
X-25300Y-184758D01*
X-24950Y-185158D01*
X-24717Y-185625D01*
X-24600Y-186158D01*
Y-186692D01*
X-24717Y-187225D01*
X-24950Y-187692D01*
X-25300Y-188092D01*
X-25708Y-188358D01*
X-26175Y-188425D01*
G01X-22717D02*
Y-184425D01*
X-20033Y-188425D01*
Y-184425D01*
G01X-16575D02*
Y-188425D01*
G01X-17917Y-184425D02*
X-15233D01*
G01X-13233Y-188425D02*
X-11775Y-184425D01*
X-10317Y-188425D01*
G01X-10842Y-187025D02*
X-12708D01*
G01X-7675Y-184425D02*
X-6275D01*
G01X-6975D02*
Y-188425D01*
G01X-7675D02*
X-6275D01*
G01X-3517D02*
Y-184425D01*
X-833Y-188425D01*
Y-184425D01*
G01X1400Y-187892D02*
X1867Y-188225D01*
X2392Y-188425D01*
X2858D01*
X3325Y-188225D01*
X3675Y-187892D01*
X3850Y-187425D01*
X3733Y-186958D01*
X3442Y-186558D01*
X2917Y-186292D01*
X2217Y-186158D01*
X1808Y-185892D01*
X1633Y-185425D01*
X1750Y-184958D01*
X2042Y-184625D01*
X2450Y-184425D01*
X2858D01*
X3267Y-184558D01*
X3617Y-184892D01*
G01X11525Y-184425D02*
X12925D01*
G01X12225D02*
Y-188425D01*
G01X11525D02*
X12925D01*
G01X15683D02*
Y-184425D01*
X18367Y-188425D01*
Y-184425D01*
G01X20717Y-188425D02*
Y-184425D01*
X22933D01*
G01X22117Y-186358D02*
X20717D01*
G01X26625Y-188425D02*
X26158Y-188358D01*
X25750Y-188092D01*
X25400Y-187692D01*
X25167Y-187225D01*
X25050Y-186692D01*
Y-186158D01*
X25167Y-185625D01*
X25400Y-185158D01*
X25750Y-184758D01*
X26158Y-184492D01*
X26625Y-184425D01*
X27092Y-184492D01*
X27500Y-184758D01*
X27850Y-185158D01*
X28083Y-185625D01*
X28200Y-186158D01*
Y-186692D01*
X28083Y-187225D01*
X27850Y-187692D01*
X27500Y-188092D01*
X27092Y-188358D01*
X26625Y-188425D01*
G01X30258D02*
Y-184425D01*
X31717D01*
X32183Y-184625D01*
X32475Y-184892D01*
X32592Y-185425D01*
X32475Y-185958D01*
X32125Y-186292D01*
X31717Y-186492D01*
X30258D01*
G01X31717D02*
X32592Y-188425D01*
G01X34708D02*
Y-184425D01*
X36225Y-187758D01*
X37742Y-184425D01*
Y-188425D01*
G01X39567D02*
X41025Y-184425D01*
X42483Y-188425D01*
G01X41958Y-187025D02*
X40092D01*
G01X45825Y-184425D02*
Y-188425D01*
G01X44483Y-184425D02*
X47167D01*
G01X49925D02*
X51325D01*
G01X50625D02*
Y-188425D01*
G01X49925D02*
X51325D01*
G01X55425D02*
X54958Y-188358D01*
X54550Y-188092D01*
X54200Y-187692D01*
X53967Y-187225D01*
X53850Y-186692D01*
Y-186158D01*
X53967Y-185625D01*
X54200Y-185158D01*
X54550Y-184758D01*
X54958Y-184492D01*
X55425Y-184425D01*
X55892Y-184492D01*
X56300Y-184758D01*
X56650Y-185158D01*
X56883Y-185625D01*
X57000Y-186158D01*
Y-186692D01*
X56883Y-187225D01*
X56650Y-187692D01*
X56300Y-188092D01*
X55892Y-188358D01*
X55425Y-188425D01*
G01X58883D02*
Y-184425D01*
X61567Y-188425D01*
Y-184425D01*
G01X-105283Y-169758D02*
X-104875Y-169292D01*
X-104525Y-169025D01*
X-104058Y-168892D01*
X-103650Y-169025D01*
X-103358Y-169292D01*
X-103125Y-169692D01*
X-103067Y-170158D01*
X-103125Y-170558D01*
X-103358Y-170958D01*
X-103708Y-171292D01*
X-104117Y-171425D01*
X-104583Y-171292D01*
X-104992Y-170892D01*
X-105225Y-170292D01*
X-105283Y-169625D01*
X-105167Y-168758D01*
X-104992Y-168292D01*
X-104700Y-167825D01*
X-104292Y-167492D01*
X-103883Y-167425D01*
X-103475Y-167558D01*
X-103183Y-167892D01*
G01X-100658Y-170825D02*
X-100308Y-171158D01*
X-99900Y-171358D01*
X-99375Y-171425D01*
X-98850Y-171292D01*
X-98442Y-171025D01*
X-98150Y-170558D01*
X-98092Y-170025D01*
X-98208Y-169492D01*
X-98500Y-169158D01*
X-98908Y-168892D01*
X-99317Y-168825D01*
X-99725Y-168892D01*
X-100250Y-169158D01*
X-100075Y-167425D01*
X-98500D01*
G01X-94575D02*
X-95042Y-167558D01*
X-95392Y-167892D01*
X-95625Y-168292D01*
X-95800Y-168825D01*
X-95858Y-169425D01*
X-95800Y-170025D01*
X-95625Y-170558D01*
X-95392Y-170958D01*
X-95042Y-171292D01*
X-94575Y-171425D01*
X-94108Y-171292D01*
X-93758Y-170958D01*
X-93525Y-170558D01*
X-93350Y-170025D01*
X-93292Y-169425D01*
X-93350Y-168825D01*
X-93525Y-168292D01*
X-93758Y-167892D01*
X-94108Y-167558D01*
X-94575Y-167425D01*
G01X-89775Y-171425D02*
Y-167425D01*
X-90475Y-168225D01*
G01Y-171425D02*
X-89075D01*
G01X-81925Y-167425D02*
X-81108Y-171425D01*
X-80175Y-167425D01*
X-79242Y-171425D01*
X-78425Y-167425D01*
G01X-76075D02*
X-74675D01*
G01X-75375D02*
Y-171425D01*
G01X-76075D02*
X-74675D01*
G01X-71742Y-167425D02*
Y-171425D01*
X-69408D01*
G01X-66942Y-167425D02*
Y-171425D01*
X-64608D01*
G01X-61675Y-167425D02*
X-60275D01*
G01X-60975D02*
Y-171425D01*
G01X-61675D02*
X-60275D01*
G01X-57633D02*
X-56175Y-167425D01*
X-54717Y-171425D01*
G01X-55242Y-170025D02*
X-57108D01*
G01X-52892Y-171425D02*
Y-167425D01*
X-51375Y-170758D01*
X-49858Y-167425D01*
Y-171425D01*
G01X-40492Y-167758D02*
X-40842Y-167558D01*
X-41250Y-167425D01*
X-41717D01*
X-42242Y-167625D01*
X-42650Y-167958D01*
X-42942Y-168358D01*
X-43175Y-169025D01*
X-43233Y-169625D01*
X-43117Y-170225D01*
X-42942Y-170625D01*
X-42592Y-171025D01*
X-42183Y-171292D01*
X-41775Y-171425D01*
X-41367D01*
X-40958Y-171292D01*
X-40608Y-171092D01*
X-40317Y-170825D01*
G01X-38433Y-171425D02*
X-36975Y-167425D01*
X-35517Y-171425D01*
G01X-36042Y-170025D02*
X-37908D01*
G01X-33517Y-171425D02*
Y-167425D01*
X-30833Y-171425D01*
Y-167425D01*
G01X-28717Y-171425D02*
Y-167425D01*
X-26033Y-171425D01*
Y-167425D01*
G01X-22575Y-171425D02*
X-23042Y-171358D01*
X-23450Y-171092D01*
X-23800Y-170692D01*
X-24033Y-170225D01*
X-24150Y-169692D01*
Y-169158D01*
X-24033Y-168625D01*
X-23800Y-168158D01*
X-23450Y-167758D01*
X-23042Y-167492D01*
X-22575Y-167425D01*
X-22108Y-167492D01*
X-21700Y-167758D01*
X-21350Y-168158D01*
X-21117Y-168625D01*
X-21000Y-169158D01*
Y-169692D01*
X-21117Y-170225D01*
X-21350Y-170692D01*
X-21700Y-171092D01*
X-22108Y-171358D01*
X-22575Y-171425D01*
G01X-19117D02*
Y-167425D01*
X-16433Y-171425D01*
Y-167425D01*
G01X-9458Y-171425D02*
Y-167425D01*
X-8292D01*
X-7825Y-167625D01*
X-7475Y-167892D01*
X-7183Y-168292D01*
X-6950Y-168758D01*
X-6892Y-169425D01*
X-6950Y-170092D01*
X-7183Y-170558D01*
X-7475Y-170958D01*
X-7825Y-171225D01*
X-8292Y-171425D01*
X-9458D01*
G01X-4542D02*
Y-167425D01*
X-3083D01*
X-2617Y-167625D01*
X-2325Y-167892D01*
X-2208Y-168425D01*
X-2325Y-168958D01*
X-2675Y-169292D01*
X-3083Y-169492D01*
X-4542D01*
G01X-3083D02*
X-2208Y-171425D01*
G01X725Y-167425D02*
X2125D01*
G01X1425D02*
Y-171425D01*
G01X725D02*
X2125D01*
G01X4767Y-167425D02*
X6225Y-171425D01*
X7683Y-167425D01*
G01X12192Y-171425D02*
X9858D01*
Y-167425D01*
X12192D01*
G01X11258Y-169358D02*
X9858D01*
G01X18875Y-167425D02*
X19692Y-171425D01*
X20625Y-167425D01*
X21558Y-171425D01*
X22375Y-167425D01*
G01X26592Y-171425D02*
X24258D01*
Y-167425D01*
X26592D01*
G01X25658Y-169358D02*
X24258D01*
G01X29000Y-170892D02*
X29467Y-171225D01*
X29992Y-171425D01*
X30458D01*
X30925Y-171225D01*
X31275Y-170892D01*
X31450Y-170425D01*
X31333Y-169958D01*
X31042Y-169558D01*
X30517Y-169292D01*
X29817Y-169158D01*
X29408Y-168892D01*
X29233Y-168425D01*
X29350Y-167958D01*
X29642Y-167625D01*
X30050Y-167425D01*
X30458D01*
X30867Y-167558D01*
X31217Y-167892D01*
G01X35025Y-167425D02*
Y-171425D01*
G01X33683Y-167425D02*
X36367D01*
G01X-105898Y-163425D02*
Y-155925D01*
X-102352D01*
G01X-103658Y-159550D02*
X-105898D01*
G01X-98492Y-163425D02*
Y-155925D01*
X-96158D01*
X-95412Y-156300D01*
X-94945Y-156800D01*
X-94758Y-157800D01*
X-94945Y-158800D01*
X-95505Y-159425D01*
X-96158Y-159800D01*
X-98492D01*
G01X-96158D02*
X-94758Y-163425D01*
G01X-87258D02*
X-90992D01*
Y-155925D01*
X-87258D01*
G01X-88752Y-159550D02*
X-90992D01*
G01X-79758Y-163425D02*
X-83492D01*
Y-155925D01*
X-79758D01*
G01X-81252Y-159550D02*
X-83492D01*
G01X-76085Y-162425D02*
X-75338Y-163050D01*
X-74498Y-163425D01*
X-73752D01*
X-73005Y-163050D01*
X-72445Y-162425D01*
X-72165Y-161550D01*
X-72352Y-160675D01*
X-72818Y-159925D01*
X-73658Y-159425D01*
X-74778Y-159175D01*
X-75432Y-158675D01*
X-75712Y-157800D01*
X-75525Y-156925D01*
X-75058Y-156300D01*
X-74405Y-155925D01*
X-73752D01*
X-73098Y-156175D01*
X-72538Y-156800D01*
G01X-64572Y-156550D02*
X-65132Y-156175D01*
X-65785Y-155925D01*
X-66532D01*
X-67372Y-156300D01*
X-68025Y-156925D01*
X-68492Y-157675D01*
X-68865Y-158925D01*
X-68958Y-160050D01*
X-68772Y-161175D01*
X-68492Y-161925D01*
X-67932Y-162675D01*
X-67278Y-163175D01*
X-66625Y-163425D01*
X-65972D01*
X-65318Y-163175D01*
X-64758Y-162800D01*
X-64292Y-162300D01*
G01X-61458Y-163425D02*
X-59125Y-155925D01*
X-56792Y-163425D01*
G01X-57632Y-160800D02*
X-60618D01*
G01X-53492Y-155925D02*
Y-163425D01*
X-49758D01*
G01X-42258D02*
X-45992D01*
Y-155925D01*
X-42258D01*
G01X-43752Y-159550D02*
X-45992D01*
G01X-31085Y-162425D02*
X-30338Y-163050D01*
X-29498Y-163425D01*
X-28752D01*
X-28005Y-163050D01*
X-27445Y-162425D01*
X-27165Y-161550D01*
X-27352Y-160675D01*
X-27818Y-159925D01*
X-28658Y-159425D01*
X-29778Y-159175D01*
X-30432Y-158675D01*
X-30712Y-157800D01*
X-30525Y-156925D01*
X-30058Y-156300D01*
X-29405Y-155925D01*
X-28752D01*
X-28098Y-156175D01*
X-27538Y-156800D01*
G01X-19758Y-163425D02*
X-23492D01*
Y-155925D01*
X-19758D01*
G01X-21252Y-159550D02*
X-23492D01*
G01X-16552Y-163425D02*
Y-155925D01*
X-14125Y-162175D01*
X-11698Y-155925D01*
Y-163425D01*
G01X-7745Y-155925D02*
X-5505D01*
G01X-6625D02*
Y-163425D01*
G01X-7745D02*
X-5505D01*
G01X2928Y-156550D02*
X2368Y-156175D01*
X1715Y-155925D01*
X968D01*
X128Y-156300D01*
X-525Y-156925D01*
X-992Y-157675D01*
X-1365Y-158925D01*
X-1458Y-160050D01*
X-1272Y-161175D01*
X-992Y-161925D01*
X-432Y-162675D01*
X222Y-163175D01*
X875Y-163425D01*
X1528D01*
X2182Y-163175D01*
X2742Y-162800D01*
X3208Y-162300D01*
G01X8375Y-163425D02*
X7628Y-163300D01*
X6975Y-162800D01*
X6415Y-162050D01*
X6042Y-161175D01*
X5855Y-160175D01*
Y-159175D01*
X6042Y-158175D01*
X6415Y-157300D01*
X6975Y-156550D01*
X7628Y-156050D01*
X8375Y-155925D01*
X9122Y-156050D01*
X9775Y-156550D01*
X10335Y-157300D01*
X10708Y-158175D01*
X10895Y-159175D01*
Y-160175D01*
X10708Y-161175D01*
X10335Y-162050D01*
X9775Y-162800D01*
X9122Y-163300D01*
X8375Y-163425D01*
G01X13728D02*
Y-155925D01*
X18022Y-163425D01*
Y-155925D01*
G01X21322Y-163425D02*
Y-155925D01*
X23188D01*
X23935Y-156300D01*
X24495Y-156800D01*
X24962Y-157550D01*
X25335Y-158425D01*
X25428Y-159675D01*
X25335Y-160925D01*
X24962Y-161800D01*
X24495Y-162550D01*
X23935Y-163050D01*
X23188Y-163425D01*
X21322D01*
G01X28822Y-155925D02*
Y-161300D01*
X29195Y-162425D01*
X29942Y-163175D01*
X30875Y-163425D01*
X31808Y-163175D01*
X32555Y-162425D01*
X32928Y-161300D01*
Y-155925D01*
G01X40428Y-156550D02*
X39868Y-156175D01*
X39215Y-155925D01*
X38468D01*
X37628Y-156300D01*
X36975Y-156925D01*
X36508Y-157675D01*
X36135Y-158925D01*
X36042Y-160050D01*
X36228Y-161175D01*
X36508Y-161925D01*
X37068Y-162675D01*
X37722Y-163175D01*
X38375Y-163425D01*
X39028D01*
X39682Y-163175D01*
X40242Y-162800D01*
X40708Y-162300D01*
G01X45875Y-155925D02*
Y-163425D01*
G01X43728Y-155925D02*
X48022D01*
G01X53375Y-163425D02*
X52628Y-163300D01*
X51975Y-162800D01*
X51415Y-162050D01*
X51042Y-161175D01*
X50855Y-160175D01*
Y-159175D01*
X51042Y-158175D01*
X51415Y-157300D01*
X51975Y-156550D01*
X52628Y-156050D01*
X53375Y-155925D01*
X54122Y-156050D01*
X54775Y-156550D01*
X55335Y-157300D01*
X55708Y-158175D01*
X55895Y-159175D01*
Y-160175D01*
X55708Y-161175D01*
X55335Y-162050D01*
X54775Y-162800D01*
X54122Y-163300D01*
X53375Y-163425D01*
G01X59008D02*
Y-155925D01*
X61342D01*
X62088Y-156300D01*
X62555Y-156800D01*
X62742Y-157800D01*
X62555Y-158800D01*
X61995Y-159425D01*
X61342Y-159800D01*
X59008D01*
G01X61342D02*
X62742Y-163425D01*
G01X-55283Y-239425D02*
Y-235425D01*
X-53067D01*
G01X-53883Y-237358D02*
X-55283D01*
G01X-50075Y-235425D02*
X-48675D01*
G01X-49375D02*
Y-239425D01*
G01X-50075D02*
X-48675D01*
G01X-45742Y-235425D02*
Y-239425D01*
X-43408D01*
G01X-41292D02*
Y-235425D01*
X-39775Y-238758D01*
X-38258Y-235425D01*
Y-239425D01*
G01X-33142Y-241625D02*
Y-247925D01*
X-30008D01*
G01X-26998Y-246665D02*
X-26528Y-247400D01*
X-25902Y-247820D01*
X-25197Y-247925D01*
X-24570Y-247820D01*
X-23943Y-247295D01*
X-23552Y-246665D01*
X-23473Y-246035D01*
X-23630Y-245300D01*
X-24178Y-244775D01*
X-24727Y-244565D01*
X-25432D01*
G01X-24727D02*
X-24257Y-244250D01*
X-23865Y-243725D01*
X-23708Y-243095D01*
X-23865Y-242465D01*
X-24257Y-241940D01*
X-24962Y-241625D01*
X-25667Y-241730D01*
X-26372Y-242150D01*
G01X-21325Y-250025D02*
X-16625D01*
G01X-14242Y-247925D02*
Y-241625D01*
X-12362D01*
X-11735Y-241940D01*
X-11265Y-242675D01*
X-11108Y-243515D01*
X-11265Y-244355D01*
X-11657Y-244985D01*
X-12362Y-245300D01*
X-14242D01*
G01X-8725Y-241625D02*
X-7628Y-247925D01*
X-6375Y-241625D01*
X-5122Y-247925D01*
X-4025Y-241625D01*
G01X-1642Y-247925D02*
Y-241625D01*
X317D01*
X943Y-241940D01*
X1335Y-242360D01*
X1492Y-243200D01*
X1335Y-244040D01*
X865Y-244565D01*
X317Y-244880D01*
X-1642D01*
G01X317D02*
X1492Y-247925D01*
G01X72825Y-247425D02*
Y-243425D01*
X72125Y-244225D01*
G01Y-247425D02*
X73525D01*
G01X77625Y-243425D02*
X77158Y-243558D01*
X76808Y-243892D01*
X76575Y-244292D01*
X76400Y-244825D01*
X76342Y-245425D01*
X76400Y-246025D01*
X76575Y-246558D01*
X76808Y-246958D01*
X77158Y-247292D01*
X77625Y-247425D01*
X78092Y-247292D01*
X78442Y-246958D01*
X78675Y-246558D01*
X78850Y-246025D01*
X78908Y-245425D01*
X78850Y-244825D01*
X78675Y-244292D01*
X78442Y-243892D01*
X78092Y-243558D01*
X77625Y-243425D01*
G01X81667Y-246092D02*
X83183D01*
G01X86117Y-244092D02*
X86467Y-243692D01*
X86875Y-243492D01*
X87342Y-243425D01*
X87925Y-243558D01*
X88333Y-243892D01*
X88450Y-244292D01*
X88392Y-244692D01*
X88158Y-245025D01*
X86992Y-245692D01*
X86467Y-246158D01*
X86117Y-246825D01*
X86000Y-247425D01*
X88450D01*
G01X90917Y-244092D02*
X91267Y-243692D01*
X91675Y-243492D01*
X92142Y-243425D01*
X92725Y-243558D01*
X93133Y-243892D01*
X93250Y-244292D01*
X93192Y-244692D01*
X92958Y-245025D01*
X91792Y-245692D01*
X91267Y-246158D01*
X90917Y-246825D01*
X90800Y-247425D01*
X93250D01*
G01X96067Y-246092D02*
X97583D01*
G01X101625Y-247425D02*
Y-243425D01*
X100925Y-244225D01*
G01Y-247425D02*
X102325D01*
G01X105142Y-246625D02*
X105492Y-247092D01*
X105958Y-247358D01*
X106483Y-247425D01*
X106950Y-247358D01*
X107417Y-247025D01*
X107708Y-246625D01*
X107767Y-246225D01*
X107650Y-245758D01*
X107242Y-245425D01*
X106833Y-245292D01*
X106308D01*
G01X106833D02*
X107183Y-245092D01*
X107475Y-244758D01*
X107592Y-244358D01*
X107475Y-243958D01*
X107183Y-243625D01*
X106658Y-243425D01*
X106133Y-243492D01*
X105608Y-243758D01*
G01X69542Y-239425D02*
Y-235425D01*
X70708D01*
X71175Y-235625D01*
X71525Y-235892D01*
X71817Y-236292D01*
X72050Y-236758D01*
X72108Y-237425D01*
X72050Y-238092D01*
X71817Y-238558D01*
X71525Y-238958D01*
X71175Y-239225D01*
X70708Y-239425D01*
X69542D01*
G01X74167D02*
X75625Y-235425D01*
X77083Y-239425D01*
G01X76558Y-238025D02*
X74692D01*
G01X80425Y-235425D02*
Y-239425D01*
G01X79083Y-235425D02*
X81767D01*
G01X86392Y-239425D02*
X84058D01*
Y-235425D01*
X86392D01*
G01X85458Y-237358D02*
X84058D01*
G01X83780Y-208425D02*
X87070Y-202125D01*
G01X83780D02*
X87070Y-208425D01*
G01X79075Y-225258D02*
X82575D01*
G01X83875D02*
X87375D01*
G01X88675D02*
X92175D01*
G01X98917Y-223925D02*
Y-219925D01*
X101133D01*
G01X100317Y-221858D02*
X98917D01*
G01X106108Y-220258D02*
X105758Y-220058D01*
X105350Y-219925D01*
X104883D01*
X104358Y-220125D01*
X103950Y-220458D01*
X103658Y-220858D01*
X103425Y-221525D01*
X103367Y-222125D01*
X103483Y-222725D01*
X103658Y-223125D01*
X104008Y-223525D01*
X104417Y-223792D01*
X104825Y-223925D01*
X105233D01*
X105642Y-223792D01*
X105992Y-223592D01*
X106283Y-223325D01*
G01X108458Y-223925D02*
Y-219925D01*
X109858D01*
X110325Y-220125D01*
X110675Y-220592D01*
X110792Y-221125D01*
X110675Y-221658D01*
X110383Y-222058D01*
X109858Y-222258D01*
X108458D01*
G01X118933Y-225258D02*
X118350Y-224592D01*
X118058Y-223925D01*
Y-221258D01*
X118350Y-220592D01*
X118933Y-219925D01*
G01X122917Y-223925D02*
Y-219925D01*
X125133D01*
G01X124317Y-221858D02*
X122917D01*
G01X127658Y-223925D02*
Y-219925D01*
X129117D01*
X129583Y-220125D01*
X129875Y-220392D01*
X129992Y-220925D01*
X129875Y-221458D01*
X129525Y-221792D01*
X129117Y-221992D01*
X127658D01*
G01X129117D02*
X129992Y-223925D01*
G01X134792D02*
X132458D01*
Y-219925D01*
X134792D01*
G01X133858Y-221858D02*
X132458D01*
G01X139592Y-223925D02*
X137258D01*
Y-219925D01*
X139592D01*
G01X138658Y-221858D02*
X137258D01*
G01X142000Y-223392D02*
X142467Y-223725D01*
X142992Y-223925D01*
X143458D01*
X143925Y-223725D01*
X144275Y-223392D01*
X144450Y-222925D01*
X144333Y-222458D01*
X144042Y-222058D01*
X143517Y-221792D01*
X142817Y-221658D01*
X142408Y-221392D01*
X142233Y-220925D01*
X142350Y-220458D01*
X142642Y-220125D01*
X143050Y-219925D01*
X143458D01*
X143867Y-220058D01*
X144217Y-220392D01*
G01X149308Y-220258D02*
X148958Y-220058D01*
X148550Y-219925D01*
X148083D01*
X147558Y-220125D01*
X147150Y-220458D01*
X146858Y-220858D01*
X146625Y-221525D01*
X146567Y-222125D01*
X146683Y-222725D01*
X146858Y-223125D01*
X147208Y-223525D01*
X147617Y-223792D01*
X148025Y-223925D01*
X148433D01*
X148842Y-223792D01*
X149192Y-223592D01*
X149483Y-223325D01*
G01X151367Y-223925D02*
X152825Y-219925D01*
X154283Y-223925D01*
G01X153758Y-222525D02*
X151892D01*
G01X156458Y-219925D02*
Y-223925D01*
X158792D01*
G01X163592D02*
X161258D01*
Y-219925D01*
X163592D01*
G01X162658Y-221858D02*
X161258D01*
G01X173308Y-220258D02*
X172958Y-220058D01*
X172550Y-219925D01*
X172083D01*
X171558Y-220125D01*
X171150Y-220458D01*
X170858Y-220858D01*
X170625Y-221525D01*
X170567Y-222125D01*
X170683Y-222725D01*
X170858Y-223125D01*
X171208Y-223525D01*
X171617Y-223792D01*
X172025Y-223925D01*
X172433D01*
X172842Y-223792D01*
X173192Y-223592D01*
X173483Y-223325D01*
G01X176825Y-223925D02*
X176358Y-223858D01*
X175950Y-223592D01*
X175600Y-223192D01*
X175367Y-222725D01*
X175250Y-222192D01*
Y-221658D01*
X175367Y-221125D01*
X175600Y-220658D01*
X175950Y-220258D01*
X176358Y-219992D01*
X176825Y-219925D01*
X177292Y-219992D01*
X177700Y-220258D01*
X178050Y-220658D01*
X178283Y-221125D01*
X178400Y-221658D01*
Y-222192D01*
X178283Y-222725D01*
X178050Y-223192D01*
X177700Y-223592D01*
X177292Y-223858D01*
X176825Y-223925D01*
G01X180283D02*
Y-219925D01*
X182967Y-223925D01*
Y-219925D01*
G01X185317Y-223925D02*
Y-219925D01*
X187533D01*
G01X186717Y-221858D02*
X185317D01*
G01X190525Y-219925D02*
X191925D01*
G01X191225D02*
Y-223925D01*
G01X190525D02*
X191925D01*
G01X194742D02*
Y-219925D01*
X195908D01*
X196375Y-220125D01*
X196725Y-220392D01*
X197017Y-220792D01*
X197250Y-221258D01*
X197308Y-221925D01*
X197250Y-222592D01*
X197017Y-223058D01*
X196725Y-223458D01*
X196375Y-223725D01*
X195908Y-223925D01*
X194742D01*
G01X201992D02*
X199658D01*
Y-219925D01*
X201992D01*
G01X201058Y-221858D02*
X199658D01*
G01X204283Y-223925D02*
Y-219925D01*
X206967Y-223925D01*
Y-219925D01*
G01X210425D02*
Y-223925D01*
G01X209083Y-219925D02*
X211767D01*
G01X214525D02*
X215925D01*
G01X215225D02*
Y-223925D01*
G01X214525D02*
X215925D01*
G01X218567D02*
X220025Y-219925D01*
X221483Y-223925D01*
G01X220958Y-222525D02*
X219092D01*
G01X223658Y-219925D02*
Y-223925D01*
X225992D01*
G01X233258D02*
Y-219925D01*
X234658D01*
X235125Y-220125D01*
X235475Y-220592D01*
X235592Y-221125D01*
X235475Y-221658D01*
X235183Y-222058D01*
X234658Y-222258D01*
X233258D01*
G01X238058Y-223925D02*
Y-219925D01*
X239517D01*
X239983Y-220125D01*
X240275Y-220392D01*
X240392Y-220925D01*
X240275Y-221458D01*
X239925Y-221792D01*
X239517Y-221992D01*
X238058D01*
G01X239517D02*
X240392Y-223925D01*
G01X244025D02*
X243558Y-223858D01*
X243150Y-223592D01*
X242800Y-223192D01*
X242567Y-222725D01*
X242450Y-222192D01*
Y-221658D01*
X242567Y-221125D01*
X242800Y-220658D01*
X243150Y-220258D01*
X243558Y-219992D01*
X244025Y-219925D01*
X244492Y-219992D01*
X244900Y-220258D01*
X245250Y-220658D01*
X245483Y-221125D01*
X245600Y-221658D01*
Y-222192D01*
X245483Y-222725D01*
X245250Y-223192D01*
X244900Y-223592D01*
X244492Y-223858D01*
X244025Y-223925D01*
G01X247658D02*
Y-219925D01*
X249058D01*
X249525Y-220125D01*
X249875Y-220592D01*
X249992Y-221125D01*
X249875Y-221658D01*
X249583Y-222058D01*
X249058Y-222258D01*
X247658D01*
G01X252458Y-223925D02*
Y-219925D01*
X253917D01*
X254383Y-220125D01*
X254675Y-220392D01*
X254792Y-220925D01*
X254675Y-221458D01*
X254325Y-221792D01*
X253917Y-221992D01*
X252458D01*
G01X253917D02*
X254792Y-223925D01*
G01X257725Y-219925D02*
X259125D01*
G01X258425D02*
Y-223925D01*
G01X257725D02*
X259125D01*
G01X264392D02*
X262058D01*
Y-219925D01*
X264392D01*
G01X263458Y-221858D02*
X262058D01*
G01X268025Y-219925D02*
Y-223925D01*
G01X266683Y-219925D02*
X269367D01*
G01X271367Y-223925D02*
X272825Y-219925D01*
X274283Y-223925D01*
G01X273758Y-222525D02*
X271892D01*
G01X276458Y-223925D02*
Y-219925D01*
X277917D01*
X278383Y-220125D01*
X278675Y-220392D01*
X278792Y-220925D01*
X278675Y-221458D01*
X278325Y-221792D01*
X277917Y-221992D01*
X276458D01*
G01X277917D02*
X278792Y-223925D01*
G01X282425D02*
Y-222125D01*
X281258Y-219925D01*
G01X283592D02*
X282425Y-222125D01*
G01X287517Y-225258D02*
X288100Y-224592D01*
X288392Y-223925D01*
Y-221258D01*
X288100Y-220592D01*
X287517Y-219925D01*
G01X79075Y-208758D02*
X82575D01*
G01X83875D02*
X87375D01*
G01X88675D02*
X92175D01*
G01X98917Y-207425D02*
Y-203425D01*
X101133D01*
G01X100317Y-205358D02*
X98917D01*
G01X104125Y-203425D02*
X105525D01*
G01X104825D02*
Y-207425D01*
G01X104125D02*
X105525D01*
G01X108342Y-203425D02*
Y-206292D01*
X108575Y-206892D01*
X109042Y-207292D01*
X109625Y-207425D01*
X110208Y-207292D01*
X110675Y-206892D01*
X110908Y-206292D01*
Y-203425D01*
G01X114425Y-207425D02*
X113958Y-207358D01*
X113550Y-207092D01*
X113200Y-206692D01*
X112967Y-206225D01*
X112850Y-205692D01*
Y-205158D01*
X112967Y-204625D01*
X113200Y-204158D01*
X113550Y-203758D01*
X113958Y-203492D01*
X114425Y-203425D01*
X114892Y-203492D01*
X115300Y-203758D01*
X115650Y-204158D01*
X115883Y-204625D01*
X116000Y-205158D01*
Y-205692D01*
X115883Y-206225D01*
X115650Y-206692D01*
X115300Y-207092D01*
X114892Y-207358D01*
X114425Y-207425D01*
G01X123733Y-208758D02*
X123150Y-208092D01*
X122858Y-207425D01*
Y-204758D01*
X123150Y-204092D01*
X123733Y-203425D01*
G01X127717Y-207425D02*
Y-203425D01*
X129933D01*
G01X129117Y-205358D02*
X127717D01*
G01X132458Y-207425D02*
Y-203425D01*
X133917D01*
X134383Y-203625D01*
X134675Y-203892D01*
X134792Y-204425D01*
X134675Y-204958D01*
X134325Y-205292D01*
X133917Y-205492D01*
X132458D01*
G01X133917D02*
X134792Y-207425D01*
G01X139592D02*
X137258D01*
Y-203425D01*
X139592D01*
G01X138658Y-205358D02*
X137258D01*
G01X144392Y-207425D02*
X142058D01*
Y-203425D01*
X144392D01*
G01X143458Y-205358D02*
X142058D01*
G01X146800Y-206892D02*
X147267Y-207225D01*
X147792Y-207425D01*
X148258D01*
X148725Y-207225D01*
X149075Y-206892D01*
X149250Y-206425D01*
X149133Y-205958D01*
X148842Y-205558D01*
X148317Y-205292D01*
X147617Y-205158D01*
X147208Y-204892D01*
X147033Y-204425D01*
X147150Y-203958D01*
X147442Y-203625D01*
X147850Y-203425D01*
X148258D01*
X148667Y-203558D01*
X149017Y-203892D01*
G01X154108Y-203758D02*
X153758Y-203558D01*
X153350Y-203425D01*
X152883D01*
X152358Y-203625D01*
X151950Y-203958D01*
X151658Y-204358D01*
X151425Y-205025D01*
X151367Y-205625D01*
X151483Y-206225D01*
X151658Y-206625D01*
X152008Y-207025D01*
X152417Y-207292D01*
X152825Y-207425D01*
X153233D01*
X153642Y-207292D01*
X153992Y-207092D01*
X154283Y-206825D01*
G01X156167Y-207425D02*
X157625Y-203425D01*
X159083Y-207425D01*
G01X158558Y-206025D02*
X156692D01*
G01X161258Y-203425D02*
Y-207425D01*
X163592D01*
G01X168392D02*
X166058D01*
Y-203425D01*
X168392D01*
G01X167458Y-205358D02*
X166058D01*
G01X176125Y-203425D02*
X177525D01*
G01X176825D02*
Y-207425D01*
G01X176125D02*
X177525D01*
G01X180283D02*
Y-203425D01*
X182967Y-207425D01*
Y-203425D01*
G01X186425D02*
Y-207425D01*
G01X185083Y-203425D02*
X187767D01*
G01X192392Y-207425D02*
X190058D01*
Y-203425D01*
X192392D01*
G01X191458Y-205358D02*
X190058D01*
G01X194858Y-207425D02*
Y-203425D01*
X196317D01*
X196783Y-203625D01*
X197075Y-203892D01*
X197192Y-204425D01*
X197075Y-204958D01*
X196725Y-205292D01*
X196317Y-205492D01*
X194858D01*
G01X196317D02*
X197192Y-207425D01*
G01X199483D02*
Y-203425D01*
X202167Y-207425D01*
Y-203425D01*
G01X204167Y-207425D02*
X205625Y-203425D01*
X207083Y-207425D01*
G01X206558Y-206025D02*
X204692D01*
G01X209258Y-203425D02*
Y-207425D01*
X211592D01*
G01X218742Y-203425D02*
Y-206292D01*
X218975Y-206892D01*
X219442Y-207292D01*
X220025Y-207425D01*
X220608Y-207292D01*
X221075Y-206892D01*
X221308Y-206292D01*
Y-203425D01*
G01X223600Y-206892D02*
X224067Y-207225D01*
X224592Y-207425D01*
X225058D01*
X225525Y-207225D01*
X225875Y-206892D01*
X226050Y-206425D01*
X225933Y-205958D01*
X225642Y-205558D01*
X225117Y-205292D01*
X224417Y-205158D01*
X224008Y-204892D01*
X223833Y-204425D01*
X223950Y-203958D01*
X224242Y-203625D01*
X224650Y-203425D01*
X225058D01*
X225467Y-203558D01*
X225817Y-203892D01*
G01X230792Y-207425D02*
X228458D01*
Y-203425D01*
X230792D01*
G01X229858Y-205358D02*
X228458D01*
G01X239225Y-207425D02*
X238758Y-207358D01*
X238350Y-207092D01*
X238000Y-206692D01*
X237767Y-206225D01*
X237650Y-205692D01*
Y-205158D01*
X237767Y-204625D01*
X238000Y-204158D01*
X238350Y-203758D01*
X238758Y-203492D01*
X239225Y-203425D01*
X239692Y-203492D01*
X240100Y-203758D01*
X240450Y-204158D01*
X240683Y-204625D01*
X240800Y-205158D01*
Y-205692D01*
X240683Y-206225D01*
X240450Y-206692D01*
X240100Y-207092D01*
X239692Y-207358D01*
X239225Y-207425D01*
G01X242683D02*
Y-203425D01*
X245367Y-207425D01*
Y-203425D01*
G01X247658D02*
Y-207425D01*
X249992D01*
G01X253625D02*
Y-205625D01*
X252458Y-203425D01*
G01X254792D02*
X253625Y-205625D01*
G01X258717Y-208758D02*
X259300Y-208092D01*
X259592Y-207425D01*
Y-204758D01*
X259300Y-204092D01*
X258717Y-203425D01*
G01X79075Y-192758D02*
X82575D01*
G01X83875D02*
X87375D01*
G01X88675D02*
X92175D01*
G01X98858Y-191425D02*
Y-187425D01*
X100258D01*
X100725Y-187625D01*
X101075Y-188092D01*
X101192Y-188625D01*
X101075Y-189158D01*
X100783Y-189558D01*
X100258Y-189758D01*
X98858D01*
G01X103542Y-187425D02*
Y-190292D01*
X103775Y-190892D01*
X104242Y-191292D01*
X104825Y-191425D01*
X105408Y-191292D01*
X105875Y-190892D01*
X106108Y-190292D01*
Y-187425D01*
G01X110092Y-189292D02*
X110325Y-189092D01*
X110500Y-188758D01*
X110617Y-188292D01*
X110500Y-187892D01*
X110267Y-187625D01*
X109858Y-187425D01*
X108283D01*
Y-191425D01*
X110208D01*
X110617Y-191158D01*
X110850Y-190758D01*
X110967Y-190292D01*
X110850Y-189825D01*
X110500Y-189425D01*
X110092Y-189292D01*
X108283D01*
G01X113725Y-187425D02*
X115125D01*
G01X114425D02*
Y-191425D01*
G01X113725D02*
X115125D01*
G01X123733Y-192758D02*
X123150Y-192092D01*
X122858Y-191425D01*
Y-188758D01*
X123150Y-188092D01*
X123733Y-187425D01*
G01X127658Y-191425D02*
Y-187425D01*
X129058D01*
X129525Y-187625D01*
X129875Y-188092D01*
X129992Y-188625D01*
X129875Y-189158D01*
X129583Y-189558D01*
X129058Y-189758D01*
X127658D01*
G01X132342Y-187425D02*
Y-190292D01*
X132575Y-190892D01*
X133042Y-191292D01*
X133625Y-191425D01*
X134208Y-191292D01*
X134675Y-190892D01*
X134908Y-190292D01*
Y-187425D01*
G01X138892Y-189292D02*
X139125Y-189092D01*
X139300Y-188758D01*
X139417Y-188292D01*
X139300Y-187892D01*
X139067Y-187625D01*
X138658Y-187425D01*
X137083D01*
Y-191425D01*
X139008D01*
X139417Y-191158D01*
X139650Y-190758D01*
X139767Y-190292D01*
X139650Y-189825D01*
X139300Y-189425D01*
X138892Y-189292D01*
X137083D01*
G01X142058Y-187425D02*
Y-191425D01*
X144392D01*
G01X147325Y-187425D02*
X148725D01*
G01X148025D02*
Y-191425D01*
G01X147325D02*
X148725D01*
G01X154108Y-187758D02*
X153758Y-187558D01*
X153350Y-187425D01*
X152883D01*
X152358Y-187625D01*
X151950Y-187958D01*
X151658Y-188358D01*
X151425Y-189025D01*
X151367Y-189625D01*
X151483Y-190225D01*
X151658Y-190625D01*
X152008Y-191025D01*
X152417Y-191292D01*
X152825Y-191425D01*
X153233D01*
X153642Y-191292D01*
X153992Y-191092D01*
X154283Y-190825D01*
G01X161725Y-187425D02*
X163125D01*
G01X162425D02*
Y-191425D01*
G01X161725D02*
X163125D01*
G01X165883D02*
Y-187425D01*
X168567Y-191425D01*
Y-187425D01*
G01X170917Y-191425D02*
Y-187425D01*
X173133D01*
G01X172317Y-189358D02*
X170917D01*
G01X176825Y-191425D02*
X176358Y-191358D01*
X175950Y-191092D01*
X175600Y-190692D01*
X175367Y-190225D01*
X175250Y-189692D01*
Y-189158D01*
X175367Y-188625D01*
X175600Y-188158D01*
X175950Y-187758D01*
X176358Y-187492D01*
X176825Y-187425D01*
X177292Y-187492D01*
X177700Y-187758D01*
X178050Y-188158D01*
X178283Y-188625D01*
X178400Y-189158D01*
Y-189692D01*
X178283Y-190225D01*
X178050Y-190692D01*
X177700Y-191092D01*
X177292Y-191358D01*
X176825Y-191425D01*
G01X180458D02*
Y-187425D01*
X181917D01*
X182383Y-187625D01*
X182675Y-187892D01*
X182792Y-188425D01*
X182675Y-188958D01*
X182325Y-189292D01*
X181917Y-189492D01*
X180458D01*
G01X181917D02*
X182792Y-191425D01*
G01X184908D02*
Y-187425D01*
X186425Y-190758D01*
X187942Y-187425D01*
Y-191425D01*
G01X189767D02*
X191225Y-187425D01*
X192683Y-191425D01*
G01X192158Y-190025D02*
X190292D01*
G01X196025Y-187425D02*
Y-191425D01*
G01X194683Y-187425D02*
X197367D01*
G01X200125D02*
X201525D01*
G01X200825D02*
Y-191425D01*
G01X200125D02*
X201525D01*
G01X205625D02*
X205158Y-191358D01*
X204750Y-191092D01*
X204400Y-190692D01*
X204167Y-190225D01*
X204050Y-189692D01*
Y-189158D01*
X204167Y-188625D01*
X204400Y-188158D01*
X204750Y-187758D01*
X205158Y-187492D01*
X205625Y-187425D01*
X206092Y-187492D01*
X206500Y-187758D01*
X206850Y-188158D01*
X207083Y-188625D01*
X207200Y-189158D01*
Y-189692D01*
X207083Y-190225D01*
X206850Y-190692D01*
X206500Y-191092D01*
X206092Y-191358D01*
X205625Y-191425D01*
G01X209083D02*
Y-187425D01*
X211767Y-191425D01*
Y-187425D01*
G01X215517Y-192758D02*
X216100Y-192092D01*
X216392Y-191425D01*
Y-188758D01*
X216100Y-188092D01*
X215517Y-187425D01*
G01X69483Y-159425D02*
Y-155425D01*
X72167Y-159425D01*
Y-155425D01*
G01X74167Y-159425D02*
X75625Y-155425D01*
X77083Y-159425D01*
G01X76558Y-158025D02*
X74692D01*
G01X78908Y-159425D02*
Y-155425D01*
X80425Y-158758D01*
X81942Y-155425D01*
Y-159425D01*
G01X86392D02*
X84058D01*
Y-155425D01*
X86392D01*
G01X85458Y-157358D02*
X84058D01*
G01X119483Y-239425D02*
Y-235425D01*
X122167Y-239425D01*
Y-235425D01*
G01X124342D02*
Y-238292D01*
X124575Y-238892D01*
X125042Y-239292D01*
X125625Y-239425D01*
X126208Y-239292D01*
X126675Y-238892D01*
X126908Y-238292D01*
Y-235425D01*
G01X128908Y-239425D02*
Y-235425D01*
X130425Y-238758D01*
X131942Y-235425D01*
Y-239425D01*
G01X135692Y-237292D02*
X135925Y-237092D01*
X136100Y-236758D01*
X136217Y-236292D01*
X136100Y-235892D01*
X135867Y-235625D01*
X135458Y-235425D01*
X133883D01*
Y-239425D01*
X135808D01*
X136217Y-239158D01*
X136450Y-238758D01*
X136567Y-238292D01*
X136450Y-237825D01*
X136100Y-237425D01*
X135692Y-237292D01*
X133883D01*
G01X141192Y-239425D02*
X138858D01*
Y-235425D01*
X141192D01*
G01X140258Y-237358D02*
X138858D01*
G01X143658Y-239425D02*
Y-235425D01*
X145117D01*
X145583Y-235625D01*
X145875Y-235892D01*
X145992Y-236425D01*
X145875Y-236958D01*
X145525Y-237292D01*
X145117Y-237492D01*
X143658D01*
G01X145117D02*
X145992Y-239425D01*
G01X154425Y-246425D02*
Y-240125D01*
X153485Y-241385D01*
G01Y-246425D02*
X155365D01*
G01X160568D02*
X160725Y-245060D01*
X160960Y-243905D01*
X161273Y-242855D01*
X161665Y-241700D01*
X162292Y-240125D01*
X159158D01*
G01X167025D02*
X166398Y-240335D01*
X165928Y-240860D01*
X165615Y-241490D01*
X165380Y-242330D01*
X165302Y-243275D01*
X165380Y-244220D01*
X165615Y-245060D01*
X165928Y-245690D01*
X166398Y-246215D01*
X167025Y-246425D01*
X167652Y-246215D01*
X168122Y-245690D01*
X168435Y-245060D01*
X168670Y-244220D01*
X168748Y-243275D01*
X168670Y-242330D01*
X168435Y-241490D01*
X168122Y-240860D01*
X167652Y-240335D01*
X167025Y-240125D01*
G01X172307Y-244325D02*
X174343D01*
G01X178137Y-241175D02*
X178607Y-240545D01*
X179155Y-240230D01*
X179782Y-240125D01*
X180565Y-240335D01*
X181113Y-240860D01*
X181270Y-241490D01*
X181192Y-242120D01*
X180878Y-242645D01*
X179312Y-243695D01*
X178607Y-244430D01*
X178137Y-245480D01*
X177980Y-246425D01*
X181270D01*
G01X185768D02*
X185925Y-245060D01*
X186160Y-243905D01*
X186473Y-242855D01*
X186865Y-241700D01*
X187492Y-240125D01*
X184358D01*
G01X192068Y-246425D02*
X192225Y-245060D01*
X192460Y-243905D01*
X192773Y-242855D01*
X193165Y-241700D01*
X193792Y-240125D01*
X190658D01*
G01X197193Y-245690D02*
X197742Y-246215D01*
X198368Y-246425D01*
X198995Y-246215D01*
X199543Y-245585D01*
X199935Y-244640D01*
X200092Y-243695D01*
Y-242540D01*
X199935Y-241595D01*
X199543Y-240755D01*
X199073Y-240335D01*
X198525Y-240125D01*
X197898Y-240335D01*
X197428Y-240755D01*
X197115Y-241385D01*
X196958Y-242225D01*
X197115Y-242960D01*
X197507Y-243695D01*
X197977Y-244115D01*
X198525Y-244220D01*
X199152Y-244010D01*
X199622Y-243485D01*
X200092Y-242540D01*
G01X203337Y-241175D02*
X203807Y-240545D01*
X204355Y-240230D01*
X204982Y-240125D01*
X205765Y-240335D01*
X206313Y-240860D01*
X206470Y-241490D01*
X206392Y-242120D01*
X206078Y-242645D01*
X204512Y-243695D01*
X203807Y-244430D01*
X203337Y-245480D01*
X203180Y-246425D01*
X206470D01*
G01X247358D02*
Y-240125D01*
X249317D01*
X249943Y-240440D01*
X250335Y-240860D01*
X250492Y-241700D01*
X250335Y-242540D01*
X249865Y-243065D01*
X249317Y-243380D01*
X247358D01*
G01X249317D02*
X250492Y-246425D01*
G01X256792D02*
X253658D01*
Y-240125D01*
X256792D01*
G01X255538Y-243170D02*
X253658D01*
G01X259567Y-240125D02*
X261525Y-246425D01*
X263483Y-240125D01*
G01X272402Y-246425D02*
Y-240125D01*
X273968D01*
X274595Y-240440D01*
X275065Y-240860D01*
X275457Y-241490D01*
X275770Y-242225D01*
X275848Y-243275D01*
X275770Y-244325D01*
X275457Y-245060D01*
X275065Y-245690D01*
X274595Y-246110D01*
X273968Y-246425D01*
X272402D01*
G01X154388Y-173425D02*
Y-167125D01*
X156425Y-172375D01*
X158462Y-167125D01*
Y-173425D01*
G01X161158D02*
Y-167125D01*
X163117D01*
X163743Y-167440D01*
X164135Y-167860D01*
X164292Y-168700D01*
X164135Y-169540D01*
X163665Y-170065D01*
X163117Y-170380D01*
X161158D01*
G01X163117D02*
X164292Y-173425D01*
G01X169652Y-170065D02*
X169965Y-169750D01*
X170200Y-169225D01*
X170357Y-168490D01*
X170200Y-167860D01*
X169887Y-167440D01*
X169338Y-167125D01*
X167223D01*
Y-173425D01*
X169808D01*
X170357Y-173005D01*
X170670Y-172375D01*
X170827Y-171640D01*
X170670Y-170905D01*
X170200Y-170275D01*
X169652Y-170065D01*
X167223D01*
G01X174307Y-171325D02*
X176343D01*
G01X179902Y-173425D02*
Y-167125D01*
G01X182878D02*
X179902Y-171010D01*
G01X183348Y-173425D02*
X181233Y-169225D01*
G01X185575Y-167125D02*
X186672Y-173425D01*
X187925Y-167125D01*
X189178Y-173425D01*
X190275Y-167125D01*
G01X194225D02*
X193598Y-167335D01*
X193128Y-167860D01*
X192815Y-168490D01*
X192580Y-169330D01*
X192502Y-170275D01*
X192580Y-171220D01*
X192815Y-172060D01*
X193128Y-172690D01*
X193598Y-173215D01*
X194225Y-173425D01*
X194852Y-173215D01*
X195322Y-172690D01*
X195635Y-172060D01*
X195870Y-171220D01*
X195948Y-170275D01*
X195870Y-169330D01*
X195635Y-168490D01*
X195322Y-167860D01*
X194852Y-167335D01*
X194225Y-167125D01*
G01X200525Y-173425D02*
Y-167125D01*
X199585Y-168385D01*
G01Y-173425D02*
X201465D01*
G01X205493Y-172690D02*
X206042Y-173215D01*
X206668Y-173425D01*
X207295Y-173215D01*
X207843Y-172585D01*
X208235Y-171640D01*
X208392Y-170695D01*
Y-169540D01*
X208235Y-168595D01*
X207843Y-167755D01*
X207373Y-167335D01*
X206825Y-167125D01*
X206198Y-167335D01*
X205728Y-167755D01*
X205415Y-168385D01*
X205258Y-169225D01*
X205415Y-169960D01*
X205807Y-170695D01*
X206277Y-171115D01*
X206825Y-171220D01*
X207452Y-171010D01*
X207922Y-170485D01*
X208392Y-169540D01*
G01X213125Y-167125D02*
X212498Y-167335D01*
X212028Y-167860D01*
X211715Y-168490D01*
X211480Y-169330D01*
X211402Y-170275D01*
X211480Y-171220D01*
X211715Y-172060D01*
X212028Y-172690D01*
X212498Y-173215D01*
X213125Y-173425D01*
X213752Y-173215D01*
X214222Y-172690D01*
X214535Y-172060D01*
X214770Y-171220D01*
X214848Y-170275D01*
X214770Y-169330D01*
X214535Y-168490D01*
X214222Y-167860D01*
X213752Y-167335D01*
X213125Y-167125D01*
G01X217702Y-172165D02*
X218172Y-172900D01*
X218798Y-173320D01*
X219503Y-173425D01*
X220130Y-173320D01*
X220757Y-172795D01*
X221148Y-172165D01*
X221227Y-171535D01*
X221070Y-170800D01*
X220522Y-170275D01*
X219973Y-170065D01*
X219268D01*
G01X219973D02*
X220443Y-169750D01*
X220835Y-169225D01*
X220992Y-168595D01*
X220835Y-167965D01*
X220443Y-167440D01*
X219738Y-167125D01*
X219033Y-167230D01*
X218328Y-167650D01*
G01X224237Y-168175D02*
X224707Y-167545D01*
X225255Y-167230D01*
X225882Y-167125D01*
X226665Y-167335D01*
X227213Y-167860D01*
X227370Y-168490D01*
X227292Y-169120D01*
X226978Y-169645D01*
X225412Y-170695D01*
X224707Y-171430D01*
X224237Y-172480D01*
X224080Y-173425D01*
X227370D01*
M02*
