G04 ================== begin FILE IDENTIFICATION RECORD ==================*
G04 Layout Name:  LAY-27792_D.brd*
G04 Film Name:    PSP.art*
G04 File Format:  Gerber RS274X*
G04 File Origin:  Cadence Allegro 16.5-S035*
G04 Origin Date:  Tue Oct 22 17:05:33 2013*
G04 *
G04 Layer:  PACKAGE GEOMETRY/PASTEMASK_TOP*
G04 Layer:  PIN/PASTEMASK_TOP*
G04 Layer:  DRAWING FORMAT/FILM_TITLE_BLOCK*
G04 Layer:  DRAWING FORMAT/FILM_OUTLINE*
G04 Layer:  BOARD GEOMETRY/OUTLINE*
G04 Layer:  BOARD GEOMETRY/PASTEMASK_TOP*
G04 *
G04 Offset:    (0.00 0.00)*
G04 Mirror:    No*
G04 Mode:      Positive*
G04 Rotation:  0*
G04 FullContactRelief:  No*
G04 UndefLineWidth:     8.00*
G04 ================== end FILE IDENTIFICATION RECORD ====================*
%FSLAX55Y55*MOIN*%
%IR0*IPPOS*OFA0.00000B0.00000*MIA0B0*SFA1.00000B1.00000*%
%ADD17R,.135X.07*%
%ADD16C,.025*%
%ADD12R,.138X.081*%
%ADD11R,.157X.081*%
%ADD27R,.063X.169*%
%ADD30R,.014X.014*%
%ADD23O,.014X.032*%
%ADD29O,.01X.028*%
%ADD24O,.032X.014*%
%ADD34R,.04X.05*%
%ADD25O,.028X.01*%
%ADD33R,.05X.04*%
%ADD22O,.06X.035*%
%ADD20R,.02X.018*%
%ADD31O,.035X.06*%
%ADD26R,.018X.02*%
%ADD19R,.09X.02*%
%ADD15R,.043X.051*%
%ADD35R,.051X.043*%
%ADD18O,.045X.035*%
%ADD14O,.035X.045*%
%ADD28R,.075X.043*%
%ADD21R,.047X.055*%
%ADD13R,.051X.059*%
%ADD10R,.079X.04*%
%ADD32R,.027X.039*%
%ADD36C,.01*%
%ADD37C,.02*%
%ADD38C,.005*%
%ADD39C,.006*%
G75*
%LPD*%
G75*
G36*
G01X93864Y99879D02*
Y103910D01*
X90009D01*
Y99879D01*
X93864D01*
G37*
G36*
G01Y94429D02*
Y98460D01*
X90009D01*
Y94429D01*
X93864D01*
G37*
G36*
G01X88164D02*
Y98460D01*
X84310D01*
Y94429D01*
X88164D01*
G37*
G36*
G01Y99879D02*
Y103910D01*
X84310D01*
Y99879D01*
X88164D01*
G37*
G36*
G01X76916Y106585D02*
Y110227D01*
X73274D01*
Y106585D01*
X76916D01*
G37*
G36*
G01X82065D02*
Y110227D01*
X78423D01*
Y106585D01*
X82065D01*
G37*
G36*
G01X76916Y111734D02*
Y115376D01*
X73274D01*
Y111734D01*
X76916D01*
G37*
G36*
G01X82065D02*
Y115376D01*
X78423D01*
Y111734D01*
X82065D01*
G37*
G36*
G01X56335Y-32233D02*
X62335D01*
Y-38233D01*
X56335D01*
Y-32233D01*
G37*
G36*
G01Y-40131D02*
X62335D01*
Y-46131D01*
X56335D01*
Y-40131D01*
G37*
G36*
G01X48437D02*
X54437D01*
Y-46131D01*
X48437D01*
Y-40131D01*
G37*
G36*
G01Y-32233D02*
X54437D01*
Y-38233D01*
X48437D01*
Y-32233D01*
G37*
G54D10*
X-7073Y23992D03*
X16549D03*
G54D20*
X28528Y85571D03*
Y88523D03*
X31115Y119337D03*
Y116385D03*
X68248Y157099D03*
Y160051D03*
X60000Y166357D03*
Y163405D03*
X76685Y131837D03*
Y128885D03*
X72748Y140051D03*
Y137099D03*
Y150051D03*
Y147099D03*
X76685Y141880D03*
Y138928D03*
X80485Y148889D03*
Y151841D03*
X72748Y160051D03*
Y157099D03*
X76685Y151841D03*
Y148889D03*
X72748Y166357D03*
Y163405D03*
X90721Y166346D03*
Y163394D03*
G54D11*
X4116Y-63133D03*
Y-24157D03*
G54D21*
X41350Y107744D03*
Y116406D03*
X47650Y107744D03*
Y116406D03*
G54D30*
X90465Y111965D03*
X94402D03*
X90465Y115902D03*
X94402D03*
G54D12*
X20848Y-63133D03*
Y-24157D03*
G54D13*
X10612Y-12974D03*
X18312D03*
G54D31*
X120092Y105387D03*
X112492D03*
G54D22*
X69349Y-61626D03*
Y-54026D03*
G54D32*
X131125Y98675D03*
X127375Y88475D03*
X123625Y98675D03*
X131125Y88475D03*
X123625D03*
G54D14*
X8426Y41375D03*
X14426D03*
X67797Y81088D03*
X62842Y67567D03*
X68842D03*
X54289Y109479D03*
X60289D03*
X73797Y81088D03*
X105431Y58880D03*
X99431D03*
X117375Y82575D03*
X115996Y122188D03*
X109996D03*
X116105Y113926D03*
X110105D03*
X136500Y29900D03*
X142500D03*
X136500Y38300D03*
X142500D03*
X128875Y82575D03*
X134875D03*
X123375D03*
X168771Y77571D03*
X162771D03*
G54D23*
X61784Y-48788D03*
X59225D03*
X56666D03*
X54106D03*
X51547D03*
X48988D03*
Y-29576D03*
X51547D03*
X54106D03*
X56666D03*
X59225D03*
X61784D03*
G54D15*
X3085Y41354D03*
X-4915D03*
G54D33*
X143575Y99575D03*
Y86575D03*
G54D24*
X64992Y-32784D03*
Y-35343D03*
Y-37902D03*
Y-40462D03*
Y-43021D03*
Y-45580D03*
X45780D03*
Y-43021D03*
Y-40462D03*
Y-37902D03*
Y-35343D03*
Y-32784D03*
G54D25*
X68308Y109996D03*
Y92280D03*
Y94248D03*
Y108028D03*
Y96217D03*
Y98185D03*
Y100154D03*
Y102122D03*
Y104091D03*
Y106059D03*
Y111965D03*
Y113933D03*
Y115902D03*
Y117870D03*
X98842Y102122D03*
Y100154D03*
Y104091D03*
Y106059D03*
Y108028D03*
Y92280D03*
Y94248D03*
Y96217D03*
Y98185D03*
Y109996D03*
Y117870D03*
Y111965D03*
Y113933D03*
Y115902D03*
G54D34*
X124491Y113259D03*
X137491D03*
G54D16*
X98Y87126D03*
X-3902D03*
X41402Y-47011D03*
Y-43011D03*
X21913Y978D03*
X25913D03*
X21913Y-2871D03*
X25913D03*
X20410Y44597D03*
Y40597D03*
X19044Y55814D03*
X23044D03*
X33626Y107928D03*
X29626D03*
X35000Y120406D03*
Y116406D03*
X55006Y-59685D03*
Y-55685D03*
X50676Y-59497D03*
Y-55497D03*
X63247Y-24113D03*
X59247D03*
X64837Y72700D03*
X68837D03*
X60800Y81024D03*
X56800D03*
X45430Y98169D03*
Y94169D03*
X57446Y93428D03*
X61446D03*
X57075Y123575D03*
X61075D03*
X57075Y115575D03*
X61075D03*
X57075Y119575D03*
X61075D03*
X78605Y-48012D03*
X78583Y-36019D03*
Y-40019D03*
X78605Y-44012D03*
X73565Y-40010D03*
Y-44010D03*
X89307Y60031D03*
X85307D03*
X82076Y126634D03*
X86076D03*
X107805Y100219D03*
Y96219D03*
X137075Y94575D03*
Y98575D03*
X174075Y120575D03*
Y116575D03*
G54D35*
Y134825D03*
Y126825D03*
G54D26*
X57976Y135075D03*
X60928D03*
X54776D03*
X51824D03*
X57976Y130575D03*
X55024D03*
X62024D03*
X64976D03*
X54776Y142551D03*
X57728D03*
X54776Y139075D03*
X51824D03*
X51524Y163405D03*
X54476D03*
X68248Y167284D03*
X65296D03*
Y163405D03*
X68248D03*
X79637Y135404D03*
X76685D03*
X83437Y155369D03*
X80485D03*
X72748Y143575D03*
X69796D03*
X69794Y153560D03*
X72746D03*
X79636Y145400D03*
X76684D03*
X83437Y159934D03*
X80485D03*
Y163394D03*
X83437D03*
X99267Y163405D03*
X96315D03*
G54D17*
X37878Y-61130D03*
X127807Y133562D03*
G54D36*
G01X-108925Y-231425D02*
X291075D01*
G01X-108925Y-201425D02*
Y-181425D01*
X291075D01*
G01X-58925Y-251425D02*
Y-231425D01*
G01X66575Y-251425D02*
Y-231425D01*
G01X66075Y-181425D02*
Y-151425D01*
G01X116075Y-251425D02*
Y-231425D01*
G54D18*
X35961Y-49040D03*
Y-43040D03*
X61135Y-59970D03*
Y-53970D03*
X117342Y92635D03*
Y98635D03*
G54D27*
X91633Y-51834D03*
Y-33360D03*
G54D37*
G01X291075Y-151425D02*
Y-251425D01*
X-108925D01*
G01D02*
Y-151425D01*
X291075D01*
G54D28*
X76590Y72788D03*
Y62946D03*
G54D19*
X20750Y-46795D03*
Y-49944D03*
Y-37346D03*
Y-40495D03*
Y-43645D03*
G54D38*
G01X185100Y-15000D02*
Y-75100D01*
X-15075D01*
X-15146Y-75029D01*
Y184956D01*
X-15142Y184960D01*
X185094D01*
X185100Y184954D01*
Y-15000D01*
G54D29*
X80622Y89808D03*
X74717D03*
X76685D03*
X72748D03*
X70780D03*
X86528D03*
X88496D03*
X90465D03*
X92433D03*
X82591D03*
X84559D03*
X78654D03*
X70780Y120342D03*
X84559D03*
X80622D03*
X76685D03*
X92433D03*
X90465D03*
X88496D03*
X86528D03*
X72748D03*
X78654D03*
X74717D03*
X82591D03*
X94402Y89808D03*
X96370D03*
Y120342D03*
X94402D03*
G54D39*
G01X-101575Y-247925D02*
Y-241625D01*
X-102515Y-242885D01*
G01Y-247925D02*
X-100635D01*
G01X-88975D02*
X-89602Y-247820D01*
X-90150Y-247400D01*
X-90620Y-246770D01*
X-90933Y-246035D01*
X-91090Y-245195D01*
Y-244355D01*
X-90933Y-243515D01*
X-90620Y-242780D01*
X-90150Y-242150D01*
X-89602Y-241730D01*
X-88975Y-241625D01*
X-88348Y-241730D01*
X-87800Y-242150D01*
X-87330Y-242780D01*
X-87017Y-243515D01*
X-86860Y-244355D01*
Y-245195D01*
X-87017Y-246035D01*
X-87330Y-246770D01*
X-87800Y-247400D01*
X-88348Y-247820D01*
X-88975Y-247925D01*
G01X-84163D02*
Y-241625D01*
X-81187D01*
G01X-82283Y-244670D02*
X-84163D01*
G01X-71407Y-247190D02*
X-70858Y-247715D01*
X-70232Y-247925D01*
X-69605Y-247715D01*
X-69057Y-247085D01*
X-68665Y-246140D01*
X-68508Y-245195D01*
Y-244040D01*
X-68665Y-243095D01*
X-69057Y-242255D01*
X-69527Y-241835D01*
X-70075Y-241625D01*
X-70702Y-241835D01*
X-71172Y-242255D01*
X-71485Y-242885D01*
X-71642Y-243725D01*
X-71485Y-244460D01*
X-71093Y-245195D01*
X-70623Y-245615D01*
X-70075Y-245720D01*
X-69448Y-245510D01*
X-68978Y-244985D01*
X-68508Y-244040D01*
G01X-105400Y-238892D02*
X-104933Y-239225D01*
X-104408Y-239425D01*
X-103942D01*
X-103475Y-239225D01*
X-103125Y-238892D01*
X-102950Y-238425D01*
X-103067Y-237958D01*
X-103358Y-237558D01*
X-103883Y-237292D01*
X-104583Y-237158D01*
X-104992Y-236892D01*
X-105167Y-236425D01*
X-105050Y-235958D01*
X-104758Y-235625D01*
X-104350Y-235425D01*
X-103942D01*
X-103533Y-235558D01*
X-103183Y-235892D01*
G01X-100600Y-239425D02*
Y-235425D01*
G01X-98150D02*
Y-239425D01*
G01Y-237425D02*
X-100600D01*
G01X-93408Y-239425D02*
X-95742D01*
Y-235425D01*
X-93408D01*
G01X-94342Y-237358D02*
X-95742D01*
G01X-88608Y-239425D02*
X-90942D01*
Y-235425D01*
X-88608D01*
G01X-89542Y-237358D02*
X-90942D01*
G01X-84975Y-235425D02*
Y-239425D01*
G01X-86317Y-235425D02*
X-83633D01*
G01X-97283Y-228425D02*
Y-224425D01*
X-95067D01*
G01X-95883Y-226358D02*
X-97283D01*
G01X-92542Y-228425D02*
Y-224425D01*
X-91083D01*
X-90617Y-224625D01*
X-90325Y-224892D01*
X-90208Y-225425D01*
X-90325Y-225958D01*
X-90675Y-226292D01*
X-91083Y-226492D01*
X-92542D01*
G01X-91083D02*
X-90208Y-228425D01*
G01X-85408D02*
X-87742D01*
Y-224425D01*
X-85408D01*
G01X-86342Y-226358D02*
X-87742D01*
G01X-80608Y-228425D02*
X-82942D01*
Y-224425D01*
X-80608D01*
G01X-81542Y-226358D02*
X-82942D01*
G01X-78200Y-227892D02*
X-77733Y-228225D01*
X-77208Y-228425D01*
X-76742D01*
X-76275Y-228225D01*
X-75925Y-227892D01*
X-75750Y-227425D01*
X-75867Y-226958D01*
X-76158Y-226558D01*
X-76683Y-226292D01*
X-77383Y-226158D01*
X-77792Y-225892D01*
X-77967Y-225425D01*
X-77850Y-224958D01*
X-77558Y-224625D01*
X-77150Y-224425D01*
X-76742D01*
X-76333Y-224558D01*
X-75983Y-224892D01*
G01X-70892Y-224758D02*
X-71242Y-224558D01*
X-71650Y-224425D01*
X-72117D01*
X-72642Y-224625D01*
X-73050Y-224958D01*
X-73342Y-225358D01*
X-73575Y-226025D01*
X-73633Y-226625D01*
X-73517Y-227225D01*
X-73342Y-227625D01*
X-72992Y-228025D01*
X-72583Y-228292D01*
X-72175Y-228425D01*
X-71767D01*
X-71358Y-228292D01*
X-71008Y-228092D01*
X-70717Y-227825D01*
G01X-68833Y-228425D02*
X-67375Y-224425D01*
X-65917Y-228425D01*
G01X-66442Y-227025D02*
X-68308D01*
G01X-63742Y-224425D02*
Y-228425D01*
X-61408D01*
G01X-56608D02*
X-58942D01*
Y-224425D01*
X-56608D01*
G01X-57542Y-226358D02*
X-58942D01*
G01X-52975Y-228558D02*
X-53092Y-228492D01*
Y-228358D01*
X-52975Y-228292D01*
X-52858Y-228358D01*
Y-228492D01*
X-52975Y-228558D01*
G01X-97175Y-220425D02*
X-97642Y-220358D01*
X-98050Y-220092D01*
X-98400Y-219692D01*
X-98633Y-219225D01*
X-98750Y-218692D01*
Y-218158D01*
X-98633Y-217625D01*
X-98400Y-217158D01*
X-98050Y-216758D01*
X-97642Y-216492D01*
X-97175Y-216425D01*
X-96708Y-216492D01*
X-96300Y-216758D01*
X-95950Y-217158D01*
X-95717Y-217625D01*
X-95600Y-218158D01*
Y-218692D01*
X-95717Y-219225D01*
X-95950Y-219692D01*
X-96300Y-220092D01*
X-96708Y-220358D01*
X-97175Y-220425D01*
G01X-93542D02*
Y-216425D01*
X-92083D01*
X-91617Y-216625D01*
X-91325Y-216892D01*
X-91208Y-217425D01*
X-91325Y-217958D01*
X-91675Y-218292D01*
X-92083Y-218492D01*
X-93542D01*
G01X-92083D02*
X-91208Y-220425D01*
G01X-83475Y-216425D02*
X-82075D01*
G01X-82775D02*
Y-220425D01*
G01X-83475D02*
X-82075D01*
G01X-79317D02*
Y-216425D01*
X-76633Y-220425D01*
Y-216425D01*
G01X-69542Y-220425D02*
Y-216425D01*
X-68142D01*
X-67675Y-216625D01*
X-67325Y-217092D01*
X-67208Y-217625D01*
X-67325Y-218158D01*
X-67617Y-218558D01*
X-68142Y-218758D01*
X-69542D01*
G01X-65033Y-220425D02*
X-63575Y-216425D01*
X-62117Y-220425D01*
G01X-62642Y-219025D02*
X-64508D01*
G01X-59942Y-220425D02*
Y-216425D01*
X-58483D01*
X-58017Y-216625D01*
X-57725Y-216892D01*
X-57608Y-217425D01*
X-57725Y-217958D01*
X-58075Y-218292D01*
X-58483Y-218492D01*
X-59942D01*
G01X-58483D02*
X-57608Y-220425D01*
G01X-53975Y-216425D02*
Y-220425D01*
G01X-55317Y-216425D02*
X-52633D01*
G01X-46125D02*
X-45308Y-220425D01*
X-44375Y-216425D01*
X-43442Y-220425D01*
X-42625Y-216425D01*
G01X-40275D02*
X-38875D01*
G01X-39575D02*
Y-220425D01*
G01X-40275D02*
X-38875D01*
G01X-34775Y-216425D02*
Y-220425D01*
G01X-36117Y-216425D02*
X-33433D01*
G01X-31200Y-220425D02*
Y-216425D01*
G01X-28750D02*
Y-220425D01*
G01Y-218425D02*
X-31200D01*
G01X-25175Y-220425D02*
X-25642Y-220358D01*
X-26050Y-220092D01*
X-26400Y-219692D01*
X-26633Y-219225D01*
X-26750Y-218692D01*
Y-218158D01*
X-26633Y-217625D01*
X-26400Y-217158D01*
X-26050Y-216758D01*
X-25642Y-216492D01*
X-25175Y-216425D01*
X-24708Y-216492D01*
X-24300Y-216758D01*
X-23950Y-217158D01*
X-23717Y-217625D01*
X-23600Y-218158D01*
Y-218692D01*
X-23717Y-219225D01*
X-23950Y-219692D01*
X-24300Y-220092D01*
X-24708Y-220358D01*
X-25175Y-220425D01*
G01X-21658Y-216425D02*
Y-219292D01*
X-21425Y-219892D01*
X-20958Y-220292D01*
X-20375Y-220425D01*
X-19792Y-220292D01*
X-19325Y-219892D01*
X-19092Y-219292D01*
Y-216425D01*
G01X-15575D02*
Y-220425D01*
G01X-16917Y-216425D02*
X-14233D01*
G01X-5975D02*
Y-220425D01*
G01X-7317Y-216425D02*
X-4633D01*
G01X-2400Y-220425D02*
Y-216425D01*
G01X50D02*
Y-220425D01*
G01Y-218425D02*
X-2400D01*
G01X4792Y-220425D02*
X2458D01*
Y-216425D01*
X4792D01*
G01X3858Y-218358D02*
X2458D01*
G01X14508Y-216758D02*
X14158Y-216558D01*
X13750Y-216425D01*
X13283D01*
X12758Y-216625D01*
X12350Y-216958D01*
X12058Y-217358D01*
X11825Y-218025D01*
X11767Y-218625D01*
X11883Y-219225D01*
X12058Y-219625D01*
X12408Y-220025D01*
X12817Y-220292D01*
X13225Y-220425D01*
X13633D01*
X14042Y-220292D01*
X14392Y-220092D01*
X14683Y-219825D01*
G01X18025Y-220425D02*
X17558Y-220358D01*
X17150Y-220092D01*
X16800Y-219692D01*
X16567Y-219225D01*
X16450Y-218692D01*
Y-218158D01*
X16567Y-217625D01*
X16800Y-217158D01*
X17150Y-216758D01*
X17558Y-216492D01*
X18025Y-216425D01*
X18492Y-216492D01*
X18900Y-216758D01*
X19250Y-217158D01*
X19483Y-217625D01*
X19600Y-218158D01*
Y-218692D01*
X19483Y-219225D01*
X19250Y-219692D01*
X18900Y-220092D01*
X18492Y-220358D01*
X18025Y-220425D01*
G01X21483D02*
Y-216425D01*
X24167Y-220425D01*
Y-216425D01*
G01X26400Y-219892D02*
X26867Y-220225D01*
X27392Y-220425D01*
X27858D01*
X28325Y-220225D01*
X28675Y-219892D01*
X28850Y-219425D01*
X28733Y-218958D01*
X28442Y-218558D01*
X27917Y-218292D01*
X27217Y-218158D01*
X26808Y-217892D01*
X26633Y-217425D01*
X26750Y-216958D01*
X27042Y-216625D01*
X27450Y-216425D01*
X27858D01*
X28267Y-216558D01*
X28617Y-216892D01*
G01X33592Y-220425D02*
X31258D01*
Y-216425D01*
X33592D01*
G01X32658Y-218358D02*
X31258D01*
G01X35883Y-220425D02*
Y-216425D01*
X38567Y-220425D01*
Y-216425D01*
G01X42025D02*
Y-220425D01*
G01X40683Y-216425D02*
X43367D01*
G01X51625Y-220425D02*
X51158Y-220358D01*
X50750Y-220092D01*
X50400Y-219692D01*
X50167Y-219225D01*
X50050Y-218692D01*
Y-218158D01*
X50167Y-217625D01*
X50400Y-217158D01*
X50750Y-216758D01*
X51158Y-216492D01*
X51625Y-216425D01*
X52092Y-216492D01*
X52500Y-216758D01*
X52850Y-217158D01*
X53083Y-217625D01*
X53200Y-218158D01*
Y-218692D01*
X53083Y-219225D01*
X52850Y-219692D01*
X52500Y-220092D01*
X52092Y-220358D01*
X51625Y-220425D01*
G01X55317D02*
Y-216425D01*
X57533D01*
G01X56717Y-218358D02*
X55317D01*
G01X-98342Y-212425D02*
Y-208425D01*
X-96942D01*
X-96475Y-208625D01*
X-96125Y-209092D01*
X-96008Y-209625D01*
X-96125Y-210158D01*
X-96417Y-210558D01*
X-96942Y-210758D01*
X-98342D01*
G01X-93542Y-212425D02*
Y-208425D01*
X-92083D01*
X-91617Y-208625D01*
X-91325Y-208892D01*
X-91208Y-209425D01*
X-91325Y-209958D01*
X-91675Y-210292D01*
X-92083Y-210492D01*
X-93542D01*
G01X-92083D02*
X-91208Y-212425D01*
G01X-87575D02*
X-88042Y-212358D01*
X-88450Y-212092D01*
X-88800Y-211692D01*
X-89033Y-211225D01*
X-89150Y-210692D01*
Y-210158D01*
X-89033Y-209625D01*
X-88800Y-209158D01*
X-88450Y-208758D01*
X-88042Y-208492D01*
X-87575Y-208425D01*
X-87108Y-208492D01*
X-86700Y-208758D01*
X-86350Y-209158D01*
X-86117Y-209625D01*
X-86000Y-210158D01*
Y-210692D01*
X-86117Y-211225D01*
X-86350Y-211692D01*
X-86700Y-212092D01*
X-87108Y-212358D01*
X-87575Y-212425D01*
G01X-81492Y-208758D02*
X-81842Y-208558D01*
X-82250Y-208425D01*
X-82717D01*
X-83242Y-208625D01*
X-83650Y-208958D01*
X-83942Y-209358D01*
X-84175Y-210025D01*
X-84233Y-210625D01*
X-84117Y-211225D01*
X-83942Y-211625D01*
X-83592Y-212025D01*
X-83183Y-212292D01*
X-82775Y-212425D01*
X-82367D01*
X-81958Y-212292D01*
X-81608Y-212092D01*
X-81317Y-211825D01*
G01X-79258Y-208425D02*
Y-211292D01*
X-79025Y-211892D01*
X-78558Y-212292D01*
X-77975Y-212425D01*
X-77392Y-212292D01*
X-76925Y-211892D01*
X-76692Y-211292D01*
Y-208425D01*
G01X-74342Y-212425D02*
Y-208425D01*
X-72883D01*
X-72417Y-208625D01*
X-72125Y-208892D01*
X-72008Y-209425D01*
X-72125Y-209958D01*
X-72475Y-210292D01*
X-72883Y-210492D01*
X-74342D01*
G01X-72883D02*
X-72008Y-212425D01*
G01X-67208D02*
X-69542D01*
Y-208425D01*
X-67208D01*
G01X-68142Y-210358D02*
X-69542D01*
G01X-65092Y-212425D02*
Y-208425D01*
X-63575Y-211758D01*
X-62058Y-208425D01*
Y-212425D01*
G01X-57608D02*
X-59942D01*
Y-208425D01*
X-57608D01*
G01X-58542Y-210358D02*
X-59942D01*
G01X-55317Y-212425D02*
Y-208425D01*
X-52633Y-212425D01*
Y-208425D01*
G01X-49175D02*
Y-212425D01*
G01X-50517Y-208425D02*
X-47833D01*
G01X-39575Y-212425D02*
X-40042Y-212358D01*
X-40450Y-212092D01*
X-40800Y-211692D01*
X-41033Y-211225D01*
X-41150Y-210692D01*
Y-210158D01*
X-41033Y-209625D01*
X-40800Y-209158D01*
X-40450Y-208758D01*
X-40042Y-208492D01*
X-39575Y-208425D01*
X-39108Y-208492D01*
X-38700Y-208758D01*
X-38350Y-209158D01*
X-38117Y-209625D01*
X-38000Y-210158D01*
Y-210692D01*
X-38117Y-211225D01*
X-38350Y-211692D01*
X-38700Y-212092D01*
X-39108Y-212358D01*
X-39575Y-212425D01*
G01X-35942D02*
Y-208425D01*
X-34483D01*
X-34017Y-208625D01*
X-33725Y-208892D01*
X-33608Y-209425D01*
X-33725Y-209958D01*
X-34075Y-210292D01*
X-34483Y-210492D01*
X-35942D01*
G01X-34483D02*
X-33608Y-212425D01*
G01X-26692D02*
Y-208425D01*
X-25175Y-211758D01*
X-23658Y-208425D01*
Y-212425D01*
G01X-21833D02*
X-20375Y-208425D01*
X-18917Y-212425D01*
G01X-19442Y-211025D02*
X-21308D01*
G01X-16917Y-212425D02*
Y-208425D01*
X-14233Y-212425D01*
Y-208425D01*
G01X-12058D02*
Y-211292D01*
X-11825Y-211892D01*
X-11358Y-212292D01*
X-10775Y-212425D01*
X-10192Y-212292D01*
X-9725Y-211892D01*
X-9492Y-211292D01*
Y-208425D01*
G01X-7083Y-212425D02*
Y-208425D01*
X-4867D01*
G01X-5683Y-210358D02*
X-7083D01*
G01X-2633Y-212425D02*
X-1175Y-208425D01*
X283Y-212425D01*
G01X-242Y-211025D02*
X-2108D01*
G01X4908Y-208758D02*
X4558Y-208558D01*
X4150Y-208425D01*
X3683D01*
X3158Y-208625D01*
X2750Y-208958D01*
X2458Y-209358D01*
X2225Y-210025D01*
X2167Y-210625D01*
X2283Y-211225D01*
X2458Y-211625D01*
X2808Y-212025D01*
X3217Y-212292D01*
X3625Y-212425D01*
X4033D01*
X4442Y-212292D01*
X4792Y-212092D01*
X5083Y-211825D01*
G01X8425Y-208425D02*
Y-212425D01*
G01X7083Y-208425D02*
X9767D01*
G01X11942D02*
Y-211292D01*
X12175Y-211892D01*
X12642Y-212292D01*
X13225Y-212425D01*
X13808Y-212292D01*
X14275Y-211892D01*
X14508Y-211292D01*
Y-208425D01*
G01X16858Y-212425D02*
Y-208425D01*
X18317D01*
X18783Y-208625D01*
X19075Y-208892D01*
X19192Y-209425D01*
X19075Y-209958D01*
X18725Y-210292D01*
X18317Y-210492D01*
X16858D01*
G01X18317D02*
X19192Y-212425D01*
G01X23992D02*
X21658D01*
Y-208425D01*
X23992D01*
G01X23058Y-210358D02*
X21658D01*
G01X31725Y-208425D02*
X33125D01*
G01X32425D02*
Y-212425D01*
G01X31725D02*
X33125D01*
G01X35883D02*
Y-208425D01*
X38567Y-212425D01*
Y-208425D01*
G01X45075D02*
X45892Y-212425D01*
X46825Y-208425D01*
X47758Y-212425D01*
X48575Y-208425D01*
G01X50400Y-212425D02*
Y-208425D01*
G01X52850D02*
Y-212425D01*
G01Y-210425D02*
X50400D01*
G01X56425Y-212425D02*
X55958Y-212358D01*
X55550Y-212092D01*
X55200Y-211692D01*
X54967Y-211225D01*
X54850Y-210692D01*
Y-210158D01*
X54967Y-209625D01*
X55200Y-209158D01*
X55550Y-208758D01*
X55958Y-208492D01*
X56425Y-208425D01*
X56892Y-208492D01*
X57300Y-208758D01*
X57650Y-209158D01*
X57883Y-209625D01*
X58000Y-210158D01*
Y-210692D01*
X57883Y-211225D01*
X57650Y-211692D01*
X57300Y-212092D01*
X56892Y-212358D01*
X56425Y-212425D01*
G01X60058Y-208425D02*
Y-212425D01*
X62392D01*
G01X67192D02*
X64858D01*
Y-208425D01*
X67192D01*
G01X66258Y-210358D02*
X64858D01*
G01X-98517Y-204425D02*
Y-200425D01*
X-95833Y-204425D01*
Y-200425D01*
G01X-92375Y-204425D02*
X-92842Y-204358D01*
X-93250Y-204092D01*
X-93600Y-203692D01*
X-93833Y-203225D01*
X-93950Y-202692D01*
Y-202158D01*
X-93833Y-201625D01*
X-93600Y-201158D01*
X-93250Y-200758D01*
X-92842Y-200492D01*
X-92375Y-200425D01*
X-91908Y-200492D01*
X-91500Y-200758D01*
X-91150Y-201158D01*
X-90917Y-201625D01*
X-90800Y-202158D01*
Y-202692D01*
X-90917Y-203225D01*
X-91150Y-203692D01*
X-91500Y-204092D01*
X-91908Y-204358D01*
X-92375Y-204425D01*
G01X-87575Y-200425D02*
Y-204425D01*
G01X-88917Y-200425D02*
X-86233D01*
G01X-77508Y-202292D02*
X-77275Y-202092D01*
X-77100Y-201758D01*
X-76983Y-201292D01*
X-77100Y-200892D01*
X-77333Y-200625D01*
X-77742Y-200425D01*
X-79317D01*
Y-204425D01*
X-77392D01*
X-76983Y-204158D01*
X-76750Y-203758D01*
X-76633Y-203292D01*
X-76750Y-202825D01*
X-77100Y-202425D01*
X-77508Y-202292D01*
X-79317D01*
G01X-72008Y-204425D02*
X-74342D01*
Y-200425D01*
X-72008D01*
G01X-72942Y-202358D02*
X-74342D01*
G01X-64858Y-200425D02*
Y-203292D01*
X-64625Y-203892D01*
X-64158Y-204292D01*
X-63575Y-204425D01*
X-62992Y-204292D01*
X-62525Y-203892D01*
X-62292Y-203292D01*
Y-200425D01*
G01X-60000Y-203892D02*
X-59533Y-204225D01*
X-59008Y-204425D01*
X-58542D01*
X-58075Y-204225D01*
X-57725Y-203892D01*
X-57550Y-203425D01*
X-57667Y-202958D01*
X-57958Y-202558D01*
X-58483Y-202292D01*
X-59183Y-202158D01*
X-59592Y-201892D01*
X-59767Y-201425D01*
X-59650Y-200958D01*
X-59358Y-200625D01*
X-58950Y-200425D01*
X-58542D01*
X-58133Y-200558D01*
X-57783Y-200892D01*
G01X-52808Y-204425D02*
X-55142D01*
Y-200425D01*
X-52808D01*
G01X-53742Y-202358D02*
X-55142D01*
G01X-50458Y-204425D02*
Y-200425D01*
X-49292D01*
X-48825Y-200625D01*
X-48475Y-200892D01*
X-48183Y-201292D01*
X-47950Y-201758D01*
X-47892Y-202425D01*
X-47950Y-203092D01*
X-48183Y-203558D01*
X-48475Y-203958D01*
X-48825Y-204225D01*
X-49292Y-204425D01*
X-50458D01*
G01X-40683D02*
Y-200425D01*
X-38467D01*
G01X-39283Y-202358D02*
X-40683D01*
G01X-34775Y-204425D02*
X-35242Y-204358D01*
X-35650Y-204092D01*
X-36000Y-203692D01*
X-36233Y-203225D01*
X-36350Y-202692D01*
Y-202158D01*
X-36233Y-201625D01*
X-36000Y-201158D01*
X-35650Y-200758D01*
X-35242Y-200492D01*
X-34775Y-200425D01*
X-34308Y-200492D01*
X-33900Y-200758D01*
X-33550Y-201158D01*
X-33317Y-201625D01*
X-33200Y-202158D01*
Y-202692D01*
X-33317Y-203225D01*
X-33550Y-203692D01*
X-33900Y-204092D01*
X-34308Y-204358D01*
X-34775Y-204425D01*
G01X-31142D02*
Y-200425D01*
X-29683D01*
X-29217Y-200625D01*
X-28925Y-200892D01*
X-28808Y-201425D01*
X-28925Y-201958D01*
X-29275Y-202292D01*
X-29683Y-202492D01*
X-31142D01*
G01X-29683D02*
X-28808Y-204425D01*
G01X-19208D02*
X-21542D01*
Y-200425D01*
X-19208D01*
G01X-20142Y-202358D02*
X-21542D01*
G01X-16917Y-204425D02*
Y-200425D01*
X-14233Y-204425D01*
Y-200425D01*
G01X-10425Y-202425D02*
X-9258D01*
Y-203625D01*
X-9608Y-204025D01*
X-10017Y-204292D01*
X-10600Y-204425D01*
X-11183Y-204292D01*
X-11592Y-204025D01*
X-11942Y-203625D01*
X-12175Y-203158D01*
X-12292Y-202625D01*
Y-202158D01*
X-12175Y-201758D01*
X-11942Y-201292D01*
X-11592Y-200892D01*
X-11242Y-200625D01*
X-10775Y-200425D01*
X-10367D01*
X-9900Y-200558D01*
X-9550Y-200825D01*
G01X-6675Y-200425D02*
X-5275D01*
G01X-5975D02*
Y-204425D01*
G01X-6675D02*
X-5275D01*
G01X-2517D02*
Y-200425D01*
X167Y-204425D01*
Y-200425D01*
G01X4792Y-204425D02*
X2458D01*
Y-200425D01*
X4792D01*
G01X3858Y-202358D02*
X2458D01*
G01X9592Y-204425D02*
X7258D01*
Y-200425D01*
X9592D01*
G01X8658Y-202358D02*
X7258D01*
G01X12058Y-204425D02*
Y-200425D01*
X13517D01*
X13983Y-200625D01*
X14275Y-200892D01*
X14392Y-201425D01*
X14275Y-201958D01*
X13925Y-202292D01*
X13517Y-202492D01*
X12058D01*
G01X13517D02*
X14392Y-204425D01*
G01X17325Y-200425D02*
X18725D01*
G01X18025D02*
Y-204425D01*
G01X17325D02*
X18725D01*
G01X21483D02*
Y-200425D01*
X24167Y-204425D01*
Y-200425D01*
G01X27975Y-202425D02*
X29142D01*
Y-203625D01*
X28792Y-204025D01*
X28383Y-204292D01*
X27800Y-204425D01*
X27217Y-204292D01*
X26808Y-204025D01*
X26458Y-203625D01*
X26225Y-203158D01*
X26108Y-202625D01*
Y-202158D01*
X26225Y-201758D01*
X26458Y-201292D01*
X26808Y-200892D01*
X27158Y-200625D01*
X27625Y-200425D01*
X28033D01*
X28500Y-200558D01*
X28850Y-200825D01*
G01X35942Y-204425D02*
Y-200425D01*
X37108D01*
X37575Y-200625D01*
X37925Y-200892D01*
X38217Y-201292D01*
X38450Y-201758D01*
X38508Y-202425D01*
X38450Y-203092D01*
X38217Y-203558D01*
X37925Y-203958D01*
X37575Y-204225D01*
X37108Y-204425D01*
X35942D01*
G01X43192D02*
X40858D01*
Y-200425D01*
X43192D01*
G01X42258Y-202358D02*
X40858D01*
G01X45600Y-203892D02*
X46067Y-204225D01*
X46592Y-204425D01*
X47058D01*
X47525Y-204225D01*
X47875Y-203892D01*
X48050Y-203425D01*
X47933Y-202958D01*
X47642Y-202558D01*
X47117Y-202292D01*
X46417Y-202158D01*
X46008Y-201892D01*
X45833Y-201425D01*
X45950Y-200958D01*
X46242Y-200625D01*
X46650Y-200425D01*
X47058D01*
X47467Y-200558D01*
X47817Y-200892D01*
G01X50925Y-200425D02*
X52325D01*
G01X51625D02*
Y-204425D01*
G01X50925D02*
X52325D01*
G01X56775Y-202425D02*
X57942D01*
Y-203625D01*
X57592Y-204025D01*
X57183Y-204292D01*
X56600Y-204425D01*
X56017Y-204292D01*
X55608Y-204025D01*
X55258Y-203625D01*
X55025Y-203158D01*
X54908Y-202625D01*
Y-202158D01*
X55025Y-201758D01*
X55258Y-201292D01*
X55608Y-200892D01*
X55958Y-200625D01*
X56425Y-200425D01*
X56833D01*
X57300Y-200558D01*
X57650Y-200825D01*
G01X59883Y-204425D02*
Y-200425D01*
X62567Y-204425D01*
Y-200425D01*
G01X-105633Y-178425D02*
X-104175Y-174425D01*
X-102717Y-178425D01*
G01X-103242Y-177025D02*
X-105108D01*
G01X-100658Y-174425D02*
Y-177292D01*
X-100425Y-177892D01*
X-99958Y-178292D01*
X-99375Y-178425D01*
X-98792Y-178292D01*
X-98325Y-177892D01*
X-98092Y-177292D01*
Y-174425D01*
G01X-95800Y-177892D02*
X-95333Y-178225D01*
X-94808Y-178425D01*
X-94342D01*
X-93875Y-178225D01*
X-93525Y-177892D01*
X-93350Y-177425D01*
X-93467Y-176958D01*
X-93758Y-176558D01*
X-94283Y-176292D01*
X-94983Y-176158D01*
X-95392Y-175892D01*
X-95567Y-175425D01*
X-95450Y-174958D01*
X-95158Y-174625D01*
X-94750Y-174425D01*
X-94342D01*
X-93933Y-174558D01*
X-93583Y-174892D01*
G01X-89775Y-174425D02*
Y-178425D01*
G01X-91117Y-174425D02*
X-88433D01*
G01X-85675D02*
X-84275D01*
G01X-84975D02*
Y-178425D01*
G01X-85675D02*
X-84275D01*
G01X-81517D02*
Y-174425D01*
X-78833Y-178425D01*
Y-174425D01*
G01X-75375Y-178558D02*
X-75492Y-178492D01*
Y-178358D01*
X-75375Y-178292D01*
X-75258Y-178358D01*
Y-178492D01*
X-75375Y-178558D01*
G01X-65775Y-174425D02*
Y-178425D01*
G01X-67117Y-174425D02*
X-64433D01*
G01X-59808Y-178425D02*
X-62142D01*
Y-174425D01*
X-59808D01*
G01X-60742Y-176358D02*
X-62142D01*
G01X-57400Y-178425D02*
X-54950Y-174425D01*
G01X-57400D02*
X-54950Y-178425D01*
G01X-52833D02*
X-51375Y-174425D01*
X-49917Y-178425D01*
G01X-50442Y-177025D02*
X-52308D01*
G01X-47800Y-177892D02*
X-47333Y-178225D01*
X-46808Y-178425D01*
X-46342D01*
X-45875Y-178225D01*
X-45525Y-177892D01*
X-45350Y-177425D01*
X-45467Y-176958D01*
X-45758Y-176558D01*
X-46283Y-176292D01*
X-46983Y-176158D01*
X-47392Y-175892D01*
X-47567Y-175425D01*
X-47450Y-174958D01*
X-47158Y-174625D01*
X-46750Y-174425D01*
X-46342D01*
X-45933Y-174558D01*
X-45583Y-174892D01*
G01X-37092Y-178425D02*
X-36975Y-177558D01*
X-36800Y-176825D01*
X-36567Y-176158D01*
X-36275Y-175425D01*
X-35808Y-174425D01*
X-38142D01*
G01X-32175Y-178425D02*
X-31767Y-178358D01*
X-31300Y-178158D01*
X-31008Y-177825D01*
X-30892Y-177358D01*
X-31008Y-176892D01*
X-31358Y-176492D01*
X-31883Y-176292D01*
X-32467D01*
X-32817Y-176158D01*
X-33108Y-175825D01*
X-33225Y-175358D01*
X-33050Y-174892D01*
X-32642Y-174558D01*
X-32175Y-174425D01*
X-31708Y-174558D01*
X-31300Y-174892D01*
X-31125Y-175358D01*
X-31242Y-175825D01*
X-31533Y-176158D01*
X-31883Y-176292D01*
X-32467D01*
X-32992Y-176492D01*
X-33342Y-176892D01*
X-33458Y-177358D01*
X-33342Y-177825D01*
X-33050Y-178158D01*
X-32583Y-178358D01*
X-32175Y-178425D01*
G01X-27492D02*
X-27375Y-177558D01*
X-27200Y-176825D01*
X-26967Y-176158D01*
X-26675Y-175425D01*
X-26208Y-174425D01*
X-28542D01*
G01X-23858Y-177625D02*
X-23508Y-178092D01*
X-23042Y-178358D01*
X-22517Y-178425D01*
X-22050Y-178358D01*
X-21583Y-178025D01*
X-21292Y-177625D01*
X-21233Y-177225D01*
X-21350Y-176758D01*
X-21758Y-176425D01*
X-22167Y-176292D01*
X-22692D01*
G01X-22167D02*
X-21817Y-176092D01*
X-21525Y-175758D01*
X-21408Y-175358D01*
X-21525Y-174958D01*
X-21817Y-174625D01*
X-22342Y-174425D01*
X-22867Y-174492D01*
X-23392Y-174758D01*
G01X-19058Y-177825D02*
X-18708Y-178158D01*
X-18300Y-178358D01*
X-17775Y-178425D01*
X-17250Y-178292D01*
X-16842Y-178025D01*
X-16550Y-177558D01*
X-16492Y-177025D01*
X-16608Y-176492D01*
X-16900Y-176158D01*
X-17308Y-175892D01*
X-17717Y-175825D01*
X-18125Y-175892D01*
X-18650Y-176158D01*
X-18475Y-174425D01*
X-16900D01*
G01X-9458D02*
Y-177292D01*
X-9225Y-177892D01*
X-8758Y-178292D01*
X-8175Y-178425D01*
X-7592Y-178292D01*
X-7125Y-177892D01*
X-6892Y-177292D01*
Y-174425D01*
G01X-4600Y-177892D02*
X-4133Y-178225D01*
X-3608Y-178425D01*
X-3142D01*
X-2675Y-178225D01*
X-2325Y-177892D01*
X-2150Y-177425D01*
X-2267Y-176958D01*
X-2558Y-176558D01*
X-3083Y-176292D01*
X-3783Y-176158D01*
X-4192Y-175892D01*
X-4367Y-175425D01*
X-4250Y-174958D01*
X-3958Y-174625D01*
X-3550Y-174425D01*
X-3142D01*
X-2733Y-174558D01*
X-2383Y-174892D01*
G01X-33Y-178425D02*
X1425Y-174425D01*
X2883Y-178425D01*
G01X2358Y-177025D02*
X492D01*
G01X-98342Y-196425D02*
Y-192425D01*
X-96942D01*
X-96475Y-192625D01*
X-96125Y-193092D01*
X-96008Y-193625D01*
X-96125Y-194158D01*
X-96417Y-194558D01*
X-96942Y-194758D01*
X-98342D01*
G01X-93542Y-196425D02*
Y-192425D01*
X-92083D01*
X-91617Y-192625D01*
X-91325Y-192892D01*
X-91208Y-193425D01*
X-91325Y-193958D01*
X-91675Y-194292D01*
X-92083Y-194492D01*
X-93542D01*
G01X-92083D02*
X-91208Y-196425D01*
G01X-87575D02*
X-88042Y-196358D01*
X-88450Y-196092D01*
X-88800Y-195692D01*
X-89033Y-195225D01*
X-89150Y-194692D01*
Y-194158D01*
X-89033Y-193625D01*
X-88800Y-193158D01*
X-88450Y-192758D01*
X-88042Y-192492D01*
X-87575Y-192425D01*
X-87108Y-192492D01*
X-86700Y-192758D01*
X-86350Y-193158D01*
X-86117Y-193625D01*
X-86000Y-194158D01*
Y-194692D01*
X-86117Y-195225D01*
X-86350Y-195692D01*
X-86700Y-196092D01*
X-87108Y-196358D01*
X-87575Y-196425D01*
G01X-83942D02*
Y-192425D01*
X-82542D01*
X-82075Y-192625D01*
X-81725Y-193092D01*
X-81608Y-193625D01*
X-81725Y-194158D01*
X-82017Y-194558D01*
X-82542Y-194758D01*
X-83942D01*
G01X-79142Y-196425D02*
Y-192425D01*
X-77683D01*
X-77217Y-192625D01*
X-76925Y-192892D01*
X-76808Y-193425D01*
X-76925Y-193958D01*
X-77275Y-194292D01*
X-77683Y-194492D01*
X-79142D01*
G01X-77683D02*
X-76808Y-196425D01*
G01X-73875Y-192425D02*
X-72475D01*
G01X-73175D02*
Y-196425D01*
G01X-73875D02*
X-72475D01*
G01X-67208D02*
X-69542D01*
Y-192425D01*
X-67208D01*
G01X-68142Y-194358D02*
X-69542D01*
G01X-63575Y-192425D02*
Y-196425D01*
G01X-64917Y-192425D02*
X-62233D01*
G01X-60233Y-196425D02*
X-58775Y-192425D01*
X-57317Y-196425D01*
G01X-57842Y-195025D02*
X-59708D01*
G01X-55142Y-196425D02*
Y-192425D01*
X-53683D01*
X-53217Y-192625D01*
X-52925Y-192892D01*
X-52808Y-193425D01*
X-52925Y-193958D01*
X-53275Y-194292D01*
X-53683Y-194492D01*
X-55142D01*
G01X-53683D02*
X-52808Y-196425D01*
G01X-49175D02*
Y-194625D01*
X-50342Y-192425D01*
G01X-48008D02*
X-49175Y-194625D01*
G01X-39575Y-192425D02*
Y-196425D01*
G01X-40917Y-192425D02*
X-38233D01*
G01X-34775Y-196425D02*
X-35242Y-196358D01*
X-35650Y-196092D01*
X-36000Y-195692D01*
X-36233Y-195225D01*
X-36350Y-194692D01*
Y-194158D01*
X-36233Y-193625D01*
X-36000Y-193158D01*
X-35650Y-192758D01*
X-35242Y-192492D01*
X-34775Y-192425D01*
X-34308Y-192492D01*
X-33900Y-192758D01*
X-33550Y-193158D01*
X-33317Y-193625D01*
X-33200Y-194158D01*
Y-194692D01*
X-33317Y-195225D01*
X-33550Y-195692D01*
X-33900Y-196092D01*
X-34308Y-196358D01*
X-34775Y-196425D01*
G01X-26283D02*
Y-192425D01*
X-24067D01*
G01X-24883Y-194358D02*
X-26283D01*
G01X-21542Y-196425D02*
Y-192425D01*
X-20083D01*
X-19617Y-192625D01*
X-19325Y-192892D01*
X-19208Y-193425D01*
X-19325Y-193958D01*
X-19675Y-194292D01*
X-20083Y-194492D01*
X-21542D01*
G01X-20083D02*
X-19208Y-196425D01*
G01X-14408D02*
X-16742D01*
Y-192425D01*
X-14408D01*
G01X-15342Y-194358D02*
X-16742D01*
G01X-9608Y-196425D02*
X-11942D01*
Y-192425D01*
X-9608D01*
G01X-10542Y-194358D02*
X-11942D01*
G01X-7200Y-195892D02*
X-6733Y-196225D01*
X-6208Y-196425D01*
X-5742D01*
X-5275Y-196225D01*
X-4925Y-195892D01*
X-4750Y-195425D01*
X-4867Y-194958D01*
X-5158Y-194558D01*
X-5683Y-194292D01*
X-6383Y-194158D01*
X-6792Y-193892D01*
X-6967Y-193425D01*
X-6850Y-192958D01*
X-6558Y-192625D01*
X-6150Y-192425D01*
X-5742D01*
X-5333Y-192558D01*
X-4983Y-192892D01*
G01X108Y-192758D02*
X-242Y-192558D01*
X-650Y-192425D01*
X-1117D01*
X-1642Y-192625D01*
X-2050Y-192958D01*
X-2342Y-193358D01*
X-2575Y-194025D01*
X-2633Y-194625D01*
X-2517Y-195225D01*
X-2342Y-195625D01*
X-1992Y-196025D01*
X-1583Y-196292D01*
X-1175Y-196425D01*
X-767D01*
X-358Y-196292D01*
X-8Y-196092D01*
X283Y-195825D01*
G01X2167Y-196425D02*
X3625Y-192425D01*
X5083Y-196425D01*
G01X4558Y-195025D02*
X2692D01*
G01X7258Y-192425D02*
Y-196425D01*
X9592D01*
G01X14392D02*
X12058D01*
Y-192425D01*
X14392D01*
G01X13458Y-194358D02*
X12058D01*
G01X21367Y-196425D02*
X22825Y-192425D01*
X24283Y-196425D01*
G01X23758Y-195025D02*
X21892D01*
G01X26283Y-196425D02*
Y-192425D01*
X28967Y-196425D01*
Y-192425D01*
G01X31142Y-196425D02*
Y-192425D01*
X32308D01*
X32775Y-192625D01*
X33125Y-192892D01*
X33417Y-193292D01*
X33650Y-193758D01*
X33708Y-194425D01*
X33650Y-195092D01*
X33417Y-195558D01*
X33125Y-195958D01*
X32775Y-196225D01*
X32308Y-196425D01*
X31142D01*
G01X40800Y-195892D02*
X41267Y-196225D01*
X41792Y-196425D01*
X42258D01*
X42725Y-196225D01*
X43075Y-195892D01*
X43250Y-195425D01*
X43133Y-194958D01*
X42842Y-194558D01*
X42317Y-194292D01*
X41617Y-194158D01*
X41208Y-193892D01*
X41033Y-193425D01*
X41150Y-192958D01*
X41442Y-192625D01*
X41850Y-192425D01*
X42258D01*
X42667Y-192558D01*
X43017Y-192892D01*
G01X45600Y-196425D02*
Y-192425D01*
G01X48050D02*
Y-196425D01*
G01Y-194425D02*
X45600D01*
G01X50167Y-196425D02*
X51625Y-192425D01*
X53083Y-196425D01*
G01X52558Y-195025D02*
X50692D01*
G01X55258Y-192425D02*
Y-196425D01*
X57592D01*
G01X60058Y-192425D02*
Y-196425D01*
X62392D01*
G01X-98175Y-184425D02*
Y-188425D01*
G01X-99517Y-184425D02*
X-96833D01*
G01X-94600Y-188425D02*
Y-184425D01*
G01X-92150D02*
Y-188425D01*
G01Y-186425D02*
X-94600D01*
G01X-89275Y-184425D02*
X-87875D01*
G01X-88575D02*
Y-188425D01*
G01X-89275D02*
X-87875D01*
G01X-85000Y-187892D02*
X-84533Y-188225D01*
X-84008Y-188425D01*
X-83542D01*
X-83075Y-188225D01*
X-82725Y-187892D01*
X-82550Y-187425D01*
X-82667Y-186958D01*
X-82958Y-186558D01*
X-83483Y-186292D01*
X-84183Y-186158D01*
X-84592Y-185892D01*
X-84767Y-185425D01*
X-84650Y-184958D01*
X-84358Y-184625D01*
X-83950Y-184425D01*
X-83542D01*
X-83133Y-184558D01*
X-82783Y-184892D01*
G01X-75458Y-188425D02*
Y-184425D01*
X-74292D01*
X-73825Y-184625D01*
X-73475Y-184892D01*
X-73183Y-185292D01*
X-72950Y-185758D01*
X-72892Y-186425D01*
X-72950Y-187092D01*
X-73183Y-187558D01*
X-73475Y-187958D01*
X-73825Y-188225D01*
X-74292Y-188425D01*
X-75458D01*
G01X-69375D02*
X-69842Y-188358D01*
X-70250Y-188092D01*
X-70600Y-187692D01*
X-70833Y-187225D01*
X-70950Y-186692D01*
Y-186158D01*
X-70833Y-185625D01*
X-70600Y-185158D01*
X-70250Y-184758D01*
X-69842Y-184492D01*
X-69375Y-184425D01*
X-68908Y-184492D01*
X-68500Y-184758D01*
X-68150Y-185158D01*
X-67917Y-185625D01*
X-67800Y-186158D01*
Y-186692D01*
X-67917Y-187225D01*
X-68150Y-187692D01*
X-68500Y-188092D01*
X-68908Y-188358D01*
X-69375Y-188425D01*
G01X-63292Y-184758D02*
X-63642Y-184558D01*
X-64050Y-184425D01*
X-64517D01*
X-65042Y-184625D01*
X-65450Y-184958D01*
X-65742Y-185358D01*
X-65975Y-186025D01*
X-66033Y-186625D01*
X-65917Y-187225D01*
X-65742Y-187625D01*
X-65392Y-188025D01*
X-64983Y-188292D01*
X-64575Y-188425D01*
X-64167D01*
X-63758Y-188292D01*
X-63408Y-188092D01*
X-63117Y-187825D01*
G01X-61058Y-184425D02*
Y-187292D01*
X-60825Y-187892D01*
X-60358Y-188292D01*
X-59775Y-188425D01*
X-59192Y-188292D01*
X-58725Y-187892D01*
X-58492Y-187292D01*
Y-184425D01*
G01X-56492Y-188425D02*
Y-184425D01*
X-54975Y-187758D01*
X-53458Y-184425D01*
Y-188425D01*
G01X-49008D02*
X-51342D01*
Y-184425D01*
X-49008D01*
G01X-49942Y-186358D02*
X-51342D01*
G01X-46717Y-188425D02*
Y-184425D01*
X-44033Y-188425D01*
Y-184425D01*
G01X-40575D02*
Y-188425D01*
G01X-41917Y-184425D02*
X-39233D01*
G01X-29692Y-184758D02*
X-30042Y-184558D01*
X-30450Y-184425D01*
X-30917D01*
X-31442Y-184625D01*
X-31850Y-184958D01*
X-32142Y-185358D01*
X-32375Y-186025D01*
X-32433Y-186625D01*
X-32317Y-187225D01*
X-32142Y-187625D01*
X-31792Y-188025D01*
X-31383Y-188292D01*
X-30975Y-188425D01*
X-30567D01*
X-30158Y-188292D01*
X-29808Y-188092D01*
X-29517Y-187825D01*
G01X-26175Y-188425D02*
X-26642Y-188358D01*
X-27050Y-188092D01*
X-27400Y-187692D01*
X-27633Y-187225D01*
X-27750Y-186692D01*
Y-186158D01*
X-27633Y-185625D01*
X-27400Y-185158D01*
X-27050Y-184758D01*
X-26642Y-184492D01*
X-26175Y-184425D01*
X-25708Y-184492D01*
X-25300Y-184758D01*
X-24950Y-185158D01*
X-24717Y-185625D01*
X-24600Y-186158D01*
Y-186692D01*
X-24717Y-187225D01*
X-24950Y-187692D01*
X-25300Y-188092D01*
X-25708Y-188358D01*
X-26175Y-188425D01*
G01X-22717D02*
Y-184425D01*
X-20033Y-188425D01*
Y-184425D01*
G01X-16575D02*
Y-188425D01*
G01X-17917Y-184425D02*
X-15233D01*
G01X-13233Y-188425D02*
X-11775Y-184425D01*
X-10317Y-188425D01*
G01X-10842Y-187025D02*
X-12708D01*
G01X-7675Y-184425D02*
X-6275D01*
G01X-6975D02*
Y-188425D01*
G01X-7675D02*
X-6275D01*
G01X-3517D02*
Y-184425D01*
X-833Y-188425D01*
Y-184425D01*
G01X1400Y-187892D02*
X1867Y-188225D01*
X2392Y-188425D01*
X2858D01*
X3325Y-188225D01*
X3675Y-187892D01*
X3850Y-187425D01*
X3733Y-186958D01*
X3442Y-186558D01*
X2917Y-186292D01*
X2217Y-186158D01*
X1808Y-185892D01*
X1633Y-185425D01*
X1750Y-184958D01*
X2042Y-184625D01*
X2450Y-184425D01*
X2858D01*
X3267Y-184558D01*
X3617Y-184892D01*
G01X11525Y-184425D02*
X12925D01*
G01X12225D02*
Y-188425D01*
G01X11525D02*
X12925D01*
G01X15683D02*
Y-184425D01*
X18367Y-188425D01*
Y-184425D01*
G01X20717Y-188425D02*
Y-184425D01*
X22933D01*
G01X22117Y-186358D02*
X20717D01*
G01X26625Y-188425D02*
X26158Y-188358D01*
X25750Y-188092D01*
X25400Y-187692D01*
X25167Y-187225D01*
X25050Y-186692D01*
Y-186158D01*
X25167Y-185625D01*
X25400Y-185158D01*
X25750Y-184758D01*
X26158Y-184492D01*
X26625Y-184425D01*
X27092Y-184492D01*
X27500Y-184758D01*
X27850Y-185158D01*
X28083Y-185625D01*
X28200Y-186158D01*
Y-186692D01*
X28083Y-187225D01*
X27850Y-187692D01*
X27500Y-188092D01*
X27092Y-188358D01*
X26625Y-188425D01*
G01X30258D02*
Y-184425D01*
X31717D01*
X32183Y-184625D01*
X32475Y-184892D01*
X32592Y-185425D01*
X32475Y-185958D01*
X32125Y-186292D01*
X31717Y-186492D01*
X30258D01*
G01X31717D02*
X32592Y-188425D01*
G01X34708D02*
Y-184425D01*
X36225Y-187758D01*
X37742Y-184425D01*
Y-188425D01*
G01X39567D02*
X41025Y-184425D01*
X42483Y-188425D01*
G01X41958Y-187025D02*
X40092D01*
G01X45825Y-184425D02*
Y-188425D01*
G01X44483Y-184425D02*
X47167D01*
G01X49925D02*
X51325D01*
G01X50625D02*
Y-188425D01*
G01X49925D02*
X51325D01*
G01X55425D02*
X54958Y-188358D01*
X54550Y-188092D01*
X54200Y-187692D01*
X53967Y-187225D01*
X53850Y-186692D01*
Y-186158D01*
X53967Y-185625D01*
X54200Y-185158D01*
X54550Y-184758D01*
X54958Y-184492D01*
X55425Y-184425D01*
X55892Y-184492D01*
X56300Y-184758D01*
X56650Y-185158D01*
X56883Y-185625D01*
X57000Y-186158D01*
Y-186692D01*
X56883Y-187225D01*
X56650Y-187692D01*
X56300Y-188092D01*
X55892Y-188358D01*
X55425Y-188425D01*
G01X58883D02*
Y-184425D01*
X61567Y-188425D01*
Y-184425D01*
G01X-105283Y-169758D02*
X-104875Y-169292D01*
X-104525Y-169025D01*
X-104058Y-168892D01*
X-103650Y-169025D01*
X-103358Y-169292D01*
X-103125Y-169692D01*
X-103067Y-170158D01*
X-103125Y-170558D01*
X-103358Y-170958D01*
X-103708Y-171292D01*
X-104117Y-171425D01*
X-104583Y-171292D01*
X-104992Y-170892D01*
X-105225Y-170292D01*
X-105283Y-169625D01*
X-105167Y-168758D01*
X-104992Y-168292D01*
X-104700Y-167825D01*
X-104292Y-167492D01*
X-103883Y-167425D01*
X-103475Y-167558D01*
X-103183Y-167892D01*
G01X-100658Y-170825D02*
X-100308Y-171158D01*
X-99900Y-171358D01*
X-99375Y-171425D01*
X-98850Y-171292D01*
X-98442Y-171025D01*
X-98150Y-170558D01*
X-98092Y-170025D01*
X-98208Y-169492D01*
X-98500Y-169158D01*
X-98908Y-168892D01*
X-99317Y-168825D01*
X-99725Y-168892D01*
X-100250Y-169158D01*
X-100075Y-167425D01*
X-98500D01*
G01X-94575D02*
X-95042Y-167558D01*
X-95392Y-167892D01*
X-95625Y-168292D01*
X-95800Y-168825D01*
X-95858Y-169425D01*
X-95800Y-170025D01*
X-95625Y-170558D01*
X-95392Y-170958D01*
X-95042Y-171292D01*
X-94575Y-171425D01*
X-94108Y-171292D01*
X-93758Y-170958D01*
X-93525Y-170558D01*
X-93350Y-170025D01*
X-93292Y-169425D01*
X-93350Y-168825D01*
X-93525Y-168292D01*
X-93758Y-167892D01*
X-94108Y-167558D01*
X-94575Y-167425D01*
G01X-89775Y-171425D02*
Y-167425D01*
X-90475Y-168225D01*
G01Y-171425D02*
X-89075D01*
G01X-81925Y-167425D02*
X-81108Y-171425D01*
X-80175Y-167425D01*
X-79242Y-171425D01*
X-78425Y-167425D01*
G01X-76075D02*
X-74675D01*
G01X-75375D02*
Y-171425D01*
G01X-76075D02*
X-74675D01*
G01X-71742Y-167425D02*
Y-171425D01*
X-69408D01*
G01X-66942Y-167425D02*
Y-171425D01*
X-64608D01*
G01X-61675Y-167425D02*
X-60275D01*
G01X-60975D02*
Y-171425D01*
G01X-61675D02*
X-60275D01*
G01X-57633D02*
X-56175Y-167425D01*
X-54717Y-171425D01*
G01X-55242Y-170025D02*
X-57108D01*
G01X-52892Y-171425D02*
Y-167425D01*
X-51375Y-170758D01*
X-49858Y-167425D01*
Y-171425D01*
G01X-40492Y-167758D02*
X-40842Y-167558D01*
X-41250Y-167425D01*
X-41717D01*
X-42242Y-167625D01*
X-42650Y-167958D01*
X-42942Y-168358D01*
X-43175Y-169025D01*
X-43233Y-169625D01*
X-43117Y-170225D01*
X-42942Y-170625D01*
X-42592Y-171025D01*
X-42183Y-171292D01*
X-41775Y-171425D01*
X-41367D01*
X-40958Y-171292D01*
X-40608Y-171092D01*
X-40317Y-170825D01*
G01X-38433Y-171425D02*
X-36975Y-167425D01*
X-35517Y-171425D01*
G01X-36042Y-170025D02*
X-37908D01*
G01X-33517Y-171425D02*
Y-167425D01*
X-30833Y-171425D01*
Y-167425D01*
G01X-28717Y-171425D02*
Y-167425D01*
X-26033Y-171425D01*
Y-167425D01*
G01X-22575Y-171425D02*
X-23042Y-171358D01*
X-23450Y-171092D01*
X-23800Y-170692D01*
X-24033Y-170225D01*
X-24150Y-169692D01*
Y-169158D01*
X-24033Y-168625D01*
X-23800Y-168158D01*
X-23450Y-167758D01*
X-23042Y-167492D01*
X-22575Y-167425D01*
X-22108Y-167492D01*
X-21700Y-167758D01*
X-21350Y-168158D01*
X-21117Y-168625D01*
X-21000Y-169158D01*
Y-169692D01*
X-21117Y-170225D01*
X-21350Y-170692D01*
X-21700Y-171092D01*
X-22108Y-171358D01*
X-22575Y-171425D01*
G01X-19117D02*
Y-167425D01*
X-16433Y-171425D01*
Y-167425D01*
G01X-9458Y-171425D02*
Y-167425D01*
X-8292D01*
X-7825Y-167625D01*
X-7475Y-167892D01*
X-7183Y-168292D01*
X-6950Y-168758D01*
X-6892Y-169425D01*
X-6950Y-170092D01*
X-7183Y-170558D01*
X-7475Y-170958D01*
X-7825Y-171225D01*
X-8292Y-171425D01*
X-9458D01*
G01X-4542D02*
Y-167425D01*
X-3083D01*
X-2617Y-167625D01*
X-2325Y-167892D01*
X-2208Y-168425D01*
X-2325Y-168958D01*
X-2675Y-169292D01*
X-3083Y-169492D01*
X-4542D01*
G01X-3083D02*
X-2208Y-171425D01*
G01X725Y-167425D02*
X2125D01*
G01X1425D02*
Y-171425D01*
G01X725D02*
X2125D01*
G01X4767Y-167425D02*
X6225Y-171425D01*
X7683Y-167425D01*
G01X12192Y-171425D02*
X9858D01*
Y-167425D01*
X12192D01*
G01X11258Y-169358D02*
X9858D01*
G01X18875Y-167425D02*
X19692Y-171425D01*
X20625Y-167425D01*
X21558Y-171425D01*
X22375Y-167425D01*
G01X26592Y-171425D02*
X24258D01*
Y-167425D01*
X26592D01*
G01X25658Y-169358D02*
X24258D01*
G01X29000Y-170892D02*
X29467Y-171225D01*
X29992Y-171425D01*
X30458D01*
X30925Y-171225D01*
X31275Y-170892D01*
X31450Y-170425D01*
X31333Y-169958D01*
X31042Y-169558D01*
X30517Y-169292D01*
X29817Y-169158D01*
X29408Y-168892D01*
X29233Y-168425D01*
X29350Y-167958D01*
X29642Y-167625D01*
X30050Y-167425D01*
X30458D01*
X30867Y-167558D01*
X31217Y-167892D01*
G01X35025Y-167425D02*
Y-171425D01*
G01X33683Y-167425D02*
X36367D01*
G01X-105898Y-163425D02*
Y-155925D01*
X-102352D01*
G01X-103658Y-159550D02*
X-105898D01*
G01X-98492Y-163425D02*
Y-155925D01*
X-96158D01*
X-95412Y-156300D01*
X-94945Y-156800D01*
X-94758Y-157800D01*
X-94945Y-158800D01*
X-95505Y-159425D01*
X-96158Y-159800D01*
X-98492D01*
G01X-96158D02*
X-94758Y-163425D01*
G01X-87258D02*
X-90992D01*
Y-155925D01*
X-87258D01*
G01X-88752Y-159550D02*
X-90992D01*
G01X-79758Y-163425D02*
X-83492D01*
Y-155925D01*
X-79758D01*
G01X-81252Y-159550D02*
X-83492D01*
G01X-76085Y-162425D02*
X-75338Y-163050D01*
X-74498Y-163425D01*
X-73752D01*
X-73005Y-163050D01*
X-72445Y-162425D01*
X-72165Y-161550D01*
X-72352Y-160675D01*
X-72818Y-159925D01*
X-73658Y-159425D01*
X-74778Y-159175D01*
X-75432Y-158675D01*
X-75712Y-157800D01*
X-75525Y-156925D01*
X-75058Y-156300D01*
X-74405Y-155925D01*
X-73752D01*
X-73098Y-156175D01*
X-72538Y-156800D01*
G01X-64572Y-156550D02*
X-65132Y-156175D01*
X-65785Y-155925D01*
X-66532D01*
X-67372Y-156300D01*
X-68025Y-156925D01*
X-68492Y-157675D01*
X-68865Y-158925D01*
X-68958Y-160050D01*
X-68772Y-161175D01*
X-68492Y-161925D01*
X-67932Y-162675D01*
X-67278Y-163175D01*
X-66625Y-163425D01*
X-65972D01*
X-65318Y-163175D01*
X-64758Y-162800D01*
X-64292Y-162300D01*
G01X-61458Y-163425D02*
X-59125Y-155925D01*
X-56792Y-163425D01*
G01X-57632Y-160800D02*
X-60618D01*
G01X-53492Y-155925D02*
Y-163425D01*
X-49758D01*
G01X-42258D02*
X-45992D01*
Y-155925D01*
X-42258D01*
G01X-43752Y-159550D02*
X-45992D01*
G01X-31085Y-162425D02*
X-30338Y-163050D01*
X-29498Y-163425D01*
X-28752D01*
X-28005Y-163050D01*
X-27445Y-162425D01*
X-27165Y-161550D01*
X-27352Y-160675D01*
X-27818Y-159925D01*
X-28658Y-159425D01*
X-29778Y-159175D01*
X-30432Y-158675D01*
X-30712Y-157800D01*
X-30525Y-156925D01*
X-30058Y-156300D01*
X-29405Y-155925D01*
X-28752D01*
X-28098Y-156175D01*
X-27538Y-156800D01*
G01X-19758Y-163425D02*
X-23492D01*
Y-155925D01*
X-19758D01*
G01X-21252Y-159550D02*
X-23492D01*
G01X-16552Y-163425D02*
Y-155925D01*
X-14125Y-162175D01*
X-11698Y-155925D01*
Y-163425D01*
G01X-7745Y-155925D02*
X-5505D01*
G01X-6625D02*
Y-163425D01*
G01X-7745D02*
X-5505D01*
G01X2928Y-156550D02*
X2368Y-156175D01*
X1715Y-155925D01*
X968D01*
X128Y-156300D01*
X-525Y-156925D01*
X-992Y-157675D01*
X-1365Y-158925D01*
X-1458Y-160050D01*
X-1272Y-161175D01*
X-992Y-161925D01*
X-432Y-162675D01*
X222Y-163175D01*
X875Y-163425D01*
X1528D01*
X2182Y-163175D01*
X2742Y-162800D01*
X3208Y-162300D01*
G01X8375Y-163425D02*
X7628Y-163300D01*
X6975Y-162800D01*
X6415Y-162050D01*
X6042Y-161175D01*
X5855Y-160175D01*
Y-159175D01*
X6042Y-158175D01*
X6415Y-157300D01*
X6975Y-156550D01*
X7628Y-156050D01*
X8375Y-155925D01*
X9122Y-156050D01*
X9775Y-156550D01*
X10335Y-157300D01*
X10708Y-158175D01*
X10895Y-159175D01*
Y-160175D01*
X10708Y-161175D01*
X10335Y-162050D01*
X9775Y-162800D01*
X9122Y-163300D01*
X8375Y-163425D01*
G01X13728D02*
Y-155925D01*
X18022Y-163425D01*
Y-155925D01*
G01X21322Y-163425D02*
Y-155925D01*
X23188D01*
X23935Y-156300D01*
X24495Y-156800D01*
X24962Y-157550D01*
X25335Y-158425D01*
X25428Y-159675D01*
X25335Y-160925D01*
X24962Y-161800D01*
X24495Y-162550D01*
X23935Y-163050D01*
X23188Y-163425D01*
X21322D01*
G01X28822Y-155925D02*
Y-161300D01*
X29195Y-162425D01*
X29942Y-163175D01*
X30875Y-163425D01*
X31808Y-163175D01*
X32555Y-162425D01*
X32928Y-161300D01*
Y-155925D01*
G01X40428Y-156550D02*
X39868Y-156175D01*
X39215Y-155925D01*
X38468D01*
X37628Y-156300D01*
X36975Y-156925D01*
X36508Y-157675D01*
X36135Y-158925D01*
X36042Y-160050D01*
X36228Y-161175D01*
X36508Y-161925D01*
X37068Y-162675D01*
X37722Y-163175D01*
X38375Y-163425D01*
X39028D01*
X39682Y-163175D01*
X40242Y-162800D01*
X40708Y-162300D01*
G01X45875Y-155925D02*
Y-163425D01*
G01X43728Y-155925D02*
X48022D01*
G01X53375Y-163425D02*
X52628Y-163300D01*
X51975Y-162800D01*
X51415Y-162050D01*
X51042Y-161175D01*
X50855Y-160175D01*
Y-159175D01*
X51042Y-158175D01*
X51415Y-157300D01*
X51975Y-156550D01*
X52628Y-156050D01*
X53375Y-155925D01*
X54122Y-156050D01*
X54775Y-156550D01*
X55335Y-157300D01*
X55708Y-158175D01*
X55895Y-159175D01*
Y-160175D01*
X55708Y-161175D01*
X55335Y-162050D01*
X54775Y-162800D01*
X54122Y-163300D01*
X53375Y-163425D01*
G01X59008D02*
Y-155925D01*
X61342D01*
X62088Y-156300D01*
X62555Y-156800D01*
X62742Y-157800D01*
X62555Y-158800D01*
X61995Y-159425D01*
X61342Y-159800D01*
X59008D01*
G01X61342D02*
X62742Y-163425D01*
G01X-57642Y-248925D02*
Y-242625D01*
X-55762D01*
X-55135Y-242940D01*
X-54665Y-243675D01*
X-54508Y-244515D01*
X-54665Y-245355D01*
X-55057Y-245985D01*
X-55762Y-246300D01*
X-57642D01*
G01X-51342Y-248925D02*
Y-242625D01*
X-49383D01*
X-48757Y-242940D01*
X-48365Y-243360D01*
X-48208Y-244200D01*
X-48365Y-245040D01*
X-48835Y-245565D01*
X-49383Y-245880D01*
X-51342D01*
G01X-49383D02*
X-48208Y-248925D01*
G01X-44415Y-242625D02*
X-42535D01*
G01X-43475D02*
Y-248925D01*
G01X-44415D02*
X-42535D01*
G01X-39212D02*
Y-242625D01*
X-37175Y-247875D01*
X-35138Y-242625D01*
Y-248925D01*
G01X-32833D02*
X-30875Y-242625D01*
X-28917Y-248925D01*
G01X-29622Y-246720D02*
X-32128D01*
G01X-26142Y-248925D02*
Y-242625D01*
X-24183D01*
X-23557Y-242940D01*
X-23165Y-243360D01*
X-23008Y-244200D01*
X-23165Y-245040D01*
X-23635Y-245565D01*
X-24183Y-245880D01*
X-26142D01*
G01X-24183D02*
X-23008Y-248925D01*
G01X-18275D02*
Y-246090D01*
X-19842Y-242625D01*
G01X-16708D02*
X-18275Y-246090D01*
G01X-7320Y-248085D02*
X-6693Y-248610D01*
X-5988Y-248925D01*
X-5362D01*
X-4735Y-248610D01*
X-4265Y-248085D01*
X-4030Y-247350D01*
X-4187Y-246615D01*
X-4578Y-245985D01*
X-5283Y-245565D01*
X-6223Y-245355D01*
X-6772Y-244935D01*
X-7007Y-244200D01*
X-6850Y-243465D01*
X-6458Y-242940D01*
X-5910Y-242625D01*
X-5362D01*
X-4813Y-242835D01*
X-4343Y-243360D01*
G01X625Y-248925D02*
X-2Y-248820D01*
X-550Y-248400D01*
X-1020Y-247770D01*
X-1333Y-247035D01*
X-1490Y-246195D01*
Y-245355D01*
X-1333Y-244515D01*
X-1020Y-243780D01*
X-550Y-243150D01*
X-2Y-242730D01*
X625Y-242625D01*
X1252Y-242730D01*
X1800Y-243150D01*
X2270Y-243780D01*
X2583Y-244515D01*
X2740Y-245355D01*
Y-246195D01*
X2583Y-247035D01*
X2270Y-247770D01*
X1800Y-248400D01*
X1252Y-248820D01*
X625Y-248925D01*
G01X5358Y-242625D02*
Y-248925D01*
X8492D01*
G01X11502D02*
Y-242625D01*
X13068D01*
X13695Y-242940D01*
X14165Y-243360D01*
X14557Y-243990D01*
X14870Y-244725D01*
X14948Y-245775D01*
X14870Y-246825D01*
X14557Y-247560D01*
X14165Y-248190D01*
X13695Y-248610D01*
X13068Y-248925D01*
X11502D01*
G01X21092D02*
X17958D01*
Y-242625D01*
X21092D01*
G01X19838Y-245670D02*
X17958D01*
G01X24258Y-248925D02*
Y-242625D01*
X26217D01*
X26843Y-242940D01*
X27235Y-243360D01*
X27392Y-244200D01*
X27235Y-245040D01*
X26765Y-245565D01*
X26217Y-245880D01*
X24258D01*
G01X26217D02*
X27392Y-248925D01*
G01X36858D02*
Y-242625D01*
X38738D01*
X39365Y-242940D01*
X39835Y-243675D01*
X39992Y-244515D01*
X39835Y-245355D01*
X39443Y-245985D01*
X38738Y-246300D01*
X36858D01*
G01X42767Y-248925D02*
X44725Y-242625D01*
X46683Y-248925D01*
G01X45978Y-246720D02*
X43472D01*
G01X49380Y-248085D02*
X50007Y-248610D01*
X50712Y-248925D01*
X51338D01*
X51965Y-248610D01*
X52435Y-248085D01*
X52670Y-247350D01*
X52513Y-246615D01*
X52122Y-245985D01*
X51417Y-245565D01*
X50477Y-245355D01*
X49928Y-244935D01*
X49693Y-244200D01*
X49850Y-243465D01*
X50242Y-242940D01*
X50790Y-242625D01*
X51338D01*
X51887Y-242835D01*
X52357Y-243360D01*
G01X57325Y-242625D02*
Y-248925D01*
G01X55523Y-242625D02*
X59127D01*
G01X65192Y-248925D02*
X62058D01*
Y-242625D01*
X65192D01*
G01X63938Y-245670D02*
X62058D01*
G01X-55283Y-239425D02*
Y-235425D01*
X-53067D01*
G01X-53883Y-237358D02*
X-55283D01*
G01X-50075Y-235425D02*
X-48675D01*
G01X-49375D02*
Y-239425D01*
G01X-50075D02*
X-48675D01*
G01X-45742Y-235425D02*
Y-239425D01*
X-43408D01*
G01X-41292D02*
Y-235425D01*
X-39775Y-238758D01*
X-38258Y-235425D01*
Y-239425D01*
G01X72825Y-247425D02*
Y-243425D01*
X72125Y-244225D01*
G01Y-247425D02*
X73525D01*
G01X77625Y-243425D02*
X77158Y-243558D01*
X76808Y-243892D01*
X76575Y-244292D01*
X76400Y-244825D01*
X76342Y-245425D01*
X76400Y-246025D01*
X76575Y-246558D01*
X76808Y-246958D01*
X77158Y-247292D01*
X77625Y-247425D01*
X78092Y-247292D01*
X78442Y-246958D01*
X78675Y-246558D01*
X78850Y-246025D01*
X78908Y-245425D01*
X78850Y-244825D01*
X78675Y-244292D01*
X78442Y-243892D01*
X78092Y-243558D01*
X77625Y-243425D01*
G01X81667Y-246092D02*
X83183D01*
G01X86117Y-244092D02*
X86467Y-243692D01*
X86875Y-243492D01*
X87342Y-243425D01*
X87925Y-243558D01*
X88333Y-243892D01*
X88450Y-244292D01*
X88392Y-244692D01*
X88158Y-245025D01*
X86992Y-245692D01*
X86467Y-246158D01*
X86117Y-246825D01*
X86000Y-247425D01*
X88450D01*
G01X90917Y-244092D02*
X91267Y-243692D01*
X91675Y-243492D01*
X92142Y-243425D01*
X92725Y-243558D01*
X93133Y-243892D01*
X93250Y-244292D01*
X93192Y-244692D01*
X92958Y-245025D01*
X91792Y-245692D01*
X91267Y-246158D01*
X90917Y-246825D01*
X90800Y-247425D01*
X93250D01*
G01X96067Y-246092D02*
X97583D01*
G01X101625Y-247425D02*
Y-243425D01*
X100925Y-244225D01*
G01Y-247425D02*
X102325D01*
G01X105142Y-246625D02*
X105492Y-247092D01*
X105958Y-247358D01*
X106483Y-247425D01*
X106950Y-247358D01*
X107417Y-247025D01*
X107708Y-246625D01*
X107767Y-246225D01*
X107650Y-245758D01*
X107242Y-245425D01*
X106833Y-245292D01*
X106308D01*
G01X106833D02*
X107183Y-245092D01*
X107475Y-244758D01*
X107592Y-244358D01*
X107475Y-243958D01*
X107183Y-243625D01*
X106658Y-243425D01*
X106133Y-243492D01*
X105608Y-243758D01*
G01X69542Y-239425D02*
Y-235425D01*
X70708D01*
X71175Y-235625D01*
X71525Y-235892D01*
X71817Y-236292D01*
X72050Y-236758D01*
X72108Y-237425D01*
X72050Y-238092D01*
X71817Y-238558D01*
X71525Y-238958D01*
X71175Y-239225D01*
X70708Y-239425D01*
X69542D01*
G01X74167D02*
X75625Y-235425D01*
X77083Y-239425D01*
G01X76558Y-238025D02*
X74692D01*
G01X80425Y-235425D02*
Y-239425D01*
G01X79083Y-235425D02*
X81767D01*
G01X86392Y-239425D02*
X84058D01*
Y-235425D01*
X86392D01*
G01X85458Y-237358D02*
X84058D01*
G01X83780Y-208425D02*
X87070Y-202125D01*
G01X83780D02*
X87070Y-208425D01*
G01X79075Y-225258D02*
X82575D01*
G01X83875D02*
X87375D01*
G01X88675D02*
X92175D01*
G01X98917Y-223925D02*
Y-219925D01*
X101133D01*
G01X100317Y-221858D02*
X98917D01*
G01X106108Y-220258D02*
X105758Y-220058D01*
X105350Y-219925D01*
X104883D01*
X104358Y-220125D01*
X103950Y-220458D01*
X103658Y-220858D01*
X103425Y-221525D01*
X103367Y-222125D01*
X103483Y-222725D01*
X103658Y-223125D01*
X104008Y-223525D01*
X104417Y-223792D01*
X104825Y-223925D01*
X105233D01*
X105642Y-223792D01*
X105992Y-223592D01*
X106283Y-223325D01*
G01X108458Y-223925D02*
Y-219925D01*
X109858D01*
X110325Y-220125D01*
X110675Y-220592D01*
X110792Y-221125D01*
X110675Y-221658D01*
X110383Y-222058D01*
X109858Y-222258D01*
X108458D01*
G01X118933Y-225258D02*
X118350Y-224592D01*
X118058Y-223925D01*
Y-221258D01*
X118350Y-220592D01*
X118933Y-219925D01*
G01X122917Y-223925D02*
Y-219925D01*
X125133D01*
G01X124317Y-221858D02*
X122917D01*
G01X127658Y-223925D02*
Y-219925D01*
X129117D01*
X129583Y-220125D01*
X129875Y-220392D01*
X129992Y-220925D01*
X129875Y-221458D01*
X129525Y-221792D01*
X129117Y-221992D01*
X127658D01*
G01X129117D02*
X129992Y-223925D01*
G01X134792D02*
X132458D01*
Y-219925D01*
X134792D01*
G01X133858Y-221858D02*
X132458D01*
G01X139592Y-223925D02*
X137258D01*
Y-219925D01*
X139592D01*
G01X138658Y-221858D02*
X137258D01*
G01X142000Y-223392D02*
X142467Y-223725D01*
X142992Y-223925D01*
X143458D01*
X143925Y-223725D01*
X144275Y-223392D01*
X144450Y-222925D01*
X144333Y-222458D01*
X144042Y-222058D01*
X143517Y-221792D01*
X142817Y-221658D01*
X142408Y-221392D01*
X142233Y-220925D01*
X142350Y-220458D01*
X142642Y-220125D01*
X143050Y-219925D01*
X143458D01*
X143867Y-220058D01*
X144217Y-220392D01*
G01X149308Y-220258D02*
X148958Y-220058D01*
X148550Y-219925D01*
X148083D01*
X147558Y-220125D01*
X147150Y-220458D01*
X146858Y-220858D01*
X146625Y-221525D01*
X146567Y-222125D01*
X146683Y-222725D01*
X146858Y-223125D01*
X147208Y-223525D01*
X147617Y-223792D01*
X148025Y-223925D01*
X148433D01*
X148842Y-223792D01*
X149192Y-223592D01*
X149483Y-223325D01*
G01X151367Y-223925D02*
X152825Y-219925D01*
X154283Y-223925D01*
G01X153758Y-222525D02*
X151892D01*
G01X156458Y-219925D02*
Y-223925D01*
X158792D01*
G01X163592D02*
X161258D01*
Y-219925D01*
X163592D01*
G01X162658Y-221858D02*
X161258D01*
G01X173308Y-220258D02*
X172958Y-220058D01*
X172550Y-219925D01*
X172083D01*
X171558Y-220125D01*
X171150Y-220458D01*
X170858Y-220858D01*
X170625Y-221525D01*
X170567Y-222125D01*
X170683Y-222725D01*
X170858Y-223125D01*
X171208Y-223525D01*
X171617Y-223792D01*
X172025Y-223925D01*
X172433D01*
X172842Y-223792D01*
X173192Y-223592D01*
X173483Y-223325D01*
G01X176825Y-223925D02*
X176358Y-223858D01*
X175950Y-223592D01*
X175600Y-223192D01*
X175367Y-222725D01*
X175250Y-222192D01*
Y-221658D01*
X175367Y-221125D01*
X175600Y-220658D01*
X175950Y-220258D01*
X176358Y-219992D01*
X176825Y-219925D01*
X177292Y-219992D01*
X177700Y-220258D01*
X178050Y-220658D01*
X178283Y-221125D01*
X178400Y-221658D01*
Y-222192D01*
X178283Y-222725D01*
X178050Y-223192D01*
X177700Y-223592D01*
X177292Y-223858D01*
X176825Y-223925D01*
G01X180283D02*
Y-219925D01*
X182967Y-223925D01*
Y-219925D01*
G01X185317Y-223925D02*
Y-219925D01*
X187533D01*
G01X186717Y-221858D02*
X185317D01*
G01X190525Y-219925D02*
X191925D01*
G01X191225D02*
Y-223925D01*
G01X190525D02*
X191925D01*
G01X194742D02*
Y-219925D01*
X195908D01*
X196375Y-220125D01*
X196725Y-220392D01*
X197017Y-220792D01*
X197250Y-221258D01*
X197308Y-221925D01*
X197250Y-222592D01*
X197017Y-223058D01*
X196725Y-223458D01*
X196375Y-223725D01*
X195908Y-223925D01*
X194742D01*
G01X201992D02*
X199658D01*
Y-219925D01*
X201992D01*
G01X201058Y-221858D02*
X199658D01*
G01X204283Y-223925D02*
Y-219925D01*
X206967Y-223925D01*
Y-219925D01*
G01X210425D02*
Y-223925D01*
G01X209083Y-219925D02*
X211767D01*
G01X214525D02*
X215925D01*
G01X215225D02*
Y-223925D01*
G01X214525D02*
X215925D01*
G01X218567D02*
X220025Y-219925D01*
X221483Y-223925D01*
G01X220958Y-222525D02*
X219092D01*
G01X223658Y-219925D02*
Y-223925D01*
X225992D01*
G01X233258D02*
Y-219925D01*
X234658D01*
X235125Y-220125D01*
X235475Y-220592D01*
X235592Y-221125D01*
X235475Y-221658D01*
X235183Y-222058D01*
X234658Y-222258D01*
X233258D01*
G01X238058Y-223925D02*
Y-219925D01*
X239517D01*
X239983Y-220125D01*
X240275Y-220392D01*
X240392Y-220925D01*
X240275Y-221458D01*
X239925Y-221792D01*
X239517Y-221992D01*
X238058D01*
G01X239517D02*
X240392Y-223925D01*
G01X244025D02*
X243558Y-223858D01*
X243150Y-223592D01*
X242800Y-223192D01*
X242567Y-222725D01*
X242450Y-222192D01*
Y-221658D01*
X242567Y-221125D01*
X242800Y-220658D01*
X243150Y-220258D01*
X243558Y-219992D01*
X244025Y-219925D01*
X244492Y-219992D01*
X244900Y-220258D01*
X245250Y-220658D01*
X245483Y-221125D01*
X245600Y-221658D01*
Y-222192D01*
X245483Y-222725D01*
X245250Y-223192D01*
X244900Y-223592D01*
X244492Y-223858D01*
X244025Y-223925D01*
G01X247658D02*
Y-219925D01*
X249058D01*
X249525Y-220125D01*
X249875Y-220592D01*
X249992Y-221125D01*
X249875Y-221658D01*
X249583Y-222058D01*
X249058Y-222258D01*
X247658D01*
G01X252458Y-223925D02*
Y-219925D01*
X253917D01*
X254383Y-220125D01*
X254675Y-220392D01*
X254792Y-220925D01*
X254675Y-221458D01*
X254325Y-221792D01*
X253917Y-221992D01*
X252458D01*
G01X253917D02*
X254792Y-223925D01*
G01X257725Y-219925D02*
X259125D01*
G01X258425D02*
Y-223925D01*
G01X257725D02*
X259125D01*
G01X264392D02*
X262058D01*
Y-219925D01*
X264392D01*
G01X263458Y-221858D02*
X262058D01*
G01X268025Y-219925D02*
Y-223925D01*
G01X266683Y-219925D02*
X269367D01*
G01X271367Y-223925D02*
X272825Y-219925D01*
X274283Y-223925D01*
G01X273758Y-222525D02*
X271892D01*
G01X276458Y-223925D02*
Y-219925D01*
X277917D01*
X278383Y-220125D01*
X278675Y-220392D01*
X278792Y-220925D01*
X278675Y-221458D01*
X278325Y-221792D01*
X277917Y-221992D01*
X276458D01*
G01X277917D02*
X278792Y-223925D01*
G01X282425D02*
Y-222125D01*
X281258Y-219925D01*
G01X283592D02*
X282425Y-222125D01*
G01X287517Y-225258D02*
X288100Y-224592D01*
X288392Y-223925D01*
Y-221258D01*
X288100Y-220592D01*
X287517Y-219925D01*
G01X79075Y-208758D02*
X82575D01*
G01X83875D02*
X87375D01*
G01X88675D02*
X92175D01*
G01X98917Y-207425D02*
Y-203425D01*
X101133D01*
G01X100317Y-205358D02*
X98917D01*
G01X104125Y-203425D02*
X105525D01*
G01X104825D02*
Y-207425D01*
G01X104125D02*
X105525D01*
G01X108342Y-203425D02*
Y-206292D01*
X108575Y-206892D01*
X109042Y-207292D01*
X109625Y-207425D01*
X110208Y-207292D01*
X110675Y-206892D01*
X110908Y-206292D01*
Y-203425D01*
G01X114425Y-207425D02*
X113958Y-207358D01*
X113550Y-207092D01*
X113200Y-206692D01*
X112967Y-206225D01*
X112850Y-205692D01*
Y-205158D01*
X112967Y-204625D01*
X113200Y-204158D01*
X113550Y-203758D01*
X113958Y-203492D01*
X114425Y-203425D01*
X114892Y-203492D01*
X115300Y-203758D01*
X115650Y-204158D01*
X115883Y-204625D01*
X116000Y-205158D01*
Y-205692D01*
X115883Y-206225D01*
X115650Y-206692D01*
X115300Y-207092D01*
X114892Y-207358D01*
X114425Y-207425D01*
G01X123733Y-208758D02*
X123150Y-208092D01*
X122858Y-207425D01*
Y-204758D01*
X123150Y-204092D01*
X123733Y-203425D01*
G01X127717Y-207425D02*
Y-203425D01*
X129933D01*
G01X129117Y-205358D02*
X127717D01*
G01X132458Y-207425D02*
Y-203425D01*
X133917D01*
X134383Y-203625D01*
X134675Y-203892D01*
X134792Y-204425D01*
X134675Y-204958D01*
X134325Y-205292D01*
X133917Y-205492D01*
X132458D01*
G01X133917D02*
X134792Y-207425D01*
G01X139592D02*
X137258D01*
Y-203425D01*
X139592D01*
G01X138658Y-205358D02*
X137258D01*
G01X144392Y-207425D02*
X142058D01*
Y-203425D01*
X144392D01*
G01X143458Y-205358D02*
X142058D01*
G01X146800Y-206892D02*
X147267Y-207225D01*
X147792Y-207425D01*
X148258D01*
X148725Y-207225D01*
X149075Y-206892D01*
X149250Y-206425D01*
X149133Y-205958D01*
X148842Y-205558D01*
X148317Y-205292D01*
X147617Y-205158D01*
X147208Y-204892D01*
X147033Y-204425D01*
X147150Y-203958D01*
X147442Y-203625D01*
X147850Y-203425D01*
X148258D01*
X148667Y-203558D01*
X149017Y-203892D01*
G01X154108Y-203758D02*
X153758Y-203558D01*
X153350Y-203425D01*
X152883D01*
X152358Y-203625D01*
X151950Y-203958D01*
X151658Y-204358D01*
X151425Y-205025D01*
X151367Y-205625D01*
X151483Y-206225D01*
X151658Y-206625D01*
X152008Y-207025D01*
X152417Y-207292D01*
X152825Y-207425D01*
X153233D01*
X153642Y-207292D01*
X153992Y-207092D01*
X154283Y-206825D01*
G01X156167Y-207425D02*
X157625Y-203425D01*
X159083Y-207425D01*
G01X158558Y-206025D02*
X156692D01*
G01X161258Y-203425D02*
Y-207425D01*
X163592D01*
G01X168392D02*
X166058D01*
Y-203425D01*
X168392D01*
G01X167458Y-205358D02*
X166058D01*
G01X176125Y-203425D02*
X177525D01*
G01X176825D02*
Y-207425D01*
G01X176125D02*
X177525D01*
G01X180283D02*
Y-203425D01*
X182967Y-207425D01*
Y-203425D01*
G01X186425D02*
Y-207425D01*
G01X185083Y-203425D02*
X187767D01*
G01X192392Y-207425D02*
X190058D01*
Y-203425D01*
X192392D01*
G01X191458Y-205358D02*
X190058D01*
G01X194858Y-207425D02*
Y-203425D01*
X196317D01*
X196783Y-203625D01*
X197075Y-203892D01*
X197192Y-204425D01*
X197075Y-204958D01*
X196725Y-205292D01*
X196317Y-205492D01*
X194858D01*
G01X196317D02*
X197192Y-207425D01*
G01X199483D02*
Y-203425D01*
X202167Y-207425D01*
Y-203425D01*
G01X204167Y-207425D02*
X205625Y-203425D01*
X207083Y-207425D01*
G01X206558Y-206025D02*
X204692D01*
G01X209258Y-203425D02*
Y-207425D01*
X211592D01*
G01X218742Y-203425D02*
Y-206292D01*
X218975Y-206892D01*
X219442Y-207292D01*
X220025Y-207425D01*
X220608Y-207292D01*
X221075Y-206892D01*
X221308Y-206292D01*
Y-203425D01*
G01X223600Y-206892D02*
X224067Y-207225D01*
X224592Y-207425D01*
X225058D01*
X225525Y-207225D01*
X225875Y-206892D01*
X226050Y-206425D01*
X225933Y-205958D01*
X225642Y-205558D01*
X225117Y-205292D01*
X224417Y-205158D01*
X224008Y-204892D01*
X223833Y-204425D01*
X223950Y-203958D01*
X224242Y-203625D01*
X224650Y-203425D01*
X225058D01*
X225467Y-203558D01*
X225817Y-203892D01*
G01X230792Y-207425D02*
X228458D01*
Y-203425D01*
X230792D01*
G01X229858Y-205358D02*
X228458D01*
G01X239225Y-207425D02*
X238758Y-207358D01*
X238350Y-207092D01*
X238000Y-206692D01*
X237767Y-206225D01*
X237650Y-205692D01*
Y-205158D01*
X237767Y-204625D01*
X238000Y-204158D01*
X238350Y-203758D01*
X238758Y-203492D01*
X239225Y-203425D01*
X239692Y-203492D01*
X240100Y-203758D01*
X240450Y-204158D01*
X240683Y-204625D01*
X240800Y-205158D01*
Y-205692D01*
X240683Y-206225D01*
X240450Y-206692D01*
X240100Y-207092D01*
X239692Y-207358D01*
X239225Y-207425D01*
G01X242683D02*
Y-203425D01*
X245367Y-207425D01*
Y-203425D01*
G01X247658D02*
Y-207425D01*
X249992D01*
G01X253625D02*
Y-205625D01*
X252458Y-203425D01*
G01X254792D02*
X253625Y-205625D01*
G01X258717Y-208758D02*
X259300Y-208092D01*
X259592Y-207425D01*
Y-204758D01*
X259300Y-204092D01*
X258717Y-203425D01*
G01X79075Y-192758D02*
X82575D01*
G01X83875D02*
X87375D01*
G01X88675D02*
X92175D01*
G01X98858Y-191425D02*
Y-187425D01*
X100258D01*
X100725Y-187625D01*
X101075Y-188092D01*
X101192Y-188625D01*
X101075Y-189158D01*
X100783Y-189558D01*
X100258Y-189758D01*
X98858D01*
G01X103542Y-187425D02*
Y-190292D01*
X103775Y-190892D01*
X104242Y-191292D01*
X104825Y-191425D01*
X105408Y-191292D01*
X105875Y-190892D01*
X106108Y-190292D01*
Y-187425D01*
G01X110092Y-189292D02*
X110325Y-189092D01*
X110500Y-188758D01*
X110617Y-188292D01*
X110500Y-187892D01*
X110267Y-187625D01*
X109858Y-187425D01*
X108283D01*
Y-191425D01*
X110208D01*
X110617Y-191158D01*
X110850Y-190758D01*
X110967Y-190292D01*
X110850Y-189825D01*
X110500Y-189425D01*
X110092Y-189292D01*
X108283D01*
G01X113725Y-187425D02*
X115125D01*
G01X114425D02*
Y-191425D01*
G01X113725D02*
X115125D01*
G01X123733Y-192758D02*
X123150Y-192092D01*
X122858Y-191425D01*
Y-188758D01*
X123150Y-188092D01*
X123733Y-187425D01*
G01X127658Y-191425D02*
Y-187425D01*
X129058D01*
X129525Y-187625D01*
X129875Y-188092D01*
X129992Y-188625D01*
X129875Y-189158D01*
X129583Y-189558D01*
X129058Y-189758D01*
X127658D01*
G01X132342Y-187425D02*
Y-190292D01*
X132575Y-190892D01*
X133042Y-191292D01*
X133625Y-191425D01*
X134208Y-191292D01*
X134675Y-190892D01*
X134908Y-190292D01*
Y-187425D01*
G01X138892Y-189292D02*
X139125Y-189092D01*
X139300Y-188758D01*
X139417Y-188292D01*
X139300Y-187892D01*
X139067Y-187625D01*
X138658Y-187425D01*
X137083D01*
Y-191425D01*
X139008D01*
X139417Y-191158D01*
X139650Y-190758D01*
X139767Y-190292D01*
X139650Y-189825D01*
X139300Y-189425D01*
X138892Y-189292D01*
X137083D01*
G01X142058Y-187425D02*
Y-191425D01*
X144392D01*
G01X147325Y-187425D02*
X148725D01*
G01X148025D02*
Y-191425D01*
G01X147325D02*
X148725D01*
G01X154108Y-187758D02*
X153758Y-187558D01*
X153350Y-187425D01*
X152883D01*
X152358Y-187625D01*
X151950Y-187958D01*
X151658Y-188358D01*
X151425Y-189025D01*
X151367Y-189625D01*
X151483Y-190225D01*
X151658Y-190625D01*
X152008Y-191025D01*
X152417Y-191292D01*
X152825Y-191425D01*
X153233D01*
X153642Y-191292D01*
X153992Y-191092D01*
X154283Y-190825D01*
G01X161725Y-187425D02*
X163125D01*
G01X162425D02*
Y-191425D01*
G01X161725D02*
X163125D01*
G01X165883D02*
Y-187425D01*
X168567Y-191425D01*
Y-187425D01*
G01X170917Y-191425D02*
Y-187425D01*
X173133D01*
G01X172317Y-189358D02*
X170917D01*
G01X176825Y-191425D02*
X176358Y-191358D01*
X175950Y-191092D01*
X175600Y-190692D01*
X175367Y-190225D01*
X175250Y-189692D01*
Y-189158D01*
X175367Y-188625D01*
X175600Y-188158D01*
X175950Y-187758D01*
X176358Y-187492D01*
X176825Y-187425D01*
X177292Y-187492D01*
X177700Y-187758D01*
X178050Y-188158D01*
X178283Y-188625D01*
X178400Y-189158D01*
Y-189692D01*
X178283Y-190225D01*
X178050Y-190692D01*
X177700Y-191092D01*
X177292Y-191358D01*
X176825Y-191425D01*
G01X180458D02*
Y-187425D01*
X181917D01*
X182383Y-187625D01*
X182675Y-187892D01*
X182792Y-188425D01*
X182675Y-188958D01*
X182325Y-189292D01*
X181917Y-189492D01*
X180458D01*
G01X181917D02*
X182792Y-191425D01*
G01X184908D02*
Y-187425D01*
X186425Y-190758D01*
X187942Y-187425D01*
Y-191425D01*
G01X189767D02*
X191225Y-187425D01*
X192683Y-191425D01*
G01X192158Y-190025D02*
X190292D01*
G01X196025Y-187425D02*
Y-191425D01*
G01X194683Y-187425D02*
X197367D01*
G01X200125D02*
X201525D01*
G01X200825D02*
Y-191425D01*
G01X200125D02*
X201525D01*
G01X205625D02*
X205158Y-191358D01*
X204750Y-191092D01*
X204400Y-190692D01*
X204167Y-190225D01*
X204050Y-189692D01*
Y-189158D01*
X204167Y-188625D01*
X204400Y-188158D01*
X204750Y-187758D01*
X205158Y-187492D01*
X205625Y-187425D01*
X206092Y-187492D01*
X206500Y-187758D01*
X206850Y-188158D01*
X207083Y-188625D01*
X207200Y-189158D01*
Y-189692D01*
X207083Y-190225D01*
X206850Y-190692D01*
X206500Y-191092D01*
X206092Y-191358D01*
X205625Y-191425D01*
G01X209083D02*
Y-187425D01*
X211767Y-191425D01*
Y-187425D01*
G01X215517Y-192758D02*
X216100Y-192092D01*
X216392Y-191425D01*
Y-188758D01*
X216100Y-188092D01*
X215517Y-187425D01*
G01X69483Y-159425D02*
Y-155425D01*
X72167Y-159425D01*
Y-155425D01*
G01X74167Y-159425D02*
X75625Y-155425D01*
X77083Y-159425D01*
G01X76558Y-158025D02*
X74692D01*
G01X78908Y-159425D02*
Y-155425D01*
X80425Y-158758D01*
X81942Y-155425D01*
Y-159425D01*
G01X86392D02*
X84058D01*
Y-155425D01*
X86392D01*
G01X85458Y-157358D02*
X84058D01*
G01X119483Y-239425D02*
Y-235425D01*
X122167Y-239425D01*
Y-235425D01*
G01X124342D02*
Y-238292D01*
X124575Y-238892D01*
X125042Y-239292D01*
X125625Y-239425D01*
X126208Y-239292D01*
X126675Y-238892D01*
X126908Y-238292D01*
Y-235425D01*
G01X128908Y-239425D02*
Y-235425D01*
X130425Y-238758D01*
X131942Y-235425D01*
Y-239425D01*
G01X135692Y-237292D02*
X135925Y-237092D01*
X136100Y-236758D01*
X136217Y-236292D01*
X136100Y-235892D01*
X135867Y-235625D01*
X135458Y-235425D01*
X133883D01*
Y-239425D01*
X135808D01*
X136217Y-239158D01*
X136450Y-238758D01*
X136567Y-238292D01*
X136450Y-237825D01*
X136100Y-237425D01*
X135692Y-237292D01*
X133883D01*
G01X141192Y-239425D02*
X138858D01*
Y-235425D01*
X141192D01*
G01X140258Y-237358D02*
X138858D01*
G01X143658Y-239425D02*
Y-235425D01*
X145117D01*
X145583Y-235625D01*
X145875Y-235892D01*
X145992Y-236425D01*
X145875Y-236958D01*
X145525Y-237292D01*
X145117Y-237492D01*
X143658D01*
G01X145117D02*
X145992Y-239425D01*
G01X154425Y-246425D02*
Y-240125D01*
X153485Y-241385D01*
G01Y-246425D02*
X155365D01*
G01X160568D02*
X160725Y-245060D01*
X160960Y-243905D01*
X161273Y-242855D01*
X161665Y-241700D01*
X162292Y-240125D01*
X159158D01*
G01X167025D02*
X166398Y-240335D01*
X165928Y-240860D01*
X165615Y-241490D01*
X165380Y-242330D01*
X165302Y-243275D01*
X165380Y-244220D01*
X165615Y-245060D01*
X165928Y-245690D01*
X166398Y-246215D01*
X167025Y-246425D01*
X167652Y-246215D01*
X168122Y-245690D01*
X168435Y-245060D01*
X168670Y-244220D01*
X168748Y-243275D01*
X168670Y-242330D01*
X168435Y-241490D01*
X168122Y-240860D01*
X167652Y-240335D01*
X167025Y-240125D01*
G01X172307Y-244325D02*
X174343D01*
G01X178137Y-241175D02*
X178607Y-240545D01*
X179155Y-240230D01*
X179782Y-240125D01*
X180565Y-240335D01*
X181113Y-240860D01*
X181270Y-241490D01*
X181192Y-242120D01*
X180878Y-242645D01*
X179312Y-243695D01*
X178607Y-244430D01*
X178137Y-245480D01*
X177980Y-246425D01*
X181270D01*
G01X185768D02*
X185925Y-245060D01*
X186160Y-243905D01*
X186473Y-242855D01*
X186865Y-241700D01*
X187492Y-240125D01*
X184358D01*
G01X192068Y-246425D02*
X192225Y-245060D01*
X192460Y-243905D01*
X192773Y-242855D01*
X193165Y-241700D01*
X193792Y-240125D01*
X190658D01*
G01X197193Y-245690D02*
X197742Y-246215D01*
X198368Y-246425D01*
X198995Y-246215D01*
X199543Y-245585D01*
X199935Y-244640D01*
X200092Y-243695D01*
Y-242540D01*
X199935Y-241595D01*
X199543Y-240755D01*
X199073Y-240335D01*
X198525Y-240125D01*
X197898Y-240335D01*
X197428Y-240755D01*
X197115Y-241385D01*
X196958Y-242225D01*
X197115Y-242960D01*
X197507Y-243695D01*
X197977Y-244115D01*
X198525Y-244220D01*
X199152Y-244010D01*
X199622Y-243485D01*
X200092Y-242540D01*
G01X203337Y-241175D02*
X203807Y-240545D01*
X204355Y-240230D01*
X204982Y-240125D01*
X205765Y-240335D01*
X206313Y-240860D01*
X206470Y-241490D01*
X206392Y-242120D01*
X206078Y-242645D01*
X204512Y-243695D01*
X203807Y-244430D01*
X203337Y-245480D01*
X203180Y-246425D01*
X206470D01*
G01X247358D02*
Y-240125D01*
X249317D01*
X249943Y-240440D01*
X250335Y-240860D01*
X250492Y-241700D01*
X250335Y-242540D01*
X249865Y-243065D01*
X249317Y-243380D01*
X247358D01*
G01X249317D02*
X250492Y-246425D01*
G01X256792D02*
X253658D01*
Y-240125D01*
X256792D01*
G01X255538Y-243170D02*
X253658D01*
G01X259567Y-240125D02*
X261525Y-246425D01*
X263483Y-240125D01*
G01X272402Y-246425D02*
Y-240125D01*
X273968D01*
X274595Y-240440D01*
X275065Y-240860D01*
X275457Y-241490D01*
X275770Y-242225D01*
X275848Y-243275D01*
X275770Y-244325D01*
X275457Y-245060D01*
X275065Y-245690D01*
X274595Y-246110D01*
X273968Y-246425D01*
X272402D01*
G01X154388Y-173425D02*
Y-167125D01*
X156425Y-172375D01*
X158462Y-167125D01*
Y-173425D01*
G01X161158D02*
Y-167125D01*
X163117D01*
X163743Y-167440D01*
X164135Y-167860D01*
X164292Y-168700D01*
X164135Y-169540D01*
X163665Y-170065D01*
X163117Y-170380D01*
X161158D01*
G01X163117D02*
X164292Y-173425D01*
G01X169652Y-170065D02*
X169965Y-169750D01*
X170200Y-169225D01*
X170357Y-168490D01*
X170200Y-167860D01*
X169887Y-167440D01*
X169338Y-167125D01*
X167223D01*
Y-173425D01*
X169808D01*
X170357Y-173005D01*
X170670Y-172375D01*
X170827Y-171640D01*
X170670Y-170905D01*
X170200Y-170275D01*
X169652Y-170065D01*
X167223D01*
G01X174307Y-171325D02*
X176343D01*
G01X179902Y-173425D02*
Y-167125D01*
G01X182878D02*
X179902Y-171010D01*
G01X183348Y-173425D02*
X181233Y-169225D01*
G01X185575Y-167125D02*
X186672Y-173425D01*
X187925Y-167125D01*
X189178Y-173425D01*
X190275Y-167125D01*
G01X194225D02*
X193598Y-167335D01*
X193128Y-167860D01*
X192815Y-168490D01*
X192580Y-169330D01*
X192502Y-170275D01*
X192580Y-171220D01*
X192815Y-172060D01*
X193128Y-172690D01*
X193598Y-173215D01*
X194225Y-173425D01*
X194852Y-173215D01*
X195322Y-172690D01*
X195635Y-172060D01*
X195870Y-171220D01*
X195948Y-170275D01*
X195870Y-169330D01*
X195635Y-168490D01*
X195322Y-167860D01*
X194852Y-167335D01*
X194225Y-167125D01*
G01X200525Y-173425D02*
Y-167125D01*
X199585Y-168385D01*
G01Y-173425D02*
X201465D01*
G01X205493Y-172690D02*
X206042Y-173215D01*
X206668Y-173425D01*
X207295Y-173215D01*
X207843Y-172585D01*
X208235Y-171640D01*
X208392Y-170695D01*
Y-169540D01*
X208235Y-168595D01*
X207843Y-167755D01*
X207373Y-167335D01*
X206825Y-167125D01*
X206198Y-167335D01*
X205728Y-167755D01*
X205415Y-168385D01*
X205258Y-169225D01*
X205415Y-169960D01*
X205807Y-170695D01*
X206277Y-171115D01*
X206825Y-171220D01*
X207452Y-171010D01*
X207922Y-170485D01*
X208392Y-169540D01*
G01X213125Y-167125D02*
X212498Y-167335D01*
X212028Y-167860D01*
X211715Y-168490D01*
X211480Y-169330D01*
X211402Y-170275D01*
X211480Y-171220D01*
X211715Y-172060D01*
X212028Y-172690D01*
X212498Y-173215D01*
X213125Y-173425D01*
X213752Y-173215D01*
X214222Y-172690D01*
X214535Y-172060D01*
X214770Y-171220D01*
X214848Y-170275D01*
X214770Y-169330D01*
X214535Y-168490D01*
X214222Y-167860D01*
X213752Y-167335D01*
X213125Y-167125D01*
G01X217702Y-172165D02*
X218172Y-172900D01*
X218798Y-173320D01*
X219503Y-173425D01*
X220130Y-173320D01*
X220757Y-172795D01*
X221148Y-172165D01*
X221227Y-171535D01*
X221070Y-170800D01*
X220522Y-170275D01*
X219973Y-170065D01*
X219268D01*
G01X219973D02*
X220443Y-169750D01*
X220835Y-169225D01*
X220992Y-168595D01*
X220835Y-167965D01*
X220443Y-167440D01*
X219738Y-167125D01*
X219033Y-167230D01*
X218328Y-167650D01*
G01X224237Y-168175D02*
X224707Y-167545D01*
X225255Y-167230D01*
X225882Y-167125D01*
X226665Y-167335D01*
X227213Y-167860D01*
X227370Y-168490D01*
X227292Y-169120D01*
X226978Y-169645D01*
X225412Y-170695D01*
X224707Y-171430D01*
X224237Y-172480D01*
X224080Y-173425D01*
X227370D01*
M02*
