G04 ================== begin FILE IDENTIFICATION RECORD ==================*
G04 Layout Name:  LAY-27792_D.brd*
G04 Film Name:    PSS.art*
G04 File Format:  Gerber RS274X*
G04 File Origin:  Cadence Allegro 16.5-S035*
G04 Origin Date:  Tue Oct 22 17:05:33 2013*
G04 *
G04 Layer:  REF DES/SILKSCREEN_TOP*
G04 Layer:  PACKAGE GEOMETRY/SILKSCREEN_TOP*
G04 Layer:  DRAWING FORMAT/FILM_TITLE_BLOCK*
G04 Layer:  DRAWING FORMAT/FILM_OUTLINE*
G04 Layer:  BOARD GEOMETRY/OUTLINE*
G04 Layer:  BOARD GEOMETRY/SILKSCREEN_TOP*
G04 *
G04 Offset:    (0.00 0.00)*
G04 Mirror:    No*
G04 Mode:      Positive*
G04 Rotation:  0*
G04 FullContactRelief:  No*
G04 UndefLineWidth:     8.00*
G04 ================== end FILE IDENTIFICATION RECORD ====================*
%FSLAX55Y55*MOIN*%
%IR0*IPPOS*OFA0.00000B0.00000*MIA0B0*SFA1.00000B1.00000*%
%ADD10C,.01*%
%ADD11C,.02*%
%ADD12C,.003*%
%ADD13C,.005*%
%ADD14C,.006*%
%ADD15C,.00598*%
G75*
%LPD*%
G75*
G36*
G01X11702Y41371D02*
G03I-276J0D01*
G37*
G36*
G01X65566Y67563D02*
G03I276J0D01*
G37*
G36*
G01X57013Y109475D02*
G03I276J0D01*
G37*
G36*
G01X71073Y81092D02*
G03I-276J0D01*
G37*
G36*
G01X102707Y58884D02*
G03I-276J0D01*
G37*
G36*
G01X113272Y122192D02*
G03I-276J0D01*
G37*
G36*
G01X113381Y113930D02*
G03I-276J0D01*
G37*
G36*
G01X139776Y29896D02*
G03I-276J0D01*
G37*
G36*
G01Y38296D02*
G03I-276J0D01*
G37*
G36*
G01X131599Y82571D02*
G03I276J0D01*
G37*
G36*
G01X166047Y77575D02*
G03I-276J0D01*
G37*
G54D10*
G01X-108925Y-231425D02*
X291075D01*
G01X-108925Y-201425D02*
Y-181425D01*
X291075D01*
G01X-58925Y-251425D02*
Y-231425D01*
G01X66575Y-251425D02*
Y-231425D01*
G01X66075Y-181425D02*
Y-151425D01*
G01X116075Y-251425D02*
Y-231425D01*
G54D11*
G01X291075Y-151425D02*
Y-251425D01*
X-108925D01*
G01D02*
Y-151425D01*
X291075D01*
G54D12*
G01X-1752Y87126D02*
G03I-150J0D01*
G01X21194Y55814D02*
G03I-150J0D01*
G01X55156Y-57685D02*
G03I-150J0D01*
G01X50826Y-57497D02*
G03I-150J0D01*
G01X61397Y-24113D02*
G03I-150J0D01*
G01X45430Y96019D02*
G03I0J150D01*
G01X73715Y-42010D02*
G03I-150J0D01*
G01X174075Y118425D02*
G03I0J150D01*
G54D13*
G01X185100Y-15000D02*
Y-75100D01*
X-15075D01*
X-15146Y-75029D01*
Y184956D01*
X-15142Y184960D01*
X185094D01*
X185100Y184954D01*
Y-15000D01*
G54D14*
G01X-103063Y-242675D02*
X-102593Y-242045D01*
X-102045Y-241730D01*
X-101418Y-241625D01*
X-100635Y-241835D01*
X-100087Y-242360D01*
X-99930Y-242990D01*
X-100008Y-243620D01*
X-100322Y-244145D01*
X-101888Y-245195D01*
X-102593Y-245930D01*
X-103063Y-246980D01*
X-103220Y-247925D01*
X-99930D01*
G01X-88975D02*
X-89602Y-247820D01*
X-90150Y-247400D01*
X-90620Y-246770D01*
X-90933Y-246035D01*
X-91090Y-245195D01*
Y-244355D01*
X-90933Y-243515D01*
X-90620Y-242780D01*
X-90150Y-242150D01*
X-89602Y-241730D01*
X-88975Y-241625D01*
X-88348Y-241730D01*
X-87800Y-242150D01*
X-87330Y-242780D01*
X-87017Y-243515D01*
X-86860Y-244355D01*
Y-245195D01*
X-87017Y-246035D01*
X-87330Y-246770D01*
X-87800Y-247400D01*
X-88348Y-247820D01*
X-88975Y-247925D01*
G01X-84163D02*
Y-241625D01*
X-81187D01*
G01X-82283Y-244670D02*
X-84163D01*
G01X-71407Y-247190D02*
X-70858Y-247715D01*
X-70232Y-247925D01*
X-69605Y-247715D01*
X-69057Y-247085D01*
X-68665Y-246140D01*
X-68508Y-245195D01*
Y-244040D01*
X-68665Y-243095D01*
X-69057Y-242255D01*
X-69527Y-241835D01*
X-70075Y-241625D01*
X-70702Y-241835D01*
X-71172Y-242255D01*
X-71485Y-242885D01*
X-71642Y-243725D01*
X-71485Y-244460D01*
X-71093Y-245195D01*
X-70623Y-245615D01*
X-70075Y-245720D01*
X-69448Y-245510D01*
X-68978Y-244985D01*
X-68508Y-244040D01*
G01X-105400Y-238892D02*
X-104933Y-239225D01*
X-104408Y-239425D01*
X-103942D01*
X-103475Y-239225D01*
X-103125Y-238892D01*
X-102950Y-238425D01*
X-103067Y-237958D01*
X-103358Y-237558D01*
X-103883Y-237292D01*
X-104583Y-237158D01*
X-104992Y-236892D01*
X-105167Y-236425D01*
X-105050Y-235958D01*
X-104758Y-235625D01*
X-104350Y-235425D01*
X-103942D01*
X-103533Y-235558D01*
X-103183Y-235892D01*
G01X-100600Y-239425D02*
Y-235425D01*
G01X-98150D02*
Y-239425D01*
G01Y-237425D02*
X-100600D01*
G01X-93408Y-239425D02*
X-95742D01*
Y-235425D01*
X-93408D01*
G01X-94342Y-237358D02*
X-95742D01*
G01X-88608Y-239425D02*
X-90942D01*
Y-235425D01*
X-88608D01*
G01X-89542Y-237358D02*
X-90942D01*
G01X-84975Y-235425D02*
Y-239425D01*
G01X-86317Y-235425D02*
X-83633D01*
G01X-97283Y-228425D02*
Y-224425D01*
X-95067D01*
G01X-95883Y-226358D02*
X-97283D01*
G01X-92542Y-228425D02*
Y-224425D01*
X-91083D01*
X-90617Y-224625D01*
X-90325Y-224892D01*
X-90208Y-225425D01*
X-90325Y-225958D01*
X-90675Y-226292D01*
X-91083Y-226492D01*
X-92542D01*
G01X-91083D02*
X-90208Y-228425D01*
G01X-85408D02*
X-87742D01*
Y-224425D01*
X-85408D01*
G01X-86342Y-226358D02*
X-87742D01*
G01X-80608Y-228425D02*
X-82942D01*
Y-224425D01*
X-80608D01*
G01X-81542Y-226358D02*
X-82942D01*
G01X-78200Y-227892D02*
X-77733Y-228225D01*
X-77208Y-228425D01*
X-76742D01*
X-76275Y-228225D01*
X-75925Y-227892D01*
X-75750Y-227425D01*
X-75867Y-226958D01*
X-76158Y-226558D01*
X-76683Y-226292D01*
X-77383Y-226158D01*
X-77792Y-225892D01*
X-77967Y-225425D01*
X-77850Y-224958D01*
X-77558Y-224625D01*
X-77150Y-224425D01*
X-76742D01*
X-76333Y-224558D01*
X-75983Y-224892D01*
G01X-70892Y-224758D02*
X-71242Y-224558D01*
X-71650Y-224425D01*
X-72117D01*
X-72642Y-224625D01*
X-73050Y-224958D01*
X-73342Y-225358D01*
X-73575Y-226025D01*
X-73633Y-226625D01*
X-73517Y-227225D01*
X-73342Y-227625D01*
X-72992Y-228025D01*
X-72583Y-228292D01*
X-72175Y-228425D01*
X-71767D01*
X-71358Y-228292D01*
X-71008Y-228092D01*
X-70717Y-227825D01*
G01X-68833Y-228425D02*
X-67375Y-224425D01*
X-65917Y-228425D01*
G01X-66442Y-227025D02*
X-68308D01*
G01X-63742Y-224425D02*
Y-228425D01*
X-61408D01*
G01X-56608D02*
X-58942D01*
Y-224425D01*
X-56608D01*
G01X-57542Y-226358D02*
X-58942D01*
G01X-52975Y-228558D02*
X-53092Y-228492D01*
Y-228358D01*
X-52975Y-228292D01*
X-52858Y-228358D01*
Y-228492D01*
X-52975Y-228558D01*
G01X-97175Y-220425D02*
X-97642Y-220358D01*
X-98050Y-220092D01*
X-98400Y-219692D01*
X-98633Y-219225D01*
X-98750Y-218692D01*
Y-218158D01*
X-98633Y-217625D01*
X-98400Y-217158D01*
X-98050Y-216758D01*
X-97642Y-216492D01*
X-97175Y-216425D01*
X-96708Y-216492D01*
X-96300Y-216758D01*
X-95950Y-217158D01*
X-95717Y-217625D01*
X-95600Y-218158D01*
Y-218692D01*
X-95717Y-219225D01*
X-95950Y-219692D01*
X-96300Y-220092D01*
X-96708Y-220358D01*
X-97175Y-220425D01*
G01X-93542D02*
Y-216425D01*
X-92083D01*
X-91617Y-216625D01*
X-91325Y-216892D01*
X-91208Y-217425D01*
X-91325Y-217958D01*
X-91675Y-218292D01*
X-92083Y-218492D01*
X-93542D01*
G01X-92083D02*
X-91208Y-220425D01*
G01X-83475Y-216425D02*
X-82075D01*
G01X-82775D02*
Y-220425D01*
G01X-83475D02*
X-82075D01*
G01X-79317D02*
Y-216425D01*
X-76633Y-220425D01*
Y-216425D01*
G01X-69542Y-220425D02*
Y-216425D01*
X-68142D01*
X-67675Y-216625D01*
X-67325Y-217092D01*
X-67208Y-217625D01*
X-67325Y-218158D01*
X-67617Y-218558D01*
X-68142Y-218758D01*
X-69542D01*
G01X-65033Y-220425D02*
X-63575Y-216425D01*
X-62117Y-220425D01*
G01X-62642Y-219025D02*
X-64508D01*
G01X-59942Y-220425D02*
Y-216425D01*
X-58483D01*
X-58017Y-216625D01*
X-57725Y-216892D01*
X-57608Y-217425D01*
X-57725Y-217958D01*
X-58075Y-218292D01*
X-58483Y-218492D01*
X-59942D01*
G01X-58483D02*
X-57608Y-220425D01*
G01X-53975Y-216425D02*
Y-220425D01*
G01X-55317Y-216425D02*
X-52633D01*
G01X-46125D02*
X-45308Y-220425D01*
X-44375Y-216425D01*
X-43442Y-220425D01*
X-42625Y-216425D01*
G01X-40275D02*
X-38875D01*
G01X-39575D02*
Y-220425D01*
G01X-40275D02*
X-38875D01*
G01X-34775Y-216425D02*
Y-220425D01*
G01X-36117Y-216425D02*
X-33433D01*
G01X-31200Y-220425D02*
Y-216425D01*
G01X-28750D02*
Y-220425D01*
G01Y-218425D02*
X-31200D01*
G01X-25175Y-220425D02*
X-25642Y-220358D01*
X-26050Y-220092D01*
X-26400Y-219692D01*
X-26633Y-219225D01*
X-26750Y-218692D01*
Y-218158D01*
X-26633Y-217625D01*
X-26400Y-217158D01*
X-26050Y-216758D01*
X-25642Y-216492D01*
X-25175Y-216425D01*
X-24708Y-216492D01*
X-24300Y-216758D01*
X-23950Y-217158D01*
X-23717Y-217625D01*
X-23600Y-218158D01*
Y-218692D01*
X-23717Y-219225D01*
X-23950Y-219692D01*
X-24300Y-220092D01*
X-24708Y-220358D01*
X-25175Y-220425D01*
G01X-21658Y-216425D02*
Y-219292D01*
X-21425Y-219892D01*
X-20958Y-220292D01*
X-20375Y-220425D01*
X-19792Y-220292D01*
X-19325Y-219892D01*
X-19092Y-219292D01*
Y-216425D01*
G01X-15575D02*
Y-220425D01*
G01X-16917Y-216425D02*
X-14233D01*
G01X-5975D02*
Y-220425D01*
G01X-7317Y-216425D02*
X-4633D01*
G01X-2400Y-220425D02*
Y-216425D01*
G01X50D02*
Y-220425D01*
G01Y-218425D02*
X-2400D01*
G01X4792Y-220425D02*
X2458D01*
Y-216425D01*
X4792D01*
G01X3858Y-218358D02*
X2458D01*
G01X14508Y-216758D02*
X14158Y-216558D01*
X13750Y-216425D01*
X13283D01*
X12758Y-216625D01*
X12350Y-216958D01*
X12058Y-217358D01*
X11825Y-218025D01*
X11767Y-218625D01*
X11883Y-219225D01*
X12058Y-219625D01*
X12408Y-220025D01*
X12817Y-220292D01*
X13225Y-220425D01*
X13633D01*
X14042Y-220292D01*
X14392Y-220092D01*
X14683Y-219825D01*
G01X18025Y-220425D02*
X17558Y-220358D01*
X17150Y-220092D01*
X16800Y-219692D01*
X16567Y-219225D01*
X16450Y-218692D01*
Y-218158D01*
X16567Y-217625D01*
X16800Y-217158D01*
X17150Y-216758D01*
X17558Y-216492D01*
X18025Y-216425D01*
X18492Y-216492D01*
X18900Y-216758D01*
X19250Y-217158D01*
X19483Y-217625D01*
X19600Y-218158D01*
Y-218692D01*
X19483Y-219225D01*
X19250Y-219692D01*
X18900Y-220092D01*
X18492Y-220358D01*
X18025Y-220425D01*
G01X21483D02*
Y-216425D01*
X24167Y-220425D01*
Y-216425D01*
G01X26400Y-219892D02*
X26867Y-220225D01*
X27392Y-220425D01*
X27858D01*
X28325Y-220225D01*
X28675Y-219892D01*
X28850Y-219425D01*
X28733Y-218958D01*
X28442Y-218558D01*
X27917Y-218292D01*
X27217Y-218158D01*
X26808Y-217892D01*
X26633Y-217425D01*
X26750Y-216958D01*
X27042Y-216625D01*
X27450Y-216425D01*
X27858D01*
X28267Y-216558D01*
X28617Y-216892D01*
G01X33592Y-220425D02*
X31258D01*
Y-216425D01*
X33592D01*
G01X32658Y-218358D02*
X31258D01*
G01X35883Y-220425D02*
Y-216425D01*
X38567Y-220425D01*
Y-216425D01*
G01X42025D02*
Y-220425D01*
G01X40683Y-216425D02*
X43367D01*
G01X51625Y-220425D02*
X51158Y-220358D01*
X50750Y-220092D01*
X50400Y-219692D01*
X50167Y-219225D01*
X50050Y-218692D01*
Y-218158D01*
X50167Y-217625D01*
X50400Y-217158D01*
X50750Y-216758D01*
X51158Y-216492D01*
X51625Y-216425D01*
X52092Y-216492D01*
X52500Y-216758D01*
X52850Y-217158D01*
X53083Y-217625D01*
X53200Y-218158D01*
Y-218692D01*
X53083Y-219225D01*
X52850Y-219692D01*
X52500Y-220092D01*
X52092Y-220358D01*
X51625Y-220425D01*
G01X55317D02*
Y-216425D01*
X57533D01*
G01X56717Y-218358D02*
X55317D01*
G01X-98342Y-212425D02*
Y-208425D01*
X-96942D01*
X-96475Y-208625D01*
X-96125Y-209092D01*
X-96008Y-209625D01*
X-96125Y-210158D01*
X-96417Y-210558D01*
X-96942Y-210758D01*
X-98342D01*
G01X-93542Y-212425D02*
Y-208425D01*
X-92083D01*
X-91617Y-208625D01*
X-91325Y-208892D01*
X-91208Y-209425D01*
X-91325Y-209958D01*
X-91675Y-210292D01*
X-92083Y-210492D01*
X-93542D01*
G01X-92083D02*
X-91208Y-212425D01*
G01X-87575D02*
X-88042Y-212358D01*
X-88450Y-212092D01*
X-88800Y-211692D01*
X-89033Y-211225D01*
X-89150Y-210692D01*
Y-210158D01*
X-89033Y-209625D01*
X-88800Y-209158D01*
X-88450Y-208758D01*
X-88042Y-208492D01*
X-87575Y-208425D01*
X-87108Y-208492D01*
X-86700Y-208758D01*
X-86350Y-209158D01*
X-86117Y-209625D01*
X-86000Y-210158D01*
Y-210692D01*
X-86117Y-211225D01*
X-86350Y-211692D01*
X-86700Y-212092D01*
X-87108Y-212358D01*
X-87575Y-212425D01*
G01X-81492Y-208758D02*
X-81842Y-208558D01*
X-82250Y-208425D01*
X-82717D01*
X-83242Y-208625D01*
X-83650Y-208958D01*
X-83942Y-209358D01*
X-84175Y-210025D01*
X-84233Y-210625D01*
X-84117Y-211225D01*
X-83942Y-211625D01*
X-83592Y-212025D01*
X-83183Y-212292D01*
X-82775Y-212425D01*
X-82367D01*
X-81958Y-212292D01*
X-81608Y-212092D01*
X-81317Y-211825D01*
G01X-79258Y-208425D02*
Y-211292D01*
X-79025Y-211892D01*
X-78558Y-212292D01*
X-77975Y-212425D01*
X-77392Y-212292D01*
X-76925Y-211892D01*
X-76692Y-211292D01*
Y-208425D01*
G01X-74342Y-212425D02*
Y-208425D01*
X-72883D01*
X-72417Y-208625D01*
X-72125Y-208892D01*
X-72008Y-209425D01*
X-72125Y-209958D01*
X-72475Y-210292D01*
X-72883Y-210492D01*
X-74342D01*
G01X-72883D02*
X-72008Y-212425D01*
G01X-67208D02*
X-69542D01*
Y-208425D01*
X-67208D01*
G01X-68142Y-210358D02*
X-69542D01*
G01X-65092Y-212425D02*
Y-208425D01*
X-63575Y-211758D01*
X-62058Y-208425D01*
Y-212425D01*
G01X-57608D02*
X-59942D01*
Y-208425D01*
X-57608D01*
G01X-58542Y-210358D02*
X-59942D01*
G01X-55317Y-212425D02*
Y-208425D01*
X-52633Y-212425D01*
Y-208425D01*
G01X-49175D02*
Y-212425D01*
G01X-50517Y-208425D02*
X-47833D01*
G01X-39575Y-212425D02*
X-40042Y-212358D01*
X-40450Y-212092D01*
X-40800Y-211692D01*
X-41033Y-211225D01*
X-41150Y-210692D01*
Y-210158D01*
X-41033Y-209625D01*
X-40800Y-209158D01*
X-40450Y-208758D01*
X-40042Y-208492D01*
X-39575Y-208425D01*
X-39108Y-208492D01*
X-38700Y-208758D01*
X-38350Y-209158D01*
X-38117Y-209625D01*
X-38000Y-210158D01*
Y-210692D01*
X-38117Y-211225D01*
X-38350Y-211692D01*
X-38700Y-212092D01*
X-39108Y-212358D01*
X-39575Y-212425D01*
G01X-35942D02*
Y-208425D01*
X-34483D01*
X-34017Y-208625D01*
X-33725Y-208892D01*
X-33608Y-209425D01*
X-33725Y-209958D01*
X-34075Y-210292D01*
X-34483Y-210492D01*
X-35942D01*
G01X-34483D02*
X-33608Y-212425D01*
G01X-26692D02*
Y-208425D01*
X-25175Y-211758D01*
X-23658Y-208425D01*
Y-212425D01*
G01X-21833D02*
X-20375Y-208425D01*
X-18917Y-212425D01*
G01X-19442Y-211025D02*
X-21308D01*
G01X-16917Y-212425D02*
Y-208425D01*
X-14233Y-212425D01*
Y-208425D01*
G01X-12058D02*
Y-211292D01*
X-11825Y-211892D01*
X-11358Y-212292D01*
X-10775Y-212425D01*
X-10192Y-212292D01*
X-9725Y-211892D01*
X-9492Y-211292D01*
Y-208425D01*
G01X-7083Y-212425D02*
Y-208425D01*
X-4867D01*
G01X-5683Y-210358D02*
X-7083D01*
G01X-2633Y-212425D02*
X-1175Y-208425D01*
X283Y-212425D01*
G01X-242Y-211025D02*
X-2108D01*
G01X4908Y-208758D02*
X4558Y-208558D01*
X4150Y-208425D01*
X3683D01*
X3158Y-208625D01*
X2750Y-208958D01*
X2458Y-209358D01*
X2225Y-210025D01*
X2167Y-210625D01*
X2283Y-211225D01*
X2458Y-211625D01*
X2808Y-212025D01*
X3217Y-212292D01*
X3625Y-212425D01*
X4033D01*
X4442Y-212292D01*
X4792Y-212092D01*
X5083Y-211825D01*
G01X8425Y-208425D02*
Y-212425D01*
G01X7083Y-208425D02*
X9767D01*
G01X11942D02*
Y-211292D01*
X12175Y-211892D01*
X12642Y-212292D01*
X13225Y-212425D01*
X13808Y-212292D01*
X14275Y-211892D01*
X14508Y-211292D01*
Y-208425D01*
G01X16858Y-212425D02*
Y-208425D01*
X18317D01*
X18783Y-208625D01*
X19075Y-208892D01*
X19192Y-209425D01*
X19075Y-209958D01*
X18725Y-210292D01*
X18317Y-210492D01*
X16858D01*
G01X18317D02*
X19192Y-212425D01*
G01X23992D02*
X21658D01*
Y-208425D01*
X23992D01*
G01X23058Y-210358D02*
X21658D01*
G01X31725Y-208425D02*
X33125D01*
G01X32425D02*
Y-212425D01*
G01X31725D02*
X33125D01*
G01X35883D02*
Y-208425D01*
X38567Y-212425D01*
Y-208425D01*
G01X45075D02*
X45892Y-212425D01*
X46825Y-208425D01*
X47758Y-212425D01*
X48575Y-208425D01*
G01X50400Y-212425D02*
Y-208425D01*
G01X52850D02*
Y-212425D01*
G01Y-210425D02*
X50400D01*
G01X56425Y-212425D02*
X55958Y-212358D01*
X55550Y-212092D01*
X55200Y-211692D01*
X54967Y-211225D01*
X54850Y-210692D01*
Y-210158D01*
X54967Y-209625D01*
X55200Y-209158D01*
X55550Y-208758D01*
X55958Y-208492D01*
X56425Y-208425D01*
X56892Y-208492D01*
X57300Y-208758D01*
X57650Y-209158D01*
X57883Y-209625D01*
X58000Y-210158D01*
Y-210692D01*
X57883Y-211225D01*
X57650Y-211692D01*
X57300Y-212092D01*
X56892Y-212358D01*
X56425Y-212425D01*
G01X60058Y-208425D02*
Y-212425D01*
X62392D01*
G01X67192D02*
X64858D01*
Y-208425D01*
X67192D01*
G01X66258Y-210358D02*
X64858D01*
G01X-98517Y-204425D02*
Y-200425D01*
X-95833Y-204425D01*
Y-200425D01*
G01X-92375Y-204425D02*
X-92842Y-204358D01*
X-93250Y-204092D01*
X-93600Y-203692D01*
X-93833Y-203225D01*
X-93950Y-202692D01*
Y-202158D01*
X-93833Y-201625D01*
X-93600Y-201158D01*
X-93250Y-200758D01*
X-92842Y-200492D01*
X-92375Y-200425D01*
X-91908Y-200492D01*
X-91500Y-200758D01*
X-91150Y-201158D01*
X-90917Y-201625D01*
X-90800Y-202158D01*
Y-202692D01*
X-90917Y-203225D01*
X-91150Y-203692D01*
X-91500Y-204092D01*
X-91908Y-204358D01*
X-92375Y-204425D01*
G01X-87575Y-200425D02*
Y-204425D01*
G01X-88917Y-200425D02*
X-86233D01*
G01X-77508Y-202292D02*
X-77275Y-202092D01*
X-77100Y-201758D01*
X-76983Y-201292D01*
X-77100Y-200892D01*
X-77333Y-200625D01*
X-77742Y-200425D01*
X-79317D01*
Y-204425D01*
X-77392D01*
X-76983Y-204158D01*
X-76750Y-203758D01*
X-76633Y-203292D01*
X-76750Y-202825D01*
X-77100Y-202425D01*
X-77508Y-202292D01*
X-79317D01*
G01X-72008Y-204425D02*
X-74342D01*
Y-200425D01*
X-72008D01*
G01X-72942Y-202358D02*
X-74342D01*
G01X-64858Y-200425D02*
Y-203292D01*
X-64625Y-203892D01*
X-64158Y-204292D01*
X-63575Y-204425D01*
X-62992Y-204292D01*
X-62525Y-203892D01*
X-62292Y-203292D01*
Y-200425D01*
G01X-60000Y-203892D02*
X-59533Y-204225D01*
X-59008Y-204425D01*
X-58542D01*
X-58075Y-204225D01*
X-57725Y-203892D01*
X-57550Y-203425D01*
X-57667Y-202958D01*
X-57958Y-202558D01*
X-58483Y-202292D01*
X-59183Y-202158D01*
X-59592Y-201892D01*
X-59767Y-201425D01*
X-59650Y-200958D01*
X-59358Y-200625D01*
X-58950Y-200425D01*
X-58542D01*
X-58133Y-200558D01*
X-57783Y-200892D01*
G01X-52808Y-204425D02*
X-55142D01*
Y-200425D01*
X-52808D01*
G01X-53742Y-202358D02*
X-55142D01*
G01X-50458Y-204425D02*
Y-200425D01*
X-49292D01*
X-48825Y-200625D01*
X-48475Y-200892D01*
X-48183Y-201292D01*
X-47950Y-201758D01*
X-47892Y-202425D01*
X-47950Y-203092D01*
X-48183Y-203558D01*
X-48475Y-203958D01*
X-48825Y-204225D01*
X-49292Y-204425D01*
X-50458D01*
G01X-40683D02*
Y-200425D01*
X-38467D01*
G01X-39283Y-202358D02*
X-40683D01*
G01X-34775Y-204425D02*
X-35242Y-204358D01*
X-35650Y-204092D01*
X-36000Y-203692D01*
X-36233Y-203225D01*
X-36350Y-202692D01*
Y-202158D01*
X-36233Y-201625D01*
X-36000Y-201158D01*
X-35650Y-200758D01*
X-35242Y-200492D01*
X-34775Y-200425D01*
X-34308Y-200492D01*
X-33900Y-200758D01*
X-33550Y-201158D01*
X-33317Y-201625D01*
X-33200Y-202158D01*
Y-202692D01*
X-33317Y-203225D01*
X-33550Y-203692D01*
X-33900Y-204092D01*
X-34308Y-204358D01*
X-34775Y-204425D01*
G01X-31142D02*
Y-200425D01*
X-29683D01*
X-29217Y-200625D01*
X-28925Y-200892D01*
X-28808Y-201425D01*
X-28925Y-201958D01*
X-29275Y-202292D01*
X-29683Y-202492D01*
X-31142D01*
G01X-29683D02*
X-28808Y-204425D01*
G01X-19208D02*
X-21542D01*
Y-200425D01*
X-19208D01*
G01X-20142Y-202358D02*
X-21542D01*
G01X-16917Y-204425D02*
Y-200425D01*
X-14233Y-204425D01*
Y-200425D01*
G01X-10425Y-202425D02*
X-9258D01*
Y-203625D01*
X-9608Y-204025D01*
X-10017Y-204292D01*
X-10600Y-204425D01*
X-11183Y-204292D01*
X-11592Y-204025D01*
X-11942Y-203625D01*
X-12175Y-203158D01*
X-12292Y-202625D01*
Y-202158D01*
X-12175Y-201758D01*
X-11942Y-201292D01*
X-11592Y-200892D01*
X-11242Y-200625D01*
X-10775Y-200425D01*
X-10367D01*
X-9900Y-200558D01*
X-9550Y-200825D01*
G01X-6675Y-200425D02*
X-5275D01*
G01X-5975D02*
Y-204425D01*
G01X-6675D02*
X-5275D01*
G01X-2517D02*
Y-200425D01*
X167Y-204425D01*
Y-200425D01*
G01X4792Y-204425D02*
X2458D01*
Y-200425D01*
X4792D01*
G01X3858Y-202358D02*
X2458D01*
G01X9592Y-204425D02*
X7258D01*
Y-200425D01*
X9592D01*
G01X8658Y-202358D02*
X7258D01*
G01X12058Y-204425D02*
Y-200425D01*
X13517D01*
X13983Y-200625D01*
X14275Y-200892D01*
X14392Y-201425D01*
X14275Y-201958D01*
X13925Y-202292D01*
X13517Y-202492D01*
X12058D01*
G01X13517D02*
X14392Y-204425D01*
G01X17325Y-200425D02*
X18725D01*
G01X18025D02*
Y-204425D01*
G01X17325D02*
X18725D01*
G01X21483D02*
Y-200425D01*
X24167Y-204425D01*
Y-200425D01*
G01X27975Y-202425D02*
X29142D01*
Y-203625D01*
X28792Y-204025D01*
X28383Y-204292D01*
X27800Y-204425D01*
X27217Y-204292D01*
X26808Y-204025D01*
X26458Y-203625D01*
X26225Y-203158D01*
X26108Y-202625D01*
Y-202158D01*
X26225Y-201758D01*
X26458Y-201292D01*
X26808Y-200892D01*
X27158Y-200625D01*
X27625Y-200425D01*
X28033D01*
X28500Y-200558D01*
X28850Y-200825D01*
G01X35942Y-204425D02*
Y-200425D01*
X37108D01*
X37575Y-200625D01*
X37925Y-200892D01*
X38217Y-201292D01*
X38450Y-201758D01*
X38508Y-202425D01*
X38450Y-203092D01*
X38217Y-203558D01*
X37925Y-203958D01*
X37575Y-204225D01*
X37108Y-204425D01*
X35942D01*
G01X43192D02*
X40858D01*
Y-200425D01*
X43192D01*
G01X42258Y-202358D02*
X40858D01*
G01X45600Y-203892D02*
X46067Y-204225D01*
X46592Y-204425D01*
X47058D01*
X47525Y-204225D01*
X47875Y-203892D01*
X48050Y-203425D01*
X47933Y-202958D01*
X47642Y-202558D01*
X47117Y-202292D01*
X46417Y-202158D01*
X46008Y-201892D01*
X45833Y-201425D01*
X45950Y-200958D01*
X46242Y-200625D01*
X46650Y-200425D01*
X47058D01*
X47467Y-200558D01*
X47817Y-200892D01*
G01X50925Y-200425D02*
X52325D01*
G01X51625D02*
Y-204425D01*
G01X50925D02*
X52325D01*
G01X56775Y-202425D02*
X57942D01*
Y-203625D01*
X57592Y-204025D01*
X57183Y-204292D01*
X56600Y-204425D01*
X56017Y-204292D01*
X55608Y-204025D01*
X55258Y-203625D01*
X55025Y-203158D01*
X54908Y-202625D01*
Y-202158D01*
X55025Y-201758D01*
X55258Y-201292D01*
X55608Y-200892D01*
X55958Y-200625D01*
X56425Y-200425D01*
X56833D01*
X57300Y-200558D01*
X57650Y-200825D01*
G01X59883Y-204425D02*
Y-200425D01*
X62567Y-204425D01*
Y-200425D01*
G01X-105633Y-178425D02*
X-104175Y-174425D01*
X-102717Y-178425D01*
G01X-103242Y-177025D02*
X-105108D01*
G01X-100658Y-174425D02*
Y-177292D01*
X-100425Y-177892D01*
X-99958Y-178292D01*
X-99375Y-178425D01*
X-98792Y-178292D01*
X-98325Y-177892D01*
X-98092Y-177292D01*
Y-174425D01*
G01X-95800Y-177892D02*
X-95333Y-178225D01*
X-94808Y-178425D01*
X-94342D01*
X-93875Y-178225D01*
X-93525Y-177892D01*
X-93350Y-177425D01*
X-93467Y-176958D01*
X-93758Y-176558D01*
X-94283Y-176292D01*
X-94983Y-176158D01*
X-95392Y-175892D01*
X-95567Y-175425D01*
X-95450Y-174958D01*
X-95158Y-174625D01*
X-94750Y-174425D01*
X-94342D01*
X-93933Y-174558D01*
X-93583Y-174892D01*
G01X-89775Y-174425D02*
Y-178425D01*
G01X-91117Y-174425D02*
X-88433D01*
G01X-85675D02*
X-84275D01*
G01X-84975D02*
Y-178425D01*
G01X-85675D02*
X-84275D01*
G01X-81517D02*
Y-174425D01*
X-78833Y-178425D01*
Y-174425D01*
G01X-75375Y-178558D02*
X-75492Y-178492D01*
Y-178358D01*
X-75375Y-178292D01*
X-75258Y-178358D01*
Y-178492D01*
X-75375Y-178558D01*
G01X-65775Y-174425D02*
Y-178425D01*
G01X-67117Y-174425D02*
X-64433D01*
G01X-59808Y-178425D02*
X-62142D01*
Y-174425D01*
X-59808D01*
G01X-60742Y-176358D02*
X-62142D01*
G01X-57400Y-178425D02*
X-54950Y-174425D01*
G01X-57400D02*
X-54950Y-178425D01*
G01X-52833D02*
X-51375Y-174425D01*
X-49917Y-178425D01*
G01X-50442Y-177025D02*
X-52308D01*
G01X-47800Y-177892D02*
X-47333Y-178225D01*
X-46808Y-178425D01*
X-46342D01*
X-45875Y-178225D01*
X-45525Y-177892D01*
X-45350Y-177425D01*
X-45467Y-176958D01*
X-45758Y-176558D01*
X-46283Y-176292D01*
X-46983Y-176158D01*
X-47392Y-175892D01*
X-47567Y-175425D01*
X-47450Y-174958D01*
X-47158Y-174625D01*
X-46750Y-174425D01*
X-46342D01*
X-45933Y-174558D01*
X-45583Y-174892D01*
G01X-37092Y-178425D02*
X-36975Y-177558D01*
X-36800Y-176825D01*
X-36567Y-176158D01*
X-36275Y-175425D01*
X-35808Y-174425D01*
X-38142D01*
G01X-32175Y-178425D02*
X-31767Y-178358D01*
X-31300Y-178158D01*
X-31008Y-177825D01*
X-30892Y-177358D01*
X-31008Y-176892D01*
X-31358Y-176492D01*
X-31883Y-176292D01*
X-32467D01*
X-32817Y-176158D01*
X-33108Y-175825D01*
X-33225Y-175358D01*
X-33050Y-174892D01*
X-32642Y-174558D01*
X-32175Y-174425D01*
X-31708Y-174558D01*
X-31300Y-174892D01*
X-31125Y-175358D01*
X-31242Y-175825D01*
X-31533Y-176158D01*
X-31883Y-176292D01*
X-32467D01*
X-32992Y-176492D01*
X-33342Y-176892D01*
X-33458Y-177358D01*
X-33342Y-177825D01*
X-33050Y-178158D01*
X-32583Y-178358D01*
X-32175Y-178425D01*
G01X-27492D02*
X-27375Y-177558D01*
X-27200Y-176825D01*
X-26967Y-176158D01*
X-26675Y-175425D01*
X-26208Y-174425D01*
X-28542D01*
G01X-23858Y-177625D02*
X-23508Y-178092D01*
X-23042Y-178358D01*
X-22517Y-178425D01*
X-22050Y-178358D01*
X-21583Y-178025D01*
X-21292Y-177625D01*
X-21233Y-177225D01*
X-21350Y-176758D01*
X-21758Y-176425D01*
X-22167Y-176292D01*
X-22692D01*
G01X-22167D02*
X-21817Y-176092D01*
X-21525Y-175758D01*
X-21408Y-175358D01*
X-21525Y-174958D01*
X-21817Y-174625D01*
X-22342Y-174425D01*
X-22867Y-174492D01*
X-23392Y-174758D01*
G01X-19058Y-177825D02*
X-18708Y-178158D01*
X-18300Y-178358D01*
X-17775Y-178425D01*
X-17250Y-178292D01*
X-16842Y-178025D01*
X-16550Y-177558D01*
X-16492Y-177025D01*
X-16608Y-176492D01*
X-16900Y-176158D01*
X-17308Y-175892D01*
X-17717Y-175825D01*
X-18125Y-175892D01*
X-18650Y-176158D01*
X-18475Y-174425D01*
X-16900D01*
G01X-9458D02*
Y-177292D01*
X-9225Y-177892D01*
X-8758Y-178292D01*
X-8175Y-178425D01*
X-7592Y-178292D01*
X-7125Y-177892D01*
X-6892Y-177292D01*
Y-174425D01*
G01X-4600Y-177892D02*
X-4133Y-178225D01*
X-3608Y-178425D01*
X-3142D01*
X-2675Y-178225D01*
X-2325Y-177892D01*
X-2150Y-177425D01*
X-2267Y-176958D01*
X-2558Y-176558D01*
X-3083Y-176292D01*
X-3783Y-176158D01*
X-4192Y-175892D01*
X-4367Y-175425D01*
X-4250Y-174958D01*
X-3958Y-174625D01*
X-3550Y-174425D01*
X-3142D01*
X-2733Y-174558D01*
X-2383Y-174892D01*
G01X-33Y-178425D02*
X1425Y-174425D01*
X2883Y-178425D01*
G01X2358Y-177025D02*
X492D01*
G01X-98342Y-196425D02*
Y-192425D01*
X-96942D01*
X-96475Y-192625D01*
X-96125Y-193092D01*
X-96008Y-193625D01*
X-96125Y-194158D01*
X-96417Y-194558D01*
X-96942Y-194758D01*
X-98342D01*
G01X-93542Y-196425D02*
Y-192425D01*
X-92083D01*
X-91617Y-192625D01*
X-91325Y-192892D01*
X-91208Y-193425D01*
X-91325Y-193958D01*
X-91675Y-194292D01*
X-92083Y-194492D01*
X-93542D01*
G01X-92083D02*
X-91208Y-196425D01*
G01X-87575D02*
X-88042Y-196358D01*
X-88450Y-196092D01*
X-88800Y-195692D01*
X-89033Y-195225D01*
X-89150Y-194692D01*
Y-194158D01*
X-89033Y-193625D01*
X-88800Y-193158D01*
X-88450Y-192758D01*
X-88042Y-192492D01*
X-87575Y-192425D01*
X-87108Y-192492D01*
X-86700Y-192758D01*
X-86350Y-193158D01*
X-86117Y-193625D01*
X-86000Y-194158D01*
Y-194692D01*
X-86117Y-195225D01*
X-86350Y-195692D01*
X-86700Y-196092D01*
X-87108Y-196358D01*
X-87575Y-196425D01*
G01X-83942D02*
Y-192425D01*
X-82542D01*
X-82075Y-192625D01*
X-81725Y-193092D01*
X-81608Y-193625D01*
X-81725Y-194158D01*
X-82017Y-194558D01*
X-82542Y-194758D01*
X-83942D01*
G01X-79142Y-196425D02*
Y-192425D01*
X-77683D01*
X-77217Y-192625D01*
X-76925Y-192892D01*
X-76808Y-193425D01*
X-76925Y-193958D01*
X-77275Y-194292D01*
X-77683Y-194492D01*
X-79142D01*
G01X-77683D02*
X-76808Y-196425D01*
G01X-73875Y-192425D02*
X-72475D01*
G01X-73175D02*
Y-196425D01*
G01X-73875D02*
X-72475D01*
G01X-67208D02*
X-69542D01*
Y-192425D01*
X-67208D01*
G01X-68142Y-194358D02*
X-69542D01*
G01X-63575Y-192425D02*
Y-196425D01*
G01X-64917Y-192425D02*
X-62233D01*
G01X-60233Y-196425D02*
X-58775Y-192425D01*
X-57317Y-196425D01*
G01X-57842Y-195025D02*
X-59708D01*
G01X-55142Y-196425D02*
Y-192425D01*
X-53683D01*
X-53217Y-192625D01*
X-52925Y-192892D01*
X-52808Y-193425D01*
X-52925Y-193958D01*
X-53275Y-194292D01*
X-53683Y-194492D01*
X-55142D01*
G01X-53683D02*
X-52808Y-196425D01*
G01X-49175D02*
Y-194625D01*
X-50342Y-192425D01*
G01X-48008D02*
X-49175Y-194625D01*
G01X-39575Y-192425D02*
Y-196425D01*
G01X-40917Y-192425D02*
X-38233D01*
G01X-34775Y-196425D02*
X-35242Y-196358D01*
X-35650Y-196092D01*
X-36000Y-195692D01*
X-36233Y-195225D01*
X-36350Y-194692D01*
Y-194158D01*
X-36233Y-193625D01*
X-36000Y-193158D01*
X-35650Y-192758D01*
X-35242Y-192492D01*
X-34775Y-192425D01*
X-34308Y-192492D01*
X-33900Y-192758D01*
X-33550Y-193158D01*
X-33317Y-193625D01*
X-33200Y-194158D01*
Y-194692D01*
X-33317Y-195225D01*
X-33550Y-195692D01*
X-33900Y-196092D01*
X-34308Y-196358D01*
X-34775Y-196425D01*
G01X-26283D02*
Y-192425D01*
X-24067D01*
G01X-24883Y-194358D02*
X-26283D01*
G01X-21542Y-196425D02*
Y-192425D01*
X-20083D01*
X-19617Y-192625D01*
X-19325Y-192892D01*
X-19208Y-193425D01*
X-19325Y-193958D01*
X-19675Y-194292D01*
X-20083Y-194492D01*
X-21542D01*
G01X-20083D02*
X-19208Y-196425D01*
G01X-14408D02*
X-16742D01*
Y-192425D01*
X-14408D01*
G01X-15342Y-194358D02*
X-16742D01*
G01X-9608Y-196425D02*
X-11942D01*
Y-192425D01*
X-9608D01*
G01X-10542Y-194358D02*
X-11942D01*
G01X-7200Y-195892D02*
X-6733Y-196225D01*
X-6208Y-196425D01*
X-5742D01*
X-5275Y-196225D01*
X-4925Y-195892D01*
X-4750Y-195425D01*
X-4867Y-194958D01*
X-5158Y-194558D01*
X-5683Y-194292D01*
X-6383Y-194158D01*
X-6792Y-193892D01*
X-6967Y-193425D01*
X-6850Y-192958D01*
X-6558Y-192625D01*
X-6150Y-192425D01*
X-5742D01*
X-5333Y-192558D01*
X-4983Y-192892D01*
G01X108Y-192758D02*
X-242Y-192558D01*
X-650Y-192425D01*
X-1117D01*
X-1642Y-192625D01*
X-2050Y-192958D01*
X-2342Y-193358D01*
X-2575Y-194025D01*
X-2633Y-194625D01*
X-2517Y-195225D01*
X-2342Y-195625D01*
X-1992Y-196025D01*
X-1583Y-196292D01*
X-1175Y-196425D01*
X-767D01*
X-358Y-196292D01*
X-8Y-196092D01*
X283Y-195825D01*
G01X2167Y-196425D02*
X3625Y-192425D01*
X5083Y-196425D01*
G01X4558Y-195025D02*
X2692D01*
G01X7258Y-192425D02*
Y-196425D01*
X9592D01*
G01X14392D02*
X12058D01*
Y-192425D01*
X14392D01*
G01X13458Y-194358D02*
X12058D01*
G01X21367Y-196425D02*
X22825Y-192425D01*
X24283Y-196425D01*
G01X23758Y-195025D02*
X21892D01*
G01X26283Y-196425D02*
Y-192425D01*
X28967Y-196425D01*
Y-192425D01*
G01X31142Y-196425D02*
Y-192425D01*
X32308D01*
X32775Y-192625D01*
X33125Y-192892D01*
X33417Y-193292D01*
X33650Y-193758D01*
X33708Y-194425D01*
X33650Y-195092D01*
X33417Y-195558D01*
X33125Y-195958D01*
X32775Y-196225D01*
X32308Y-196425D01*
X31142D01*
G01X40800Y-195892D02*
X41267Y-196225D01*
X41792Y-196425D01*
X42258D01*
X42725Y-196225D01*
X43075Y-195892D01*
X43250Y-195425D01*
X43133Y-194958D01*
X42842Y-194558D01*
X42317Y-194292D01*
X41617Y-194158D01*
X41208Y-193892D01*
X41033Y-193425D01*
X41150Y-192958D01*
X41442Y-192625D01*
X41850Y-192425D01*
X42258D01*
X42667Y-192558D01*
X43017Y-192892D01*
G01X45600Y-196425D02*
Y-192425D01*
G01X48050D02*
Y-196425D01*
G01Y-194425D02*
X45600D01*
G01X50167Y-196425D02*
X51625Y-192425D01*
X53083Y-196425D01*
G01X52558Y-195025D02*
X50692D01*
G01X55258Y-192425D02*
Y-196425D01*
X57592D01*
G01X60058Y-192425D02*
Y-196425D01*
X62392D01*
G01X-98175Y-184425D02*
Y-188425D01*
G01X-99517Y-184425D02*
X-96833D01*
G01X-94600Y-188425D02*
Y-184425D01*
G01X-92150D02*
Y-188425D01*
G01Y-186425D02*
X-94600D01*
G01X-89275Y-184425D02*
X-87875D01*
G01X-88575D02*
Y-188425D01*
G01X-89275D02*
X-87875D01*
G01X-85000Y-187892D02*
X-84533Y-188225D01*
X-84008Y-188425D01*
X-83542D01*
X-83075Y-188225D01*
X-82725Y-187892D01*
X-82550Y-187425D01*
X-82667Y-186958D01*
X-82958Y-186558D01*
X-83483Y-186292D01*
X-84183Y-186158D01*
X-84592Y-185892D01*
X-84767Y-185425D01*
X-84650Y-184958D01*
X-84358Y-184625D01*
X-83950Y-184425D01*
X-83542D01*
X-83133Y-184558D01*
X-82783Y-184892D01*
G01X-75458Y-188425D02*
Y-184425D01*
X-74292D01*
X-73825Y-184625D01*
X-73475Y-184892D01*
X-73183Y-185292D01*
X-72950Y-185758D01*
X-72892Y-186425D01*
X-72950Y-187092D01*
X-73183Y-187558D01*
X-73475Y-187958D01*
X-73825Y-188225D01*
X-74292Y-188425D01*
X-75458D01*
G01X-69375D02*
X-69842Y-188358D01*
X-70250Y-188092D01*
X-70600Y-187692D01*
X-70833Y-187225D01*
X-70950Y-186692D01*
Y-186158D01*
X-70833Y-185625D01*
X-70600Y-185158D01*
X-70250Y-184758D01*
X-69842Y-184492D01*
X-69375Y-184425D01*
X-68908Y-184492D01*
X-68500Y-184758D01*
X-68150Y-185158D01*
X-67917Y-185625D01*
X-67800Y-186158D01*
Y-186692D01*
X-67917Y-187225D01*
X-68150Y-187692D01*
X-68500Y-188092D01*
X-68908Y-188358D01*
X-69375Y-188425D01*
G01X-63292Y-184758D02*
X-63642Y-184558D01*
X-64050Y-184425D01*
X-64517D01*
X-65042Y-184625D01*
X-65450Y-184958D01*
X-65742Y-185358D01*
X-65975Y-186025D01*
X-66033Y-186625D01*
X-65917Y-187225D01*
X-65742Y-187625D01*
X-65392Y-188025D01*
X-64983Y-188292D01*
X-64575Y-188425D01*
X-64167D01*
X-63758Y-188292D01*
X-63408Y-188092D01*
X-63117Y-187825D01*
G01X-61058Y-184425D02*
Y-187292D01*
X-60825Y-187892D01*
X-60358Y-188292D01*
X-59775Y-188425D01*
X-59192Y-188292D01*
X-58725Y-187892D01*
X-58492Y-187292D01*
Y-184425D01*
G01X-56492Y-188425D02*
Y-184425D01*
X-54975Y-187758D01*
X-53458Y-184425D01*
Y-188425D01*
G01X-49008D02*
X-51342D01*
Y-184425D01*
X-49008D01*
G01X-49942Y-186358D02*
X-51342D01*
G01X-46717Y-188425D02*
Y-184425D01*
X-44033Y-188425D01*
Y-184425D01*
G01X-40575D02*
Y-188425D01*
G01X-41917Y-184425D02*
X-39233D01*
G01X-29692Y-184758D02*
X-30042Y-184558D01*
X-30450Y-184425D01*
X-30917D01*
X-31442Y-184625D01*
X-31850Y-184958D01*
X-32142Y-185358D01*
X-32375Y-186025D01*
X-32433Y-186625D01*
X-32317Y-187225D01*
X-32142Y-187625D01*
X-31792Y-188025D01*
X-31383Y-188292D01*
X-30975Y-188425D01*
X-30567D01*
X-30158Y-188292D01*
X-29808Y-188092D01*
X-29517Y-187825D01*
G01X-26175Y-188425D02*
X-26642Y-188358D01*
X-27050Y-188092D01*
X-27400Y-187692D01*
X-27633Y-187225D01*
X-27750Y-186692D01*
Y-186158D01*
X-27633Y-185625D01*
X-27400Y-185158D01*
X-27050Y-184758D01*
X-26642Y-184492D01*
X-26175Y-184425D01*
X-25708Y-184492D01*
X-25300Y-184758D01*
X-24950Y-185158D01*
X-24717Y-185625D01*
X-24600Y-186158D01*
Y-186692D01*
X-24717Y-187225D01*
X-24950Y-187692D01*
X-25300Y-188092D01*
X-25708Y-188358D01*
X-26175Y-188425D01*
G01X-22717D02*
Y-184425D01*
X-20033Y-188425D01*
Y-184425D01*
G01X-16575D02*
Y-188425D01*
G01X-17917Y-184425D02*
X-15233D01*
G01X-13233Y-188425D02*
X-11775Y-184425D01*
X-10317Y-188425D01*
G01X-10842Y-187025D02*
X-12708D01*
G01X-7675Y-184425D02*
X-6275D01*
G01X-6975D02*
Y-188425D01*
G01X-7675D02*
X-6275D01*
G01X-3517D02*
Y-184425D01*
X-833Y-188425D01*
Y-184425D01*
G01X1400Y-187892D02*
X1867Y-188225D01*
X2392Y-188425D01*
X2858D01*
X3325Y-188225D01*
X3675Y-187892D01*
X3850Y-187425D01*
X3733Y-186958D01*
X3442Y-186558D01*
X2917Y-186292D01*
X2217Y-186158D01*
X1808Y-185892D01*
X1633Y-185425D01*
X1750Y-184958D01*
X2042Y-184625D01*
X2450Y-184425D01*
X2858D01*
X3267Y-184558D01*
X3617Y-184892D01*
G01X11525Y-184425D02*
X12925D01*
G01X12225D02*
Y-188425D01*
G01X11525D02*
X12925D01*
G01X15683D02*
Y-184425D01*
X18367Y-188425D01*
Y-184425D01*
G01X20717Y-188425D02*
Y-184425D01*
X22933D01*
G01X22117Y-186358D02*
X20717D01*
G01X26625Y-188425D02*
X26158Y-188358D01*
X25750Y-188092D01*
X25400Y-187692D01*
X25167Y-187225D01*
X25050Y-186692D01*
Y-186158D01*
X25167Y-185625D01*
X25400Y-185158D01*
X25750Y-184758D01*
X26158Y-184492D01*
X26625Y-184425D01*
X27092Y-184492D01*
X27500Y-184758D01*
X27850Y-185158D01*
X28083Y-185625D01*
X28200Y-186158D01*
Y-186692D01*
X28083Y-187225D01*
X27850Y-187692D01*
X27500Y-188092D01*
X27092Y-188358D01*
X26625Y-188425D01*
G01X30258D02*
Y-184425D01*
X31717D01*
X32183Y-184625D01*
X32475Y-184892D01*
X32592Y-185425D01*
X32475Y-185958D01*
X32125Y-186292D01*
X31717Y-186492D01*
X30258D01*
G01X31717D02*
X32592Y-188425D01*
G01X34708D02*
Y-184425D01*
X36225Y-187758D01*
X37742Y-184425D01*
Y-188425D01*
G01X39567D02*
X41025Y-184425D01*
X42483Y-188425D01*
G01X41958Y-187025D02*
X40092D01*
G01X45825Y-184425D02*
Y-188425D01*
G01X44483Y-184425D02*
X47167D01*
G01X49925D02*
X51325D01*
G01X50625D02*
Y-188425D01*
G01X49925D02*
X51325D01*
G01X55425D02*
X54958Y-188358D01*
X54550Y-188092D01*
X54200Y-187692D01*
X53967Y-187225D01*
X53850Y-186692D01*
Y-186158D01*
X53967Y-185625D01*
X54200Y-185158D01*
X54550Y-184758D01*
X54958Y-184492D01*
X55425Y-184425D01*
X55892Y-184492D01*
X56300Y-184758D01*
X56650Y-185158D01*
X56883Y-185625D01*
X57000Y-186158D01*
Y-186692D01*
X56883Y-187225D01*
X56650Y-187692D01*
X56300Y-188092D01*
X55892Y-188358D01*
X55425Y-188425D01*
G01X58883D02*
Y-184425D01*
X61567Y-188425D01*
Y-184425D01*
G01X-105283Y-169758D02*
X-104875Y-169292D01*
X-104525Y-169025D01*
X-104058Y-168892D01*
X-103650Y-169025D01*
X-103358Y-169292D01*
X-103125Y-169692D01*
X-103067Y-170158D01*
X-103125Y-170558D01*
X-103358Y-170958D01*
X-103708Y-171292D01*
X-104117Y-171425D01*
X-104583Y-171292D01*
X-104992Y-170892D01*
X-105225Y-170292D01*
X-105283Y-169625D01*
X-105167Y-168758D01*
X-104992Y-168292D01*
X-104700Y-167825D01*
X-104292Y-167492D01*
X-103883Y-167425D01*
X-103475Y-167558D01*
X-103183Y-167892D01*
G01X-100658Y-170825D02*
X-100308Y-171158D01*
X-99900Y-171358D01*
X-99375Y-171425D01*
X-98850Y-171292D01*
X-98442Y-171025D01*
X-98150Y-170558D01*
X-98092Y-170025D01*
X-98208Y-169492D01*
X-98500Y-169158D01*
X-98908Y-168892D01*
X-99317Y-168825D01*
X-99725Y-168892D01*
X-100250Y-169158D01*
X-100075Y-167425D01*
X-98500D01*
G01X-94575D02*
X-95042Y-167558D01*
X-95392Y-167892D01*
X-95625Y-168292D01*
X-95800Y-168825D01*
X-95858Y-169425D01*
X-95800Y-170025D01*
X-95625Y-170558D01*
X-95392Y-170958D01*
X-95042Y-171292D01*
X-94575Y-171425D01*
X-94108Y-171292D01*
X-93758Y-170958D01*
X-93525Y-170558D01*
X-93350Y-170025D01*
X-93292Y-169425D01*
X-93350Y-168825D01*
X-93525Y-168292D01*
X-93758Y-167892D01*
X-94108Y-167558D01*
X-94575Y-167425D01*
G01X-89775Y-171425D02*
Y-167425D01*
X-90475Y-168225D01*
G01Y-171425D02*
X-89075D01*
G01X-81925Y-167425D02*
X-81108Y-171425D01*
X-80175Y-167425D01*
X-79242Y-171425D01*
X-78425Y-167425D01*
G01X-76075D02*
X-74675D01*
G01X-75375D02*
Y-171425D01*
G01X-76075D02*
X-74675D01*
G01X-71742Y-167425D02*
Y-171425D01*
X-69408D01*
G01X-66942Y-167425D02*
Y-171425D01*
X-64608D01*
G01X-61675Y-167425D02*
X-60275D01*
G01X-60975D02*
Y-171425D01*
G01X-61675D02*
X-60275D01*
G01X-57633D02*
X-56175Y-167425D01*
X-54717Y-171425D01*
G01X-55242Y-170025D02*
X-57108D01*
G01X-52892Y-171425D02*
Y-167425D01*
X-51375Y-170758D01*
X-49858Y-167425D01*
Y-171425D01*
G01X-40492Y-167758D02*
X-40842Y-167558D01*
X-41250Y-167425D01*
X-41717D01*
X-42242Y-167625D01*
X-42650Y-167958D01*
X-42942Y-168358D01*
X-43175Y-169025D01*
X-43233Y-169625D01*
X-43117Y-170225D01*
X-42942Y-170625D01*
X-42592Y-171025D01*
X-42183Y-171292D01*
X-41775Y-171425D01*
X-41367D01*
X-40958Y-171292D01*
X-40608Y-171092D01*
X-40317Y-170825D01*
G01X-38433Y-171425D02*
X-36975Y-167425D01*
X-35517Y-171425D01*
G01X-36042Y-170025D02*
X-37908D01*
G01X-33517Y-171425D02*
Y-167425D01*
X-30833Y-171425D01*
Y-167425D01*
G01X-28717Y-171425D02*
Y-167425D01*
X-26033Y-171425D01*
Y-167425D01*
G01X-22575Y-171425D02*
X-23042Y-171358D01*
X-23450Y-171092D01*
X-23800Y-170692D01*
X-24033Y-170225D01*
X-24150Y-169692D01*
Y-169158D01*
X-24033Y-168625D01*
X-23800Y-168158D01*
X-23450Y-167758D01*
X-23042Y-167492D01*
X-22575Y-167425D01*
X-22108Y-167492D01*
X-21700Y-167758D01*
X-21350Y-168158D01*
X-21117Y-168625D01*
X-21000Y-169158D01*
Y-169692D01*
X-21117Y-170225D01*
X-21350Y-170692D01*
X-21700Y-171092D01*
X-22108Y-171358D01*
X-22575Y-171425D01*
G01X-19117D02*
Y-167425D01*
X-16433Y-171425D01*
Y-167425D01*
G01X-9458Y-171425D02*
Y-167425D01*
X-8292D01*
X-7825Y-167625D01*
X-7475Y-167892D01*
X-7183Y-168292D01*
X-6950Y-168758D01*
X-6892Y-169425D01*
X-6950Y-170092D01*
X-7183Y-170558D01*
X-7475Y-170958D01*
X-7825Y-171225D01*
X-8292Y-171425D01*
X-9458D01*
G01X-4542D02*
Y-167425D01*
X-3083D01*
X-2617Y-167625D01*
X-2325Y-167892D01*
X-2208Y-168425D01*
X-2325Y-168958D01*
X-2675Y-169292D01*
X-3083Y-169492D01*
X-4542D01*
G01X-3083D02*
X-2208Y-171425D01*
G01X725Y-167425D02*
X2125D01*
G01X1425D02*
Y-171425D01*
G01X725D02*
X2125D01*
G01X4767Y-167425D02*
X6225Y-171425D01*
X7683Y-167425D01*
G01X12192Y-171425D02*
X9858D01*
Y-167425D01*
X12192D01*
G01X11258Y-169358D02*
X9858D01*
G01X18875Y-167425D02*
X19692Y-171425D01*
X20625Y-167425D01*
X21558Y-171425D01*
X22375Y-167425D01*
G01X26592Y-171425D02*
X24258D01*
Y-167425D01*
X26592D01*
G01X25658Y-169358D02*
X24258D01*
G01X29000Y-170892D02*
X29467Y-171225D01*
X29992Y-171425D01*
X30458D01*
X30925Y-171225D01*
X31275Y-170892D01*
X31450Y-170425D01*
X31333Y-169958D01*
X31042Y-169558D01*
X30517Y-169292D01*
X29817Y-169158D01*
X29408Y-168892D01*
X29233Y-168425D01*
X29350Y-167958D01*
X29642Y-167625D01*
X30050Y-167425D01*
X30458D01*
X30867Y-167558D01*
X31217Y-167892D01*
G01X35025Y-167425D02*
Y-171425D01*
G01X33683Y-167425D02*
X36367D01*
G01X-105898Y-163425D02*
Y-155925D01*
X-102352D01*
G01X-103658Y-159550D02*
X-105898D01*
G01X-98492Y-163425D02*
Y-155925D01*
X-96158D01*
X-95412Y-156300D01*
X-94945Y-156800D01*
X-94758Y-157800D01*
X-94945Y-158800D01*
X-95505Y-159425D01*
X-96158Y-159800D01*
X-98492D01*
G01X-96158D02*
X-94758Y-163425D01*
G01X-87258D02*
X-90992D01*
Y-155925D01*
X-87258D01*
G01X-88752Y-159550D02*
X-90992D01*
G01X-79758Y-163425D02*
X-83492D01*
Y-155925D01*
X-79758D01*
G01X-81252Y-159550D02*
X-83492D01*
G01X-76085Y-162425D02*
X-75338Y-163050D01*
X-74498Y-163425D01*
X-73752D01*
X-73005Y-163050D01*
X-72445Y-162425D01*
X-72165Y-161550D01*
X-72352Y-160675D01*
X-72818Y-159925D01*
X-73658Y-159425D01*
X-74778Y-159175D01*
X-75432Y-158675D01*
X-75712Y-157800D01*
X-75525Y-156925D01*
X-75058Y-156300D01*
X-74405Y-155925D01*
X-73752D01*
X-73098Y-156175D01*
X-72538Y-156800D01*
G01X-64572Y-156550D02*
X-65132Y-156175D01*
X-65785Y-155925D01*
X-66532D01*
X-67372Y-156300D01*
X-68025Y-156925D01*
X-68492Y-157675D01*
X-68865Y-158925D01*
X-68958Y-160050D01*
X-68772Y-161175D01*
X-68492Y-161925D01*
X-67932Y-162675D01*
X-67278Y-163175D01*
X-66625Y-163425D01*
X-65972D01*
X-65318Y-163175D01*
X-64758Y-162800D01*
X-64292Y-162300D01*
G01X-61458Y-163425D02*
X-59125Y-155925D01*
X-56792Y-163425D01*
G01X-57632Y-160800D02*
X-60618D01*
G01X-53492Y-155925D02*
Y-163425D01*
X-49758D01*
G01X-42258D02*
X-45992D01*
Y-155925D01*
X-42258D01*
G01X-43752Y-159550D02*
X-45992D01*
G01X-31085Y-162425D02*
X-30338Y-163050D01*
X-29498Y-163425D01*
X-28752D01*
X-28005Y-163050D01*
X-27445Y-162425D01*
X-27165Y-161550D01*
X-27352Y-160675D01*
X-27818Y-159925D01*
X-28658Y-159425D01*
X-29778Y-159175D01*
X-30432Y-158675D01*
X-30712Y-157800D01*
X-30525Y-156925D01*
X-30058Y-156300D01*
X-29405Y-155925D01*
X-28752D01*
X-28098Y-156175D01*
X-27538Y-156800D01*
G01X-19758Y-163425D02*
X-23492D01*
Y-155925D01*
X-19758D01*
G01X-21252Y-159550D02*
X-23492D01*
G01X-16552Y-163425D02*
Y-155925D01*
X-14125Y-162175D01*
X-11698Y-155925D01*
Y-163425D01*
G01X-7745Y-155925D02*
X-5505D01*
G01X-6625D02*
Y-163425D01*
G01X-7745D02*
X-5505D01*
G01X2928Y-156550D02*
X2368Y-156175D01*
X1715Y-155925D01*
X968D01*
X128Y-156300D01*
X-525Y-156925D01*
X-992Y-157675D01*
X-1365Y-158925D01*
X-1458Y-160050D01*
X-1272Y-161175D01*
X-992Y-161925D01*
X-432Y-162675D01*
X222Y-163175D01*
X875Y-163425D01*
X1528D01*
X2182Y-163175D01*
X2742Y-162800D01*
X3208Y-162300D01*
G01X8375Y-163425D02*
X7628Y-163300D01*
X6975Y-162800D01*
X6415Y-162050D01*
X6042Y-161175D01*
X5855Y-160175D01*
Y-159175D01*
X6042Y-158175D01*
X6415Y-157300D01*
X6975Y-156550D01*
X7628Y-156050D01*
X8375Y-155925D01*
X9122Y-156050D01*
X9775Y-156550D01*
X10335Y-157300D01*
X10708Y-158175D01*
X10895Y-159175D01*
Y-160175D01*
X10708Y-161175D01*
X10335Y-162050D01*
X9775Y-162800D01*
X9122Y-163300D01*
X8375Y-163425D01*
G01X13728D02*
Y-155925D01*
X18022Y-163425D01*
Y-155925D01*
G01X21322Y-163425D02*
Y-155925D01*
X23188D01*
X23935Y-156300D01*
X24495Y-156800D01*
X24962Y-157550D01*
X25335Y-158425D01*
X25428Y-159675D01*
X25335Y-160925D01*
X24962Y-161800D01*
X24495Y-162550D01*
X23935Y-163050D01*
X23188Y-163425D01*
X21322D01*
G01X28822Y-155925D02*
Y-161300D01*
X29195Y-162425D01*
X29942Y-163175D01*
X30875Y-163425D01*
X31808Y-163175D01*
X32555Y-162425D01*
X32928Y-161300D01*
Y-155925D01*
G01X40428Y-156550D02*
X39868Y-156175D01*
X39215Y-155925D01*
X38468D01*
X37628Y-156300D01*
X36975Y-156925D01*
X36508Y-157675D01*
X36135Y-158925D01*
X36042Y-160050D01*
X36228Y-161175D01*
X36508Y-161925D01*
X37068Y-162675D01*
X37722Y-163175D01*
X38375Y-163425D01*
X39028D01*
X39682Y-163175D01*
X40242Y-162800D01*
X40708Y-162300D01*
G01X45875Y-155925D02*
Y-163425D01*
G01X43728Y-155925D02*
X48022D01*
G01X53375Y-163425D02*
X52628Y-163300D01*
X51975Y-162800D01*
X51415Y-162050D01*
X51042Y-161175D01*
X50855Y-160175D01*
Y-159175D01*
X51042Y-158175D01*
X51415Y-157300D01*
X51975Y-156550D01*
X52628Y-156050D01*
X53375Y-155925D01*
X54122Y-156050D01*
X54775Y-156550D01*
X55335Y-157300D01*
X55708Y-158175D01*
X55895Y-159175D01*
Y-160175D01*
X55708Y-161175D01*
X55335Y-162050D01*
X54775Y-162800D01*
X54122Y-163300D01*
X53375Y-163425D01*
G01X59008D02*
Y-155925D01*
X61342D01*
X62088Y-156300D01*
X62555Y-156800D01*
X62742Y-157800D01*
X62555Y-158800D01*
X61995Y-159425D01*
X61342Y-159800D01*
X59008D01*
G01X61342D02*
X62742Y-163425D01*
G01X-50642Y-247925D02*
Y-241625D01*
X-48762D01*
X-48135Y-241940D01*
X-47665Y-242675D01*
X-47508Y-243515D01*
X-47665Y-244355D01*
X-48057Y-244985D01*
X-48762Y-245300D01*
X-50642D01*
G01X-44342Y-247925D02*
Y-241625D01*
X-42383D01*
X-41757Y-241940D01*
X-41365Y-242360D01*
X-41208Y-243200D01*
X-41365Y-244040D01*
X-41835Y-244565D01*
X-42383Y-244880D01*
X-44342D01*
G01X-42383D02*
X-41208Y-247925D01*
G01X-37415Y-241625D02*
X-35535D01*
G01X-36475D02*
Y-247925D01*
G01X-37415D02*
X-35535D01*
G01X-32212D02*
Y-241625D01*
X-30175Y-246875D01*
X-28138Y-241625D01*
Y-247925D01*
G01X-25833D02*
X-23875Y-241625D01*
X-21917Y-247925D01*
G01X-22622Y-245720D02*
X-25128D01*
G01X-19142Y-247925D02*
Y-241625D01*
X-17183D01*
X-16557Y-241940D01*
X-16165Y-242360D01*
X-16008Y-243200D01*
X-16165Y-244040D01*
X-16635Y-244565D01*
X-17183Y-244880D01*
X-19142D01*
G01X-17183D02*
X-16008Y-247925D01*
G01X-11275D02*
Y-245090D01*
X-12842Y-241625D01*
G01X-9708D02*
X-11275Y-245090D01*
G01X-320Y-247085D02*
X307Y-247610D01*
X1012Y-247925D01*
X1638D01*
X2265Y-247610D01*
X2735Y-247085D01*
X2970Y-246350D01*
X2813Y-245615D01*
X2422Y-244985D01*
X1717Y-244565D01*
X777Y-244355D01*
X228Y-243935D01*
X-7Y-243200D01*
X150Y-242465D01*
X542Y-241940D01*
X1090Y-241625D01*
X1638D01*
X2187Y-241835D01*
X2657Y-242360D01*
G01X6685Y-241625D02*
X8565D01*
G01X7625D02*
Y-247925D01*
G01X6685D02*
X8565D01*
G01X12358Y-241625D02*
Y-247925D01*
X15492D01*
G01X18502D02*
Y-241625D01*
G01X21478D02*
X18502Y-245510D01*
G01X21948Y-247925D02*
X19833Y-243725D01*
G01X24880Y-247085D02*
X25507Y-247610D01*
X26212Y-247925D01*
X26838D01*
X27465Y-247610D01*
X27935Y-247085D01*
X28170Y-246350D01*
X28013Y-245615D01*
X27622Y-244985D01*
X26917Y-244565D01*
X25977Y-244355D01*
X25428Y-243935D01*
X25193Y-243200D01*
X25350Y-242465D01*
X25742Y-241940D01*
X26290Y-241625D01*
X26838D01*
X27387Y-241835D01*
X27857Y-242360D01*
G01X34548Y-242150D02*
X34078Y-241835D01*
X33530Y-241625D01*
X32903D01*
X32198Y-241940D01*
X31650Y-242465D01*
X31258Y-243095D01*
X30945Y-244145D01*
X30867Y-245090D01*
X31023Y-246035D01*
X31258Y-246665D01*
X31728Y-247295D01*
X32277Y-247715D01*
X32825Y-247925D01*
X33373D01*
X33922Y-247715D01*
X34392Y-247400D01*
X34783Y-246980D01*
G01X37558Y-247925D02*
Y-241625D01*
X39517D01*
X40143Y-241940D01*
X40535Y-242360D01*
X40692Y-243200D01*
X40535Y-244040D01*
X40065Y-244565D01*
X39517Y-244880D01*
X37558D01*
G01X39517D02*
X40692Y-247925D01*
G01X46992D02*
X43858D01*
Y-241625D01*
X46992D01*
G01X45738Y-244670D02*
X43858D01*
G01X53292Y-247925D02*
X50158D01*
Y-241625D01*
X53292D01*
G01X52038Y-244670D02*
X50158D01*
G01X56223Y-247925D02*
Y-241625D01*
X59827Y-247925D01*
Y-241625D01*
G01X-55283Y-239425D02*
Y-235425D01*
X-53067D01*
G01X-53883Y-237358D02*
X-55283D01*
G01X-50075Y-235425D02*
X-48675D01*
G01X-49375D02*
Y-239425D01*
G01X-50075D02*
X-48675D01*
G01X-45742Y-235425D02*
Y-239425D01*
X-43408D01*
G01X-41292D02*
Y-235425D01*
X-39775Y-238758D01*
X-38258Y-235425D01*
Y-239425D01*
G01X-13259Y41829D02*
X-9759D01*
Y40663D01*
X-9934Y40196D01*
X-10167Y39846D01*
X-10517Y39554D01*
X-10926Y39321D01*
X-11509Y39263D01*
X-12092Y39321D01*
X-12501Y39554D01*
X-12851Y39846D01*
X-13084Y40196D01*
X-13259Y40663D01*
Y41829D01*
G01Y35546D02*
X-9759D01*
X-12267Y37704D01*
Y34788D01*
G01X-10802Y72160D02*
Y75260D01*
X-11262Y74640D01*
G01Y72160D02*
X-10342D01*
G01X-11277Y107528D02*
X-11569Y107061D01*
X-11744Y106536D01*
Y106070D01*
X-11569Y105603D01*
X-11277Y105253D01*
X-10869Y105078D01*
X-10461Y105195D01*
X-10111Y105486D01*
X-9877Y106011D01*
X-9761Y106711D01*
X-9527Y107120D01*
X-9119Y107295D01*
X-8711Y107178D01*
X-8419Y106886D01*
X-8244Y106478D01*
Y106070D01*
X-8361Y105661D01*
X-8652Y105311D01*
G01X-8244Y103753D02*
X-11744Y102936D01*
X-8244Y102003D01*
X-11744Y101070D01*
X-8244Y100253D01*
G01X-11744Y98986D02*
X-8244D01*
Y97820D01*
X-8419Y97353D01*
X-8652Y97003D01*
X-9002Y96711D01*
X-9411Y96478D01*
X-9994Y96420D01*
X-10577Y96478D01*
X-10986Y96711D01*
X-11336Y97003D01*
X-11569Y97353D01*
X-11744Y97820D01*
Y98986D01*
G01X-11516Y121559D02*
X-11866Y121267D01*
X-12099Y120917D01*
X-12216Y120509D01*
X-12099Y120042D01*
X-11866Y119692D01*
X-11516Y119342D01*
X-11049Y119225D01*
X-8716D01*
G01X-11691Y117375D02*
X-11983Y117025D01*
X-12158Y116617D01*
X-12216Y116092D01*
X-12099Y115567D01*
X-11866Y115159D01*
X-11458Y114867D01*
X-10991Y114809D01*
X-10524Y114925D01*
X-10233Y115217D01*
X-9999Y115625D01*
X-9941Y116034D01*
X-9999Y116442D01*
X-10233Y116967D01*
X-8716Y116792D01*
Y115217D01*
G01X-4298Y-10579D02*
X-4065Y-10404D01*
X-3890Y-10113D01*
X-3773Y-9704D01*
X-3890Y-9354D01*
X-4123Y-9121D01*
X-4532Y-8946D01*
X-6107D01*
Y-12446D01*
X-4182D01*
X-3773Y-12213D01*
X-3540Y-11863D01*
X-3423Y-11454D01*
X-3540Y-11046D01*
X-3890Y-10696D01*
X-4298Y-10579D01*
X-6107D01*
G01X-1690Y-12446D02*
Y-8946D01*
G01X760D02*
Y-12446D01*
G01Y-10696D02*
X-1690D01*
G01X2552Y-11746D02*
X2902Y-12154D01*
X3368Y-12388D01*
X3893Y-12446D01*
X4360Y-12388D01*
X4827Y-12096D01*
X5118Y-11746D01*
X5177Y-11396D01*
X5060Y-10988D01*
X4652Y-10696D01*
X4243Y-10579D01*
X3718D01*
G01X4243D02*
X4593Y-10404D01*
X4885Y-10113D01*
X5002Y-9763D01*
X4885Y-9413D01*
X4593Y-9121D01*
X4068Y-8946D01*
X3543Y-9004D01*
X3018Y-9238D01*
G01X15762Y-8724D02*
X13162D01*
G01X15782Y-17224D02*
X13162D01*
G01X-7140Y11456D02*
X-6673Y11164D01*
X-6148Y10989D01*
X-5682D01*
X-5215Y11164D01*
X-4865Y11456D01*
X-4690Y11864D01*
X-4807Y12272D01*
X-5098Y12622D01*
X-5623Y12856D01*
X-6323Y12972D01*
X-6732Y13206D01*
X-6907Y13614D01*
X-6790Y14022D01*
X-6498Y14314D01*
X-6090Y14489D01*
X-5682D01*
X-5273Y14372D01*
X-4923Y14081D01*
G01X-3365Y14489D02*
X-2548Y10989D01*
X-1615Y14489D01*
X-682Y10989D01*
X135Y14489D01*
G01X2685Y10989D02*
Y14489D01*
X1985Y13789D01*
G01Y10989D02*
X3385D01*
G01X-7970Y16009D02*
X17446D01*
Y20842D01*
G01Y27142D02*
Y31975D01*
X-7970D01*
Y27142D01*
G01Y20842D02*
Y16009D01*
G01X-9860Y27929D02*
Y31029D01*
X-10320Y30409D01*
G01Y27929D02*
X-9400D01*
G01X1935Y33942D02*
X3393Y37442D01*
X4851Y33942D01*
G01X4326Y35167D02*
X2460D01*
G01X-3070Y51544D02*
X-2778Y51194D01*
X-2428Y50961D01*
X-2020Y50844D01*
X-1553Y50961D01*
X-1203Y51194D01*
X-853Y51544D01*
X-736Y52011D01*
Y54344D01*
G01X2397Y50844D02*
Y54344D01*
X1697Y53644D01*
G01Y50844D02*
X3097D01*
G01X5589Y53761D02*
X5939Y54111D01*
X6347Y54286D01*
X6814Y54344D01*
X7397Y54227D01*
X7805Y53936D01*
X7922Y53586D01*
X7864Y53236D01*
X7630Y52944D01*
X6464Y52361D01*
X5939Y51952D01*
X5589Y51369D01*
X5472Y50844D01*
X7922D01*
G01X-7892Y56340D02*
X14008D01*
Y79240D01*
X-7892D01*
Y56340D01*
G01X8018Y33934D02*
Y37434D01*
X9477D01*
X9943Y37259D01*
X10235Y37026D01*
X10352Y36559D01*
X10235Y36092D01*
X9885Y35801D01*
X9477Y35626D01*
X8018D01*
G01X9477D02*
X10352Y33934D01*
G01X13485D02*
Y37434D01*
X12785Y36734D01*
G01Y33934D02*
X14185D01*
G01X16502Y34634D02*
X16852Y34226D01*
X17318Y33992D01*
X17843Y33934D01*
X18310Y33992D01*
X18777Y34284D01*
X19068Y34634D01*
X19127Y34984D01*
X19010Y35392D01*
X18602Y35684D01*
X18193Y35801D01*
X17668D01*
G01X18193D02*
X18543Y35976D01*
X18835Y36267D01*
X18952Y36617D01*
X18835Y36967D01*
X18543Y37259D01*
X18018Y37434D01*
X17493Y37376D01*
X16968Y37142D01*
G01X11926Y41375D02*
G03I-500J0D01*
G01X-5655Y37282D02*
X-6005Y37457D01*
X-6413Y37574D01*
X-6880D01*
X-7405Y37399D01*
X-7813Y37107D01*
X-8105Y36757D01*
X-8338Y36174D01*
X-8396Y35649D01*
X-8280Y35124D01*
X-8105Y34774D01*
X-7755Y34424D01*
X-7346Y34191D01*
X-6938Y34074D01*
X-6530D01*
X-6121Y34191D01*
X-5771Y34366D01*
X-5480Y34599D01*
G01X-4557Y81161D02*
Y84661D01*
X-3098D01*
X-2632Y84486D01*
X-2340Y84253D01*
X-2223Y83786D01*
X-2340Y83319D01*
X-2690Y83028D01*
X-3098Y82853D01*
X-4557D01*
G01X-3098D02*
X-2223Y81161D01*
G01X-198Y84078D02*
X152Y84428D01*
X560Y84603D01*
X1027Y84661D01*
X1610Y84544D01*
X2018Y84253D01*
X2135Y83903D01*
X2077Y83553D01*
X1843Y83261D01*
X677Y82678D01*
X152Y82269D01*
X-198Y81686D01*
X-315Y81161D01*
X2135D01*
G01X5210Y84661D02*
X4743Y84544D01*
X4393Y84253D01*
X4160Y83903D01*
X3985Y83436D01*
X3927Y82911D01*
X3985Y82386D01*
X4160Y81919D01*
X4393Y81569D01*
X4743Y81278D01*
X5210Y81161D01*
X5677Y81278D01*
X6027Y81569D01*
X6260Y81919D01*
X6435Y82386D01*
X6493Y82911D01*
X6435Y83436D01*
X6260Y83903D01*
X6027Y84253D01*
X5677Y84544D01*
X5210Y84661D01*
G01X9109Y86509D02*
Y90009D01*
X8409Y89309D01*
G01Y86509D02*
X9809D01*
G01X-10284Y89413D02*
X-9934Y89763D01*
X-9526Y89938D01*
X-9059Y89996D01*
X-8476Y89879D01*
X-8068Y89588D01*
X-7951Y89238D01*
X-8009Y88888D01*
X-8243Y88596D01*
X-9409Y88013D01*
X-9934Y87604D01*
X-10284Y87021D01*
X-10401Y86496D01*
X-7951D01*
G01X13958Y101653D02*
X13608Y101361D01*
X13375Y101011D01*
X13258Y100603D01*
X13375Y100136D01*
X13608Y99786D01*
X13958Y99436D01*
X14425Y99319D01*
X16758D01*
G01X13258Y95486D02*
X16758D01*
X14250Y97644D01*
Y94728D01*
G01X24443Y108707D02*
Y103707D01*
X13043D01*
Y108707D01*
G01X9161Y99623D02*
Y91623D01*
X-6839D01*
Y122623D01*
X9161D01*
Y99623D01*
G01X32368Y123728D02*
Y122096D01*
X32367D01*
X27675Y126788D01*
X15146D01*
X15117Y126759D01*
X13142Y128734D01*
Y134891D01*
X13026Y135007D01*
X9773D01*
X9774Y135008D01*
X17520D01*
G01X13043Y120107D02*
Y125107D01*
X24443D01*
Y120107D01*
G01X5228Y126157D02*
X5637Y125866D01*
X6103Y125749D01*
X6570Y125866D01*
X6978Y126216D01*
X7270Y126741D01*
X7387Y127266D01*
Y127907D01*
X7270Y128432D01*
X6978Y128899D01*
X6628Y129132D01*
X6220Y129249D01*
X5753Y129132D01*
X5403Y128899D01*
X5170Y128549D01*
X5053Y128082D01*
X5170Y127674D01*
X5462Y127266D01*
X5812Y127032D01*
X6220Y126974D01*
X6687Y127091D01*
X7037Y127382D01*
X7387Y127907D01*
G01X-6024Y125742D02*
Y129242D01*
X-6724Y128542D01*
G01Y125742D02*
X-5324D01*
G01X-1724Y129242D02*
X-2191Y129125D01*
X-2541Y128834D01*
X-2774Y128484D01*
X-2949Y128017D01*
X-3007Y127492D01*
X-2949Y126967D01*
X-2774Y126500D01*
X-2541Y126150D01*
X-2191Y125859D01*
X-1724Y125742D01*
X-1257Y125859D01*
X-907Y126150D01*
X-674Y126500D01*
X-499Y126967D01*
X-441Y127492D01*
X-499Y128017D01*
X-674Y128484D01*
X-907Y128834D01*
X-1257Y129125D01*
X-1724Y129242D01*
G01X12751Y144878D02*
X12926Y145228D01*
X13043Y145636D01*
Y146103D01*
X12868Y146628D01*
X12576Y147036D01*
X12226Y147328D01*
X11643Y147561D01*
X11118Y147619D01*
X10593Y147503D01*
X10243Y147328D01*
X9893Y146978D01*
X9660Y146569D01*
X9543Y146161D01*
Y145753D01*
X9660Y145344D01*
X9835Y144994D01*
X10068Y144703D01*
G01X12460Y142969D02*
X12810Y142619D01*
X12985Y142211D01*
X13043Y141744D01*
X12926Y141161D01*
X12635Y140753D01*
X12285Y140636D01*
X11935Y140694D01*
X11643Y140928D01*
X11060Y142094D01*
X10651Y142619D01*
X10068Y142969D01*
X9543Y143086D01*
Y140636D01*
G01X10243Y138844D02*
X9835Y138494D01*
X9601Y138028D01*
X9543Y137503D01*
X9601Y137036D01*
X9893Y136569D01*
X10243Y136278D01*
X10593Y136219D01*
X11001Y136336D01*
X11293Y136744D01*
X11410Y137153D01*
Y137678D01*
G01Y137153D02*
X11585Y136803D01*
X11876Y136511D01*
X12226Y136394D01*
X12576Y136511D01*
X12868Y136803D01*
X13043Y137328D01*
X12985Y137853D01*
X12751Y138378D01*
G01X17533Y144596D02*
X17708Y144946D01*
X17825Y145354D01*
Y145821D01*
X17650Y146346D01*
X17358Y146754D01*
X17008Y147046D01*
X16425Y147279D01*
X15900Y147337D01*
X15375Y147221D01*
X15025Y147046D01*
X14675Y146696D01*
X14442Y146287D01*
X14325Y145879D01*
Y145471D01*
X14442Y145062D01*
X14617Y144712D01*
X14850Y144421D01*
G01X17242Y142687D02*
X17592Y142337D01*
X17767Y141929D01*
X17825Y141462D01*
X17708Y140879D01*
X17417Y140471D01*
X17067Y140354D01*
X16717Y140412D01*
X16425Y140646D01*
X15842Y141812D01*
X15433Y142337D01*
X14850Y142687D01*
X14325Y142804D01*
Y140354D01*
G01X17242Y138387D02*
X17592Y138037D01*
X17767Y137629D01*
X17825Y137162D01*
X17708Y136579D01*
X17417Y136171D01*
X17067Y136054D01*
X16717Y136112D01*
X16425Y136346D01*
X15842Y137512D01*
X15433Y138037D01*
X14850Y138387D01*
X14325Y138504D01*
Y136054D01*
G01X12800Y162633D02*
Y166133D01*
X12100Y165433D01*
G01Y162633D02*
X13500D01*
G01X11139Y153645D02*
X11489Y153995D01*
X11897Y154170D01*
X12364Y154228D01*
X12947Y154111D01*
X13355Y153820D01*
X13472Y153470D01*
X13414Y153120D01*
X13180Y152828D01*
X12014Y152245D01*
X11489Y151836D01*
X11139Y151253D01*
X11022Y150728D01*
X13472D01*
G01X13399Y180087D02*
Y183587D01*
X14799D01*
X15266Y183412D01*
X15616Y183004D01*
X15733Y182537D01*
X15616Y182070D01*
X15324Y181720D01*
X14799Y181545D01*
X13399D01*
G01X17408Y180087D02*
X18866Y183587D01*
X20324Y180087D01*
G01X19799Y181312D02*
X17933D01*
G01X21416Y178920D02*
X24916D01*
G01X27933Y181954D02*
X28166Y182129D01*
X28341Y182420D01*
X28458Y182829D01*
X28341Y183179D01*
X28108Y183412D01*
X27699Y183587D01*
X26124D01*
Y180087D01*
X28049D01*
X28458Y180320D01*
X28691Y180670D01*
X28808Y181079D01*
X28691Y181487D01*
X28341Y181837D01*
X27933Y181954D01*
X26124D01*
G01X31766Y180087D02*
X31299Y180145D01*
X30891Y180379D01*
X30541Y180729D01*
X30308Y181137D01*
X30191Y181604D01*
Y182070D01*
X30308Y182537D01*
X30541Y182945D01*
X30891Y183295D01*
X31299Y183529D01*
X31766Y183587D01*
X32233Y183529D01*
X32641Y183295D01*
X32991Y182945D01*
X33224Y182537D01*
X33341Y182070D01*
Y181604D01*
X33224Y181137D01*
X32991Y180729D01*
X32641Y180379D01*
X32233Y180145D01*
X31766Y180087D01*
G01X36066D02*
X35599Y180145D01*
X35191Y180379D01*
X34841Y180729D01*
X34608Y181137D01*
X34491Y181604D01*
Y182070D01*
X34608Y182537D01*
X34841Y182945D01*
X35191Y183295D01*
X35599Y183529D01*
X36066Y183587D01*
X36533Y183529D01*
X36941Y183295D01*
X37291Y182945D01*
X37524Y182537D01*
X37641Y182070D01*
Y181604D01*
X37524Y181137D01*
X37291Y180729D01*
X36941Y180379D01*
X36533Y180145D01*
X36066Y180087D01*
G01X39141Y180554D02*
X39608Y180262D01*
X40133Y180087D01*
X40599D01*
X41066Y180262D01*
X41416Y180554D01*
X41591Y180962D01*
X41474Y181370D01*
X41183Y181720D01*
X40658Y181954D01*
X39958Y182070D01*
X39549Y182304D01*
X39374Y182712D01*
X39491Y183120D01*
X39783Y183412D01*
X40191Y183587D01*
X40599D01*
X41008Y183470D01*
X41358Y183179D01*
G01X44666Y183587D02*
Y180087D01*
G01X43324Y183587D02*
X46008D01*
G01X11117Y173333D02*
X11467Y172925D01*
X11933Y172691D01*
X12458Y172633D01*
X12925Y172691D01*
X13392Y172983D01*
X13683Y173333D01*
X13742Y173683D01*
X13625Y174091D01*
X13217Y174383D01*
X12808Y174500D01*
X12283D01*
G01X12808D02*
X13158Y174675D01*
X13450Y174966D01*
X13567Y175316D01*
X13450Y175666D01*
X13158Y175958D01*
X12633Y176133D01*
X12108Y176075D01*
X11583Y175841D01*
G01X-4038Y180325D02*
X-3805Y180500D01*
X-3630Y180791D01*
X-3513Y181200D01*
X-3630Y181550D01*
X-3863Y181783D01*
X-4272Y181958D01*
X-5847D01*
Y178458D01*
X-3922D01*
X-3513Y178691D01*
X-3280Y179041D01*
X-3163Y179450D01*
X-3280Y179858D01*
X-3630Y180208D01*
X-4038Y180325D01*
X-5847D01*
G01X-1430Y178458D02*
Y181958D01*
G01X1020D02*
Y178458D01*
G01Y180208D02*
X-1430D01*
G01X4095Y178458D02*
Y181958D01*
X3395Y181258D01*
G01Y178458D02*
X4795D01*
G01X34229Y-69269D02*
Y-72769D01*
G01X32887Y-69269D02*
X35571D01*
G01X37362D02*
Y-72769D01*
X39696D01*
G01X42829D02*
Y-69269D01*
X42129Y-69969D01*
G01Y-72769D02*
X43529D01*
G01X30378Y-56930D02*
X45378D01*
Y-65330D01*
X30378D01*
Y-56930D01*
G01X29348Y-54108D02*
X29698Y-54400D01*
X30106Y-54575D01*
X30631Y-54633D01*
X31156Y-54516D01*
X31564Y-54283D01*
X31856Y-53875D01*
X31914Y-53408D01*
X31798Y-52941D01*
X31506Y-52650D01*
X31098Y-52416D01*
X30689Y-52358D01*
X30281Y-52416D01*
X29756Y-52650D01*
X29931Y-51133D01*
X31506D01*
G01X37383Y-29817D02*
X37558Y-29467D01*
X37675Y-29059D01*
Y-28592D01*
X37500Y-28067D01*
X37208Y-27659D01*
X36858Y-27367D01*
X36275Y-27134D01*
X35750Y-27076D01*
X35225Y-27192D01*
X34875Y-27367D01*
X34525Y-27717D01*
X34292Y-28126D01*
X34175Y-28534D01*
Y-28942D01*
X34292Y-29351D01*
X34467Y-29701D01*
X34700Y-29992D01*
G01X34175Y-33534D02*
X37675D01*
X35167Y-31376D01*
Y-34292D01*
G01X34175Y-37834D02*
X37675D01*
X35167Y-35676D01*
Y-38592D01*
G01X38461Y-45540D02*
X33461D01*
Y-46540D01*
X38461D01*
Y-45540D01*
G01X42115Y-30059D02*
X42290Y-29709D01*
X42407Y-29301D01*
Y-28834D01*
X42232Y-28309D01*
X41940Y-27901D01*
X41590Y-27609D01*
X41007Y-27376D01*
X40482Y-27318D01*
X39957Y-27434D01*
X39607Y-27609D01*
X39257Y-27959D01*
X39024Y-28368D01*
X38907Y-28776D01*
Y-29184D01*
X39024Y-29593D01*
X39199Y-29943D01*
X39432Y-30234D01*
G01X39607Y-31793D02*
X39199Y-32143D01*
X38965Y-32609D01*
X38907Y-33134D01*
X38965Y-33601D01*
X39257Y-34068D01*
X39607Y-34359D01*
X39957Y-34418D01*
X40365Y-34301D01*
X40657Y-33893D01*
X40774Y-33484D01*
Y-32959D01*
G01Y-33484D02*
X40949Y-33834D01*
X41240Y-34126D01*
X41590Y-34243D01*
X41940Y-34126D01*
X42232Y-33834D01*
X42407Y-33309D01*
X42349Y-32784D01*
X42115Y-32259D01*
G01X39315Y-36384D02*
X39024Y-36793D01*
X38907Y-37259D01*
X39024Y-37726D01*
X39374Y-38134D01*
X39899Y-38426D01*
X40424Y-38543D01*
X41065D01*
X41590Y-38426D01*
X42057Y-38134D01*
X42290Y-37784D01*
X42407Y-37376D01*
X42290Y-36909D01*
X42057Y-36559D01*
X41707Y-36326D01*
X41240Y-36209D01*
X40832Y-36326D01*
X40424Y-36618D01*
X40190Y-36968D01*
X40132Y-37376D01*
X40249Y-37843D01*
X40540Y-38193D01*
X41065Y-38543D01*
G01X40252Y-45411D02*
Y-44611D01*
G01X31125Y-32468D02*
Y-28968D01*
X30425Y-29668D01*
G01Y-32468D02*
X31825D01*
G01X34999Y-6708D02*
Y-3208D01*
X34299Y-3908D01*
G01Y-6708D02*
X35699D01*
G01X24870Y7194D02*
X24520Y7369D01*
X24112Y7486D01*
X23645D01*
X23120Y7311D01*
X22712Y7019D01*
X22420Y6669D01*
X22187Y6086D01*
X22129Y5561D01*
X22245Y5036D01*
X22420Y4686D01*
X22770Y4336D01*
X23179Y4103D01*
X23587Y3986D01*
X23995D01*
X24404Y4103D01*
X24754Y4278D01*
X25045Y4511D01*
G01X26604Y4686D02*
X26954Y4278D01*
X27420Y4044D01*
X27945Y3986D01*
X28412Y4044D01*
X28879Y4336D01*
X29170Y4686D01*
X29229Y5036D01*
X29112Y5444D01*
X28704Y5736D01*
X28295Y5853D01*
X27770D01*
G01X28295D02*
X28645Y6028D01*
X28937Y6319D01*
X29054Y6669D01*
X28937Y7019D01*
X28645Y7311D01*
X28120Y7486D01*
X27595Y7428D01*
X27070Y7194D01*
G01X32070Y3986D02*
X32187Y4744D01*
X32362Y5386D01*
X32595Y5969D01*
X32887Y6611D01*
X33354Y7486D01*
X31020D01*
G01X23513Y2128D02*
X24313D01*
G01Y-172D02*
X23513D01*
G01X23203Y-5986D02*
X22853Y-5811D01*
X22445Y-5694D01*
X21978D01*
X21453Y-5869D01*
X21045Y-6161D01*
X20753Y-6511D01*
X20520Y-7094D01*
X20462Y-7619D01*
X20578Y-8144D01*
X20753Y-8494D01*
X21103Y-8844D01*
X21512Y-9077D01*
X21920Y-9194D01*
X22328D01*
X22737Y-9077D01*
X23087Y-8902D01*
X23378Y-8669D01*
G01X24937Y-8494D02*
X25287Y-8902D01*
X25753Y-9136D01*
X26278Y-9194D01*
X26745Y-9136D01*
X27212Y-8844D01*
X27503Y-8494D01*
X27562Y-8144D01*
X27445Y-7736D01*
X27037Y-7444D01*
X26628Y-7327D01*
X26103D01*
G01X26628D02*
X26978Y-7152D01*
X27270Y-6861D01*
X27387Y-6511D01*
X27270Y-6161D01*
X26978Y-5869D01*
X26453Y-5694D01*
X25928Y-5752D01*
X25403Y-5986D01*
G01X30520Y-9194D02*
X30928Y-9136D01*
X31395Y-8961D01*
X31687Y-8669D01*
X31803Y-8261D01*
X31687Y-7852D01*
X31337Y-7502D01*
X30812Y-7327D01*
X30228D01*
X29878Y-7211D01*
X29587Y-6919D01*
X29470Y-6511D01*
X29645Y-6102D01*
X30053Y-5811D01*
X30520Y-5694D01*
X30987Y-5811D01*
X31395Y-6102D01*
X31570Y-6511D01*
X31453Y-6919D01*
X31162Y-7211D01*
X30812Y-7327D01*
X30228D01*
X29703Y-7502D01*
X29353Y-7852D01*
X29237Y-8261D01*
X29353Y-8669D01*
X29645Y-8961D01*
X30112Y-9136D01*
X30520Y-9194D01*
G01X23513Y-1721D02*
X24313D01*
G01Y-4021D02*
X23513D01*
G01X31664Y-19187D02*
X31956Y-19537D01*
X32306Y-19770D01*
X32714Y-19887D01*
X33181Y-19770D01*
X33531Y-19537D01*
X33881Y-19187D01*
X33998Y-18720D01*
Y-16387D01*
G01X37131Y-19887D02*
Y-16387D01*
X36431Y-17087D01*
G01Y-19887D02*
X37831D01*
G01X40323Y-18429D02*
X40731Y-18020D01*
X41081Y-17787D01*
X41548Y-17670D01*
X41956Y-17787D01*
X42248Y-18020D01*
X42481Y-18370D01*
X42539Y-18779D01*
X42481Y-19129D01*
X42248Y-19479D01*
X41898Y-19770D01*
X41489Y-19887D01*
X41023Y-19770D01*
X40614Y-19420D01*
X40381Y-18895D01*
X40323Y-18312D01*
X40439Y-17554D01*
X40614Y-17145D01*
X40906Y-16737D01*
X41314Y-16445D01*
X41723Y-16387D01*
X42131Y-16504D01*
X42423Y-16795D01*
G01X24094Y-11496D02*
Y-14996D01*
X26428D01*
G01X29561D02*
X29969Y-14938D01*
X30436Y-14763D01*
X30728Y-14471D01*
X30844Y-14063D01*
X30728Y-13654D01*
X30378Y-13304D01*
X29853Y-13129D01*
X29269D01*
X28919Y-13013D01*
X28628Y-12721D01*
X28511Y-12313D01*
X28686Y-11904D01*
X29094Y-11613D01*
X29561Y-11496D01*
X30028Y-11613D01*
X30436Y-11904D01*
X30611Y-12313D01*
X30494Y-12721D01*
X30203Y-13013D01*
X29853Y-13129D01*
X29269D01*
X28744Y-13304D01*
X28394Y-13654D01*
X28278Y-14063D01*
X28394Y-14471D01*
X28686Y-14763D01*
X29153Y-14938D01*
X29561Y-14996D01*
G01X26839Y42227D02*
X30339D01*
Y40768D01*
X30164Y40302D01*
X29931Y40010D01*
X29464Y39893D01*
X28997Y40010D01*
X28706Y40360D01*
X28531Y40768D01*
Y42227D01*
G01Y40768D02*
X26839Y39893D01*
G01Y35593D02*
Y37927D01*
X30339D01*
Y35593D01*
G01X28647Y36527D02*
Y37927D01*
G01X27306Y33685D02*
X27014Y33218D01*
X26839Y32693D01*
Y32227D01*
X27014Y31760D01*
X27306Y31410D01*
X27714Y31235D01*
X28122Y31352D01*
X28472Y31643D01*
X28706Y32168D01*
X28822Y32868D01*
X29056Y33277D01*
X29464Y33452D01*
X29872Y33335D01*
X30164Y33043D01*
X30339Y32635D01*
Y32227D01*
X30222Y31818D01*
X29931Y31468D01*
G01X26839Y26993D02*
Y29327D01*
X30339D01*
Y26993D01*
G01X28647Y27927D02*
Y29327D01*
G01X30339Y23860D02*
X26839D01*
G01X30339Y25202D02*
Y22518D01*
G01X27306Y16485D02*
X27014Y16018D01*
X26839Y15493D01*
Y15027D01*
X27014Y14560D01*
X27306Y14210D01*
X27714Y14035D01*
X28122Y14152D01*
X28472Y14443D01*
X28706Y14968D01*
X28822Y15668D01*
X29056Y16077D01*
X29464Y16252D01*
X29872Y16135D01*
X30164Y15843D01*
X30339Y15435D01*
Y15027D01*
X30222Y14618D01*
X29931Y14268D01*
G01X30339Y12710D02*
X26839Y11893D01*
X30339Y10960D01*
X26839Y10027D01*
X30339Y9210D01*
G01X38371Y12849D02*
X38721Y13199D01*
X39129Y13374D01*
X39596Y13432D01*
X40179Y13315D01*
X40587Y13024D01*
X40704Y12674D01*
X40646Y12324D01*
X40412Y12032D01*
X39246Y11449D01*
X38721Y11040D01*
X38371Y10457D01*
X38254Y9932D01*
X40704D01*
G01X34615Y21580D02*
Y25080D01*
X33915Y24380D01*
G01Y21580D02*
X35315D01*
G01X33763Y48561D02*
X34113Y48911D01*
X34521Y49086D01*
X34988Y49144D01*
X35571Y49027D01*
X35979Y48736D01*
X36096Y48386D01*
X36038Y48036D01*
X35804Y47744D01*
X34638Y47161D01*
X34113Y46752D01*
X33763Y46169D01*
X33646Y45644D01*
X36096D01*
G01X18077Y49757D02*
Y53257D01*
X19536D01*
X20002Y53082D01*
X20294Y52849D01*
X20411Y52382D01*
X20294Y51915D01*
X19944Y51624D01*
X19536Y51449D01*
X18077D01*
G01X19536D02*
X20411Y49757D01*
G01X23544D02*
Y53257D01*
X22844Y52557D01*
G01Y49757D02*
X24244D01*
G01X26736Y52674D02*
X27086Y53024D01*
X27494Y53199D01*
X27961Y53257D01*
X28544Y53140D01*
X28952Y52849D01*
X29069Y52499D01*
X29011Y52149D01*
X28777Y51857D01*
X27611Y51274D01*
X27086Y50865D01*
X26736Y50282D01*
X26619Y49757D01*
X29069D01*
G01X31133Y52533D02*
X31425Y52183D01*
X31775Y51950D01*
X32183Y51833D01*
X32650Y51950D01*
X33000Y52183D01*
X33350Y52533D01*
X33467Y53000D01*
Y55333D01*
G01X36600Y51833D02*
Y55333D01*
X35900Y54633D01*
G01Y51833D02*
X37300D01*
G01X40900D02*
Y55333D01*
X40200Y54633D01*
G01Y51833D02*
X41600D01*
G01X43383Y61742D02*
Y56742D01*
X31983D01*
Y61742D01*
G01X25613Y45835D02*
X25788Y46185D01*
X25905Y46593D01*
Y47060D01*
X25730Y47585D01*
X25438Y47993D01*
X25088Y48285D01*
X24505Y48518D01*
X23980Y48576D01*
X23455Y48460D01*
X23105Y48285D01*
X22755Y47935D01*
X22522Y47526D01*
X22405Y47118D01*
Y46710D01*
X22522Y46301D01*
X22697Y45951D01*
X22930Y45660D01*
G01X23105Y44101D02*
X22697Y43751D01*
X22463Y43285D01*
X22405Y42760D01*
X22463Y42293D01*
X22755Y41826D01*
X23105Y41535D01*
X23455Y41476D01*
X23863Y41593D01*
X24155Y42001D01*
X24272Y42410D01*
Y42935D01*
G01Y42410D02*
X24447Y42060D01*
X24738Y41768D01*
X25088Y41651D01*
X25438Y41768D01*
X25730Y42060D01*
X25905Y42585D01*
X25847Y43110D01*
X25613Y43635D01*
G01X23863Y39626D02*
X24272Y39218D01*
X24505Y38868D01*
X24622Y38401D01*
X24505Y37993D01*
X24272Y37701D01*
X23922Y37468D01*
X23513Y37410D01*
X23163Y37468D01*
X22813Y37701D01*
X22522Y38051D01*
X22405Y38460D01*
X22522Y38926D01*
X22872Y39335D01*
X23397Y39568D01*
X23980Y39626D01*
X24738Y39510D01*
X25147Y39335D01*
X25555Y39043D01*
X25847Y38635D01*
X25905Y38226D01*
X25788Y37818D01*
X25497Y37526D01*
G01X21560Y42997D02*
Y42197D01*
G01X19260D02*
Y42997D01*
G01X43275Y84875D02*
Y79875D01*
X31875D01*
Y84875D01*
G01X30629Y77138D02*
Y80638D01*
X29929Y79938D01*
G01Y77138D02*
X31329D01*
G01X31983Y73142D02*
Y78142D01*
X43383D01*
Y73142D01*
G01X30016Y95800D02*
Y99300D01*
X29316Y98600D01*
G01Y95800D02*
X30716D01*
G01X25029Y100228D02*
X24679Y99936D01*
X24446Y99586D01*
X24329Y99178D01*
X24446Y98711D01*
X24679Y98361D01*
X25029Y98011D01*
X25496Y97894D01*
X27829D01*
G01X24329Y94878D02*
X25087Y94761D01*
X25729Y94586D01*
X26312Y94353D01*
X26954Y94061D01*
X27829Y93594D01*
Y95928D01*
G01X31875Y96275D02*
Y101275D01*
X43275D01*
Y96275D01*
G01X19124Y101024D02*
X22624D01*
Y99565D01*
X22449Y99099D01*
X22216Y98807D01*
X21749Y98690D01*
X21282Y98807D01*
X20991Y99157D01*
X20816Y99565D01*
Y101024D01*
G01Y99565D02*
X19124Y98690D01*
G01Y95557D02*
X22624D01*
X21924Y96257D01*
G01X19124D02*
Y94857D01*
G01X19532Y92249D02*
X19241Y91840D01*
X19124Y91374D01*
X19241Y90907D01*
X19591Y90499D01*
X20116Y90207D01*
X20641Y90090D01*
X21282D01*
X21807Y90207D01*
X22274Y90499D01*
X22507Y90849D01*
X22624Y91257D01*
X22507Y91724D01*
X22274Y92074D01*
X21924Y92307D01*
X21457Y92424D01*
X21049Y92307D01*
X20641Y92015D01*
X20407Y91665D01*
X20349Y91257D01*
X20466Y90790D01*
X20757Y90440D01*
X21282Y90090D01*
G01X26745Y89114D02*
Y84980D01*
G01X30311Y89114D02*
Y84980D01*
G01X28912Y105316D02*
X28562Y105491D01*
X28154Y105608D01*
X27687D01*
X27162Y105433D01*
X26754Y105141D01*
X26462Y104791D01*
X26229Y104208D01*
X26171Y103683D01*
X26287Y103158D01*
X26462Y102808D01*
X26812Y102458D01*
X27221Y102225D01*
X27629Y102108D01*
X28037D01*
X28446Y102225D01*
X28796Y102400D01*
X29087Y102633D01*
G01X30821Y105025D02*
X31171Y105375D01*
X31579Y105550D01*
X32046Y105608D01*
X32629Y105491D01*
X33037Y105200D01*
X33154Y104850D01*
X33096Y104500D01*
X32862Y104208D01*
X31696Y103625D01*
X31171Y103216D01*
X30821Y102633D01*
X30704Y102108D01*
X33154D01*
G01X34946Y102633D02*
X35296Y102341D01*
X35704Y102166D01*
X36229Y102108D01*
X36754Y102225D01*
X37162Y102458D01*
X37454Y102866D01*
X37512Y103333D01*
X37396Y103800D01*
X37104Y104091D01*
X36696Y104325D01*
X36287Y104383D01*
X35879Y104325D01*
X35354Y104091D01*
X35529Y105608D01*
X37104D01*
G01X32026Y106778D02*
X31226D01*
G01Y109078D02*
X32026D01*
G01X50693Y119843D02*
Y104307D01*
X38307D01*
Y119843D01*
X50693D01*
G01X32367Y122096D02*
X32315Y122148D01*
X30910D01*
G01X26345Y120479D02*
Y123979D01*
X25645Y123279D01*
G01Y120479D02*
X27045D01*
G01X25187Y128408D02*
X20187D01*
Y139808D01*
X25187D01*
G01X36587D02*
X41587D01*
Y128408D01*
X36587D01*
G01X32898Y115794D02*
Y119928D01*
G01X29332Y115794D02*
Y119928D01*
G01X36150Y118806D02*
Y118006D01*
G01X33850D02*
Y118806D01*
G01X38513Y121589D02*
Y125089D01*
X37813Y124389D01*
G01Y121589D02*
X39213D01*
G01X26499Y143849D02*
X26791Y143499D01*
X27141Y143266D01*
X27549Y143149D01*
X28016Y143266D01*
X28366Y143499D01*
X28716Y143849D01*
X28833Y144316D01*
Y146649D01*
G01X30683Y143849D02*
X31033Y143441D01*
X31499Y143207D01*
X32024Y143149D01*
X32491Y143207D01*
X32958Y143499D01*
X33249Y143849D01*
X33308Y144199D01*
X33191Y144607D01*
X32783Y144899D01*
X32374Y145016D01*
X31849D01*
G01X32374D02*
X32724Y145191D01*
X33016Y145482D01*
X33133Y145832D01*
X33016Y146182D01*
X32724Y146474D01*
X32199Y146649D01*
X31674Y146591D01*
X31149Y146357D01*
G01X38080Y148705D02*
X20880D01*
G01X14780Y154805D02*
Y172005D01*
G01X36323Y141804D02*
Y145304D01*
X35623Y144604D01*
G01Y141804D02*
X37023D01*
G01X20880Y178105D02*
X38080D01*
G01X62895Y-65427D02*
X63070Y-65077D01*
X63187Y-64669D01*
Y-64202D01*
X63012Y-63677D01*
X62720Y-63269D01*
X62370Y-62977D01*
X61787Y-62744D01*
X61262Y-62686D01*
X60737Y-62802D01*
X60387Y-62977D01*
X60037Y-63327D01*
X59804Y-63736D01*
X59687Y-64144D01*
Y-64552D01*
X59804Y-64961D01*
X59979Y-65311D01*
X60212Y-65602D01*
G01X59687Y-69144D02*
X63187D01*
X60679Y-66986D01*
Y-69902D01*
G01X63187Y-72744D02*
X63070Y-72277D01*
X62779Y-71927D01*
X62429Y-71694D01*
X61962Y-71519D01*
X61437Y-71461D01*
X60912Y-71519D01*
X60445Y-71694D01*
X60095Y-71927D01*
X59804Y-72277D01*
X59687Y-72744D01*
X59804Y-73211D01*
X60095Y-73561D01*
X60445Y-73794D01*
X60912Y-73969D01*
X61437Y-74027D01*
X61962Y-73969D01*
X62429Y-73794D01*
X62779Y-73561D01*
X63070Y-73211D01*
X63187Y-72744D01*
G01X52751Y-62519D02*
X56251D01*
Y-63978D01*
X56076Y-64444D01*
X55843Y-64736D01*
X55376Y-64853D01*
X54909Y-64736D01*
X54618Y-64386D01*
X54443Y-63978D01*
Y-62519D01*
G01Y-63978D02*
X52751Y-64853D01*
G01Y-67986D02*
X56251D01*
X55551Y-67286D01*
G01X52751D02*
Y-68686D01*
G01X54209Y-71178D02*
X54618Y-71586D01*
X54851Y-71936D01*
X54968Y-72403D01*
X54851Y-72811D01*
X54618Y-73103D01*
X54268Y-73336D01*
X53859Y-73394D01*
X53509Y-73336D01*
X53159Y-73103D01*
X52868Y-72753D01*
X52751Y-72344D01*
X52868Y-71878D01*
X53218Y-71469D01*
X53743Y-71236D01*
X54326Y-71178D01*
X55084Y-71294D01*
X55493Y-71469D01*
X55901Y-71761D01*
X56193Y-72169D01*
X56251Y-72578D01*
X56134Y-72986D01*
X55843Y-73278D01*
G01X48148Y-62290D02*
X51648D01*
Y-63749D01*
X51473Y-64215D01*
X51240Y-64507D01*
X50773Y-64624D01*
X50306Y-64507D01*
X50015Y-64157D01*
X49840Y-63749D01*
Y-62290D01*
G01Y-63749D02*
X48148Y-64624D01*
G01Y-67757D02*
X51648D01*
X50948Y-67057D01*
G01X48148D02*
Y-68457D01*
G01Y-71940D02*
X48906Y-72057D01*
X49548Y-72232D01*
X50131Y-72465D01*
X50773Y-72757D01*
X51648Y-73224D01*
Y-70890D01*
G01X63635Y-56470D02*
X58635D01*
Y-57470D01*
X63635D01*
Y-56470D01*
G01X71849Y-56876D02*
Y-58776D01*
X66849D01*
Y-56876D01*
X71849D01*
G01X44843Y-47480D02*
Y-49725D01*
X47048D01*
G01X63803D02*
X65929D01*
Y-47717D01*
G01X48883Y-18388D02*
Y-20896D01*
X49116Y-21421D01*
X49583Y-21771D01*
X50166Y-21888D01*
X50749Y-21771D01*
X51216Y-21421D01*
X51449Y-20896D01*
Y-18388D01*
G01X53183Y-21188D02*
X53533Y-21596D01*
X53999Y-21830D01*
X54524Y-21888D01*
X54991Y-21830D01*
X55458Y-21538D01*
X55749Y-21188D01*
X55808Y-20838D01*
X55691Y-20430D01*
X55283Y-20138D01*
X54874Y-20021D01*
X54349D01*
G01X54874D02*
X55224Y-19846D01*
X55516Y-19555D01*
X55633Y-19205D01*
X55516Y-18855D01*
X55224Y-18563D01*
X54699Y-18388D01*
X54174Y-18446D01*
X53649Y-18680D01*
G01X67664Y-29789D02*
Y-26289D01*
X66964Y-26989D01*
G01Y-29789D02*
X68364D01*
G01X42552Y-44611D02*
Y-45411D01*
G01X47009Y-28639D02*
X44843D01*
G01X65937Y-31347D02*
X65936Y-31139D01*
X63412Y-28631D01*
X63299D01*
G01X44843Y-28639D02*
Y-30805D01*
G01X63242Y-20206D02*
Y-16706D01*
X64701D01*
X65167Y-16881D01*
X65459Y-17114D01*
X65576Y-17581D01*
X65459Y-18048D01*
X65109Y-18339D01*
X64701Y-18514D01*
X63242D01*
G01X64701D02*
X65576Y-20206D01*
G01X68709D02*
Y-16706D01*
X68009Y-17406D01*
G01Y-20206D02*
X69409D01*
G01X71726Y-19681D02*
X72076Y-19973D01*
X72484Y-20148D01*
X73009Y-20206D01*
X73534Y-20089D01*
X73942Y-19856D01*
X74234Y-19448D01*
X74292Y-18981D01*
X74176Y-18514D01*
X73884Y-18223D01*
X73476Y-17989D01*
X73067Y-17931D01*
X72659Y-17989D01*
X72134Y-18223D01*
X72309Y-16706D01*
X73884D01*
G01X52662Y17319D02*
Y23619D01*
X54699Y18369D01*
X56736Y23619D01*
Y17319D01*
G01X59432D02*
Y23619D01*
X61391D01*
X62017Y23304D01*
X62409Y22884D01*
X62566Y22044D01*
X62409Y21204D01*
X61939Y20679D01*
X61391Y20364D01*
X59432D01*
G01X61391D02*
X62566Y17319D01*
G01X67926Y20679D02*
X68239Y20994D01*
X68474Y21519D01*
X68631Y22254D01*
X68474Y22884D01*
X68161Y23304D01*
X67612Y23619D01*
X65497D01*
Y17319D01*
X68082D01*
X68631Y17739D01*
X68944Y18369D01*
X69101Y19104D01*
X68944Y19839D01*
X68474Y20469D01*
X67926Y20679D01*
X65497D01*
G01X72581Y19419D02*
X74617D01*
G01X78176Y17319D02*
Y23619D01*
G01X81152D02*
X78176Y19734D01*
G01X81622Y17319D02*
X79507Y21519D01*
G01X83849Y23619D02*
X84946Y17319D01*
X86199Y23619D01*
X87452Y17319D01*
X88549Y23619D01*
G01X92499D02*
X91872Y23409D01*
X91402Y22884D01*
X91089Y22254D01*
X90854Y21414D01*
X90776Y20469D01*
X90854Y19524D01*
X91089Y18684D01*
X91402Y18054D01*
X91872Y17529D01*
X92499Y17319D01*
X93126Y17529D01*
X93596Y18054D01*
X93909Y18684D01*
X94144Y19524D01*
X94222Y20469D01*
X94144Y21414D01*
X93909Y22254D01*
X93596Y22884D01*
X93126Y23409D01*
X92499Y23619D01*
G01X98799Y17319D02*
Y23619D01*
X97859Y22359D01*
G01Y17319D02*
X99739D01*
G01X103767Y18054D02*
X104316Y17529D01*
X104942Y17319D01*
X105569Y17529D01*
X106117Y18159D01*
X106509Y19104D01*
X106666Y20049D01*
Y21204D01*
X106509Y22149D01*
X106117Y22989D01*
X105647Y23409D01*
X105099Y23619D01*
X104472Y23409D01*
X104002Y22989D01*
X103689Y22359D01*
X103532Y21519D01*
X103689Y20784D01*
X104081Y20049D01*
X104551Y19629D01*
X105099Y19524D01*
X105726Y19734D01*
X106196Y20259D01*
X106666Y21204D01*
G01X111399Y23619D02*
X110772Y23409D01*
X110302Y22884D01*
X109989Y22254D01*
X109754Y21414D01*
X109676Y20469D01*
X109754Y19524D01*
X109989Y18684D01*
X110302Y18054D01*
X110772Y17529D01*
X111399Y17319D01*
X112026Y17529D01*
X112496Y18054D01*
X112809Y18684D01*
X113044Y19524D01*
X113122Y20469D01*
X113044Y21414D01*
X112809Y22254D01*
X112496Y22884D01*
X112026Y23409D01*
X111399Y23619D01*
G01X115976Y18579D02*
X116446Y17844D01*
X117072Y17424D01*
X117777Y17319D01*
X118404Y17424D01*
X119031Y17949D01*
X119422Y18579D01*
X119501Y19209D01*
X119344Y19944D01*
X118796Y20469D01*
X118247Y20679D01*
X117542D01*
G01X118247D02*
X118717Y20994D01*
X119109Y21519D01*
X119266Y22149D01*
X119109Y22779D01*
X118717Y23304D01*
X118012Y23619D01*
X117307Y23514D01*
X116602Y23094D01*
G01X122511Y22569D02*
X122981Y23199D01*
X123529Y23514D01*
X124156Y23619D01*
X124939Y23409D01*
X125487Y22884D01*
X125644Y22254D01*
X125566Y21624D01*
X125252Y21099D01*
X123686Y20049D01*
X122981Y19314D01*
X122511Y18264D01*
X122354Y17319D01*
X125644D01*
G01X47542Y10700D02*
Y14200D01*
X49059Y11283D01*
X50576Y14200D01*
Y10700D01*
G01X53359D02*
X52892Y10758D01*
X52484Y10992D01*
X52134Y11342D01*
X51901Y11750D01*
X51784Y12217D01*
Y12683D01*
X51901Y13150D01*
X52134Y13558D01*
X52484Y13908D01*
X52892Y14142D01*
X53359Y14200D01*
X53826Y14142D01*
X54234Y13908D01*
X54584Y13558D01*
X54817Y13150D01*
X54934Y12683D01*
Y12217D01*
X54817Y11750D01*
X54584Y11342D01*
X54234Y10992D01*
X53826Y10758D01*
X53359Y10700D01*
G01X57659Y14200D02*
Y10700D01*
G01X56317Y14200D02*
X59001D01*
G01X60734Y10700D02*
Y14200D01*
G01X63184D02*
Y10700D01*
G01Y12450D02*
X60734D01*
G01X67426Y10700D02*
X65092D01*
Y14200D01*
X67426D01*
G01X66492Y12508D02*
X65092D01*
G01X69392Y10700D02*
Y14200D01*
X70851D01*
X71317Y14025D01*
X71609Y13792D01*
X71726Y13325D01*
X71609Y12858D01*
X71259Y12567D01*
X70851Y12392D01*
X69392D01*
G01X70851D02*
X71726Y10700D01*
G01X73109Y9533D02*
X76609D01*
G01X79626Y12567D02*
X79859Y12742D01*
X80034Y13033D01*
X80151Y13442D01*
X80034Y13792D01*
X79801Y14025D01*
X79392Y14200D01*
X77817D01*
Y10700D01*
X79742D01*
X80151Y10933D01*
X80384Y11283D01*
X80501Y11692D01*
X80384Y12100D01*
X80034Y12450D01*
X79626Y12567D01*
X77817D01*
G01X82292Y10700D02*
Y14200D01*
X83751D01*
X84217Y14025D01*
X84509Y13792D01*
X84626Y13325D01*
X84509Y12858D01*
X84159Y12567D01*
X83751Y12392D01*
X82292D01*
G01X83751D02*
X84626Y10700D01*
G01X86476D02*
Y14200D01*
X87642D01*
X88109Y14025D01*
X88459Y13792D01*
X88751Y13442D01*
X88984Y13033D01*
X89042Y12450D01*
X88984Y11867D01*
X88751Y11458D01*
X88459Y11108D01*
X88109Y10875D01*
X87642Y10700D01*
X86476D01*
G01X90309Y9533D02*
X93809D01*
G01X97642Y13908D02*
X97292Y14083D01*
X96884Y14200D01*
X96417D01*
X95892Y14025D01*
X95484Y13733D01*
X95192Y13383D01*
X94959Y12800D01*
X94901Y12275D01*
X95017Y11750D01*
X95192Y11400D01*
X95542Y11050D01*
X95951Y10817D01*
X96359Y10700D01*
X96767D01*
X97176Y10817D01*
X97526Y10992D01*
X97817Y11225D01*
G01X100659Y10700D02*
X100192Y10758D01*
X99784Y10992D01*
X99434Y11342D01*
X99201Y11750D01*
X99084Y12217D01*
Y12683D01*
X99201Y13150D01*
X99434Y13558D01*
X99784Y13908D01*
X100192Y14142D01*
X100659Y14200D01*
X101126Y14142D01*
X101534Y13908D01*
X101884Y13558D01*
X102117Y13150D01*
X102234Y12683D01*
Y12217D01*
X102117Y11750D01*
X101884Y11342D01*
X101534Y10992D01*
X101126Y10758D01*
X100659Y10700D01*
G01X103617D02*
Y14200D01*
X106301Y10700D01*
Y14200D01*
G01X107917Y10700D02*
Y14200D01*
X110601Y10700D01*
Y14200D01*
G01X41971Y45700D02*
Y49200D01*
X43488Y46283D01*
X45005Y49200D01*
Y45700D01*
G01X47788D02*
X47321Y45758D01*
X46913Y45992D01*
X46563Y46342D01*
X46330Y46750D01*
X46213Y47217D01*
Y47683D01*
X46330Y48150D01*
X46563Y48558D01*
X46913Y48908D01*
X47321Y49142D01*
X47788Y49200D01*
X48255Y49142D01*
X48663Y48908D01*
X49013Y48558D01*
X49246Y48150D01*
X49363Y47683D01*
Y47217D01*
X49246Y46750D01*
X49013Y46342D01*
X48663Y45992D01*
X48255Y45758D01*
X47788Y45700D01*
G01X52088Y49200D02*
Y45700D01*
G01X50746Y49200D02*
X53430D01*
G01X55163Y45700D02*
Y49200D01*
G01X57613D02*
Y45700D01*
G01Y47450D02*
X55163D01*
G01X61855Y45700D02*
X59521D01*
Y49200D01*
X61855D01*
G01X60921Y47508D02*
X59521D01*
G01X63821Y45700D02*
Y49200D01*
X65280D01*
X65746Y49025D01*
X66038Y48792D01*
X66155Y48325D01*
X66038Y47858D01*
X65688Y47567D01*
X65280Y47392D01*
X63821D01*
G01X65280D02*
X66155Y45700D01*
G01X67538Y44533D02*
X71038D01*
G01X74055Y47567D02*
X74288Y47742D01*
X74463Y48033D01*
X74580Y48442D01*
X74463Y48792D01*
X74230Y49025D01*
X73821Y49200D01*
X72246D01*
Y45700D01*
X74171D01*
X74580Y45933D01*
X74813Y46283D01*
X74930Y46692D01*
X74813Y47100D01*
X74463Y47450D01*
X74055Y47567D01*
X72246D01*
G01X76721Y45700D02*
Y49200D01*
X78180D01*
X78646Y49025D01*
X78938Y48792D01*
X79055Y48325D01*
X78938Y47858D01*
X78588Y47567D01*
X78180Y47392D01*
X76721D01*
G01X78180D02*
X79055Y45700D01*
G01X80905D02*
Y49200D01*
X82071D01*
X82538Y49025D01*
X82888Y48792D01*
X83180Y48442D01*
X83413Y48033D01*
X83471Y47450D01*
X83413Y46867D01*
X83180Y46458D01*
X82888Y46108D01*
X82538Y45875D01*
X82071Y45700D01*
X80905D01*
G01X84738Y44533D02*
X88238D01*
G01X92071Y48908D02*
X91721Y49083D01*
X91313Y49200D01*
X90846D01*
X90321Y49025D01*
X89913Y48733D01*
X89621Y48383D01*
X89388Y47800D01*
X89330Y47275D01*
X89446Y46750D01*
X89621Y46400D01*
X89971Y46050D01*
X90380Y45817D01*
X90788Y45700D01*
X91196D01*
X91605Y45817D01*
X91955Y45992D01*
X92246Y46225D01*
G01X95088Y45700D02*
X94621Y45758D01*
X94213Y45992D01*
X93863Y46342D01*
X93630Y46750D01*
X93513Y47217D01*
Y47683D01*
X93630Y48150D01*
X93863Y48558D01*
X94213Y48908D01*
X94621Y49142D01*
X95088Y49200D01*
X95555Y49142D01*
X95963Y48908D01*
X96313Y48558D01*
X96546Y48150D01*
X96663Y47683D01*
Y47217D01*
X96546Y46750D01*
X96313Y46342D01*
X95963Y45992D01*
X95555Y45758D01*
X95088Y45700D01*
G01X98046D02*
Y49200D01*
X100730Y45700D01*
Y49200D01*
G01X102346Y45700D02*
Y49200D01*
X105030Y45700D01*
Y49200D01*
G01X45533Y52733D02*
X45825Y52383D01*
X46175Y52150D01*
X46583Y52033D01*
X47050Y52150D01*
X47400Y52383D01*
X47750Y52733D01*
X47867Y53200D01*
Y55533D01*
G01X51000Y52033D02*
Y55533D01*
X50300Y54833D01*
G01Y52033D02*
X51700D01*
G01X55300Y55533D02*
X54833Y55416D01*
X54483Y55125D01*
X54250Y54775D01*
X54075Y54308D01*
X54017Y53783D01*
X54075Y53258D01*
X54250Y52791D01*
X54483Y52441D01*
X54833Y52150D01*
X55300Y52033D01*
X55767Y52150D01*
X56117Y52441D01*
X56350Y52791D01*
X56525Y53258D01*
X56583Y53783D01*
X56525Y54308D01*
X56350Y54775D01*
X56117Y55125D01*
X55767Y55416D01*
X55300Y55533D01*
G01X58933Y60633D02*
Y64133D01*
X60392D01*
X60858Y63958D01*
X61150Y63725D01*
X61267Y63258D01*
X61150Y62791D01*
X60800Y62500D01*
X60392Y62325D01*
X58933D01*
G01X60392D02*
X61267Y60633D01*
G01X64400D02*
Y64133D01*
X63700Y63433D01*
G01Y60633D02*
X65100D01*
G01X68700Y64133D02*
X68233Y64016D01*
X67883Y63725D01*
X67650Y63375D01*
X67475Y62908D01*
X67417Y62383D01*
X67475Y61858D01*
X67650Y61391D01*
X67883Y61041D01*
X68233Y60750D01*
X68700Y60633D01*
X69167Y60750D01*
X69517Y61041D01*
X69750Y61391D01*
X69925Y61858D01*
X69983Y62383D01*
X69925Y62908D01*
X69750Y63375D01*
X69517Y63725D01*
X69167Y64016D01*
X68700Y64133D01*
G01X66342Y67567D02*
G03I-500J0D01*
G01X49600Y79633D02*
Y83133D01*
X48900Y82433D01*
G01Y79633D02*
X50300D01*
G01X56559Y62086D02*
Y57086D01*
X45159D01*
Y62086D01*
G01Y73486D02*
Y78486D01*
X56559D01*
Y73486D01*
G01X61383Y78241D02*
X61033Y78416D01*
X60625Y78533D01*
X60158D01*
X59633Y78358D01*
X59225Y78066D01*
X58933Y77716D01*
X58700Y77133D01*
X58642Y76608D01*
X58758Y76083D01*
X58933Y75733D01*
X59283Y75383D01*
X59692Y75150D01*
X60100Y75033D01*
X60508D01*
X60917Y75150D01*
X61267Y75325D01*
X61558Y75558D01*
G01X63117Y75733D02*
X63467Y75325D01*
X63933Y75091D01*
X64458Y75033D01*
X64925Y75091D01*
X65392Y75383D01*
X65683Y75733D01*
X65742Y76083D01*
X65625Y76491D01*
X65217Y76783D01*
X64808Y76900D01*
X64283D01*
G01X64808D02*
X65158Y77075D01*
X65450Y77366D01*
X65567Y77716D01*
X65450Y78066D01*
X65158Y78358D01*
X64633Y78533D01*
X64108Y78475D01*
X63583Y78241D01*
G01X69400Y75033D02*
Y78533D01*
X67242Y76025D01*
X70158D01*
G01X66437Y73850D02*
X67237D01*
G01Y71550D02*
X66437D01*
G01X55183Y86441D02*
X54833Y86616D01*
X54425Y86733D01*
X53958D01*
X53433Y86558D01*
X53025Y86266D01*
X52733Y85916D01*
X52500Y85333D01*
X52442Y84808D01*
X52558Y84283D01*
X52733Y83933D01*
X53083Y83583D01*
X53492Y83350D01*
X53900Y83233D01*
X54308D01*
X54717Y83350D01*
X55067Y83525D01*
X55358Y83758D01*
G01X56917Y83933D02*
X57267Y83525D01*
X57733Y83291D01*
X58258Y83233D01*
X58725Y83291D01*
X59192Y83583D01*
X59483Y83933D01*
X59542Y84283D01*
X59425Y84691D01*
X59017Y84983D01*
X58608Y85100D01*
X58083D01*
G01X58608D02*
X58958Y85275D01*
X59250Y85566D01*
X59367Y85916D01*
X59250Y86266D01*
X58958Y86558D01*
X58433Y86733D01*
X57908Y86675D01*
X57383Y86441D01*
G01X61217Y83933D02*
X61567Y83525D01*
X62033Y83291D01*
X62558Y83233D01*
X63025Y83291D01*
X63492Y83583D01*
X63783Y83933D01*
X63842Y84283D01*
X63725Y84691D01*
X63317Y84983D01*
X62908Y85100D01*
X62383D01*
G01X62908D02*
X63258Y85275D01*
X63550Y85566D01*
X63667Y85916D01*
X63550Y86266D01*
X63258Y86558D01*
X62733Y86733D01*
X62208Y86675D01*
X61683Y86441D01*
G01X59200Y79874D02*
X58400D01*
G01Y82174D02*
X59200D01*
G01X51639Y111579D02*
Y121051D01*
X49783D01*
Y126107D01*
X63095D01*
Y107003D01*
X51639D01*
Y111579D01*
G01X57789Y109479D02*
G03I-500J0D01*
G01X45093Y90744D02*
X48593D01*
Y89285D01*
X48418Y88819D01*
X48185Y88527D01*
X47718Y88410D01*
X47251Y88527D01*
X46960Y88877D01*
X46785Y89285D01*
Y90744D01*
G01Y89285D02*
X45093Y88410D01*
G01X46551Y86385D02*
X46960Y85977D01*
X47193Y85627D01*
X47310Y85160D01*
X47193Y84752D01*
X46960Y84460D01*
X46610Y84227D01*
X46201Y84169D01*
X45851Y84227D01*
X45501Y84460D01*
X45210Y84810D01*
X45093Y85219D01*
X45210Y85685D01*
X45560Y86094D01*
X46085Y86327D01*
X46668Y86385D01*
X47426Y86269D01*
X47835Y86094D01*
X48243Y85802D01*
X48535Y85394D01*
X48593Y84985D01*
X48476Y84577D01*
X48185Y84285D01*
G01X52196Y98973D02*
X51846Y99148D01*
X51438Y99265D01*
X50971D01*
X50446Y99090D01*
X50038Y98798D01*
X49746Y98448D01*
X49513Y97865D01*
X49455Y97340D01*
X49571Y96815D01*
X49746Y96465D01*
X50096Y96115D01*
X50505Y95882D01*
X50913Y95765D01*
X51321D01*
X51730Y95882D01*
X52080Y96057D01*
X52371Y96290D01*
G01X53930Y96465D02*
X54280Y96057D01*
X54746Y95823D01*
X55271Y95765D01*
X55738Y95823D01*
X56205Y96115D01*
X56496Y96465D01*
X56555Y96815D01*
X56438Y97223D01*
X56030Y97515D01*
X55621Y97632D01*
X55096D01*
G01X55621D02*
X55971Y97807D01*
X56263Y98098D01*
X56380Y98448D01*
X56263Y98798D01*
X55971Y99090D01*
X55446Y99265D01*
X54921Y99207D01*
X54396Y98973D01*
G01X59513Y99265D02*
X59046Y99148D01*
X58696Y98857D01*
X58463Y98507D01*
X58288Y98040D01*
X58230Y97515D01*
X58288Y96990D01*
X58463Y96523D01*
X58696Y96173D01*
X59046Y95882D01*
X59513Y95765D01*
X59980Y95882D01*
X60330Y96173D01*
X60563Y96523D01*
X60738Y96990D01*
X60796Y97515D01*
X60738Y98040D01*
X60563Y98507D01*
X60330Y98857D01*
X59980Y99148D01*
X59513Y99265D01*
G01X59046Y94578D02*
X59846D01*
G01Y92278D02*
X59046D01*
G01X49900Y145100D02*
Y127700D01*
X71300D01*
Y133600D01*
X71200Y133700D01*
X62700D01*
Y143300D01*
X60800Y145200D01*
X50000D01*
X49900Y145100D01*
G01X68187Y141626D02*
X64687D01*
Y139292D01*
G01X65095Y137151D02*
X64804Y136742D01*
X64687Y136276D01*
X64804Y135809D01*
X65154Y135401D01*
X65679Y135109D01*
X66204Y134992D01*
X66845D01*
X67370Y135109D01*
X67837Y135401D01*
X68070Y135751D01*
X68187Y136159D01*
X68070Y136626D01*
X67837Y136976D01*
X67487Y137209D01*
X67020Y137326D01*
X66612Y137209D01*
X66204Y136917D01*
X65970Y136567D01*
X65912Y136159D01*
X66029Y135692D01*
X66320Y135342D01*
X66845Y134992D01*
G01X66315Y133627D02*
X66347D01*
Y127899D01*
G01X57385Y133292D02*
X61519D01*
G01X55367D02*
X51233D01*
G01X58567Y128792D02*
X54433D01*
G01X58567Y132358D02*
X54433D01*
G01X61433D02*
X65567D01*
G01X61433Y128792D02*
X65567D01*
G01X52746Y123767D02*
X52979Y123942D01*
X53154Y124233D01*
X53271Y124642D01*
X53154Y124992D01*
X52921Y125225D01*
X52512Y125400D01*
X50937D01*
Y121900D01*
X52862D01*
X53271Y122133D01*
X53504Y122483D01*
X53621Y122892D01*
X53504Y123300D01*
X53154Y123650D01*
X52746Y123767D01*
X50937D01*
G01X49783Y121051D02*
X54839D01*
Y126107D01*
G01X58675Y124725D02*
X59475D01*
G01Y122425D02*
X58675D01*
G01Y116725D02*
X59475D01*
G01Y114425D02*
X58675D01*
G01Y120725D02*
X59475D01*
G01Y118425D02*
X58675D01*
G01X43148Y121073D02*
Y122648D01*
X41981Y124573D01*
G01X44315D02*
X43148Y122648D01*
G01X47448Y121073D02*
Y124573D01*
X46748Y123873D01*
G01Y121073D02*
X48148D01*
G01X67200Y143700D02*
X66300Y142800D01*
G01X44600Y146100D02*
X62100D01*
X64500Y143700D01*
X67200D01*
Y143800D01*
X66200Y144800D01*
G01X46278Y150026D02*
X45928Y150201D01*
X45520Y150318D01*
X45053D01*
X44528Y150143D01*
X44120Y149851D01*
X43828Y149501D01*
X43595Y148918D01*
X43537Y148393D01*
X43653Y147868D01*
X43828Y147518D01*
X44178Y147168D01*
X44587Y146935D01*
X44995Y146818D01*
X45403D01*
X45812Y146935D01*
X46162Y147110D01*
X46453Y147343D01*
G01X49295Y146818D02*
Y150318D01*
X48595Y149618D01*
G01Y146818D02*
X49995D01*
G01X52487Y149735D02*
X52837Y150085D01*
X53245Y150260D01*
X53712Y150318D01*
X54295Y150201D01*
X54703Y149910D01*
X54820Y149560D01*
X54762Y149210D01*
X54528Y148918D01*
X53362Y148335D01*
X52837Y147926D01*
X52487Y147343D01*
X52370Y146818D01*
X54820D01*
G01X46797Y156496D02*
X47147Y156204D01*
X47555Y156029D01*
X48080Y155971D01*
X48605Y156088D01*
X49013Y156321D01*
X49305Y156729D01*
X49363Y157196D01*
X49247Y157663D01*
X48955Y157954D01*
X48547Y158188D01*
X48138Y158246D01*
X47730Y158188D01*
X47205Y157954D01*
X47380Y159471D01*
X48955D01*
G01X58895Y154743D02*
X58545Y154918D01*
X58137Y155035D01*
X57670D01*
X57145Y154860D01*
X56737Y154568D01*
X56445Y154218D01*
X56212Y153635D01*
X56154Y153110D01*
X56270Y152585D01*
X56445Y152235D01*
X56795Y151885D01*
X57204Y151652D01*
X57612Y151535D01*
X58020D01*
X58429Y151652D01*
X58779Y151827D01*
X59070Y152060D01*
G01X62612Y151535D02*
Y155035D01*
X60454Y152527D01*
X63370D01*
G01X64929Y152060D02*
X65279Y151768D01*
X65687Y151593D01*
X66212Y151535D01*
X66737Y151652D01*
X67145Y151885D01*
X67437Y152293D01*
X67495Y152760D01*
X67379Y153227D01*
X67087Y153518D01*
X66679Y153752D01*
X66270Y153810D01*
X65862Y153752D01*
X65337Y153518D01*
X65512Y155035D01*
X67087D01*
G01X60890Y159735D02*
X60540Y159910D01*
X60132Y160027D01*
X59665D01*
X59140Y159852D01*
X58732Y159560D01*
X58440Y159210D01*
X58207Y158627D01*
X58149Y158102D01*
X58265Y157577D01*
X58440Y157227D01*
X58790Y156877D01*
X59199Y156644D01*
X59607Y156527D01*
X60015D01*
X60424Y156644D01*
X60774Y156819D01*
X61065Y157052D01*
G01X63907Y156527D02*
X64315Y156585D01*
X64782Y156760D01*
X65074Y157052D01*
X65190Y157460D01*
X65074Y157869D01*
X64724Y158219D01*
X64199Y158394D01*
X63615D01*
X63265Y158510D01*
X62974Y158802D01*
X62857Y159210D01*
X63032Y159619D01*
X63440Y159910D01*
X63907Y160027D01*
X64374Y159910D01*
X64782Y159619D01*
X64957Y159210D01*
X64840Y158802D01*
X64549Y158510D01*
X64199Y158394D01*
X63615D01*
X63090Y158219D01*
X62740Y157869D01*
X62624Y157460D01*
X62740Y157052D01*
X63032Y156760D01*
X63499Y156585D01*
X63907Y156527D01*
G01X61219Y150098D02*
X60869Y150273D01*
X60461Y150390D01*
X59994D01*
X59469Y150215D01*
X59061Y149923D01*
X58769Y149573D01*
X58536Y148990D01*
X58478Y148465D01*
X58594Y147940D01*
X58769Y147590D01*
X59119Y147240D01*
X59528Y147007D01*
X59936Y146890D01*
X60344D01*
X60753Y147007D01*
X61103Y147182D01*
X61394Y147415D01*
G01X64236Y146890D02*
Y150390D01*
X63536Y149690D01*
G01Y146890D02*
X64936D01*
G01X68536Y150390D02*
X68069Y150273D01*
X67719Y149982D01*
X67486Y149632D01*
X67311Y149165D01*
X67253Y148640D01*
X67311Y148115D01*
X67486Y147648D01*
X67719Y147298D01*
X68069Y147007D01*
X68536Y146890D01*
X69003Y147007D01*
X69353Y147298D01*
X69586Y147648D01*
X69761Y148115D01*
X69819Y148640D01*
X69761Y149165D01*
X69586Y149632D01*
X69353Y149982D01*
X69003Y150273D01*
X68536Y150390D01*
G01X54185Y144334D02*
X58319D01*
G01X54185Y140768D02*
X58319D01*
G01X57385Y136858D02*
X61519D01*
G01X55367D02*
X51233D01*
G01X55367Y137292D02*
X51233D01*
G01X55367Y140858D02*
X51233D01*
G01X44180Y172005D02*
Y154805D01*
G01X66465Y160642D02*
Y156508D01*
G01X47300Y170633D02*
Y174133D01*
X45142Y171625D01*
X48058D01*
G01X50506Y181171D02*
X50798Y180821D01*
X51148Y180588D01*
X51556Y180471D01*
X52023Y180588D01*
X52373Y180821D01*
X52723Y181171D01*
X52840Y181638D01*
Y183971D01*
G01X55973Y180471D02*
Y183971D01*
X55273Y183271D01*
G01Y180471D02*
X56673D01*
G01X65594Y178739D02*
X65244Y178914D01*
X64836Y179031D01*
X64369D01*
X63844Y178856D01*
X63436Y178564D01*
X63144Y178214D01*
X62911Y177631D01*
X62853Y177106D01*
X62969Y176581D01*
X63144Y176231D01*
X63494Y175881D01*
X63903Y175648D01*
X64311Y175531D01*
X64719D01*
X65128Y175648D01*
X65478Y175823D01*
X65769Y176056D01*
G01X68611Y175531D02*
Y179031D01*
X67911Y178331D01*
G01Y175531D02*
X69311D01*
G01X64705Y165501D02*
X68839D01*
G01X64705Y169067D02*
X68839D01*
G01X61641Y173267D02*
X61816Y173617D01*
X61933Y174025D01*
Y174492D01*
X61758Y175017D01*
X61466Y175425D01*
X61116Y175717D01*
X60533Y175950D01*
X60008Y176008D01*
X59483Y175892D01*
X59133Y175717D01*
X58783Y175367D01*
X58550Y174958D01*
X58433Y174550D01*
Y174142D01*
X58550Y173733D01*
X58725Y173383D01*
X58958Y173092D01*
G01X61350Y171358D02*
X61700Y171008D01*
X61875Y170600D01*
X61933Y170133D01*
X61816Y169550D01*
X61525Y169142D01*
X61175Y169025D01*
X60825Y169083D01*
X60533Y169317D01*
X59950Y170483D01*
X59541Y171008D01*
X58958Y171358D01*
X58433Y171475D01*
Y169025D01*
G01X61783Y162814D02*
Y166948D01*
G01X58217Y162814D02*
Y166948D01*
G01X51333Y170041D02*
X50983Y170216D01*
X50575Y170333D01*
X50108D01*
X49583Y170158D01*
X49175Y169866D01*
X48883Y169516D01*
X48650Y168933D01*
X48592Y168408D01*
X48708Y167883D01*
X48883Y167533D01*
X49233Y167183D01*
X49642Y166950D01*
X50050Y166833D01*
X50458D01*
X50867Y166950D01*
X51217Y167125D01*
X51508Y167358D01*
G01X53067D02*
X53417Y167066D01*
X53825Y166891D01*
X54350Y166833D01*
X54875Y166950D01*
X55283Y167183D01*
X55575Y167591D01*
X55633Y168058D01*
X55517Y168525D01*
X55225Y168816D01*
X54817Y169050D01*
X54408Y169108D01*
X54000Y169050D01*
X53475Y168816D01*
X53650Y170333D01*
X55225D01*
G01X55067Y165188D02*
X50933D01*
G01X55067Y161622D02*
X50933D01*
G01X63604Y174046D02*
Y170546D01*
X65938D01*
G01X69071D02*
Y174046D01*
X68371Y173346D01*
G01Y170546D02*
X69771D01*
G01X68839Y165188D02*
X64705D01*
G01X68839Y161622D02*
X64705D01*
G01X72825Y-247425D02*
Y-243425D01*
X72125Y-244225D01*
G01Y-247425D02*
X73525D01*
G01X77625Y-243425D02*
X77158Y-243558D01*
X76808Y-243892D01*
X76575Y-244292D01*
X76400Y-244825D01*
X76342Y-245425D01*
X76400Y-246025D01*
X76575Y-246558D01*
X76808Y-246958D01*
X77158Y-247292D01*
X77625Y-247425D01*
X78092Y-247292D01*
X78442Y-246958D01*
X78675Y-246558D01*
X78850Y-246025D01*
X78908Y-245425D01*
X78850Y-244825D01*
X78675Y-244292D01*
X78442Y-243892D01*
X78092Y-243558D01*
X77625Y-243425D01*
G01X81667Y-246092D02*
X83183D01*
G01X86117Y-244092D02*
X86467Y-243692D01*
X86875Y-243492D01*
X87342Y-243425D01*
X87925Y-243558D01*
X88333Y-243892D01*
X88450Y-244292D01*
X88392Y-244692D01*
X88158Y-245025D01*
X86992Y-245692D01*
X86467Y-246158D01*
X86117Y-246825D01*
X86000Y-247425D01*
X88450D01*
G01X90917Y-244092D02*
X91267Y-243692D01*
X91675Y-243492D01*
X92142Y-243425D01*
X92725Y-243558D01*
X93133Y-243892D01*
X93250Y-244292D01*
X93192Y-244692D01*
X92958Y-245025D01*
X91792Y-245692D01*
X91267Y-246158D01*
X90917Y-246825D01*
X90800Y-247425D01*
X93250D01*
G01X96067Y-246092D02*
X97583D01*
G01X101625Y-247425D02*
Y-243425D01*
X100925Y-244225D01*
G01Y-247425D02*
X102325D01*
G01X105142Y-246625D02*
X105492Y-247092D01*
X105958Y-247358D01*
X106483Y-247425D01*
X106950Y-247358D01*
X107417Y-247025D01*
X107708Y-246625D01*
X107767Y-246225D01*
X107650Y-245758D01*
X107242Y-245425D01*
X106833Y-245292D01*
X106308D01*
G01X106833D02*
X107183Y-245092D01*
X107475Y-244758D01*
X107592Y-244358D01*
X107475Y-243958D01*
X107183Y-243625D01*
X106658Y-243425D01*
X106133Y-243492D01*
X105608Y-243758D01*
G01X69542Y-239425D02*
Y-235425D01*
X70708D01*
X71175Y-235625D01*
X71525Y-235892D01*
X71817Y-236292D01*
X72050Y-236758D01*
X72108Y-237425D01*
X72050Y-238092D01*
X71817Y-238558D01*
X71525Y-238958D01*
X71175Y-239225D01*
X70708Y-239425D01*
X69542D01*
G01X74167D02*
X75625Y-235425D01*
X77083Y-239425D01*
G01X76558Y-238025D02*
X74692D01*
G01X80425Y-235425D02*
Y-239425D01*
G01X79083Y-235425D02*
X81767D01*
G01X86392Y-239425D02*
X84058D01*
Y-235425D01*
X86392D01*
G01X85458Y-237358D02*
X84058D01*
G01X83780Y-208425D02*
X87070Y-202125D01*
G01X83780D02*
X87070Y-208425D01*
G01X79075Y-225258D02*
X82575D01*
G01X83875D02*
X87375D01*
G01X88675D02*
X92175D01*
G01X98917Y-223925D02*
Y-219925D01*
X101133D01*
G01X100317Y-221858D02*
X98917D01*
G01X106108Y-220258D02*
X105758Y-220058D01*
X105350Y-219925D01*
X104883D01*
X104358Y-220125D01*
X103950Y-220458D01*
X103658Y-220858D01*
X103425Y-221525D01*
X103367Y-222125D01*
X103483Y-222725D01*
X103658Y-223125D01*
X104008Y-223525D01*
X104417Y-223792D01*
X104825Y-223925D01*
X105233D01*
X105642Y-223792D01*
X105992Y-223592D01*
X106283Y-223325D01*
G01X108458Y-223925D02*
Y-219925D01*
X109858D01*
X110325Y-220125D01*
X110675Y-220592D01*
X110792Y-221125D01*
X110675Y-221658D01*
X110383Y-222058D01*
X109858Y-222258D01*
X108458D01*
G01X118933Y-225258D02*
X118350Y-224592D01*
X118058Y-223925D01*
Y-221258D01*
X118350Y-220592D01*
X118933Y-219925D01*
G01X122917Y-223925D02*
Y-219925D01*
X125133D01*
G01X124317Y-221858D02*
X122917D01*
G01X127658Y-223925D02*
Y-219925D01*
X129117D01*
X129583Y-220125D01*
X129875Y-220392D01*
X129992Y-220925D01*
X129875Y-221458D01*
X129525Y-221792D01*
X129117Y-221992D01*
X127658D01*
G01X129117D02*
X129992Y-223925D01*
G01X134792D02*
X132458D01*
Y-219925D01*
X134792D01*
G01X133858Y-221858D02*
X132458D01*
G01X139592Y-223925D02*
X137258D01*
Y-219925D01*
X139592D01*
G01X138658Y-221858D02*
X137258D01*
G01X142000Y-223392D02*
X142467Y-223725D01*
X142992Y-223925D01*
X143458D01*
X143925Y-223725D01*
X144275Y-223392D01*
X144450Y-222925D01*
X144333Y-222458D01*
X144042Y-222058D01*
X143517Y-221792D01*
X142817Y-221658D01*
X142408Y-221392D01*
X142233Y-220925D01*
X142350Y-220458D01*
X142642Y-220125D01*
X143050Y-219925D01*
X143458D01*
X143867Y-220058D01*
X144217Y-220392D01*
G01X149308Y-220258D02*
X148958Y-220058D01*
X148550Y-219925D01*
X148083D01*
X147558Y-220125D01*
X147150Y-220458D01*
X146858Y-220858D01*
X146625Y-221525D01*
X146567Y-222125D01*
X146683Y-222725D01*
X146858Y-223125D01*
X147208Y-223525D01*
X147617Y-223792D01*
X148025Y-223925D01*
X148433D01*
X148842Y-223792D01*
X149192Y-223592D01*
X149483Y-223325D01*
G01X151367Y-223925D02*
X152825Y-219925D01*
X154283Y-223925D01*
G01X153758Y-222525D02*
X151892D01*
G01X156458Y-219925D02*
Y-223925D01*
X158792D01*
G01X163592D02*
X161258D01*
Y-219925D01*
X163592D01*
G01X162658Y-221858D02*
X161258D01*
G01X173308Y-220258D02*
X172958Y-220058D01*
X172550Y-219925D01*
X172083D01*
X171558Y-220125D01*
X171150Y-220458D01*
X170858Y-220858D01*
X170625Y-221525D01*
X170567Y-222125D01*
X170683Y-222725D01*
X170858Y-223125D01*
X171208Y-223525D01*
X171617Y-223792D01*
X172025Y-223925D01*
X172433D01*
X172842Y-223792D01*
X173192Y-223592D01*
X173483Y-223325D01*
G01X176825Y-223925D02*
X176358Y-223858D01*
X175950Y-223592D01*
X175600Y-223192D01*
X175367Y-222725D01*
X175250Y-222192D01*
Y-221658D01*
X175367Y-221125D01*
X175600Y-220658D01*
X175950Y-220258D01*
X176358Y-219992D01*
X176825Y-219925D01*
X177292Y-219992D01*
X177700Y-220258D01*
X178050Y-220658D01*
X178283Y-221125D01*
X178400Y-221658D01*
Y-222192D01*
X178283Y-222725D01*
X178050Y-223192D01*
X177700Y-223592D01*
X177292Y-223858D01*
X176825Y-223925D01*
G01X180283D02*
Y-219925D01*
X182967Y-223925D01*
Y-219925D01*
G01X185317Y-223925D02*
Y-219925D01*
X187533D01*
G01X186717Y-221858D02*
X185317D01*
G01X190525Y-219925D02*
X191925D01*
G01X191225D02*
Y-223925D01*
G01X190525D02*
X191925D01*
G01X194742D02*
Y-219925D01*
X195908D01*
X196375Y-220125D01*
X196725Y-220392D01*
X197017Y-220792D01*
X197250Y-221258D01*
X197308Y-221925D01*
X197250Y-222592D01*
X197017Y-223058D01*
X196725Y-223458D01*
X196375Y-223725D01*
X195908Y-223925D01*
X194742D01*
G01X201992D02*
X199658D01*
Y-219925D01*
X201992D01*
G01X201058Y-221858D02*
X199658D01*
G01X204283Y-223925D02*
Y-219925D01*
X206967Y-223925D01*
Y-219925D01*
G01X210425D02*
Y-223925D01*
G01X209083Y-219925D02*
X211767D01*
G01X214525D02*
X215925D01*
G01X215225D02*
Y-223925D01*
G01X214525D02*
X215925D01*
G01X218567D02*
X220025Y-219925D01*
X221483Y-223925D01*
G01X220958Y-222525D02*
X219092D01*
G01X223658Y-219925D02*
Y-223925D01*
X225992D01*
G01X233258D02*
Y-219925D01*
X234658D01*
X235125Y-220125D01*
X235475Y-220592D01*
X235592Y-221125D01*
X235475Y-221658D01*
X235183Y-222058D01*
X234658Y-222258D01*
X233258D01*
G01X238058Y-223925D02*
Y-219925D01*
X239517D01*
X239983Y-220125D01*
X240275Y-220392D01*
X240392Y-220925D01*
X240275Y-221458D01*
X239925Y-221792D01*
X239517Y-221992D01*
X238058D01*
G01X239517D02*
X240392Y-223925D01*
G01X244025D02*
X243558Y-223858D01*
X243150Y-223592D01*
X242800Y-223192D01*
X242567Y-222725D01*
X242450Y-222192D01*
Y-221658D01*
X242567Y-221125D01*
X242800Y-220658D01*
X243150Y-220258D01*
X243558Y-219992D01*
X244025Y-219925D01*
X244492Y-219992D01*
X244900Y-220258D01*
X245250Y-220658D01*
X245483Y-221125D01*
X245600Y-221658D01*
Y-222192D01*
X245483Y-222725D01*
X245250Y-223192D01*
X244900Y-223592D01*
X244492Y-223858D01*
X244025Y-223925D01*
G01X247658D02*
Y-219925D01*
X249058D01*
X249525Y-220125D01*
X249875Y-220592D01*
X249992Y-221125D01*
X249875Y-221658D01*
X249583Y-222058D01*
X249058Y-222258D01*
X247658D01*
G01X252458Y-223925D02*
Y-219925D01*
X253917D01*
X254383Y-220125D01*
X254675Y-220392D01*
X254792Y-220925D01*
X254675Y-221458D01*
X254325Y-221792D01*
X253917Y-221992D01*
X252458D01*
G01X253917D02*
X254792Y-223925D01*
G01X257725Y-219925D02*
X259125D01*
G01X258425D02*
Y-223925D01*
G01X257725D02*
X259125D01*
G01X264392D02*
X262058D01*
Y-219925D01*
X264392D01*
G01X263458Y-221858D02*
X262058D01*
G01X268025Y-219925D02*
Y-223925D01*
G01X266683Y-219925D02*
X269367D01*
G01X271367Y-223925D02*
X272825Y-219925D01*
X274283Y-223925D01*
G01X273758Y-222525D02*
X271892D01*
G01X276458Y-223925D02*
Y-219925D01*
X277917D01*
X278383Y-220125D01*
X278675Y-220392D01*
X278792Y-220925D01*
X278675Y-221458D01*
X278325Y-221792D01*
X277917Y-221992D01*
X276458D01*
G01X277917D02*
X278792Y-223925D01*
G01X282425D02*
Y-222125D01*
X281258Y-219925D01*
G01X283592D02*
X282425Y-222125D01*
G01X287517Y-225258D02*
X288100Y-224592D01*
X288392Y-223925D01*
Y-221258D01*
X288100Y-220592D01*
X287517Y-219925D01*
G01X79075Y-208758D02*
X82575D01*
G01X83875D02*
X87375D01*
G01X88675D02*
X92175D01*
G01X98917Y-207425D02*
Y-203425D01*
X101133D01*
G01X100317Y-205358D02*
X98917D01*
G01X104125Y-203425D02*
X105525D01*
G01X104825D02*
Y-207425D01*
G01X104125D02*
X105525D01*
G01X108342Y-203425D02*
Y-206292D01*
X108575Y-206892D01*
X109042Y-207292D01*
X109625Y-207425D01*
X110208Y-207292D01*
X110675Y-206892D01*
X110908Y-206292D01*
Y-203425D01*
G01X114425Y-207425D02*
X113958Y-207358D01*
X113550Y-207092D01*
X113200Y-206692D01*
X112967Y-206225D01*
X112850Y-205692D01*
Y-205158D01*
X112967Y-204625D01*
X113200Y-204158D01*
X113550Y-203758D01*
X113958Y-203492D01*
X114425Y-203425D01*
X114892Y-203492D01*
X115300Y-203758D01*
X115650Y-204158D01*
X115883Y-204625D01*
X116000Y-205158D01*
Y-205692D01*
X115883Y-206225D01*
X115650Y-206692D01*
X115300Y-207092D01*
X114892Y-207358D01*
X114425Y-207425D01*
G01X123733Y-208758D02*
X123150Y-208092D01*
X122858Y-207425D01*
Y-204758D01*
X123150Y-204092D01*
X123733Y-203425D01*
G01X127717Y-207425D02*
Y-203425D01*
X129933D01*
G01X129117Y-205358D02*
X127717D01*
G01X132458Y-207425D02*
Y-203425D01*
X133917D01*
X134383Y-203625D01*
X134675Y-203892D01*
X134792Y-204425D01*
X134675Y-204958D01*
X134325Y-205292D01*
X133917Y-205492D01*
X132458D01*
G01X133917D02*
X134792Y-207425D01*
G01X139592D02*
X137258D01*
Y-203425D01*
X139592D01*
G01X138658Y-205358D02*
X137258D01*
G01X144392Y-207425D02*
X142058D01*
Y-203425D01*
X144392D01*
G01X143458Y-205358D02*
X142058D01*
G01X146800Y-206892D02*
X147267Y-207225D01*
X147792Y-207425D01*
X148258D01*
X148725Y-207225D01*
X149075Y-206892D01*
X149250Y-206425D01*
X149133Y-205958D01*
X148842Y-205558D01*
X148317Y-205292D01*
X147617Y-205158D01*
X147208Y-204892D01*
X147033Y-204425D01*
X147150Y-203958D01*
X147442Y-203625D01*
X147850Y-203425D01*
X148258D01*
X148667Y-203558D01*
X149017Y-203892D01*
G01X154108Y-203758D02*
X153758Y-203558D01*
X153350Y-203425D01*
X152883D01*
X152358Y-203625D01*
X151950Y-203958D01*
X151658Y-204358D01*
X151425Y-205025D01*
X151367Y-205625D01*
X151483Y-206225D01*
X151658Y-206625D01*
X152008Y-207025D01*
X152417Y-207292D01*
X152825Y-207425D01*
X153233D01*
X153642Y-207292D01*
X153992Y-207092D01*
X154283Y-206825D01*
G01X156167Y-207425D02*
X157625Y-203425D01*
X159083Y-207425D01*
G01X158558Y-206025D02*
X156692D01*
G01X161258Y-203425D02*
Y-207425D01*
X163592D01*
G01X168392D02*
X166058D01*
Y-203425D01*
X168392D01*
G01X167458Y-205358D02*
X166058D01*
G01X176125Y-203425D02*
X177525D01*
G01X176825D02*
Y-207425D01*
G01X176125D02*
X177525D01*
G01X180283D02*
Y-203425D01*
X182967Y-207425D01*
Y-203425D01*
G01X186425D02*
Y-207425D01*
G01X185083Y-203425D02*
X187767D01*
G01X192392Y-207425D02*
X190058D01*
Y-203425D01*
X192392D01*
G01X191458Y-205358D02*
X190058D01*
G01X194858Y-207425D02*
Y-203425D01*
X196317D01*
X196783Y-203625D01*
X197075Y-203892D01*
X197192Y-204425D01*
X197075Y-204958D01*
X196725Y-205292D01*
X196317Y-205492D01*
X194858D01*
G01X196317D02*
X197192Y-207425D01*
G01X199483D02*
Y-203425D01*
X202167Y-207425D01*
Y-203425D01*
G01X204167Y-207425D02*
X205625Y-203425D01*
X207083Y-207425D01*
G01X206558Y-206025D02*
X204692D01*
G01X209258Y-203425D02*
Y-207425D01*
X211592D01*
G01X218742Y-203425D02*
Y-206292D01*
X218975Y-206892D01*
X219442Y-207292D01*
X220025Y-207425D01*
X220608Y-207292D01*
X221075Y-206892D01*
X221308Y-206292D01*
Y-203425D01*
G01X223600Y-206892D02*
X224067Y-207225D01*
X224592Y-207425D01*
X225058D01*
X225525Y-207225D01*
X225875Y-206892D01*
X226050Y-206425D01*
X225933Y-205958D01*
X225642Y-205558D01*
X225117Y-205292D01*
X224417Y-205158D01*
X224008Y-204892D01*
X223833Y-204425D01*
X223950Y-203958D01*
X224242Y-203625D01*
X224650Y-203425D01*
X225058D01*
X225467Y-203558D01*
X225817Y-203892D01*
G01X230792Y-207425D02*
X228458D01*
Y-203425D01*
X230792D01*
G01X229858Y-205358D02*
X228458D01*
G01X239225Y-207425D02*
X238758Y-207358D01*
X238350Y-207092D01*
X238000Y-206692D01*
X237767Y-206225D01*
X237650Y-205692D01*
Y-205158D01*
X237767Y-204625D01*
X238000Y-204158D01*
X238350Y-203758D01*
X238758Y-203492D01*
X239225Y-203425D01*
X239692Y-203492D01*
X240100Y-203758D01*
X240450Y-204158D01*
X240683Y-204625D01*
X240800Y-205158D01*
Y-205692D01*
X240683Y-206225D01*
X240450Y-206692D01*
X240100Y-207092D01*
X239692Y-207358D01*
X239225Y-207425D01*
G01X242683D02*
Y-203425D01*
X245367Y-207425D01*
Y-203425D01*
G01X247658D02*
Y-207425D01*
X249992D01*
G01X253625D02*
Y-205625D01*
X252458Y-203425D01*
G01X254792D02*
X253625Y-205625D01*
G01X258717Y-208758D02*
X259300Y-208092D01*
X259592Y-207425D01*
Y-204758D01*
X259300Y-204092D01*
X258717Y-203425D01*
G01X79075Y-192758D02*
X82575D01*
G01X83875D02*
X87375D01*
G01X88675D02*
X92175D01*
G01X98858Y-191425D02*
Y-187425D01*
X100258D01*
X100725Y-187625D01*
X101075Y-188092D01*
X101192Y-188625D01*
X101075Y-189158D01*
X100783Y-189558D01*
X100258Y-189758D01*
X98858D01*
G01X103542Y-187425D02*
Y-190292D01*
X103775Y-190892D01*
X104242Y-191292D01*
X104825Y-191425D01*
X105408Y-191292D01*
X105875Y-190892D01*
X106108Y-190292D01*
Y-187425D01*
G01X110092Y-189292D02*
X110325Y-189092D01*
X110500Y-188758D01*
X110617Y-188292D01*
X110500Y-187892D01*
X110267Y-187625D01*
X109858Y-187425D01*
X108283D01*
Y-191425D01*
X110208D01*
X110617Y-191158D01*
X110850Y-190758D01*
X110967Y-190292D01*
X110850Y-189825D01*
X110500Y-189425D01*
X110092Y-189292D01*
X108283D01*
G01X113725Y-187425D02*
X115125D01*
G01X114425D02*
Y-191425D01*
G01X113725D02*
X115125D01*
G01X123733Y-192758D02*
X123150Y-192092D01*
X122858Y-191425D01*
Y-188758D01*
X123150Y-188092D01*
X123733Y-187425D01*
G01X127658Y-191425D02*
Y-187425D01*
X129058D01*
X129525Y-187625D01*
X129875Y-188092D01*
X129992Y-188625D01*
X129875Y-189158D01*
X129583Y-189558D01*
X129058Y-189758D01*
X127658D01*
G01X132342Y-187425D02*
Y-190292D01*
X132575Y-190892D01*
X133042Y-191292D01*
X133625Y-191425D01*
X134208Y-191292D01*
X134675Y-190892D01*
X134908Y-190292D01*
Y-187425D01*
G01X138892Y-189292D02*
X139125Y-189092D01*
X139300Y-188758D01*
X139417Y-188292D01*
X139300Y-187892D01*
X139067Y-187625D01*
X138658Y-187425D01*
X137083D01*
Y-191425D01*
X139008D01*
X139417Y-191158D01*
X139650Y-190758D01*
X139767Y-190292D01*
X139650Y-189825D01*
X139300Y-189425D01*
X138892Y-189292D01*
X137083D01*
G01X142058Y-187425D02*
Y-191425D01*
X144392D01*
G01X147325Y-187425D02*
X148725D01*
G01X148025D02*
Y-191425D01*
G01X147325D02*
X148725D01*
G01X154108Y-187758D02*
X153758Y-187558D01*
X153350Y-187425D01*
X152883D01*
X152358Y-187625D01*
X151950Y-187958D01*
X151658Y-188358D01*
X151425Y-189025D01*
X151367Y-189625D01*
X151483Y-190225D01*
X151658Y-190625D01*
X152008Y-191025D01*
X152417Y-191292D01*
X152825Y-191425D01*
X153233D01*
X153642Y-191292D01*
X153992Y-191092D01*
X154283Y-190825D01*
G01X161725Y-187425D02*
X163125D01*
G01X162425D02*
Y-191425D01*
G01X161725D02*
X163125D01*
G01X165883D02*
Y-187425D01*
X168567Y-191425D01*
Y-187425D01*
G01X170917Y-191425D02*
Y-187425D01*
X173133D01*
G01X172317Y-189358D02*
X170917D01*
G01X176825Y-191425D02*
X176358Y-191358D01*
X175950Y-191092D01*
X175600Y-190692D01*
X175367Y-190225D01*
X175250Y-189692D01*
Y-189158D01*
X175367Y-188625D01*
X175600Y-188158D01*
X175950Y-187758D01*
X176358Y-187492D01*
X176825Y-187425D01*
X177292Y-187492D01*
X177700Y-187758D01*
X178050Y-188158D01*
X178283Y-188625D01*
X178400Y-189158D01*
Y-189692D01*
X178283Y-190225D01*
X178050Y-190692D01*
X177700Y-191092D01*
X177292Y-191358D01*
X176825Y-191425D01*
G01X180458D02*
Y-187425D01*
X181917D01*
X182383Y-187625D01*
X182675Y-187892D01*
X182792Y-188425D01*
X182675Y-188958D01*
X182325Y-189292D01*
X181917Y-189492D01*
X180458D01*
G01X181917D02*
X182792Y-191425D01*
G01X184908D02*
Y-187425D01*
X186425Y-190758D01*
X187942Y-187425D01*
Y-191425D01*
G01X189767D02*
X191225Y-187425D01*
X192683Y-191425D01*
G01X192158Y-190025D02*
X190292D01*
G01X196025Y-187425D02*
Y-191425D01*
G01X194683Y-187425D02*
X197367D01*
G01X200125D02*
X201525D01*
G01X200825D02*
Y-191425D01*
G01X200125D02*
X201525D01*
G01X205625D02*
X205158Y-191358D01*
X204750Y-191092D01*
X204400Y-190692D01*
X204167Y-190225D01*
X204050Y-189692D01*
Y-189158D01*
X204167Y-188625D01*
X204400Y-188158D01*
X204750Y-187758D01*
X205158Y-187492D01*
X205625Y-187425D01*
X206092Y-187492D01*
X206500Y-187758D01*
X206850Y-188158D01*
X207083Y-188625D01*
X207200Y-189158D01*
Y-189692D01*
X207083Y-190225D01*
X206850Y-190692D01*
X206500Y-191092D01*
X206092Y-191358D01*
X205625Y-191425D01*
G01X209083D02*
Y-187425D01*
X211767Y-191425D01*
Y-187425D01*
G01X215517Y-192758D02*
X216100Y-192092D01*
X216392Y-191425D01*
Y-188758D01*
X216100Y-188092D01*
X215517Y-187425D01*
G01X69483Y-159425D02*
Y-155425D01*
X72167Y-159425D01*
Y-155425D01*
G01X74167Y-159425D02*
X75625Y-155425D01*
X77083Y-159425D01*
G01X76558Y-158025D02*
X74692D01*
G01X78908Y-159425D02*
Y-155425D01*
X80425Y-158758D01*
X81942Y-155425D01*
Y-159425D01*
G01X86392D02*
X84058D01*
Y-155425D01*
X86392D01*
G01X85458Y-157358D02*
X84058D01*
G01X75238Y-65200D02*
X75413Y-64850D01*
X75530Y-64442D01*
Y-63975D01*
X75355Y-63450D01*
X75063Y-63042D01*
X74713Y-62750D01*
X74130Y-62517D01*
X73605Y-62459D01*
X73080Y-62575D01*
X72730Y-62750D01*
X72380Y-63100D01*
X72147Y-63509D01*
X72030Y-63917D01*
Y-64325D01*
X72147Y-64734D01*
X72322Y-65084D01*
X72555Y-65375D01*
G01X72030Y-68917D02*
X75530D01*
X73022Y-66759D01*
Y-69675D01*
G01X72730Y-71234D02*
X72322Y-71584D01*
X72088Y-72050D01*
X72030Y-72575D01*
X72088Y-73042D01*
X72380Y-73509D01*
X72730Y-73800D01*
X73080Y-73859D01*
X73488Y-73742D01*
X73780Y-73334D01*
X73897Y-72925D01*
Y-72400D01*
G01Y-72925D02*
X74072Y-73275D01*
X74363Y-73567D01*
X74713Y-73684D01*
X75063Y-73567D01*
X75355Y-73275D01*
X75530Y-72750D01*
X75472Y-72225D01*
X75238Y-71700D01*
G01X89939Y-66808D02*
Y-65233D01*
X88772Y-63308D01*
G01X91106D02*
X89939Y-65233D01*
G01X92956Y-66108D02*
X93306Y-66516D01*
X93772Y-66750D01*
X94297Y-66808D01*
X94764Y-66750D01*
X95231Y-66458D01*
X95522Y-66108D01*
X95581Y-65758D01*
X95464Y-65350D01*
X95056Y-65058D01*
X94647Y-64941D01*
X94122D01*
G01X94647D02*
X94997Y-64766D01*
X95289Y-64475D01*
X95406Y-64125D01*
X95289Y-63775D01*
X94997Y-63483D01*
X94472Y-63308D01*
X93947Y-63366D01*
X93422Y-63600D01*
G01X80238Y-54039D02*
X80413Y-53689D01*
X80530Y-53281D01*
Y-52814D01*
X80355Y-52289D01*
X80063Y-51881D01*
X79713Y-51589D01*
X79130Y-51356D01*
X78605Y-51298D01*
X78080Y-51414D01*
X77730Y-51589D01*
X77380Y-51939D01*
X77147Y-52348D01*
X77030Y-52756D01*
Y-53164D01*
X77147Y-53573D01*
X77322Y-53923D01*
X77555Y-54214D01*
G01X77030Y-57756D02*
X80530D01*
X78022Y-55598D01*
Y-58514D01*
G01X79947Y-60248D02*
X80297Y-60598D01*
X80472Y-61006D01*
X80530Y-61473D01*
X80413Y-62056D01*
X80122Y-62464D01*
X79772Y-62581D01*
X79422Y-62523D01*
X79130Y-62289D01*
X78547Y-61123D01*
X78138Y-60598D01*
X77555Y-60248D01*
X77030Y-60131D01*
Y-62581D01*
G01X87783Y-59439D02*
X81681D01*
G01D02*
Y-25755D01*
G01X80081Y-23703D02*
X80256Y-23353D01*
X80373Y-22945D01*
Y-22478D01*
X80198Y-21953D01*
X79906Y-21545D01*
X79556Y-21253D01*
X78973Y-21020D01*
X78448Y-20962D01*
X77923Y-21078D01*
X77573Y-21253D01*
X77223Y-21603D01*
X76990Y-22012D01*
X76873Y-22420D01*
Y-22828D01*
X76990Y-23237D01*
X77165Y-23587D01*
X77398Y-23878D01*
G01X76873Y-27420D02*
X80373D01*
X77865Y-25262D01*
Y-28178D01*
G01X76873Y-31020D02*
X80373D01*
X79673Y-30320D01*
G01X76873D02*
Y-31720D01*
G01X81681Y-25755D02*
X87783D01*
G01X71517Y-25538D02*
X75017D01*
Y-26997D01*
X74842Y-27463D01*
X74609Y-27755D01*
X74142Y-27872D01*
X73675Y-27755D01*
X73384Y-27405D01*
X73209Y-26997D01*
Y-25538D01*
G01Y-26997D02*
X71517Y-27872D01*
G01Y-31005D02*
X75017D01*
X74317Y-30305D01*
G01X71517D02*
Y-31705D01*
G01Y-36005D02*
X75017D01*
X72509Y-33847D01*
Y-36763D01*
G01X79733Y-37619D02*
Y-38419D01*
G01X77433D02*
Y-37619D01*
G01X77455Y-46412D02*
Y-45612D01*
G01X79755D02*
Y-46412D01*
G01X77200Y54633D02*
Y58133D01*
X76500Y57433D01*
G01Y54633D02*
X77900D01*
G01X87933Y57344D02*
X87583Y57519D01*
X87175Y57636D01*
X86708D01*
X86183Y57461D01*
X85775Y57169D01*
X85483Y56819D01*
X85250Y56236D01*
X85192Y55711D01*
X85308Y55186D01*
X85483Y54836D01*
X85833Y54486D01*
X86242Y54253D01*
X86650Y54136D01*
X87058D01*
X87467Y54253D01*
X87817Y54428D01*
X88108Y54661D01*
G01X89667Y54836D02*
X90017Y54428D01*
X90483Y54194D01*
X91008Y54136D01*
X91475Y54194D01*
X91942Y54486D01*
X92233Y54836D01*
X92292Y55186D01*
X92175Y55594D01*
X91767Y55886D01*
X91358Y56003D01*
X90833D01*
G01X91358D02*
X91708Y56178D01*
X92000Y56469D01*
X92117Y56819D01*
X92000Y57169D01*
X91708Y57461D01*
X91183Y57636D01*
X90658Y57578D01*
X90133Y57344D01*
G01X93967Y54661D02*
X94317Y54369D01*
X94725Y54194D01*
X95250Y54136D01*
X95775Y54253D01*
X96183Y54486D01*
X96475Y54894D01*
X96533Y55361D01*
X96417Y55828D01*
X96125Y56119D01*
X95717Y56353D01*
X95308Y56411D01*
X94900Y56353D01*
X94375Y56119D01*
X94550Y57636D01*
X96125D01*
G01X70700Y83633D02*
Y87133D01*
X70000Y86433D01*
G01Y83633D02*
X71400D01*
G01X77850Y77033D02*
Y78608D01*
X76683Y80533D01*
G01X79017D02*
X77850Y78608D01*
G01X81042Y79950D02*
X81392Y80300D01*
X81800Y80475D01*
X82267Y80533D01*
X82850Y80416D01*
X83258Y80125D01*
X83375Y79775D01*
X83317Y79425D01*
X83083Y79133D01*
X81917Y78550D01*
X81392Y78141D01*
X81042Y77558D01*
X80925Y77033D01*
X83375D01*
G01X75483Y83833D02*
Y87333D01*
X76942D01*
X77408Y87158D01*
X77700Y86925D01*
X77817Y86458D01*
X77700Y85991D01*
X77350Y85700D01*
X76942Y85525D01*
X75483D01*
G01X76942D02*
X77817Y83833D01*
G01X80950D02*
X81358Y83891D01*
X81825Y84066D01*
X82117Y84358D01*
X82233Y84766D01*
X82117Y85175D01*
X81767Y85525D01*
X81242Y85700D01*
X80658D01*
X80308Y85816D01*
X80017Y86108D01*
X79900Y86516D01*
X80075Y86925D01*
X80483Y87216D01*
X80950Y87333D01*
X81417Y87216D01*
X81825Y86925D01*
X82000Y86516D01*
X81883Y86108D01*
X81592Y85816D01*
X81242Y85700D01*
X80658D01*
X80133Y85525D01*
X79783Y85175D01*
X79667Y84766D01*
X79783Y84358D01*
X80075Y84066D01*
X80542Y83891D01*
X80950Y83833D01*
G01X70297Y81088D02*
G03I500J0D01*
G01X87707Y58881D02*
X86907D01*
G01Y61181D02*
X87707D01*
G01X87317Y77733D02*
X87667Y77325D01*
X88133Y77091D01*
X88658Y77033D01*
X89125Y77091D01*
X89592Y77383D01*
X89883Y77733D01*
X89942Y78083D01*
X89825Y78491D01*
X89417Y78783D01*
X89008Y78900D01*
X88483D01*
G01X89008D02*
X89358Y79075D01*
X89650Y79366D01*
X89767Y79716D01*
X89650Y80066D01*
X89358Y80358D01*
X88833Y80533D01*
X88308Y80475D01*
X87783Y80241D01*
G01X89723Y75233D02*
X82739D01*
Y63833D01*
X89723D01*
G01X67127Y90780D02*
Y88627D01*
X69284D01*
G01X85783Y137341D02*
X85433Y137516D01*
X85025Y137633D01*
X84558D01*
X84033Y137458D01*
X83625Y137166D01*
X83333Y136816D01*
X83100Y136233D01*
X83042Y135708D01*
X83158Y135183D01*
X83333Y134833D01*
X83683Y134483D01*
X84092Y134250D01*
X84500Y134133D01*
X84908D01*
X85317Y134250D01*
X85667Y134425D01*
X85958Y134658D01*
G01X88800Y134133D02*
Y137633D01*
X88100Y136933D01*
G01Y134133D02*
X89500D01*
G01X91817Y134658D02*
X92167Y134366D01*
X92575Y134191D01*
X93100Y134133D01*
X93625Y134250D01*
X94033Y134483D01*
X94325Y134891D01*
X94383Y135358D01*
X94267Y135825D01*
X93975Y136116D01*
X93567Y136350D01*
X93158Y136408D01*
X92750Y136350D01*
X92225Y136116D01*
X92400Y137633D01*
X93975D01*
G01X67337Y129212D02*
X68795Y132712D01*
X70253Y129212D01*
G01X69728Y130437D02*
X67862D01*
G01X92983Y133241D02*
X92633Y133416D01*
X92225Y133533D01*
X91758D01*
X91233Y133358D01*
X90825Y133066D01*
X90533Y132716D01*
X90300Y132133D01*
X90242Y131608D01*
X90358Y131083D01*
X90533Y130733D01*
X90883Y130383D01*
X91292Y130150D01*
X91700Y130033D01*
X92108D01*
X92517Y130150D01*
X92867Y130325D01*
X93158Y130558D01*
G01X96000Y130033D02*
Y133533D01*
X95300Y132833D01*
G01Y130033D02*
X96700D01*
G01X99308Y130441D02*
X99717Y130150D01*
X100183Y130033D01*
X100650Y130150D01*
X101058Y130500D01*
X101350Y131025D01*
X101467Y131550D01*
Y132191D01*
X101350Y132716D01*
X101058Y133183D01*
X100708Y133416D01*
X100300Y133533D01*
X99833Y133416D01*
X99483Y133183D01*
X99250Y132833D01*
X99133Y132366D01*
X99250Y131958D01*
X99542Y131550D01*
X99892Y131316D01*
X100300Y131258D01*
X100767Y131375D01*
X101117Y131666D01*
X101467Y132191D01*
G01X76094Y133621D02*
X80228D01*
G01X68428Y123266D02*
Y126766D01*
X69945Y123849D01*
X71462Y126766D01*
Y123266D01*
G01X75528Y126474D02*
X75178Y126649D01*
X74770Y126766D01*
X74303D01*
X73778Y126591D01*
X73370Y126299D01*
X73078Y125949D01*
X72845Y125366D01*
X72787Y124841D01*
X72903Y124316D01*
X73078Y123966D01*
X73428Y123616D01*
X73837Y123383D01*
X74245Y123266D01*
X74653D01*
X75062Y123383D01*
X75412Y123558D01*
X75703Y123791D01*
G01X77262Y126766D02*
Y124258D01*
X77495Y123733D01*
X77962Y123383D01*
X78545Y123266D01*
X79128Y123383D01*
X79595Y123733D01*
X79828Y124258D01*
Y126766D01*
G01X87400Y128400D02*
Y128800D01*
X89000Y130400D01*
X87600D01*
G01X89000D02*
Y129200D01*
G01X89846Y127173D02*
Y124665D01*
X90079Y124140D01*
X90546Y123790D01*
X91129Y123673D01*
X91712Y123790D01*
X92179Y124140D01*
X92412Y124665D01*
Y127173D01*
G01X95429Y123673D02*
Y127173D01*
X94729Y126473D01*
G01Y123673D02*
X96129D01*
G01X67127Y119366D02*
Y121523D01*
X69256D01*
G01X80017Y132600D02*
Y129100D01*
X82351D01*
G01X85367D02*
X85484Y129858D01*
X85659Y130500D01*
X85892Y131083D01*
X86184Y131725D01*
X86651Y132600D01*
X84317D01*
G01X78468Y128294D02*
Y132428D01*
G01X74902Y128294D02*
Y132428D01*
G01X83676Y127784D02*
X84476D01*
G01Y125484D02*
X83676D01*
G01X85083Y141841D02*
X84733Y142016D01*
X84325Y142133D01*
X83858D01*
X83333Y141958D01*
X82925Y141666D01*
X82633Y141316D01*
X82400Y140733D01*
X82342Y140208D01*
X82458Y139683D01*
X82633Y139333D01*
X82983Y138983D01*
X83392Y138750D01*
X83800Y138633D01*
X84208D01*
X84617Y138750D01*
X84967Y138925D01*
X85258Y139158D01*
G01X88100Y138633D02*
Y142133D01*
X87400Y141433D01*
G01Y138633D02*
X88800D01*
G01X91117Y139333D02*
X91467Y138925D01*
X91933Y138691D01*
X92458Y138633D01*
X92925Y138691D01*
X93392Y138983D01*
X93683Y139333D01*
X93742Y139683D01*
X93625Y140091D01*
X93217Y140383D01*
X92808Y140500D01*
X92283D01*
G01X92808D02*
X93158Y140675D01*
X93450Y140966D01*
X93567Y141316D01*
X93450Y141666D01*
X93158Y141958D01*
X92633Y142133D01*
X92108Y142075D01*
X91583Y141841D01*
G01X85225Y146403D02*
X84875Y146578D01*
X84467Y146695D01*
X84000D01*
X83475Y146520D01*
X83067Y146228D01*
X82775Y145878D01*
X82542Y145295D01*
X82484Y144770D01*
X82600Y144245D01*
X82775Y143895D01*
X83125Y143545D01*
X83534Y143312D01*
X83942Y143195D01*
X84350D01*
X84759Y143312D01*
X85109Y143487D01*
X85400Y143720D01*
G01X88942Y143195D02*
Y146695D01*
X86784Y144187D01*
X89700D01*
G01X91434Y144653D02*
X91842Y145062D01*
X92192Y145295D01*
X92659Y145412D01*
X93067Y145295D01*
X93359Y145062D01*
X93592Y144712D01*
X93650Y144303D01*
X93592Y143953D01*
X93359Y143603D01*
X93009Y143312D01*
X92600Y143195D01*
X92134Y143312D01*
X91725Y143662D01*
X91492Y144187D01*
X91434Y144770D01*
X91550Y145528D01*
X91725Y145937D01*
X92017Y146345D01*
X92425Y146637D01*
X92834Y146695D01*
X93242Y146578D01*
X93534Y146287D01*
G01X74900Y151400D02*
Y153500D01*
X75000Y153600D01*
X105800D01*
Y141200D01*
X95000D01*
X94800Y141400D01*
Y147500D01*
X80800D01*
X80500Y147200D01*
G01X74531Y136508D02*
Y140642D01*
G01X70965Y136508D02*
Y140642D01*
G01X69205Y141792D02*
X73339D01*
G01X69205Y145358D02*
X73339D01*
G01X74531Y146508D02*
Y150642D01*
G01X70965Y146508D02*
Y150642D01*
G01X73337Y155343D02*
X69203D01*
G01X73337Y151777D02*
X69203D01*
G01X76093Y143617D02*
X80227D01*
G01X76093Y147183D02*
X80227D01*
G01X78468Y138337D02*
Y142471D01*
G01X74902Y138337D02*
Y142471D01*
G01X76094Y137187D02*
X80228D01*
G01X85148Y155570D02*
X91783D01*
X91784Y155571D01*
X90630Y156725D01*
G01X91783Y155570D02*
X91709D01*
X90716Y154577D01*
G01X70031Y160642D02*
Y156508D01*
G01X95799Y157653D02*
X95449Y157828D01*
X95041Y157945D01*
X94574D01*
X94049Y157770D01*
X93641Y157478D01*
X93349Y157128D01*
X93116Y156545D01*
X93058Y156020D01*
X93174Y155495D01*
X93349Y155145D01*
X93699Y154795D01*
X94108Y154562D01*
X94516Y154445D01*
X94924D01*
X95333Y154562D01*
X95683Y154737D01*
X95974Y154970D01*
G01X97824Y154853D02*
X98233Y154562D01*
X98699Y154445D01*
X99166Y154562D01*
X99574Y154912D01*
X99866Y155437D01*
X99983Y155962D01*
Y156603D01*
X99866Y157128D01*
X99574Y157595D01*
X99224Y157828D01*
X98816Y157945D01*
X98349Y157828D01*
X97999Y157595D01*
X97766Y157245D01*
X97649Y156778D01*
X97766Y156370D01*
X98058Y155962D01*
X98408Y155728D01*
X98816Y155670D01*
X99283Y155787D01*
X99633Y156078D01*
X99983Y156603D01*
G01X79894Y153586D02*
X84028D01*
G01X79894Y157152D02*
X84028D01*
G01X78702Y152432D02*
Y148298D01*
G01X82268Y152432D02*
Y148298D01*
G01X85399Y161664D02*
Y158164D01*
X87733D01*
G01X89758Y161081D02*
X90108Y161431D01*
X90516Y161606D01*
X90983Y161664D01*
X91566Y161547D01*
X91974Y161256D01*
X92091Y160906D01*
X92033Y160556D01*
X91799Y160264D01*
X90633Y159681D01*
X90108Y159272D01*
X89758Y158689D01*
X89641Y158164D01*
X92091D01*
G01X79894Y158151D02*
X84028D01*
G01X78933Y161917D02*
X75433D01*
Y159583D01*
G01X76133Y157733D02*
X75725Y157383D01*
X75491Y156917D01*
X75433Y156392D01*
X75491Y155925D01*
X75783Y155458D01*
X76133Y155167D01*
X76483Y155108D01*
X76891Y155225D01*
X77183Y155633D01*
X77300Y156042D01*
Y156567D01*
G01Y156042D02*
X77475Y155692D01*
X77766Y155400D01*
X78116Y155283D01*
X78466Y155400D01*
X78758Y155692D01*
X78933Y156217D01*
X78875Y156742D01*
X78641Y157267D01*
G01X74531Y156508D02*
Y160642D01*
G01X70965Y156508D02*
Y160642D01*
G01X78468Y148298D02*
Y152432D01*
G01X74902Y148298D02*
Y152432D01*
G01X74483Y172887D02*
X74658Y173237D01*
X74775Y173645D01*
Y174112D01*
X74600Y174637D01*
X74308Y175045D01*
X73958Y175337D01*
X73375Y175570D01*
X72850Y175628D01*
X72325Y175512D01*
X71975Y175337D01*
X71625Y174987D01*
X71392Y174578D01*
X71275Y174170D01*
Y173762D01*
X71392Y173353D01*
X71567Y173003D01*
X71800Y172712D01*
G01X71975Y171153D02*
X71567Y170803D01*
X71333Y170337D01*
X71275Y169812D01*
X71333Y169345D01*
X71625Y168878D01*
X71975Y168587D01*
X72325Y168528D01*
X72733Y168645D01*
X73025Y169053D01*
X73142Y169462D01*
Y169987D01*
G01Y169462D02*
X73317Y169112D01*
X73608Y168820D01*
X73958Y168703D01*
X74308Y168820D01*
X74600Y169112D01*
X74775Y169637D01*
X74717Y170162D01*
X74483Y170687D01*
G01X74531Y162814D02*
Y166948D01*
G01X70965Y162814D02*
Y166948D01*
G01X92041Y172867D02*
X92216Y173217D01*
X92333Y173625D01*
Y174092D01*
X92158Y174617D01*
X91866Y175025D01*
X91516Y175317D01*
X90933Y175550D01*
X90408Y175608D01*
X89883Y175492D01*
X89533Y175317D01*
X89183Y174967D01*
X88950Y174558D01*
X88833Y174150D01*
Y173742D01*
X88950Y173333D01*
X89125Y172983D01*
X89358Y172692D01*
G01X88833Y169150D02*
X92333D01*
X89825Y171308D01*
Y168392D01*
G01X92504Y162803D02*
Y166937D01*
G01X88938Y162803D02*
Y166937D01*
G01X81133Y170441D02*
X80783Y170616D01*
X80375Y170733D01*
X79908D01*
X79383Y170558D01*
X78975Y170266D01*
X78683Y169916D01*
X78450Y169333D01*
X78392Y168808D01*
X78508Y168283D01*
X78683Y167933D01*
X79033Y167583D01*
X79442Y167350D01*
X79850Y167233D01*
X80258D01*
X80667Y167350D01*
X81017Y167525D01*
X81308Y167758D01*
G01X84033Y167233D02*
X84150Y167991D01*
X84325Y168633D01*
X84558Y169216D01*
X84850Y169858D01*
X85317Y170733D01*
X82983D01*
G01X84028Y165177D02*
X79894D01*
G01X84028Y161611D02*
X79894D01*
G01Y161717D02*
X84028D01*
G01X119483Y-239425D02*
Y-235425D01*
X122167Y-239425D01*
Y-235425D01*
G01X124342D02*
Y-238292D01*
X124575Y-238892D01*
X125042Y-239292D01*
X125625Y-239425D01*
X126208Y-239292D01*
X126675Y-238892D01*
X126908Y-238292D01*
Y-235425D01*
G01X128908Y-239425D02*
Y-235425D01*
X130425Y-238758D01*
X131942Y-235425D01*
Y-239425D01*
G01X135692Y-237292D02*
X135925Y-237092D01*
X136100Y-236758D01*
X136217Y-236292D01*
X136100Y-235892D01*
X135867Y-235625D01*
X135458Y-235425D01*
X133883D01*
Y-239425D01*
X135808D01*
X136217Y-239158D01*
X136450Y-238758D01*
X136567Y-238292D01*
X136450Y-237825D01*
X136100Y-237425D01*
X135692Y-237292D01*
X133883D01*
G01X141192Y-239425D02*
X138858D01*
Y-235425D01*
X141192D01*
G01X140258Y-237358D02*
X138858D01*
G01X143658Y-239425D02*
Y-235425D01*
X145117D01*
X145583Y-235625D01*
X145875Y-235892D01*
X145992Y-236425D01*
X145875Y-236958D01*
X145525Y-237292D01*
X145117Y-237492D01*
X143658D01*
G01X145117D02*
X145992Y-239425D01*
G01X111243Y-62817D02*
Y-59317D01*
X110543Y-60017D01*
G01Y-62817D02*
X111943D01*
G01X114017Y-66757D02*
Y-34857D01*
X166417D01*
Y-66757D01*
X114017D01*
G01X101585Y-25755D02*
Y-59439D01*
G01D02*
X95483D01*
G01X110210Y-39951D02*
X110560Y-40359D01*
X111026Y-40593D01*
X111551Y-40651D01*
X112018Y-40593D01*
X112485Y-40301D01*
X112776Y-39951D01*
X112835Y-39601D01*
X112718Y-39193D01*
X112310Y-38901D01*
X111901Y-38784D01*
X111376D01*
G01X111901D02*
X112251Y-38609D01*
X112543Y-38318D01*
X112660Y-37968D01*
X112543Y-37618D01*
X112251Y-37326D01*
X111726Y-37151D01*
X111201Y-37209D01*
X110676Y-37443D01*
G01X95483Y-25755D02*
X101585D01*
G01X146115Y-30385D02*
Y-19085D01*
X104715D01*
Y-30485D01*
X146115D01*
G01X110754Y-17573D02*
Y-14073D01*
X108596Y-16581D01*
X111512D01*
G01X120192Y27850D02*
Y31350D01*
X119492Y30650D01*
G01Y27850D02*
X120892D01*
G01X124375D02*
X124492Y28608D01*
X124667Y29250D01*
X124900Y29833D01*
X125192Y30475D01*
X125659Y31350D01*
X123325D01*
G01X119877Y38485D02*
Y41985D01*
X119177Y41285D01*
G01Y38485D02*
X120577D01*
G01X124177D02*
X124585Y38543D01*
X125052Y38718D01*
X125344Y39010D01*
X125460Y39418D01*
X125344Y39827D01*
X124994Y40177D01*
X124469Y40352D01*
X123885D01*
X123535Y40468D01*
X123244Y40760D01*
X123127Y41168D01*
X123302Y41577D01*
X123710Y41868D01*
X124177Y41985D01*
X124644Y41868D01*
X125052Y41577D01*
X125227Y41168D01*
X125110Y40760D01*
X124819Y40468D01*
X124469Y40352D01*
X123885D01*
X123360Y40177D01*
X123010Y39827D01*
X122894Y39418D01*
X123010Y39010D01*
X123302Y38718D01*
X123769Y38543D01*
X124177Y38485D01*
G01X101541Y52332D02*
Y55832D01*
X103000D01*
X103466Y55657D01*
X103758Y55424D01*
X103875Y54957D01*
X103758Y54490D01*
X103408Y54199D01*
X103000Y54024D01*
X101541D01*
G01X103000D02*
X103875Y52332D01*
G01X107008D02*
Y55832D01*
X106308Y55132D01*
G01Y52332D02*
X107708D01*
G01X111308D02*
Y55832D01*
X110608Y55132D01*
G01Y52332D02*
X112008D01*
G01X109908Y46194D02*
X110200Y45844D01*
X110550Y45611D01*
X110958Y45494D01*
X111425Y45611D01*
X111775Y45844D01*
X112125Y46194D01*
X112242Y46661D01*
Y48994D01*
G01X115375Y45494D02*
Y48994D01*
X114675Y48294D01*
G01Y45494D02*
X116075D01*
G01X120375D02*
Y48994D01*
X118217Y46486D01*
X121133D01*
G01X112600Y76433D02*
Y79933D01*
X111900Y79233D01*
G01Y76433D02*
X113300D01*
G01X102931Y58880D02*
G03I-500J0D01*
G01X105683Y85041D02*
X105333Y85216D01*
X104925Y85333D01*
X104458D01*
X103933Y85158D01*
X103525Y84866D01*
X103233Y84516D01*
X103000Y83933D01*
X102942Y83408D01*
X103058Y82883D01*
X103233Y82533D01*
X103583Y82183D01*
X103992Y81950D01*
X104400Y81833D01*
X104808D01*
X105217Y81950D01*
X105567Y82125D01*
X105858Y82358D01*
G01X107417Y82533D02*
X107767Y82125D01*
X108233Y81891D01*
X108758Y81833D01*
X109225Y81891D01*
X109692Y82183D01*
X109983Y82533D01*
X110042Y82883D01*
X109925Y83291D01*
X109517Y83583D01*
X109108Y83700D01*
X108583D01*
G01X109108D02*
X109458Y83875D01*
X109750Y84166D01*
X109867Y84516D01*
X109750Y84866D01*
X109458Y85158D01*
X108933Y85333D01*
X108408Y85275D01*
X107883Y85041D01*
G01X111892Y84750D02*
X112242Y85100D01*
X112650Y85275D01*
X113117Y85333D01*
X113700Y85216D01*
X114108Y84925D01*
X114225Y84575D01*
X114167Y84225D01*
X113933Y83933D01*
X112767Y83350D01*
X112242Y82941D01*
X111892Y82358D01*
X111775Y81833D01*
X114225D01*
G01X95483Y77333D02*
X95775Y76983D01*
X96125Y76750D01*
X96533Y76633D01*
X97000Y76750D01*
X97350Y76983D01*
X97700Y77333D01*
X97817Y77800D01*
Y80133D01*
G01X100950Y76633D02*
X101358Y76691D01*
X101825Y76866D01*
X102117Y77158D01*
X102233Y77566D01*
X102117Y77975D01*
X101767Y78325D01*
X101242Y78500D01*
X100658D01*
X100308Y78616D01*
X100017Y78908D01*
X99900Y79316D01*
X100075Y79725D01*
X100483Y80016D01*
X100950Y80133D01*
X101417Y80016D01*
X101825Y79725D01*
X102000Y79316D01*
X101883Y78908D01*
X101592Y78616D01*
X101242Y78500D01*
X100658D01*
X100133Y78325D01*
X99783Y77975D01*
X99667Y77566D01*
X99783Y77158D01*
X100075Y76866D01*
X100542Y76691D01*
X100950Y76633D01*
G01X109623Y75233D02*
X116107D01*
Y63833D01*
X109623D01*
G01X110519Y125099D02*
X107383D01*
Y102411D01*
X110759D01*
G01X100023Y90760D02*
Y88627D01*
X97906D01*
G01X113581Y97283D02*
X113756Y97633D01*
X113873Y98041D01*
Y98508D01*
X113698Y99033D01*
X113406Y99441D01*
X113056Y99733D01*
X112473Y99966D01*
X111948Y100024D01*
X111423Y99908D01*
X111073Y99733D01*
X110723Y99383D01*
X110490Y98974D01*
X110373Y98566D01*
Y98158D01*
X110490Y97749D01*
X110665Y97399D01*
X110898Y97108D01*
G01X113290Y95374D02*
X113640Y95024D01*
X113815Y94616D01*
X113873Y94149D01*
X113756Y93566D01*
X113465Y93158D01*
X113115Y93041D01*
X112765Y93099D01*
X112473Y93333D01*
X111890Y94499D01*
X111481Y95024D01*
X110898Y95374D01*
X110373Y95491D01*
Y93041D01*
G01X110781Y90958D02*
X110490Y90549D01*
X110373Y90083D01*
X110490Y89616D01*
X110840Y89208D01*
X111365Y88916D01*
X111890Y88799D01*
X112531D01*
X113056Y88916D01*
X113523Y89208D01*
X113756Y89558D01*
X113873Y89966D01*
X113756Y90433D01*
X113523Y90783D01*
X113173Y91016D01*
X112706Y91133D01*
X112298Y91016D01*
X111890Y90724D01*
X111656Y90374D01*
X111598Y89966D01*
X111715Y89499D01*
X112006Y89149D01*
X112531Y88799D01*
G01X119842Y96135D02*
X114842D01*
Y95135D01*
X119842D01*
Y96135D01*
G01X105241Y103617D02*
X105416Y103967D01*
X105533Y104375D01*
Y104842D01*
X105358Y105367D01*
X105066Y105775D01*
X104716Y106067D01*
X104133Y106300D01*
X103608Y106358D01*
X103083Y106242D01*
X102733Y106067D01*
X102383Y105717D01*
X102150Y105308D01*
X102033Y104900D01*
Y104492D01*
X102150Y104083D01*
X102325Y103733D01*
X102558Y103442D01*
G01X104950Y101708D02*
X105300Y101358D01*
X105475Y100950D01*
X105533Y100483D01*
X105416Y99900D01*
X105125Y99492D01*
X104775Y99375D01*
X104425Y99433D01*
X104133Y99667D01*
X103550Y100833D01*
X103141Y101358D01*
X102558Y101708D01*
X102033Y101825D01*
Y99375D01*
G01Y96417D02*
X102791Y96300D01*
X103433Y96125D01*
X104016Y95892D01*
X104658Y95600D01*
X105533Y95133D01*
Y97467D01*
G01X108955Y98619D02*
Y97819D01*
G01X106655D02*
Y98619D01*
G01X115342Y107887D02*
X117242D01*
Y102887D01*
X115342D01*
Y107887D01*
G01X119700Y86633D02*
Y90133D01*
X119000Y89433D01*
G01Y86633D02*
X120400D01*
G01X109655Y141723D02*
X106583D01*
Y126379D01*
X109783D01*
G01X106519Y124491D02*
X106487D01*
X104599Y126379D01*
Y130571D01*
X105719Y131691D01*
X104471D01*
G01X105719D02*
Y130651D01*
G01X97866Y121523D02*
X100023D01*
Y119370D01*
G01X112496Y122188D02*
G03I500J0D01*
G01X109176Y132649D02*
Y136149D01*
X110635D01*
X111101Y135974D01*
X111393Y135741D01*
X111510Y135274D01*
X111393Y134807D01*
X111043Y134516D01*
X110635Y134341D01*
X109176D01*
G01X110635D02*
X111510Y132649D01*
G01X115343D02*
Y136149D01*
X113185Y133641D01*
X116101D01*
G01X112605Y113926D02*
G03I500J0D01*
G01X110285Y130386D02*
X109935Y130561D01*
X109527Y130678D01*
X109060D01*
X108535Y130503D01*
X108127Y130211D01*
X107835Y129861D01*
X107602Y129278D01*
X107544Y128753D01*
X107660Y128228D01*
X107835Y127878D01*
X108185Y127528D01*
X108594Y127295D01*
X109002Y127178D01*
X109410D01*
X109819Y127295D01*
X110169Y127470D01*
X110460Y127703D01*
G01X112194Y130095D02*
X112544Y130445D01*
X112952Y130620D01*
X113419Y130678D01*
X114002Y130561D01*
X114410Y130270D01*
X114527Y129920D01*
X114469Y129570D01*
X114235Y129278D01*
X113069Y128695D01*
X112544Y128286D01*
X112194Y127703D01*
X112077Y127178D01*
X114527D01*
G01X116494Y128636D02*
X116902Y129045D01*
X117252Y129278D01*
X117719Y129395D01*
X118127Y129278D01*
X118419Y129045D01*
X118652Y128695D01*
X118710Y128286D01*
X118652Y127936D01*
X118419Y127586D01*
X118069Y127295D01*
X117660Y127178D01*
X117194Y127295D01*
X116785Y127645D01*
X116552Y128170D01*
X116494Y128753D01*
X116610Y129511D01*
X116785Y129920D01*
X117077Y130328D01*
X117485Y130620D01*
X117894Y130678D01*
X118302Y130561D01*
X118594Y130270D01*
G01X99533Y152017D02*
X96033D01*
Y149683D01*
G01Y145850D02*
X99533D01*
X97025Y148008D01*
Y145092D01*
G01X104241Y150017D02*
X104416Y150367D01*
X104533Y150775D01*
Y151242D01*
X104358Y151767D01*
X104066Y152175D01*
X103716Y152467D01*
X103133Y152700D01*
X102608Y152758D01*
X102083Y152642D01*
X101733Y152467D01*
X101383Y152117D01*
X101150Y151708D01*
X101033Y151300D01*
Y150892D01*
X101150Y150483D01*
X101325Y150133D01*
X101558Y149842D01*
G01X101033Y147000D02*
X104533D01*
X103833Y147700D01*
G01X101033D02*
Y146300D01*
G01Y142700D02*
X104533D01*
X103833Y143400D01*
G01X101033D02*
Y142000D01*
G01X105203Y159735D02*
X105436Y159910D01*
X105611Y160201D01*
X105728Y160610D01*
X105611Y160960D01*
X105378Y161193D01*
X104969Y161368D01*
X103394D01*
Y157868D01*
X105319D01*
X105728Y158101D01*
X105961Y158451D01*
X106078Y158860D01*
X105961Y159268D01*
X105611Y159618D01*
X105203Y159735D01*
X103394D01*
G01X105408Y156315D02*
X119680D01*
Y178075D01*
X105472D01*
Y162651D01*
X101568D01*
Y156315D01*
X107584D01*
Y162587D01*
X105184D01*
G01X110987Y158220D02*
Y161720D01*
X112446D01*
X112912Y161545D01*
X113204Y161312D01*
X113321Y160845D01*
X113204Y160378D01*
X112854Y160087D01*
X112446Y159912D01*
X110987D01*
G01X112446D02*
X113321Y158220D01*
G01X115171Y158745D02*
X115521Y158453D01*
X115929Y158278D01*
X116454Y158220D01*
X116979Y158337D01*
X117387Y158570D01*
X117679Y158978D01*
X117737Y159445D01*
X117621Y159912D01*
X117329Y160203D01*
X116921Y160437D01*
X116512Y160495D01*
X116104Y160437D01*
X115579Y160203D01*
X115754Y161720D01*
X117329D01*
G01X108976Y137449D02*
Y140949D01*
X110435D01*
X110901Y140774D01*
X111193Y140541D01*
X111310Y140074D01*
X111193Y139607D01*
X110843Y139316D01*
X110435Y139141D01*
X108976D01*
G01X110435D02*
X111310Y137449D01*
G01X113335Y140366D02*
X113685Y140716D01*
X114093Y140891D01*
X114560Y140949D01*
X115143Y140832D01*
X115551Y140541D01*
X115668Y140191D01*
X115610Y139841D01*
X115376Y139549D01*
X114210Y138966D01*
X113685Y138557D01*
X113335Y137974D01*
X113218Y137449D01*
X115668D01*
G01X96806Y169408D02*
X96456Y169583D01*
X96048Y169700D01*
X95581D01*
X95056Y169525D01*
X94648Y169233D01*
X94356Y168883D01*
X94123Y168300D01*
X94065Y167775D01*
X94181Y167250D01*
X94356Y166900D01*
X94706Y166550D01*
X95115Y166317D01*
X95523Y166200D01*
X95931D01*
X96340Y166317D01*
X96690Y166492D01*
X96981Y166725D01*
G01X98715Y167658D02*
X99123Y168067D01*
X99473Y168300D01*
X99940Y168417D01*
X100348Y168300D01*
X100640Y168067D01*
X100873Y167717D01*
X100931Y167308D01*
X100873Y166958D01*
X100640Y166608D01*
X100290Y166317D01*
X99881Y166200D01*
X99415Y166317D01*
X99006Y166667D01*
X98773Y167192D01*
X98715Y167775D01*
X98831Y168533D01*
X99006Y168942D01*
X99298Y169350D01*
X99706Y169642D01*
X100115Y169700D01*
X100523Y169583D01*
X100815Y169292D01*
G01X95724Y161622D02*
X99858D01*
G01X95724Y165188D02*
X99858D01*
G01X109431Y176276D02*
X109081Y176451D01*
X108673Y176568D01*
X108206D01*
X107681Y176393D01*
X107273Y176101D01*
X106981Y175751D01*
X106748Y175168D01*
X106690Y174643D01*
X106806Y174118D01*
X106981Y173768D01*
X107331Y173418D01*
X107740Y173185D01*
X108148Y173068D01*
X108556D01*
X108965Y173185D01*
X109315Y173360D01*
X109606Y173593D01*
G01X111340Y175985D02*
X111690Y176335D01*
X112098Y176510D01*
X112565Y176568D01*
X113148Y176451D01*
X113556Y176160D01*
X113673Y175810D01*
X113615Y175460D01*
X113381Y175168D01*
X112215Y174585D01*
X111690Y174176D01*
X111340Y173593D01*
X111223Y173068D01*
X113673D01*
G01X116748Y176568D02*
X116281Y176451D01*
X115931Y176160D01*
X115698Y175810D01*
X115523Y175343D01*
X115465Y174818D01*
X115523Y174293D01*
X115698Y173826D01*
X115931Y173476D01*
X116281Y173185D01*
X116748Y173068D01*
X117215Y173185D01*
X117565Y173476D01*
X117798Y173826D01*
X117973Y174293D01*
X118031Y174818D01*
X117973Y175343D01*
X117798Y175810D01*
X117565Y176160D01*
X117215Y176451D01*
X116748Y176568D01*
G01X109111Y166548D02*
X108761Y166723D01*
X108353Y166840D01*
X107886D01*
X107361Y166665D01*
X106953Y166373D01*
X106661Y166023D01*
X106428Y165440D01*
X106370Y164915D01*
X106486Y164390D01*
X106661Y164040D01*
X107011Y163690D01*
X107420Y163457D01*
X107828Y163340D01*
X108236D01*
X108645Y163457D01*
X108995Y163632D01*
X109286Y163865D01*
G01X111020Y166257D02*
X111370Y166607D01*
X111778Y166782D01*
X112245Y166840D01*
X112828Y166723D01*
X113236Y166432D01*
X113353Y166082D01*
X113295Y165732D01*
X113061Y165440D01*
X111895Y164857D01*
X111370Y164448D01*
X111020Y163865D01*
X110903Y163340D01*
X113353D01*
G01X117128D02*
Y166840D01*
X114970Y164332D01*
X117886D01*
G01X109495Y171540D02*
X109145Y171715D01*
X108737Y171832D01*
X108270D01*
X107745Y171657D01*
X107337Y171365D01*
X107045Y171015D01*
X106812Y170432D01*
X106754Y169907D01*
X106870Y169382D01*
X107045Y169032D01*
X107395Y168682D01*
X107804Y168449D01*
X108212Y168332D01*
X108620D01*
X109029Y168449D01*
X109379Y168624D01*
X109670Y168857D01*
G01X111404Y171249D02*
X111754Y171599D01*
X112162Y171774D01*
X112629Y171832D01*
X113212Y171715D01*
X113620Y171424D01*
X113737Y171074D01*
X113679Y170724D01*
X113445Y170432D01*
X112279Y169849D01*
X111754Y169440D01*
X111404Y168857D01*
X111287Y168332D01*
X113737D01*
G01X116812D02*
Y171832D01*
X116112Y171132D01*
G01Y168332D02*
X117512D01*
G01X135076Y-72217D02*
X135368Y-72567D01*
X135718Y-72800D01*
X136126Y-72917D01*
X136593Y-72800D01*
X136943Y-72567D01*
X137293Y-72217D01*
X137410Y-71750D01*
Y-69417D01*
G01X140543Y-72917D02*
Y-69417D01*
X139843Y-70117D01*
G01Y-72917D02*
X141243D01*
G01X144726D02*
X144843Y-72159D01*
X145018Y-71517D01*
X145251Y-70934D01*
X145543Y-70292D01*
X146010Y-69417D01*
X143676D01*
G01X142811Y-17520D02*
Y-14020D01*
X142111Y-14720D01*
G01Y-17520D02*
X143511D01*
G01X120755Y-16453D02*
X121047Y-16803D01*
X121397Y-17036D01*
X121805Y-17153D01*
X122272Y-17036D01*
X122622Y-16803D01*
X122972Y-16453D01*
X123089Y-15986D01*
Y-13653D01*
G01X126222Y-17153D02*
Y-13653D01*
X125522Y-14353D01*
G01Y-17153D02*
X126922D01*
G01X130522D02*
X130930Y-17095D01*
X131397Y-16920D01*
X131689Y-16628D01*
X131805Y-16220D01*
X131689Y-15811D01*
X131339Y-15461D01*
X130814Y-15286D01*
X130230D01*
X129880Y-15170D01*
X129589Y-14878D01*
X129472Y-14470D01*
X129647Y-14061D01*
X130055Y-13770D01*
X130522Y-13653D01*
X130989Y-13770D01*
X131397Y-14061D01*
X131572Y-14470D01*
X131455Y-14878D01*
X131164Y-15170D01*
X130814Y-15286D01*
X130230D01*
X129705Y-15461D01*
X129355Y-15811D01*
X129239Y-16220D01*
X129355Y-16628D01*
X129647Y-16920D01*
X130114Y-17095D01*
X130522Y-17153D01*
G01X136017Y-7151D02*
Y-3651D01*
X135317Y-4351D01*
G01Y-7151D02*
X136717D01*
G01X139325Y-6743D02*
X139734Y-7034D01*
X140200Y-7151D01*
X140667Y-7034D01*
X141075Y-6684D01*
X141367Y-6159D01*
X141484Y-5634D01*
Y-4993D01*
X141367Y-4468D01*
X141075Y-4001D01*
X140725Y-3768D01*
X140317Y-3651D01*
X139850Y-3768D01*
X139500Y-4001D01*
X139267Y-4351D01*
X139150Y-4818D01*
X139267Y-5226D01*
X139559Y-5634D01*
X139909Y-5868D01*
X140317Y-5926D01*
X140784Y-5809D01*
X141134Y-5518D01*
X141484Y-4993D01*
G01X135805Y6769D02*
X136155Y7119D01*
X136563Y7294D01*
X137030Y7352D01*
X137613Y7235D01*
X138021Y6944D01*
X138138Y6594D01*
X138080Y6244D01*
X137846Y5952D01*
X136680Y5369D01*
X136155Y4960D01*
X135805Y4377D01*
X135688Y3852D01*
X138138D01*
G01X141213Y7352D02*
X140746Y7235D01*
X140396Y6944D01*
X140163Y6594D01*
X139988Y6127D01*
X139930Y5602D01*
X139988Y5077D01*
X140163Y4610D01*
X140396Y4260D01*
X140746Y3969D01*
X141213Y3852D01*
X141680Y3969D01*
X142030Y4260D01*
X142263Y4610D01*
X142438Y5077D01*
X142496Y5602D01*
X142438Y6127D01*
X142263Y6594D01*
X142030Y6944D01*
X141680Y7235D01*
X141213Y7352D01*
G01X134183Y20600D02*
Y24100D01*
X135642D01*
X136108Y23925D01*
X136400Y23692D01*
X136517Y23225D01*
X136400Y22758D01*
X136050Y22467D01*
X135642Y22292D01*
X134183D01*
G01X135642D02*
X136517Y20600D01*
G01X138542Y23517D02*
X138892Y23867D01*
X139300Y24042D01*
X139767Y24100D01*
X140350Y23983D01*
X140758Y23692D01*
X140875Y23342D01*
X140817Y22992D01*
X140583Y22700D01*
X139417Y22117D01*
X138892Y21708D01*
X138542Y21125D01*
X138425Y20600D01*
X140875D01*
G01X142842Y23517D02*
X143192Y23867D01*
X143600Y24042D01*
X144067Y24100D01*
X144650Y23983D01*
X145058Y23692D01*
X145175Y23342D01*
X145117Y22992D01*
X144883Y22700D01*
X143717Y22117D01*
X143192Y21708D01*
X142842Y21125D01*
X142725Y20600D01*
X145175D01*
G01X140000Y29900D02*
G03I-500J0D01*
G01X123850Y10863D02*
X124142Y10513D01*
X124492Y10280D01*
X124900Y10163D01*
X125367Y10280D01*
X125717Y10513D01*
X126067Y10863D01*
X126184Y11330D01*
Y13663D01*
G01X129317Y10163D02*
Y13663D01*
X128617Y12963D01*
G01Y10163D02*
X130017D01*
G01X132334Y10688D02*
X132684Y10396D01*
X133092Y10221D01*
X133617Y10163D01*
X134142Y10280D01*
X134550Y10513D01*
X134842Y10921D01*
X134900Y11388D01*
X134784Y11855D01*
X134492Y12146D01*
X134084Y12380D01*
X133675Y12438D01*
X133267Y12380D01*
X132742Y12146D01*
X132917Y13663D01*
X134492D01*
G01X136383Y44800D02*
Y48300D01*
X137842D01*
X138308Y48125D01*
X138600Y47892D01*
X138717Y47425D01*
X138600Y46958D01*
X138250Y46667D01*
X137842Y46492D01*
X136383D01*
G01X137842D02*
X138717Y44800D01*
G01X140742Y47717D02*
X141092Y48067D01*
X141500Y48242D01*
X141967Y48300D01*
X142550Y48183D01*
X142958Y47892D01*
X143075Y47542D01*
X143017Y47192D01*
X142783Y46900D01*
X141617Y46317D01*
X141092Y45908D01*
X140742Y45325D01*
X140625Y44800D01*
X143075D01*
G01X146150D02*
Y48300D01*
X145450Y47600D01*
G01Y44800D02*
X146850D01*
G01X140000Y38300D02*
G03I-500J0D01*
G01X140440Y78333D02*
Y81833D01*
X141606D01*
X142073Y81658D01*
X142423Y81425D01*
X142715Y81075D01*
X142948Y80666D01*
X143006Y80083D01*
X142948Y79500D01*
X142715Y79091D01*
X142423Y78741D01*
X142073Y78508D01*
X141606Y78333D01*
X140440D01*
G01X144740Y79033D02*
X145090Y78625D01*
X145556Y78391D01*
X146081Y78333D01*
X146548Y78391D01*
X147015Y78683D01*
X147306Y79033D01*
X147365Y79383D01*
X147248Y79791D01*
X146840Y80083D01*
X146431Y80200D01*
X145906D01*
G01X146431D02*
X146781Y80375D01*
X147073Y80666D01*
X147190Y81016D01*
X147073Y81366D01*
X146781Y81658D01*
X146256Y81833D01*
X145731Y81775D01*
X145206Y81541D01*
G01X143480Y59900D02*
X143772Y59550D01*
X144122Y59317D01*
X144530Y59200D01*
X144997Y59317D01*
X145347Y59550D01*
X145697Y59900D01*
X145814Y60367D01*
Y62700D01*
G01X147955Y59608D02*
X148364Y59317D01*
X148830Y59200D01*
X149297Y59317D01*
X149705Y59667D01*
X149997Y60192D01*
X150114Y60717D01*
Y61358D01*
X149997Y61883D01*
X149705Y62350D01*
X149355Y62583D01*
X148947Y62700D01*
X148480Y62583D01*
X148130Y62350D01*
X147897Y62000D01*
X147780Y61533D01*
X147897Y61125D01*
X148189Y60717D01*
X148539Y60483D01*
X148947Y60425D01*
X149414Y60542D01*
X149764Y60833D01*
X150114Y61358D01*
G01X128783Y76033D02*
Y79533D01*
X130242D01*
X130708Y79358D01*
X131000Y79125D01*
X131117Y78658D01*
X131000Y78191D01*
X130650Y77900D01*
X130242Y77725D01*
X128783D01*
G01X130242D02*
X131117Y76033D01*
G01X134133D02*
X134250Y76791D01*
X134425Y77433D01*
X134658Y78016D01*
X134950Y78658D01*
X135417Y79533D01*
X133083D01*
G01X126360Y71188D02*
Y74688D01*
X125660Y73988D01*
G01Y71188D02*
X127060D01*
G01X132375Y82575D02*
G03I-500J0D01*
G01X120875Y80075D02*
Y85075D01*
X119875D01*
Y80075D01*
X120875D01*
G01X145087Y75579D02*
X150087D01*
Y64179D01*
X145087D01*
G01X133687D02*
X128687D01*
Y75579D01*
X133687D01*
G01X137370Y107724D02*
X137020Y107899D01*
X136612Y108016D01*
X136145D01*
X135620Y107841D01*
X135212Y107549D01*
X134920Y107199D01*
X134687Y106616D01*
X134629Y106091D01*
X134745Y105566D01*
X134920Y105216D01*
X135270Y104866D01*
X135679Y104633D01*
X136087Y104516D01*
X136495D01*
X136904Y104633D01*
X137254Y104808D01*
X137545Y105041D01*
G01X139279Y107433D02*
X139629Y107783D01*
X140037Y107958D01*
X140504Y108016D01*
X141087Y107899D01*
X141495Y107608D01*
X141612Y107258D01*
X141554Y106908D01*
X141320Y106616D01*
X140154Y106033D01*
X139629Y105624D01*
X139279Y105041D01*
X139162Y104516D01*
X141612D01*
G01X144687D02*
X145095Y104574D01*
X145562Y104749D01*
X145854Y105041D01*
X145970Y105449D01*
X145854Y105858D01*
X145504Y106208D01*
X144979Y106383D01*
X144395D01*
X144045Y106499D01*
X143754Y106791D01*
X143637Y107199D01*
X143812Y107608D01*
X144220Y107899D01*
X144687Y108016D01*
X145154Y107899D01*
X145562Y107608D01*
X145737Y107199D01*
X145620Y106791D01*
X145329Y106499D01*
X144979Y106383D01*
X144395D01*
X143870Y106208D01*
X143520Y105858D01*
X143404Y105449D01*
X143520Y105041D01*
X143812Y104749D01*
X144279Y104574D01*
X144687Y104516D01*
G01X142557Y110012D02*
X142090Y110070D01*
X141682Y110304D01*
X141332Y110654D01*
X141099Y111062D01*
X140982Y111529D01*
Y111995D01*
X141099Y112462D01*
X141332Y112870D01*
X141682Y113220D01*
X142090Y113454D01*
X142557Y113512D01*
X143024Y113454D01*
X143432Y113220D01*
X143782Y112870D01*
X144015Y112462D01*
X144132Y111995D01*
Y111529D01*
X144015Y111062D01*
X143782Y110654D01*
X143432Y110304D01*
X143024Y110070D01*
X142557Y110012D01*
G01X145515D02*
Y113512D01*
X148199Y110012D01*
Y113512D01*
G01X149407Y108845D02*
X152907D01*
G01X155924Y111879D02*
X156157Y112054D01*
X156332Y112345D01*
X156449Y112754D01*
X156332Y113104D01*
X156099Y113337D01*
X155690Y113512D01*
X154115D01*
Y110012D01*
X156040D01*
X156449Y110245D01*
X156682Y110595D01*
X156799Y111004D01*
X156682Y111412D01*
X156332Y111762D01*
X155924Y111879D01*
X154115D01*
G01X158590Y110012D02*
Y113512D01*
X160049D01*
X160515Y113337D01*
X160807Y113104D01*
X160924Y112637D01*
X160807Y112170D01*
X160457Y111879D01*
X160049Y111704D01*
X158590D01*
G01X160049D02*
X160924Y110012D01*
G01X162774D02*
Y113512D01*
X163940D01*
X164407Y113337D01*
X164757Y113104D01*
X165049Y112754D01*
X165282Y112345D01*
X165340Y111762D01*
X165282Y111179D01*
X165049Y110770D01*
X164757Y110420D01*
X164407Y110187D01*
X163940Y110012D01*
X162774D01*
G01X166607Y108845D02*
X170107D01*
G01X171490Y110012D02*
Y113512D01*
X172949D01*
X173415Y113337D01*
X173707Y113104D01*
X173824Y112637D01*
X173707Y112170D01*
X173357Y111879D01*
X172949Y111704D01*
X171490D01*
G01X172949D02*
X173824Y110012D01*
G01X178124D02*
X175790D01*
Y113512D01*
X178124D01*
G01X177190Y111820D02*
X175790D01*
G01X181607Y111762D02*
X182774D01*
Y110712D01*
X182424Y110362D01*
X182015Y110129D01*
X181432Y110012D01*
X180849Y110129D01*
X180440Y110362D01*
X180090Y110712D01*
X179857Y111120D01*
X179740Y111587D01*
Y111995D01*
X179857Y112345D01*
X180090Y112754D01*
X180440Y113104D01*
X180790Y113337D01*
X181257Y113512D01*
X181665D01*
X182132Y113395D01*
X182482Y113162D01*
G01X136061Y102779D02*
X136913Y103631D01*
X136950D01*
Y100460D01*
X136949Y100459D01*
G01X136950Y103631D02*
Y103613D01*
X137820Y102743D01*
G01X135925Y96175D02*
Y96975D01*
G01X138225D02*
Y96175D01*
G01X125011Y105582D02*
Y103074D01*
X125244Y102549D01*
X125711Y102199D01*
X126294Y102082D01*
X126877Y102199D01*
X127344Y102549D01*
X127577Y103074D01*
Y105582D01*
G01X129486Y104999D02*
X129836Y105349D01*
X130244Y105524D01*
X130711Y105582D01*
X131294Y105465D01*
X131702Y105174D01*
X131819Y104824D01*
X131761Y104474D01*
X131527Y104182D01*
X130361Y103599D01*
X129836Y103190D01*
X129486Y102607D01*
X129369Y102082D01*
X131819D01*
G01X121275Y89525D02*
X120775D01*
Y97625D01*
X121275D01*
G01X125975D02*
X128775D01*
G01X133475D02*
X133975D01*
Y89525D01*
X133475D01*
G01X137391Y110059D02*
Y109059D01*
X124591D01*
Y110059D01*
G01X140375Y86675D02*
X139375D01*
Y99475D01*
X140375D01*
G01X140622Y134788D02*
X140272Y134963D01*
X139864Y135080D01*
X139397D01*
X138872Y134905D01*
X138464Y134613D01*
X138172Y134263D01*
X137939Y133680D01*
X137881Y133155D01*
X137997Y132630D01*
X138172Y132280D01*
X138522Y131930D01*
X138931Y131697D01*
X139339Y131580D01*
X139747D01*
X140156Y131697D01*
X140506Y131872D01*
X140797Y132105D01*
G01X143639Y131580D02*
Y135080D01*
X142939Y134380D01*
G01Y131580D02*
X144339D01*
G01X146831Y133038D02*
X147239Y133447D01*
X147589Y133680D01*
X148056Y133797D01*
X148464Y133680D01*
X148756Y133447D01*
X148989Y133097D01*
X149047Y132688D01*
X148989Y132338D01*
X148756Y131988D01*
X148406Y131697D01*
X147997Y131580D01*
X147531Y131697D01*
X147122Y132047D01*
X146889Y132572D01*
X146831Y133155D01*
X146947Y133913D01*
X147122Y134322D01*
X147414Y134730D01*
X147822Y135022D01*
X148231Y135080D01*
X148639Y134963D01*
X148931Y134672D01*
G01X131749Y118638D02*
Y122138D01*
X132915D01*
X133382Y121963D01*
X133732Y121730D01*
X134024Y121380D01*
X134257Y120971D01*
X134315Y120388D01*
X134257Y119805D01*
X134024Y119396D01*
X133732Y119046D01*
X133382Y118813D01*
X132915Y118638D01*
X131749D01*
G01X136224Y121555D02*
X136574Y121905D01*
X136982Y122080D01*
X137449Y122138D01*
X138032Y122021D01*
X138440Y121730D01*
X138557Y121380D01*
X138499Y121030D01*
X138265Y120738D01*
X137099Y120155D01*
X136574Y119746D01*
X136224Y119163D01*
X136107Y118638D01*
X138557D01*
G01X135307Y129362D02*
X120307D01*
Y137762D01*
X135307D01*
Y129362D01*
G01X136439Y126043D02*
Y145467D01*
X163127D01*
Y123067D01*
X136439D01*
Y126043D01*
G01X140702Y129780D02*
X140352Y129955D01*
X139944Y130072D01*
X139477D01*
X138952Y129897D01*
X138544Y129605D01*
X138252Y129255D01*
X138019Y128672D01*
X137961Y128147D01*
X138077Y127622D01*
X138252Y127272D01*
X138602Y126922D01*
X139011Y126689D01*
X139419Y126572D01*
X139827D01*
X140236Y126689D01*
X140586Y126864D01*
X140877Y127097D01*
G01X143719Y126572D02*
Y130072D01*
X143019Y129372D01*
G01Y126572D02*
X144419D01*
G01X147902D02*
X148019Y127330D01*
X148194Y127972D01*
X148427Y128555D01*
X148719Y129197D01*
X149186Y130072D01*
X146852D01*
G01X124591Y116459D02*
Y117459D01*
X137391D01*
Y116459D01*
G01X138417Y144846D02*
Y141346D01*
X140751D01*
G01X142601Y141871D02*
X142951Y141579D01*
X143359Y141404D01*
X143884Y141346D01*
X144409Y141463D01*
X144817Y141696D01*
X145109Y142104D01*
X145167Y142571D01*
X145051Y143038D01*
X144759Y143329D01*
X144351Y143563D01*
X143942Y143621D01*
X143534Y143563D01*
X143009Y143329D01*
X143184Y144846D01*
X144759D01*
G01X140298Y139860D02*
X139948Y140035D01*
X139540Y140152D01*
X139073D01*
X138548Y139977D01*
X138140Y139685D01*
X137848Y139335D01*
X137615Y138752D01*
X137557Y138227D01*
X137673Y137702D01*
X137848Y137352D01*
X138198Y137002D01*
X138607Y136769D01*
X139015Y136652D01*
X139423D01*
X139832Y136769D01*
X140182Y136944D01*
X140473Y137177D01*
G01X143315Y136652D02*
Y140152D01*
X142615Y139452D01*
G01Y136652D02*
X144015D01*
G01X148315D02*
Y140152D01*
X146157Y137644D01*
X149073D01*
G01X121862Y142240D02*
Y138740D01*
G01X120520Y142240D02*
X123204D01*
G01X124995D02*
Y138740D01*
X127329D01*
G01X129354Y141657D02*
X129704Y142007D01*
X130112Y142182D01*
X130579Y142240D01*
X131162Y142123D01*
X131570Y141832D01*
X131687Y141482D01*
X131629Y141132D01*
X131395Y140840D01*
X130229Y140257D01*
X129704Y139848D01*
X129354Y139265D01*
X129237Y138740D01*
X131687D01*
G01X122600Y162033D02*
Y165533D01*
X121900Y164833D01*
G01Y162033D02*
X123300D01*
G01X121892Y154350D02*
X122242Y154700D01*
X122650Y154875D01*
X123117Y154933D01*
X123700Y154816D01*
X124108Y154525D01*
X124225Y154175D01*
X124167Y153825D01*
X123933Y153533D01*
X122767Y152950D01*
X122242Y152541D01*
X121892Y151958D01*
X121775Y151433D01*
X124225D01*
G01X149120Y148705D02*
X131920D01*
G01X125820Y154805D02*
Y172005D01*
G01X132473Y180318D02*
Y183818D01*
X133932D01*
X134398Y183643D01*
X134690Y183410D01*
X134807Y182943D01*
X134690Y182476D01*
X134340Y182185D01*
X133932Y182010D01*
X132473D01*
G01X133932D02*
X134807Y180318D01*
G01X136832D02*
Y183818D01*
X139048D01*
G01X138232Y182126D02*
X136832D01*
G01X140490Y179151D02*
X143990D01*
G01X145840Y183818D02*
X147240D01*
G01X146540D02*
Y180318D01*
G01X145840D02*
X147240D01*
G01X150840D02*
X150373Y180376D01*
X149965Y180610D01*
X149615Y180960D01*
X149382Y181368D01*
X149265Y181835D01*
Y182301D01*
X149382Y182768D01*
X149615Y183176D01*
X149965Y183526D01*
X150373Y183760D01*
X150840Y183818D01*
X151307Y183760D01*
X151715Y183526D01*
X152065Y183176D01*
X152298Y182768D01*
X152415Y182301D01*
Y181835D01*
X152298Y181368D01*
X152065Y180960D01*
X151715Y180610D01*
X151307Y180376D01*
X150840Y180318D01*
G01X120917Y173133D02*
X121267Y172725D01*
X121733Y172491D01*
X122258Y172433D01*
X122725Y172491D01*
X123192Y172783D01*
X123483Y173133D01*
X123542Y173483D01*
X123425Y173891D01*
X123017Y174183D01*
X122608Y174300D01*
X122083D01*
G01X122608D02*
X122958Y174475D01*
X123250Y174766D01*
X123367Y175116D01*
X123250Y175466D01*
X122958Y175758D01*
X122433Y175933D01*
X121908Y175875D01*
X121383Y175641D01*
G01X120487Y180867D02*
X120779Y180517D01*
X121129Y180284D01*
X121537Y180167D01*
X122004Y180284D01*
X122354Y180517D01*
X122704Y180867D01*
X122821Y181334D01*
Y183667D01*
G01X124846Y183084D02*
X125196Y183434D01*
X125604Y183609D01*
X126071Y183667D01*
X126654Y183550D01*
X127062Y183259D01*
X127179Y182909D01*
X127121Y182559D01*
X126887Y182267D01*
X125721Y181684D01*
X125196Y181275D01*
X124846Y180692D01*
X124729Y180167D01*
X127179D01*
G01X131920Y178105D02*
X149120D01*
G01X154425Y-246425D02*
Y-240125D01*
X153485Y-241385D01*
G01Y-246425D02*
X155365D01*
G01X160568D02*
X160725Y-245060D01*
X160960Y-243905D01*
X161273Y-242855D01*
X161665Y-241700D01*
X162292Y-240125D01*
X159158D01*
G01X167025D02*
X166398Y-240335D01*
X165928Y-240860D01*
X165615Y-241490D01*
X165380Y-242330D01*
X165302Y-243275D01*
X165380Y-244220D01*
X165615Y-245060D01*
X165928Y-245690D01*
X166398Y-246215D01*
X167025Y-246425D01*
X167652Y-246215D01*
X168122Y-245690D01*
X168435Y-245060D01*
X168670Y-244220D01*
X168748Y-243275D01*
X168670Y-242330D01*
X168435Y-241490D01*
X168122Y-240860D01*
X167652Y-240335D01*
X167025Y-240125D01*
G01X172307Y-244325D02*
X174343D01*
G01X178137Y-241175D02*
X178607Y-240545D01*
X179155Y-240230D01*
X179782Y-240125D01*
X180565Y-240335D01*
X181113Y-240860D01*
X181270Y-241490D01*
X181192Y-242120D01*
X180878Y-242645D01*
X179312Y-243695D01*
X178607Y-244430D01*
X178137Y-245480D01*
X177980Y-246425D01*
X181270D01*
G01X185768D02*
X185925Y-245060D01*
X186160Y-243905D01*
X186473Y-242855D01*
X186865Y-241700D01*
X187492Y-240125D01*
X184358D01*
G01X192068Y-246425D02*
X192225Y-245060D01*
X192460Y-243905D01*
X192773Y-242855D01*
X193165Y-241700D01*
X193792Y-240125D01*
X190658D01*
G01X197193Y-245690D02*
X197742Y-246215D01*
X198368Y-246425D01*
X198995Y-246215D01*
X199543Y-245585D01*
X199935Y-244640D01*
X200092Y-243695D01*
Y-242540D01*
X199935Y-241595D01*
X199543Y-240755D01*
X199073Y-240335D01*
X198525Y-240125D01*
X197898Y-240335D01*
X197428Y-240755D01*
X197115Y-241385D01*
X196958Y-242225D01*
X197115Y-242960D01*
X197507Y-243695D01*
X197977Y-244115D01*
X198525Y-244220D01*
X199152Y-244010D01*
X199622Y-243485D01*
X200092Y-242540D01*
G01X203337Y-241175D02*
X203807Y-240545D01*
X204355Y-240230D01*
X204982Y-240125D01*
X205765Y-240335D01*
X206313Y-240860D01*
X206470Y-241490D01*
X206392Y-242120D01*
X206078Y-242645D01*
X204512Y-243695D01*
X203807Y-244430D01*
X203337Y-245480D01*
X203180Y-246425D01*
X206470D01*
G01X247358D02*
Y-240125D01*
X249317D01*
X249943Y-240440D01*
X250335Y-240860D01*
X250492Y-241700D01*
X250335Y-242540D01*
X249865Y-243065D01*
X249317Y-243380D01*
X247358D01*
G01X249317D02*
X250492Y-246425D01*
G01X256792D02*
X253658D01*
Y-240125D01*
X256792D01*
G01X255538Y-243170D02*
X253658D01*
G01X259567Y-240125D02*
X261525Y-246425D01*
X263483Y-240125D01*
G01X272402Y-246425D02*
Y-240125D01*
X273968D01*
X274595Y-240440D01*
X275065Y-240860D01*
X275457Y-241490D01*
X275770Y-242225D01*
X275848Y-243275D01*
X275770Y-244325D01*
X275457Y-245060D01*
X275065Y-245690D01*
X274595Y-246110D01*
X273968Y-246425D01*
X272402D01*
G01X154388Y-173425D02*
Y-167125D01*
X156425Y-172375D01*
X158462Y-167125D01*
Y-173425D01*
G01X161158D02*
Y-167125D01*
X163117D01*
X163743Y-167440D01*
X164135Y-167860D01*
X164292Y-168700D01*
X164135Y-169540D01*
X163665Y-170065D01*
X163117Y-170380D01*
X161158D01*
G01X163117D02*
X164292Y-173425D01*
G01X169652Y-170065D02*
X169965Y-169750D01*
X170200Y-169225D01*
X170357Y-168490D01*
X170200Y-167860D01*
X169887Y-167440D01*
X169338Y-167125D01*
X167223D01*
Y-173425D01*
X169808D01*
X170357Y-173005D01*
X170670Y-172375D01*
X170827Y-171640D01*
X170670Y-170905D01*
X170200Y-170275D01*
X169652Y-170065D01*
X167223D01*
G01X174307Y-171325D02*
X176343D01*
G01X179902Y-173425D02*
Y-167125D01*
G01X182878D02*
X179902Y-171010D01*
G01X183348Y-173425D02*
X181233Y-169225D01*
G01X185575Y-167125D02*
X186672Y-173425D01*
X187925Y-167125D01*
X189178Y-173425D01*
X190275Y-167125D01*
G01X194225D02*
X193598Y-167335D01*
X193128Y-167860D01*
X192815Y-168490D01*
X192580Y-169330D01*
X192502Y-170275D01*
X192580Y-171220D01*
X192815Y-172060D01*
X193128Y-172690D01*
X193598Y-173215D01*
X194225Y-173425D01*
X194852Y-173215D01*
X195322Y-172690D01*
X195635Y-172060D01*
X195870Y-171220D01*
X195948Y-170275D01*
X195870Y-169330D01*
X195635Y-168490D01*
X195322Y-167860D01*
X194852Y-167335D01*
X194225Y-167125D01*
G01X200525Y-173425D02*
Y-167125D01*
X199585Y-168385D01*
G01Y-173425D02*
X201465D01*
G01X205493Y-172690D02*
X206042Y-173215D01*
X206668Y-173425D01*
X207295Y-173215D01*
X207843Y-172585D01*
X208235Y-171640D01*
X208392Y-170695D01*
Y-169540D01*
X208235Y-168595D01*
X207843Y-167755D01*
X207373Y-167335D01*
X206825Y-167125D01*
X206198Y-167335D01*
X205728Y-167755D01*
X205415Y-168385D01*
X205258Y-169225D01*
X205415Y-169960D01*
X205807Y-170695D01*
X206277Y-171115D01*
X206825Y-171220D01*
X207452Y-171010D01*
X207922Y-170485D01*
X208392Y-169540D01*
G01X213125Y-167125D02*
X212498Y-167335D01*
X212028Y-167860D01*
X211715Y-168490D01*
X211480Y-169330D01*
X211402Y-170275D01*
X211480Y-171220D01*
X211715Y-172060D01*
X212028Y-172690D01*
X212498Y-173215D01*
X213125Y-173425D01*
X213752Y-173215D01*
X214222Y-172690D01*
X214535Y-172060D01*
X214770Y-171220D01*
X214848Y-170275D01*
X214770Y-169330D01*
X214535Y-168490D01*
X214222Y-167860D01*
X213752Y-167335D01*
X213125Y-167125D01*
G01X217702Y-172165D02*
X218172Y-172900D01*
X218798Y-173320D01*
X219503Y-173425D01*
X220130Y-173320D01*
X220757Y-172795D01*
X221148Y-172165D01*
X221227Y-171535D01*
X221070Y-170800D01*
X220522Y-170275D01*
X219973Y-170065D01*
X219268D01*
G01X219973D02*
X220443Y-169750D01*
X220835Y-169225D01*
X220992Y-168595D01*
X220835Y-167965D01*
X220443Y-167440D01*
X219738Y-167125D01*
X219033Y-167230D01*
X218328Y-167650D01*
G01X224237Y-168175D02*
X224707Y-167545D01*
X225255Y-167230D01*
X225882Y-167125D01*
X226665Y-167335D01*
X227213Y-167860D01*
X227370Y-168490D01*
X227292Y-169120D01*
X226978Y-169645D01*
X225412Y-170695D01*
X224707Y-171430D01*
X224237Y-172480D01*
X224080Y-173425D01*
X227370D01*
G01X168943Y-63717D02*
Y-60217D01*
X168243Y-60917D01*
G01Y-63717D02*
X169643D01*
G01X171960Y-63017D02*
X172310Y-63425D01*
X172776Y-63659D01*
X173301Y-63717D01*
X173768Y-63659D01*
X174235Y-63367D01*
X174526Y-63017D01*
X174585Y-62667D01*
X174468Y-62259D01*
X174060Y-61967D01*
X173651Y-61850D01*
X173126D01*
G01X173651D02*
X174001Y-61675D01*
X174293Y-61384D01*
X174410Y-61034D01*
X174293Y-60684D01*
X174001Y-60392D01*
X173476Y-60217D01*
X172951Y-60275D01*
X172426Y-60509D01*
G01X170243Y-42117D02*
Y-38617D01*
X169543Y-39317D01*
G01Y-42117D02*
X170943D01*
G01X173260Y-41592D02*
X173610Y-41884D01*
X174018Y-42059D01*
X174543Y-42117D01*
X175068Y-42000D01*
X175476Y-41767D01*
X175768Y-41359D01*
X175826Y-40892D01*
X175710Y-40425D01*
X175418Y-40134D01*
X175010Y-39900D01*
X174601Y-39842D01*
X174193Y-39900D01*
X173668Y-40134D01*
X173843Y-38617D01*
X175418D01*
G01X168098Y-10395D02*
X168331Y-10220D01*
X168506Y-9929D01*
X168623Y-9520D01*
X168506Y-9170D01*
X168273Y-8937D01*
X167864Y-8762D01*
X166289D01*
Y-12262D01*
X168214D01*
X168623Y-12029D01*
X168856Y-11679D01*
X168973Y-11270D01*
X168856Y-10862D01*
X168506Y-10512D01*
X168098Y-10395D01*
X166289D01*
G01X170706Y-12262D02*
Y-8762D01*
G01X173156D02*
Y-12262D01*
G01Y-10512D02*
X170706D01*
G01X176931Y-12262D02*
Y-8762D01*
X174773Y-11270D01*
X177689D01*
G01X161350Y18747D02*
Y15247D01*
G01X160008Y18747D02*
X162692D01*
G01X164483Y15247D02*
Y18747D01*
X165883D01*
X166350Y18572D01*
X166700Y18164D01*
X166817Y17697D01*
X166700Y17230D01*
X166408Y16880D01*
X165883Y16705D01*
X164483D01*
G01X168842Y18164D02*
X169192Y18514D01*
X169600Y18689D01*
X170067Y18747D01*
X170650Y18630D01*
X171058Y18339D01*
X171175Y17989D01*
X171117Y17639D01*
X170883Y17347D01*
X169717Y16764D01*
X169192Y16355D01*
X168842Y15772D01*
X168725Y15247D01*
X171175D01*
G01X172967Y15772D02*
X173317Y15480D01*
X173725Y15305D01*
X174250Y15247D01*
X174775Y15364D01*
X175183Y15597D01*
X175475Y16005D01*
X175533Y16472D01*
X175417Y16939D01*
X175125Y17230D01*
X174717Y17464D01*
X174308Y17522D01*
X173900Y17464D01*
X173375Y17230D01*
X173550Y18747D01*
X175125D01*
G01X159791Y11425D02*
G02I-6950J0D01*
G01X171191Y25388D02*
X171599Y25446D01*
X172066Y25621D01*
X172358Y25913D01*
X172474Y26321D01*
X172358Y26730D01*
X172008Y27080D01*
X171483Y27255D01*
X170899D01*
X170549Y27371D01*
X170258Y27663D01*
X170141Y28071D01*
X170316Y28480D01*
X170724Y28771D01*
X171191Y28888D01*
X171658Y28771D01*
X172066Y28480D01*
X172241Y28071D01*
X172124Y27663D01*
X171833Y27371D01*
X171483Y27255D01*
X170899D01*
X170374Y27080D01*
X170024Y26730D01*
X169908Y26321D01*
X170024Y25913D01*
X170316Y25621D01*
X170783Y25446D01*
X171191Y25388D01*
G01X160066Y25644D02*
X160183Y26402D01*
X160358Y27044D01*
X160591Y27627D01*
X160883Y28269D01*
X161350Y29144D01*
X159016D01*
G01X155074Y36229D02*
Y33379D01*
X158024Y30429D01*
X173574D01*
X176474Y33379D01*
Y36079D01*
G01X149942Y80756D02*
X149930Y80769D01*
X148699D01*
G01X149968Y81987D02*
Y80783D01*
X149942Y80756D01*
X147700Y82999D01*
Y83000D01*
G01X164283Y81733D02*
Y85233D01*
X165742D01*
X166208Y85058D01*
X166500Y84825D01*
X166617Y84358D01*
X166500Y83891D01*
X166150Y83600D01*
X165742Y83425D01*
X164283D01*
G01X165742D02*
X166617Y81733D01*
G01X168758Y82141D02*
X169167Y81850D01*
X169633Y81733D01*
X170100Y81850D01*
X170508Y82200D01*
X170800Y82725D01*
X170917Y83250D01*
Y83891D01*
X170800Y84416D01*
X170508Y84883D01*
X170158Y85116D01*
X169750Y85233D01*
X169283Y85116D01*
X168933Y84883D01*
X168700Y84533D01*
X168583Y84066D01*
X168700Y83658D01*
X168992Y83250D01*
X169342Y83016D01*
X169750Y82958D01*
X170217Y83075D01*
X170567Y83366D01*
X170917Y83891D01*
G01X165271Y77571D02*
G03I500J0D01*
G01X158391Y73100D02*
Y76600D01*
X157691Y75900D01*
G01Y73100D02*
X159091D01*
G01X155124Y66129D02*
Y71629D01*
X173574D01*
X176374Y68829D01*
Y65979D01*
G01X164683Y94133D02*
X164975Y93783D01*
X165325Y93550D01*
X165733Y93433D01*
X166200Y93550D01*
X166550Y93783D01*
X166900Y94133D01*
X167017Y94600D01*
Y96933D01*
G01X169042Y94891D02*
X169450Y95300D01*
X169800Y95533D01*
X170267Y95650D01*
X170675Y95533D01*
X170967Y95300D01*
X171200Y94950D01*
X171258Y94541D01*
X171200Y94191D01*
X170967Y93841D01*
X170617Y93550D01*
X170208Y93433D01*
X169742Y93550D01*
X169333Y93900D01*
X169100Y94425D01*
X169042Y95008D01*
X169158Y95766D01*
X169333Y96175D01*
X169625Y96583D01*
X170033Y96875D01*
X170442Y96933D01*
X170850Y96816D01*
X171142Y96525D01*
G01X163600Y97833D02*
Y101333D01*
X162900Y100633D01*
G01Y97833D02*
X164300D01*
G01X161275Y88875D02*
Y83875D01*
X149875D01*
Y88875D01*
G01Y100275D02*
Y105275D01*
X161275D01*
Y100275D01*
G01X146775Y99475D02*
X147775D01*
Y86675D01*
X146775D01*
G01X151317Y135470D02*
Y131970D01*
X153651D01*
G01X155676Y133428D02*
X156084Y133837D01*
X156434Y134070D01*
X156901Y134187D01*
X157309Y134070D01*
X157601Y133837D01*
X157834Y133487D01*
X157892Y133078D01*
X157834Y132728D01*
X157601Y132378D01*
X157251Y132087D01*
X156842Y131970D01*
X156376Y132087D01*
X155967Y132437D01*
X155734Y132962D01*
X155676Y133545D01*
X155792Y134303D01*
X155967Y134712D01*
X156259Y135120D01*
X156667Y135412D01*
X157076Y135470D01*
X157484Y135353D01*
X157776Y135062D01*
G01X165633Y123717D02*
X169133D01*
Y122258D01*
X168958Y121792D01*
X168725Y121500D01*
X168258Y121383D01*
X167791Y121500D01*
X167500Y121850D01*
X167325Y122258D01*
Y123717D01*
G01Y122258D02*
X165633Y121383D01*
G01X166333Y119533D02*
X165925Y119183D01*
X165691Y118717D01*
X165633Y118192D01*
X165691Y117725D01*
X165983Y117258D01*
X166333Y116967D01*
X166683Y116908D01*
X167091Y117025D01*
X167383Y117433D01*
X167500Y117842D01*
Y118367D01*
G01Y117842D02*
X167675Y117492D01*
X167966Y117200D01*
X168316Y117083D01*
X168666Y117200D01*
X168958Y117492D01*
X169133Y118017D01*
X169075Y118542D01*
X168841Y119067D01*
G01X158377Y118516D02*
X159835Y122016D01*
X161293Y118516D01*
G01X160768Y119741D02*
X158902D01*
G01X156679Y122971D02*
Y117051D01*
X163127D01*
Y123067D01*
G01X153310Y129940D02*
X152960Y130115D01*
X152552Y130232D01*
X152085D01*
X151560Y130057D01*
X151152Y129765D01*
X150860Y129415D01*
X150627Y128832D01*
X150569Y128307D01*
X150685Y127782D01*
X150860Y127432D01*
X151210Y127082D01*
X151619Y126849D01*
X152027Y126732D01*
X152435D01*
X152844Y126849D01*
X153194Y127024D01*
X153485Y127257D01*
G01X156327Y126732D02*
Y130232D01*
X155627Y129532D01*
G01Y126732D02*
X157027D01*
G01X160627D02*
X161035Y126790D01*
X161502Y126965D01*
X161794Y127257D01*
X161910Y127665D01*
X161794Y128074D01*
X161444Y128424D01*
X160919Y128599D01*
X160335D01*
X159985Y128715D01*
X159694Y129007D01*
X159577Y129415D01*
X159752Y129824D01*
X160160Y130115D01*
X160627Y130232D01*
X161094Y130115D01*
X161502Y129824D01*
X161677Y129415D01*
X161560Y129007D01*
X161269Y128715D01*
X160919Y128599D01*
X160335D01*
X159810Y128424D01*
X159460Y128074D01*
X159344Y127665D01*
X159460Y127257D01*
X159752Y126965D01*
X160219Y126790D01*
X160627Y126732D01*
G01X169463Y129522D02*
X169113Y129697D01*
X168705Y129814D01*
X168238D01*
X167713Y129639D01*
X167305Y129347D01*
X167013Y128997D01*
X166780Y128414D01*
X166722Y127889D01*
X166838Y127364D01*
X167013Y127014D01*
X167363Y126664D01*
X167772Y126431D01*
X168180Y126314D01*
X168588D01*
X168997Y126431D01*
X169347Y126606D01*
X169638Y126839D01*
G01X166687Y133895D02*
X168145Y137395D01*
X169603Y133895D01*
G01X169078Y135120D02*
X167212D01*
G01X157117Y150358D02*
X157467Y150066D01*
X157875Y149891D01*
X158400Y149833D01*
X158925Y149950D01*
X159333Y150183D01*
X159625Y150591D01*
X159683Y151058D01*
X159567Y151525D01*
X159275Y151816D01*
X158867Y152050D01*
X158458Y152108D01*
X158050Y152050D01*
X157525Y151816D01*
X157700Y153333D01*
X159275D01*
G01X155220Y172005D02*
Y154805D01*
G01X171178Y138153D02*
Y141653D01*
X172344D01*
X172811Y141478D01*
X173161Y141245D01*
X173453Y140895D01*
X173686Y140486D01*
X173744Y139903D01*
X173686Y139320D01*
X173453Y138911D01*
X173161Y138561D01*
X172811Y138328D01*
X172344Y138153D01*
X171178D01*
G01X176761D02*
Y141653D01*
X176061Y140953D01*
G01Y138153D02*
X177461D01*
G01X158500Y172233D02*
Y175733D01*
X156342Y173225D01*
X159258D01*
G01X166190Y180395D02*
X166423Y180570D01*
X166598Y180861D01*
X166715Y181270D01*
X166598Y181620D01*
X166365Y181853D01*
X165956Y182028D01*
X164381D01*
Y178528D01*
X166306D01*
X166715Y178761D01*
X166948Y179111D01*
X167065Y179520D01*
X166948Y179928D01*
X166598Y180278D01*
X166190Y180395D01*
X164381D01*
G01X168798Y178528D02*
Y182028D01*
G01X171248D02*
Y178528D01*
G01Y180278D02*
X168798D01*
G01X173215Y181445D02*
X173565Y181795D01*
X173973Y181970D01*
X174440Y182028D01*
X175023Y181911D01*
X175431Y181620D01*
X175548Y181270D01*
X175490Y180920D01*
X175256Y180628D01*
X174090Y180045D01*
X173565Y179636D01*
X173215Y179053D01*
X173098Y178528D01*
X175548D01*
G01X177508Y56118D02*
X177158Y55826D01*
X176925Y55476D01*
X176808Y55068D01*
X176925Y54601D01*
X177158Y54251D01*
X177508Y53901D01*
X177975Y53784D01*
X180308D01*
G01X176808Y50651D02*
X180308D01*
X179608Y51351D01*
G01X176808D02*
Y49951D01*
G01X177508Y47634D02*
X177100Y47284D01*
X176866Y46818D01*
X176808Y46293D01*
X176866Y45826D01*
X177158Y45359D01*
X177508Y45068D01*
X177858Y45009D01*
X178266Y45126D01*
X178558Y45534D01*
X178675Y45943D01*
Y46468D01*
G01Y45943D02*
X178850Y45593D01*
X179141Y45301D01*
X179491Y45184D01*
X179841Y45301D01*
X180133Y45593D01*
X180308Y46118D01*
X180250Y46643D01*
X180016Y47168D01*
G01X176633Y103183D02*
Y105517D01*
X180133D01*
Y103183D01*
G01X178441Y104117D02*
Y105517D01*
G01X176633Y101275D02*
X180133Y98825D01*
G01Y101275D02*
X176633Y98825D01*
G01X180133Y95750D02*
X176633D01*
G01X180133Y97092D02*
Y94408D01*
G01X175466Y93200D02*
Y89700D01*
G01X177100Y88375D02*
X176808Y87908D01*
X176633Y87383D01*
Y86917D01*
X176808Y86450D01*
X177100Y86100D01*
X177508Y85925D01*
X177916Y86042D01*
X178266Y86333D01*
X178500Y86858D01*
X178616Y87558D01*
X178850Y87967D01*
X179258Y88142D01*
X179666Y88025D01*
X179958Y87733D01*
X180133Y87325D01*
Y86917D01*
X180016Y86508D01*
X179725Y86158D01*
G01X180133Y84133D02*
X177625D01*
X177100Y83900D01*
X176750Y83433D01*
X176633Y82850D01*
X176750Y82267D01*
X177100Y81800D01*
X177625Y81567D01*
X180133D01*
G01X176633Y79717D02*
X180133D01*
Y78317D01*
X179958Y77850D01*
X179550Y77500D01*
X179083Y77383D01*
X178616Y77500D01*
X178266Y77792D01*
X178091Y78317D01*
Y79717D01*
G01X176633Y75417D02*
X180133D01*
Y74017D01*
X179958Y73550D01*
X179550Y73200D01*
X179083Y73083D01*
X178616Y73200D01*
X178266Y73492D01*
X178091Y74017D01*
Y75417D01*
G01X177366Y67546D02*
X177716Y67896D01*
X178124Y68071D01*
X178591Y68129D01*
X179174Y68012D01*
X179582Y67721D01*
X179699Y67371D01*
X179641Y67021D01*
X179407Y66729D01*
X178241Y66146D01*
X177716Y65737D01*
X177366Y65154D01*
X177249Y64629D01*
X179699D01*
G01X179768Y162093D02*
X183268D01*
Y160693D01*
X183093Y160226D01*
X182685Y159876D01*
X182218Y159759D01*
X181751Y159876D01*
X181401Y160168D01*
X181226Y160693D01*
Y162093D01*
G01X183268Y158376D02*
X179768Y157559D01*
X183268Y156626D01*
X179768Y155693D01*
X183268Y154876D01*
G01X179768Y153493D02*
X183268D01*
Y152034D01*
X183093Y151568D01*
X182860Y151276D01*
X182393Y151159D01*
X181926Y151276D01*
X181635Y151626D01*
X181460Y152034D01*
Y153493D01*
G01Y152034D02*
X179768Y151159D01*
G01X178601Y149776D02*
Y146276D01*
G01X183268Y144893D02*
X179768D01*
Y142559D01*
G01Y138259D02*
Y140593D01*
X183268D01*
Y138259D01*
G01X181576Y139193D02*
Y140593D01*
G01X179768Y136409D02*
X183268D01*
Y135243D01*
X183093Y134776D01*
X182860Y134426D01*
X182510Y134134D01*
X182101Y133901D01*
X181518Y133843D01*
X180935Y133901D01*
X180526Y134134D01*
X180176Y134426D01*
X179943Y134776D01*
X179768Y135243D01*
Y136409D01*
G54D15*
G01X-6069Y-59495D02*
X-12081Y-59507D01*
X-12057Y-27783D01*
X-6128D01*
G01X-12701Y44856D02*
X-15201D01*
G01X-12701Y42352D02*
Y47352D01*
G01X-7701Y42352D02*
Y47352D01*
X-12701Y44856D01*
X-7701Y42352D01*
G01X1140Y38153D02*
X-2970D01*
G01Y44555D02*
X1140D01*
G01X-7618Y45232D02*
X-5118D01*
G01X24368Y-52645D02*
Y-57645D01*
G01X24309Y-34480D02*
Y-29480D01*
G01X75409Y59698D02*
X71767D01*
Y76036D01*
X81413D01*
Y59698D01*
X75409D01*
G01X122801Y122201D02*
X120301D01*
G01X122801Y124705D02*
Y119705D01*
X127801Y122201D01*
X122801Y124705D01*
G01X127801D02*
Y119705D01*
G01Y122201D02*
X130301D01*
G01X153601Y80599D02*
Y83099D01*
G01X156105Y80599D02*
X151105D01*
X153601Y75599D01*
X156105Y80599D01*
G01Y75599D02*
X151105D01*
G01X153601D02*
Y73099D01*
G01X170874Y128770D02*
Y132880D01*
G01X177276D02*
Y128770D01*
G01X181201Y124099D02*
Y121599D01*
G01X183705Y124099D02*
X178705D01*
G01X183705Y129099D02*
X178705D01*
X181201Y124099D01*
X183705Y129099D01*
G01X181201D02*
Y131599D01*
M02*
