G04 ================== begin FILE IDENTIFICATION RECORD ==================*
G04 Layout Name:  LAY-27792_D.brd*
G04 Film Name:    SSS.art*
G04 File Format:  Gerber RS274X*
G04 File Origin:  Cadence Allegro 16.5-S035*
G04 Origin Date:  Tue Oct 22 17:05:33 2013*
G04 *
G04 Layer:  REF DES/SILKSCREEN_BOTTOM*
G04 Layer:  PACKAGE GEOMETRY/SILKSCREEN_BOTTOM*
G04 Layer:  DRAWING FORMAT/FILM_TITLE_BLOCK*
G04 Layer:  DRAWING FORMAT/FILM_OUTLINE*
G04 Layer:  BOARD GEOMETRY/OUTLINE*
G04 Layer:  BOARD GEOMETRY/SILKSCREEN_BOTTOM*
G04 *
G04 Offset:    (0.00 0.00)*
G04 Mirror:    No*
G04 Mode:      Positive*
G04 Rotation:  0*
G04 FullContactRelief:  No*
G04 UndefLineWidth:     8.00*
G04 ================== end FILE IDENTIFICATION RECORD ====================*
%FSLAX55Y55*MOIN*%
%IR0*IPPOS*OFA0.00000B0.00000*MIA0B0*SFA1.00000B1.00000*%
%ADD10C,.01*%
%ADD11C,.02*%
%ADD12C,.005*%
%ADD13C,.006*%
%ADD14C,.008*%
%ADD15C,.00787*%
G75*
%LPD*%
G75*
G36*
G01X63702Y158715D02*
X55668Y163551D01*
X60582Y166086D01*
X68577Y161289D01*
X63702Y158715D01*
G37*
G36*
G01X67407Y173028D02*
X59412Y177864D01*
X64287Y180399D01*
X72321Y175602D01*
X67407Y173028D01*
G37*
G36*
G01X60036Y169206D02*
X52041Y174003D01*
X56916Y176577D01*
X64950Y171741D01*
X60036Y169206D01*
G37*
G36*
G01X71073Y162576D02*
X63039Y167373D01*
X67953Y169947D01*
X75987Y165111D01*
X71073Y162576D01*
G37*
G36*
G01X82110Y155946D02*
X74076Y160743D01*
X78990Y163278D01*
X87024Y158481D01*
X82110Y155946D01*
G37*
G36*
G01X74739Y152085D02*
X66705Y156921D01*
X71619Y159456D01*
X79614Y154659D01*
X74739Y152085D01*
G37*
G36*
G01X85776Y145455D02*
X77742Y150252D01*
X82656Y152826D01*
X90651Y148029D01*
X85776Y145455D01*
G37*
G36*
G01X74778Y176889D02*
X66783Y181686D01*
X71697Y184221D01*
X79692Y179424D01*
X74778Y176889D01*
G37*
G54D10*
G01X-108925Y-231425D02*
X291075D01*
G01X-108925Y-201425D02*
Y-181425D01*
X291075D01*
G01X-58925Y-251425D02*
Y-231425D01*
G01X-9025Y20075D02*
X9975Y32275D01*
G01X16075Y20075D02*
X-8725D01*
X3575Y44975D01*
X16175Y20075D01*
G01X117546Y107218D02*
X27546D01*
Y122218D01*
X117546D01*
Y107218D01*
G01X66575Y-251425D02*
Y-231425D01*
G01X66075Y-181425D02*
Y-151425D01*
G01X116075Y-251425D02*
Y-231425D01*
G54D11*
G01X291075Y-151425D02*
Y-251425D01*
X-108925D01*
G01D02*
Y-151425D01*
X291075D01*
G54D12*
G01X185100Y-15000D02*
Y-75100D01*
X-15075D01*
X-15146Y-75029D01*
Y184956D01*
X-15142Y184960D01*
X185094D01*
X185100Y184954D01*
Y-15000D01*
G54D13*
G01X-101607Y-247190D02*
X-101058Y-247715D01*
X-100432Y-247925D01*
X-99805Y-247715D01*
X-99257Y-247085D01*
X-98865Y-246140D01*
X-98708Y-245195D01*
Y-244040D01*
X-98865Y-243095D01*
X-99257Y-242255D01*
X-99727Y-241835D01*
X-100275Y-241625D01*
X-100902Y-241835D01*
X-101372Y-242255D01*
X-101685Y-242885D01*
X-101842Y-243725D01*
X-101685Y-244460D01*
X-101293Y-245195D01*
X-100823Y-245615D01*
X-100275Y-245720D01*
X-99648Y-245510D01*
X-99178Y-244985D01*
X-98708Y-244040D01*
G01X-87675Y-247925D02*
X-88302Y-247820D01*
X-88850Y-247400D01*
X-89320Y-246770D01*
X-89633Y-246035D01*
X-89790Y-245195D01*
Y-244355D01*
X-89633Y-243515D01*
X-89320Y-242780D01*
X-88850Y-242150D01*
X-88302Y-241730D01*
X-87675Y-241625D01*
X-87048Y-241730D01*
X-86500Y-242150D01*
X-86030Y-242780D01*
X-85717Y-243515D01*
X-85560Y-244355D01*
Y-245195D01*
X-85717Y-246035D01*
X-86030Y-246770D01*
X-86500Y-247400D01*
X-87048Y-247820D01*
X-87675Y-247925D01*
G01X-82863D02*
Y-241625D01*
X-79887D01*
G01X-80983Y-244670D02*
X-82863D01*
G01X-70107Y-247190D02*
X-69558Y-247715D01*
X-68932Y-247925D01*
X-68305Y-247715D01*
X-67757Y-247085D01*
X-67365Y-246140D01*
X-67208Y-245195D01*
Y-244040D01*
X-67365Y-243095D01*
X-67757Y-242255D01*
X-68227Y-241835D01*
X-68775Y-241625D01*
X-69402Y-241835D01*
X-69872Y-242255D01*
X-70185Y-242885D01*
X-70342Y-243725D01*
X-70185Y-244460D01*
X-69793Y-245195D01*
X-69323Y-245615D01*
X-68775Y-245720D01*
X-68148Y-245510D01*
X-67678Y-244985D01*
X-67208Y-244040D01*
G01X-105400Y-238892D02*
X-104933Y-239225D01*
X-104408Y-239425D01*
X-103942D01*
X-103475Y-239225D01*
X-103125Y-238892D01*
X-102950Y-238425D01*
X-103067Y-237958D01*
X-103358Y-237558D01*
X-103883Y-237292D01*
X-104583Y-237158D01*
X-104992Y-236892D01*
X-105167Y-236425D01*
X-105050Y-235958D01*
X-104758Y-235625D01*
X-104350Y-235425D01*
X-103942D01*
X-103533Y-235558D01*
X-103183Y-235892D01*
G01X-100600Y-239425D02*
Y-235425D01*
G01X-98150D02*
Y-239425D01*
G01Y-237425D02*
X-100600D01*
G01X-93408Y-239425D02*
X-95742D01*
Y-235425D01*
X-93408D01*
G01X-94342Y-237358D02*
X-95742D01*
G01X-88608Y-239425D02*
X-90942D01*
Y-235425D01*
X-88608D01*
G01X-89542Y-237358D02*
X-90942D01*
G01X-84975Y-235425D02*
Y-239425D01*
G01X-86317Y-235425D02*
X-83633D01*
G01X-97283Y-228425D02*
Y-224425D01*
X-95067D01*
G01X-95883Y-226358D02*
X-97283D01*
G01X-92542Y-228425D02*
Y-224425D01*
X-91083D01*
X-90617Y-224625D01*
X-90325Y-224892D01*
X-90208Y-225425D01*
X-90325Y-225958D01*
X-90675Y-226292D01*
X-91083Y-226492D01*
X-92542D01*
G01X-91083D02*
X-90208Y-228425D01*
G01X-85408D02*
X-87742D01*
Y-224425D01*
X-85408D01*
G01X-86342Y-226358D02*
X-87742D01*
G01X-80608Y-228425D02*
X-82942D01*
Y-224425D01*
X-80608D01*
G01X-81542Y-226358D02*
X-82942D01*
G01X-78200Y-227892D02*
X-77733Y-228225D01*
X-77208Y-228425D01*
X-76742D01*
X-76275Y-228225D01*
X-75925Y-227892D01*
X-75750Y-227425D01*
X-75867Y-226958D01*
X-76158Y-226558D01*
X-76683Y-226292D01*
X-77383Y-226158D01*
X-77792Y-225892D01*
X-77967Y-225425D01*
X-77850Y-224958D01*
X-77558Y-224625D01*
X-77150Y-224425D01*
X-76742D01*
X-76333Y-224558D01*
X-75983Y-224892D01*
G01X-70892Y-224758D02*
X-71242Y-224558D01*
X-71650Y-224425D01*
X-72117D01*
X-72642Y-224625D01*
X-73050Y-224958D01*
X-73342Y-225358D01*
X-73575Y-226025D01*
X-73633Y-226625D01*
X-73517Y-227225D01*
X-73342Y-227625D01*
X-72992Y-228025D01*
X-72583Y-228292D01*
X-72175Y-228425D01*
X-71767D01*
X-71358Y-228292D01*
X-71008Y-228092D01*
X-70717Y-227825D01*
G01X-68833Y-228425D02*
X-67375Y-224425D01*
X-65917Y-228425D01*
G01X-66442Y-227025D02*
X-68308D01*
G01X-63742Y-224425D02*
Y-228425D01*
X-61408D01*
G01X-56608D02*
X-58942D01*
Y-224425D01*
X-56608D01*
G01X-57542Y-226358D02*
X-58942D01*
G01X-52975Y-228558D02*
X-53092Y-228492D01*
Y-228358D01*
X-52975Y-228292D01*
X-52858Y-228358D01*
Y-228492D01*
X-52975Y-228558D01*
G01X-97175Y-220425D02*
X-97642Y-220358D01*
X-98050Y-220092D01*
X-98400Y-219692D01*
X-98633Y-219225D01*
X-98750Y-218692D01*
Y-218158D01*
X-98633Y-217625D01*
X-98400Y-217158D01*
X-98050Y-216758D01*
X-97642Y-216492D01*
X-97175Y-216425D01*
X-96708Y-216492D01*
X-96300Y-216758D01*
X-95950Y-217158D01*
X-95717Y-217625D01*
X-95600Y-218158D01*
Y-218692D01*
X-95717Y-219225D01*
X-95950Y-219692D01*
X-96300Y-220092D01*
X-96708Y-220358D01*
X-97175Y-220425D01*
G01X-93542D02*
Y-216425D01*
X-92083D01*
X-91617Y-216625D01*
X-91325Y-216892D01*
X-91208Y-217425D01*
X-91325Y-217958D01*
X-91675Y-218292D01*
X-92083Y-218492D01*
X-93542D01*
G01X-92083D02*
X-91208Y-220425D01*
G01X-83475Y-216425D02*
X-82075D01*
G01X-82775D02*
Y-220425D01*
G01X-83475D02*
X-82075D01*
G01X-79317D02*
Y-216425D01*
X-76633Y-220425D01*
Y-216425D01*
G01X-69542Y-220425D02*
Y-216425D01*
X-68142D01*
X-67675Y-216625D01*
X-67325Y-217092D01*
X-67208Y-217625D01*
X-67325Y-218158D01*
X-67617Y-218558D01*
X-68142Y-218758D01*
X-69542D01*
G01X-65033Y-220425D02*
X-63575Y-216425D01*
X-62117Y-220425D01*
G01X-62642Y-219025D02*
X-64508D01*
G01X-59942Y-220425D02*
Y-216425D01*
X-58483D01*
X-58017Y-216625D01*
X-57725Y-216892D01*
X-57608Y-217425D01*
X-57725Y-217958D01*
X-58075Y-218292D01*
X-58483Y-218492D01*
X-59942D01*
G01X-58483D02*
X-57608Y-220425D01*
G01X-53975Y-216425D02*
Y-220425D01*
G01X-55317Y-216425D02*
X-52633D01*
G01X-46125D02*
X-45308Y-220425D01*
X-44375Y-216425D01*
X-43442Y-220425D01*
X-42625Y-216425D01*
G01X-40275D02*
X-38875D01*
G01X-39575D02*
Y-220425D01*
G01X-40275D02*
X-38875D01*
G01X-34775Y-216425D02*
Y-220425D01*
G01X-36117Y-216425D02*
X-33433D01*
G01X-31200Y-220425D02*
Y-216425D01*
G01X-28750D02*
Y-220425D01*
G01Y-218425D02*
X-31200D01*
G01X-25175Y-220425D02*
X-25642Y-220358D01*
X-26050Y-220092D01*
X-26400Y-219692D01*
X-26633Y-219225D01*
X-26750Y-218692D01*
Y-218158D01*
X-26633Y-217625D01*
X-26400Y-217158D01*
X-26050Y-216758D01*
X-25642Y-216492D01*
X-25175Y-216425D01*
X-24708Y-216492D01*
X-24300Y-216758D01*
X-23950Y-217158D01*
X-23717Y-217625D01*
X-23600Y-218158D01*
Y-218692D01*
X-23717Y-219225D01*
X-23950Y-219692D01*
X-24300Y-220092D01*
X-24708Y-220358D01*
X-25175Y-220425D01*
G01X-21658Y-216425D02*
Y-219292D01*
X-21425Y-219892D01*
X-20958Y-220292D01*
X-20375Y-220425D01*
X-19792Y-220292D01*
X-19325Y-219892D01*
X-19092Y-219292D01*
Y-216425D01*
G01X-15575D02*
Y-220425D01*
G01X-16917Y-216425D02*
X-14233D01*
G01X-5975D02*
Y-220425D01*
G01X-7317Y-216425D02*
X-4633D01*
G01X-2400Y-220425D02*
Y-216425D01*
G01X50D02*
Y-220425D01*
G01Y-218425D02*
X-2400D01*
G01X4792Y-220425D02*
X2458D01*
Y-216425D01*
X4792D01*
G01X3858Y-218358D02*
X2458D01*
G01X14508Y-216758D02*
X14158Y-216558D01*
X13750Y-216425D01*
X13283D01*
X12758Y-216625D01*
X12350Y-216958D01*
X12058Y-217358D01*
X11825Y-218025D01*
X11767Y-218625D01*
X11883Y-219225D01*
X12058Y-219625D01*
X12408Y-220025D01*
X12817Y-220292D01*
X13225Y-220425D01*
X13633D01*
X14042Y-220292D01*
X14392Y-220092D01*
X14683Y-219825D01*
G01X18025Y-220425D02*
X17558Y-220358D01*
X17150Y-220092D01*
X16800Y-219692D01*
X16567Y-219225D01*
X16450Y-218692D01*
Y-218158D01*
X16567Y-217625D01*
X16800Y-217158D01*
X17150Y-216758D01*
X17558Y-216492D01*
X18025Y-216425D01*
X18492Y-216492D01*
X18900Y-216758D01*
X19250Y-217158D01*
X19483Y-217625D01*
X19600Y-218158D01*
Y-218692D01*
X19483Y-219225D01*
X19250Y-219692D01*
X18900Y-220092D01*
X18492Y-220358D01*
X18025Y-220425D01*
G01X21483D02*
Y-216425D01*
X24167Y-220425D01*
Y-216425D01*
G01X26400Y-219892D02*
X26867Y-220225D01*
X27392Y-220425D01*
X27858D01*
X28325Y-220225D01*
X28675Y-219892D01*
X28850Y-219425D01*
X28733Y-218958D01*
X28442Y-218558D01*
X27917Y-218292D01*
X27217Y-218158D01*
X26808Y-217892D01*
X26633Y-217425D01*
X26750Y-216958D01*
X27042Y-216625D01*
X27450Y-216425D01*
X27858D01*
X28267Y-216558D01*
X28617Y-216892D01*
G01X33592Y-220425D02*
X31258D01*
Y-216425D01*
X33592D01*
G01X32658Y-218358D02*
X31258D01*
G01X35883Y-220425D02*
Y-216425D01*
X38567Y-220425D01*
Y-216425D01*
G01X42025D02*
Y-220425D01*
G01X40683Y-216425D02*
X43367D01*
G01X51625Y-220425D02*
X51158Y-220358D01*
X50750Y-220092D01*
X50400Y-219692D01*
X50167Y-219225D01*
X50050Y-218692D01*
Y-218158D01*
X50167Y-217625D01*
X50400Y-217158D01*
X50750Y-216758D01*
X51158Y-216492D01*
X51625Y-216425D01*
X52092Y-216492D01*
X52500Y-216758D01*
X52850Y-217158D01*
X53083Y-217625D01*
X53200Y-218158D01*
Y-218692D01*
X53083Y-219225D01*
X52850Y-219692D01*
X52500Y-220092D01*
X52092Y-220358D01*
X51625Y-220425D01*
G01X55317D02*
Y-216425D01*
X57533D01*
G01X56717Y-218358D02*
X55317D01*
G01X-98342Y-212425D02*
Y-208425D01*
X-96942D01*
X-96475Y-208625D01*
X-96125Y-209092D01*
X-96008Y-209625D01*
X-96125Y-210158D01*
X-96417Y-210558D01*
X-96942Y-210758D01*
X-98342D01*
G01X-93542Y-212425D02*
Y-208425D01*
X-92083D01*
X-91617Y-208625D01*
X-91325Y-208892D01*
X-91208Y-209425D01*
X-91325Y-209958D01*
X-91675Y-210292D01*
X-92083Y-210492D01*
X-93542D01*
G01X-92083D02*
X-91208Y-212425D01*
G01X-87575D02*
X-88042Y-212358D01*
X-88450Y-212092D01*
X-88800Y-211692D01*
X-89033Y-211225D01*
X-89150Y-210692D01*
Y-210158D01*
X-89033Y-209625D01*
X-88800Y-209158D01*
X-88450Y-208758D01*
X-88042Y-208492D01*
X-87575Y-208425D01*
X-87108Y-208492D01*
X-86700Y-208758D01*
X-86350Y-209158D01*
X-86117Y-209625D01*
X-86000Y-210158D01*
Y-210692D01*
X-86117Y-211225D01*
X-86350Y-211692D01*
X-86700Y-212092D01*
X-87108Y-212358D01*
X-87575Y-212425D01*
G01X-81492Y-208758D02*
X-81842Y-208558D01*
X-82250Y-208425D01*
X-82717D01*
X-83242Y-208625D01*
X-83650Y-208958D01*
X-83942Y-209358D01*
X-84175Y-210025D01*
X-84233Y-210625D01*
X-84117Y-211225D01*
X-83942Y-211625D01*
X-83592Y-212025D01*
X-83183Y-212292D01*
X-82775Y-212425D01*
X-82367D01*
X-81958Y-212292D01*
X-81608Y-212092D01*
X-81317Y-211825D01*
G01X-79258Y-208425D02*
Y-211292D01*
X-79025Y-211892D01*
X-78558Y-212292D01*
X-77975Y-212425D01*
X-77392Y-212292D01*
X-76925Y-211892D01*
X-76692Y-211292D01*
Y-208425D01*
G01X-74342Y-212425D02*
Y-208425D01*
X-72883D01*
X-72417Y-208625D01*
X-72125Y-208892D01*
X-72008Y-209425D01*
X-72125Y-209958D01*
X-72475Y-210292D01*
X-72883Y-210492D01*
X-74342D01*
G01X-72883D02*
X-72008Y-212425D01*
G01X-67208D02*
X-69542D01*
Y-208425D01*
X-67208D01*
G01X-68142Y-210358D02*
X-69542D01*
G01X-65092Y-212425D02*
Y-208425D01*
X-63575Y-211758D01*
X-62058Y-208425D01*
Y-212425D01*
G01X-57608D02*
X-59942D01*
Y-208425D01*
X-57608D01*
G01X-58542Y-210358D02*
X-59942D01*
G01X-55317Y-212425D02*
Y-208425D01*
X-52633Y-212425D01*
Y-208425D01*
G01X-49175D02*
Y-212425D01*
G01X-50517Y-208425D02*
X-47833D01*
G01X-39575Y-212425D02*
X-40042Y-212358D01*
X-40450Y-212092D01*
X-40800Y-211692D01*
X-41033Y-211225D01*
X-41150Y-210692D01*
Y-210158D01*
X-41033Y-209625D01*
X-40800Y-209158D01*
X-40450Y-208758D01*
X-40042Y-208492D01*
X-39575Y-208425D01*
X-39108Y-208492D01*
X-38700Y-208758D01*
X-38350Y-209158D01*
X-38117Y-209625D01*
X-38000Y-210158D01*
Y-210692D01*
X-38117Y-211225D01*
X-38350Y-211692D01*
X-38700Y-212092D01*
X-39108Y-212358D01*
X-39575Y-212425D01*
G01X-35942D02*
Y-208425D01*
X-34483D01*
X-34017Y-208625D01*
X-33725Y-208892D01*
X-33608Y-209425D01*
X-33725Y-209958D01*
X-34075Y-210292D01*
X-34483Y-210492D01*
X-35942D01*
G01X-34483D02*
X-33608Y-212425D01*
G01X-26692D02*
Y-208425D01*
X-25175Y-211758D01*
X-23658Y-208425D01*
Y-212425D01*
G01X-21833D02*
X-20375Y-208425D01*
X-18917Y-212425D01*
G01X-19442Y-211025D02*
X-21308D01*
G01X-16917Y-212425D02*
Y-208425D01*
X-14233Y-212425D01*
Y-208425D01*
G01X-12058D02*
Y-211292D01*
X-11825Y-211892D01*
X-11358Y-212292D01*
X-10775Y-212425D01*
X-10192Y-212292D01*
X-9725Y-211892D01*
X-9492Y-211292D01*
Y-208425D01*
G01X-7083Y-212425D02*
Y-208425D01*
X-4867D01*
G01X-5683Y-210358D02*
X-7083D01*
G01X-2633Y-212425D02*
X-1175Y-208425D01*
X283Y-212425D01*
G01X-242Y-211025D02*
X-2108D01*
G01X4908Y-208758D02*
X4558Y-208558D01*
X4150Y-208425D01*
X3683D01*
X3158Y-208625D01*
X2750Y-208958D01*
X2458Y-209358D01*
X2225Y-210025D01*
X2167Y-210625D01*
X2283Y-211225D01*
X2458Y-211625D01*
X2808Y-212025D01*
X3217Y-212292D01*
X3625Y-212425D01*
X4033D01*
X4442Y-212292D01*
X4792Y-212092D01*
X5083Y-211825D01*
G01X8425Y-208425D02*
Y-212425D01*
G01X7083Y-208425D02*
X9767D01*
G01X11942D02*
Y-211292D01*
X12175Y-211892D01*
X12642Y-212292D01*
X13225Y-212425D01*
X13808Y-212292D01*
X14275Y-211892D01*
X14508Y-211292D01*
Y-208425D01*
G01X16858Y-212425D02*
Y-208425D01*
X18317D01*
X18783Y-208625D01*
X19075Y-208892D01*
X19192Y-209425D01*
X19075Y-209958D01*
X18725Y-210292D01*
X18317Y-210492D01*
X16858D01*
G01X18317D02*
X19192Y-212425D01*
G01X23992D02*
X21658D01*
Y-208425D01*
X23992D01*
G01X23058Y-210358D02*
X21658D01*
G01X31725Y-208425D02*
X33125D01*
G01X32425D02*
Y-212425D01*
G01X31725D02*
X33125D01*
G01X35883D02*
Y-208425D01*
X38567Y-212425D01*
Y-208425D01*
G01X45075D02*
X45892Y-212425D01*
X46825Y-208425D01*
X47758Y-212425D01*
X48575Y-208425D01*
G01X50400Y-212425D02*
Y-208425D01*
G01X52850D02*
Y-212425D01*
G01Y-210425D02*
X50400D01*
G01X56425Y-212425D02*
X55958Y-212358D01*
X55550Y-212092D01*
X55200Y-211692D01*
X54967Y-211225D01*
X54850Y-210692D01*
Y-210158D01*
X54967Y-209625D01*
X55200Y-209158D01*
X55550Y-208758D01*
X55958Y-208492D01*
X56425Y-208425D01*
X56892Y-208492D01*
X57300Y-208758D01*
X57650Y-209158D01*
X57883Y-209625D01*
X58000Y-210158D01*
Y-210692D01*
X57883Y-211225D01*
X57650Y-211692D01*
X57300Y-212092D01*
X56892Y-212358D01*
X56425Y-212425D01*
G01X60058Y-208425D02*
Y-212425D01*
X62392D01*
G01X67192D02*
X64858D01*
Y-208425D01*
X67192D01*
G01X66258Y-210358D02*
X64858D01*
G01X-98517Y-204425D02*
Y-200425D01*
X-95833Y-204425D01*
Y-200425D01*
G01X-92375Y-204425D02*
X-92842Y-204358D01*
X-93250Y-204092D01*
X-93600Y-203692D01*
X-93833Y-203225D01*
X-93950Y-202692D01*
Y-202158D01*
X-93833Y-201625D01*
X-93600Y-201158D01*
X-93250Y-200758D01*
X-92842Y-200492D01*
X-92375Y-200425D01*
X-91908Y-200492D01*
X-91500Y-200758D01*
X-91150Y-201158D01*
X-90917Y-201625D01*
X-90800Y-202158D01*
Y-202692D01*
X-90917Y-203225D01*
X-91150Y-203692D01*
X-91500Y-204092D01*
X-91908Y-204358D01*
X-92375Y-204425D01*
G01X-87575Y-200425D02*
Y-204425D01*
G01X-88917Y-200425D02*
X-86233D01*
G01X-77508Y-202292D02*
X-77275Y-202092D01*
X-77100Y-201758D01*
X-76983Y-201292D01*
X-77100Y-200892D01*
X-77333Y-200625D01*
X-77742Y-200425D01*
X-79317D01*
Y-204425D01*
X-77392D01*
X-76983Y-204158D01*
X-76750Y-203758D01*
X-76633Y-203292D01*
X-76750Y-202825D01*
X-77100Y-202425D01*
X-77508Y-202292D01*
X-79317D01*
G01X-72008Y-204425D02*
X-74342D01*
Y-200425D01*
X-72008D01*
G01X-72942Y-202358D02*
X-74342D01*
G01X-64858Y-200425D02*
Y-203292D01*
X-64625Y-203892D01*
X-64158Y-204292D01*
X-63575Y-204425D01*
X-62992Y-204292D01*
X-62525Y-203892D01*
X-62292Y-203292D01*
Y-200425D01*
G01X-60000Y-203892D02*
X-59533Y-204225D01*
X-59008Y-204425D01*
X-58542D01*
X-58075Y-204225D01*
X-57725Y-203892D01*
X-57550Y-203425D01*
X-57667Y-202958D01*
X-57958Y-202558D01*
X-58483Y-202292D01*
X-59183Y-202158D01*
X-59592Y-201892D01*
X-59767Y-201425D01*
X-59650Y-200958D01*
X-59358Y-200625D01*
X-58950Y-200425D01*
X-58542D01*
X-58133Y-200558D01*
X-57783Y-200892D01*
G01X-52808Y-204425D02*
X-55142D01*
Y-200425D01*
X-52808D01*
G01X-53742Y-202358D02*
X-55142D01*
G01X-50458Y-204425D02*
Y-200425D01*
X-49292D01*
X-48825Y-200625D01*
X-48475Y-200892D01*
X-48183Y-201292D01*
X-47950Y-201758D01*
X-47892Y-202425D01*
X-47950Y-203092D01*
X-48183Y-203558D01*
X-48475Y-203958D01*
X-48825Y-204225D01*
X-49292Y-204425D01*
X-50458D01*
G01X-40683D02*
Y-200425D01*
X-38467D01*
G01X-39283Y-202358D02*
X-40683D01*
G01X-34775Y-204425D02*
X-35242Y-204358D01*
X-35650Y-204092D01*
X-36000Y-203692D01*
X-36233Y-203225D01*
X-36350Y-202692D01*
Y-202158D01*
X-36233Y-201625D01*
X-36000Y-201158D01*
X-35650Y-200758D01*
X-35242Y-200492D01*
X-34775Y-200425D01*
X-34308Y-200492D01*
X-33900Y-200758D01*
X-33550Y-201158D01*
X-33317Y-201625D01*
X-33200Y-202158D01*
Y-202692D01*
X-33317Y-203225D01*
X-33550Y-203692D01*
X-33900Y-204092D01*
X-34308Y-204358D01*
X-34775Y-204425D01*
G01X-31142D02*
Y-200425D01*
X-29683D01*
X-29217Y-200625D01*
X-28925Y-200892D01*
X-28808Y-201425D01*
X-28925Y-201958D01*
X-29275Y-202292D01*
X-29683Y-202492D01*
X-31142D01*
G01X-29683D02*
X-28808Y-204425D01*
G01X-19208D02*
X-21542D01*
Y-200425D01*
X-19208D01*
G01X-20142Y-202358D02*
X-21542D01*
G01X-16917Y-204425D02*
Y-200425D01*
X-14233Y-204425D01*
Y-200425D01*
G01X-10425Y-202425D02*
X-9258D01*
Y-203625D01*
X-9608Y-204025D01*
X-10017Y-204292D01*
X-10600Y-204425D01*
X-11183Y-204292D01*
X-11592Y-204025D01*
X-11942Y-203625D01*
X-12175Y-203158D01*
X-12292Y-202625D01*
Y-202158D01*
X-12175Y-201758D01*
X-11942Y-201292D01*
X-11592Y-200892D01*
X-11242Y-200625D01*
X-10775Y-200425D01*
X-10367D01*
X-9900Y-200558D01*
X-9550Y-200825D01*
G01X-6675Y-200425D02*
X-5275D01*
G01X-5975D02*
Y-204425D01*
G01X-6675D02*
X-5275D01*
G01X-2517D02*
Y-200425D01*
X167Y-204425D01*
Y-200425D01*
G01X4792Y-204425D02*
X2458D01*
Y-200425D01*
X4792D01*
G01X3858Y-202358D02*
X2458D01*
G01X9592Y-204425D02*
X7258D01*
Y-200425D01*
X9592D01*
G01X8658Y-202358D02*
X7258D01*
G01X12058Y-204425D02*
Y-200425D01*
X13517D01*
X13983Y-200625D01*
X14275Y-200892D01*
X14392Y-201425D01*
X14275Y-201958D01*
X13925Y-202292D01*
X13517Y-202492D01*
X12058D01*
G01X13517D02*
X14392Y-204425D01*
G01X17325Y-200425D02*
X18725D01*
G01X18025D02*
Y-204425D01*
G01X17325D02*
X18725D01*
G01X21483D02*
Y-200425D01*
X24167Y-204425D01*
Y-200425D01*
G01X27975Y-202425D02*
X29142D01*
Y-203625D01*
X28792Y-204025D01*
X28383Y-204292D01*
X27800Y-204425D01*
X27217Y-204292D01*
X26808Y-204025D01*
X26458Y-203625D01*
X26225Y-203158D01*
X26108Y-202625D01*
Y-202158D01*
X26225Y-201758D01*
X26458Y-201292D01*
X26808Y-200892D01*
X27158Y-200625D01*
X27625Y-200425D01*
X28033D01*
X28500Y-200558D01*
X28850Y-200825D01*
G01X35942Y-204425D02*
Y-200425D01*
X37108D01*
X37575Y-200625D01*
X37925Y-200892D01*
X38217Y-201292D01*
X38450Y-201758D01*
X38508Y-202425D01*
X38450Y-203092D01*
X38217Y-203558D01*
X37925Y-203958D01*
X37575Y-204225D01*
X37108Y-204425D01*
X35942D01*
G01X43192D02*
X40858D01*
Y-200425D01*
X43192D01*
G01X42258Y-202358D02*
X40858D01*
G01X45600Y-203892D02*
X46067Y-204225D01*
X46592Y-204425D01*
X47058D01*
X47525Y-204225D01*
X47875Y-203892D01*
X48050Y-203425D01*
X47933Y-202958D01*
X47642Y-202558D01*
X47117Y-202292D01*
X46417Y-202158D01*
X46008Y-201892D01*
X45833Y-201425D01*
X45950Y-200958D01*
X46242Y-200625D01*
X46650Y-200425D01*
X47058D01*
X47467Y-200558D01*
X47817Y-200892D01*
G01X50925Y-200425D02*
X52325D01*
G01X51625D02*
Y-204425D01*
G01X50925D02*
X52325D01*
G01X56775Y-202425D02*
X57942D01*
Y-203625D01*
X57592Y-204025D01*
X57183Y-204292D01*
X56600Y-204425D01*
X56017Y-204292D01*
X55608Y-204025D01*
X55258Y-203625D01*
X55025Y-203158D01*
X54908Y-202625D01*
Y-202158D01*
X55025Y-201758D01*
X55258Y-201292D01*
X55608Y-200892D01*
X55958Y-200625D01*
X56425Y-200425D01*
X56833D01*
X57300Y-200558D01*
X57650Y-200825D01*
G01X59883Y-204425D02*
Y-200425D01*
X62567Y-204425D01*
Y-200425D01*
G01X-105633Y-178425D02*
X-104175Y-174425D01*
X-102717Y-178425D01*
G01X-103242Y-177025D02*
X-105108D01*
G01X-100658Y-174425D02*
Y-177292D01*
X-100425Y-177892D01*
X-99958Y-178292D01*
X-99375Y-178425D01*
X-98792Y-178292D01*
X-98325Y-177892D01*
X-98092Y-177292D01*
Y-174425D01*
G01X-95800Y-177892D02*
X-95333Y-178225D01*
X-94808Y-178425D01*
X-94342D01*
X-93875Y-178225D01*
X-93525Y-177892D01*
X-93350Y-177425D01*
X-93467Y-176958D01*
X-93758Y-176558D01*
X-94283Y-176292D01*
X-94983Y-176158D01*
X-95392Y-175892D01*
X-95567Y-175425D01*
X-95450Y-174958D01*
X-95158Y-174625D01*
X-94750Y-174425D01*
X-94342D01*
X-93933Y-174558D01*
X-93583Y-174892D01*
G01X-89775Y-174425D02*
Y-178425D01*
G01X-91117Y-174425D02*
X-88433D01*
G01X-85675D02*
X-84275D01*
G01X-84975D02*
Y-178425D01*
G01X-85675D02*
X-84275D01*
G01X-81517D02*
Y-174425D01*
X-78833Y-178425D01*
Y-174425D01*
G01X-75375Y-178558D02*
X-75492Y-178492D01*
Y-178358D01*
X-75375Y-178292D01*
X-75258Y-178358D01*
Y-178492D01*
X-75375Y-178558D01*
G01X-65775Y-174425D02*
Y-178425D01*
G01X-67117Y-174425D02*
X-64433D01*
G01X-59808Y-178425D02*
X-62142D01*
Y-174425D01*
X-59808D01*
G01X-60742Y-176358D02*
X-62142D01*
G01X-57400Y-178425D02*
X-54950Y-174425D01*
G01X-57400D02*
X-54950Y-178425D01*
G01X-52833D02*
X-51375Y-174425D01*
X-49917Y-178425D01*
G01X-50442Y-177025D02*
X-52308D01*
G01X-47800Y-177892D02*
X-47333Y-178225D01*
X-46808Y-178425D01*
X-46342D01*
X-45875Y-178225D01*
X-45525Y-177892D01*
X-45350Y-177425D01*
X-45467Y-176958D01*
X-45758Y-176558D01*
X-46283Y-176292D01*
X-46983Y-176158D01*
X-47392Y-175892D01*
X-47567Y-175425D01*
X-47450Y-174958D01*
X-47158Y-174625D01*
X-46750Y-174425D01*
X-46342D01*
X-45933Y-174558D01*
X-45583Y-174892D01*
G01X-37092Y-178425D02*
X-36975Y-177558D01*
X-36800Y-176825D01*
X-36567Y-176158D01*
X-36275Y-175425D01*
X-35808Y-174425D01*
X-38142D01*
G01X-32175Y-178425D02*
X-31767Y-178358D01*
X-31300Y-178158D01*
X-31008Y-177825D01*
X-30892Y-177358D01*
X-31008Y-176892D01*
X-31358Y-176492D01*
X-31883Y-176292D01*
X-32467D01*
X-32817Y-176158D01*
X-33108Y-175825D01*
X-33225Y-175358D01*
X-33050Y-174892D01*
X-32642Y-174558D01*
X-32175Y-174425D01*
X-31708Y-174558D01*
X-31300Y-174892D01*
X-31125Y-175358D01*
X-31242Y-175825D01*
X-31533Y-176158D01*
X-31883Y-176292D01*
X-32467D01*
X-32992Y-176492D01*
X-33342Y-176892D01*
X-33458Y-177358D01*
X-33342Y-177825D01*
X-33050Y-178158D01*
X-32583Y-178358D01*
X-32175Y-178425D01*
G01X-27492D02*
X-27375Y-177558D01*
X-27200Y-176825D01*
X-26967Y-176158D01*
X-26675Y-175425D01*
X-26208Y-174425D01*
X-28542D01*
G01X-23858Y-177625D02*
X-23508Y-178092D01*
X-23042Y-178358D01*
X-22517Y-178425D01*
X-22050Y-178358D01*
X-21583Y-178025D01*
X-21292Y-177625D01*
X-21233Y-177225D01*
X-21350Y-176758D01*
X-21758Y-176425D01*
X-22167Y-176292D01*
X-22692D01*
G01X-22167D02*
X-21817Y-176092D01*
X-21525Y-175758D01*
X-21408Y-175358D01*
X-21525Y-174958D01*
X-21817Y-174625D01*
X-22342Y-174425D01*
X-22867Y-174492D01*
X-23392Y-174758D01*
G01X-19058Y-177825D02*
X-18708Y-178158D01*
X-18300Y-178358D01*
X-17775Y-178425D01*
X-17250Y-178292D01*
X-16842Y-178025D01*
X-16550Y-177558D01*
X-16492Y-177025D01*
X-16608Y-176492D01*
X-16900Y-176158D01*
X-17308Y-175892D01*
X-17717Y-175825D01*
X-18125Y-175892D01*
X-18650Y-176158D01*
X-18475Y-174425D01*
X-16900D01*
G01X-9458D02*
Y-177292D01*
X-9225Y-177892D01*
X-8758Y-178292D01*
X-8175Y-178425D01*
X-7592Y-178292D01*
X-7125Y-177892D01*
X-6892Y-177292D01*
Y-174425D01*
G01X-4600Y-177892D02*
X-4133Y-178225D01*
X-3608Y-178425D01*
X-3142D01*
X-2675Y-178225D01*
X-2325Y-177892D01*
X-2150Y-177425D01*
X-2267Y-176958D01*
X-2558Y-176558D01*
X-3083Y-176292D01*
X-3783Y-176158D01*
X-4192Y-175892D01*
X-4367Y-175425D01*
X-4250Y-174958D01*
X-3958Y-174625D01*
X-3550Y-174425D01*
X-3142D01*
X-2733Y-174558D01*
X-2383Y-174892D01*
G01X-33Y-178425D02*
X1425Y-174425D01*
X2883Y-178425D01*
G01X2358Y-177025D02*
X492D01*
G01X-98342Y-196425D02*
Y-192425D01*
X-96942D01*
X-96475Y-192625D01*
X-96125Y-193092D01*
X-96008Y-193625D01*
X-96125Y-194158D01*
X-96417Y-194558D01*
X-96942Y-194758D01*
X-98342D01*
G01X-93542Y-196425D02*
Y-192425D01*
X-92083D01*
X-91617Y-192625D01*
X-91325Y-192892D01*
X-91208Y-193425D01*
X-91325Y-193958D01*
X-91675Y-194292D01*
X-92083Y-194492D01*
X-93542D01*
G01X-92083D02*
X-91208Y-196425D01*
G01X-87575D02*
X-88042Y-196358D01*
X-88450Y-196092D01*
X-88800Y-195692D01*
X-89033Y-195225D01*
X-89150Y-194692D01*
Y-194158D01*
X-89033Y-193625D01*
X-88800Y-193158D01*
X-88450Y-192758D01*
X-88042Y-192492D01*
X-87575Y-192425D01*
X-87108Y-192492D01*
X-86700Y-192758D01*
X-86350Y-193158D01*
X-86117Y-193625D01*
X-86000Y-194158D01*
Y-194692D01*
X-86117Y-195225D01*
X-86350Y-195692D01*
X-86700Y-196092D01*
X-87108Y-196358D01*
X-87575Y-196425D01*
G01X-83942D02*
Y-192425D01*
X-82542D01*
X-82075Y-192625D01*
X-81725Y-193092D01*
X-81608Y-193625D01*
X-81725Y-194158D01*
X-82017Y-194558D01*
X-82542Y-194758D01*
X-83942D01*
G01X-79142Y-196425D02*
Y-192425D01*
X-77683D01*
X-77217Y-192625D01*
X-76925Y-192892D01*
X-76808Y-193425D01*
X-76925Y-193958D01*
X-77275Y-194292D01*
X-77683Y-194492D01*
X-79142D01*
G01X-77683D02*
X-76808Y-196425D01*
G01X-73875Y-192425D02*
X-72475D01*
G01X-73175D02*
Y-196425D01*
G01X-73875D02*
X-72475D01*
G01X-67208D02*
X-69542D01*
Y-192425D01*
X-67208D01*
G01X-68142Y-194358D02*
X-69542D01*
G01X-63575Y-192425D02*
Y-196425D01*
G01X-64917Y-192425D02*
X-62233D01*
G01X-60233Y-196425D02*
X-58775Y-192425D01*
X-57317Y-196425D01*
G01X-57842Y-195025D02*
X-59708D01*
G01X-55142Y-196425D02*
Y-192425D01*
X-53683D01*
X-53217Y-192625D01*
X-52925Y-192892D01*
X-52808Y-193425D01*
X-52925Y-193958D01*
X-53275Y-194292D01*
X-53683Y-194492D01*
X-55142D01*
G01X-53683D02*
X-52808Y-196425D01*
G01X-49175D02*
Y-194625D01*
X-50342Y-192425D01*
G01X-48008D02*
X-49175Y-194625D01*
G01X-39575Y-192425D02*
Y-196425D01*
G01X-40917Y-192425D02*
X-38233D01*
G01X-34775Y-196425D02*
X-35242Y-196358D01*
X-35650Y-196092D01*
X-36000Y-195692D01*
X-36233Y-195225D01*
X-36350Y-194692D01*
Y-194158D01*
X-36233Y-193625D01*
X-36000Y-193158D01*
X-35650Y-192758D01*
X-35242Y-192492D01*
X-34775Y-192425D01*
X-34308Y-192492D01*
X-33900Y-192758D01*
X-33550Y-193158D01*
X-33317Y-193625D01*
X-33200Y-194158D01*
Y-194692D01*
X-33317Y-195225D01*
X-33550Y-195692D01*
X-33900Y-196092D01*
X-34308Y-196358D01*
X-34775Y-196425D01*
G01X-26283D02*
Y-192425D01*
X-24067D01*
G01X-24883Y-194358D02*
X-26283D01*
G01X-21542Y-196425D02*
Y-192425D01*
X-20083D01*
X-19617Y-192625D01*
X-19325Y-192892D01*
X-19208Y-193425D01*
X-19325Y-193958D01*
X-19675Y-194292D01*
X-20083Y-194492D01*
X-21542D01*
G01X-20083D02*
X-19208Y-196425D01*
G01X-14408D02*
X-16742D01*
Y-192425D01*
X-14408D01*
G01X-15342Y-194358D02*
X-16742D01*
G01X-9608Y-196425D02*
X-11942D01*
Y-192425D01*
X-9608D01*
G01X-10542Y-194358D02*
X-11942D01*
G01X-7200Y-195892D02*
X-6733Y-196225D01*
X-6208Y-196425D01*
X-5742D01*
X-5275Y-196225D01*
X-4925Y-195892D01*
X-4750Y-195425D01*
X-4867Y-194958D01*
X-5158Y-194558D01*
X-5683Y-194292D01*
X-6383Y-194158D01*
X-6792Y-193892D01*
X-6967Y-193425D01*
X-6850Y-192958D01*
X-6558Y-192625D01*
X-6150Y-192425D01*
X-5742D01*
X-5333Y-192558D01*
X-4983Y-192892D01*
G01X108Y-192758D02*
X-242Y-192558D01*
X-650Y-192425D01*
X-1117D01*
X-1642Y-192625D01*
X-2050Y-192958D01*
X-2342Y-193358D01*
X-2575Y-194025D01*
X-2633Y-194625D01*
X-2517Y-195225D01*
X-2342Y-195625D01*
X-1992Y-196025D01*
X-1583Y-196292D01*
X-1175Y-196425D01*
X-767D01*
X-358Y-196292D01*
X-8Y-196092D01*
X283Y-195825D01*
G01X2167Y-196425D02*
X3625Y-192425D01*
X5083Y-196425D01*
G01X4558Y-195025D02*
X2692D01*
G01X7258Y-192425D02*
Y-196425D01*
X9592D01*
G01X14392D02*
X12058D01*
Y-192425D01*
X14392D01*
G01X13458Y-194358D02*
X12058D01*
G01X21367Y-196425D02*
X22825Y-192425D01*
X24283Y-196425D01*
G01X23758Y-195025D02*
X21892D01*
G01X26283Y-196425D02*
Y-192425D01*
X28967Y-196425D01*
Y-192425D01*
G01X31142Y-196425D02*
Y-192425D01*
X32308D01*
X32775Y-192625D01*
X33125Y-192892D01*
X33417Y-193292D01*
X33650Y-193758D01*
X33708Y-194425D01*
X33650Y-195092D01*
X33417Y-195558D01*
X33125Y-195958D01*
X32775Y-196225D01*
X32308Y-196425D01*
X31142D01*
G01X40800Y-195892D02*
X41267Y-196225D01*
X41792Y-196425D01*
X42258D01*
X42725Y-196225D01*
X43075Y-195892D01*
X43250Y-195425D01*
X43133Y-194958D01*
X42842Y-194558D01*
X42317Y-194292D01*
X41617Y-194158D01*
X41208Y-193892D01*
X41033Y-193425D01*
X41150Y-192958D01*
X41442Y-192625D01*
X41850Y-192425D01*
X42258D01*
X42667Y-192558D01*
X43017Y-192892D01*
G01X45600Y-196425D02*
Y-192425D01*
G01X48050D02*
Y-196425D01*
G01Y-194425D02*
X45600D01*
G01X50167Y-196425D02*
X51625Y-192425D01*
X53083Y-196425D01*
G01X52558Y-195025D02*
X50692D01*
G01X55258Y-192425D02*
Y-196425D01*
X57592D01*
G01X60058Y-192425D02*
Y-196425D01*
X62392D01*
G01X-98175Y-184425D02*
Y-188425D01*
G01X-99517Y-184425D02*
X-96833D01*
G01X-94600Y-188425D02*
Y-184425D01*
G01X-92150D02*
Y-188425D01*
G01Y-186425D02*
X-94600D01*
G01X-89275Y-184425D02*
X-87875D01*
G01X-88575D02*
Y-188425D01*
G01X-89275D02*
X-87875D01*
G01X-85000Y-187892D02*
X-84533Y-188225D01*
X-84008Y-188425D01*
X-83542D01*
X-83075Y-188225D01*
X-82725Y-187892D01*
X-82550Y-187425D01*
X-82667Y-186958D01*
X-82958Y-186558D01*
X-83483Y-186292D01*
X-84183Y-186158D01*
X-84592Y-185892D01*
X-84767Y-185425D01*
X-84650Y-184958D01*
X-84358Y-184625D01*
X-83950Y-184425D01*
X-83542D01*
X-83133Y-184558D01*
X-82783Y-184892D01*
G01X-75458Y-188425D02*
Y-184425D01*
X-74292D01*
X-73825Y-184625D01*
X-73475Y-184892D01*
X-73183Y-185292D01*
X-72950Y-185758D01*
X-72892Y-186425D01*
X-72950Y-187092D01*
X-73183Y-187558D01*
X-73475Y-187958D01*
X-73825Y-188225D01*
X-74292Y-188425D01*
X-75458D01*
G01X-69375D02*
X-69842Y-188358D01*
X-70250Y-188092D01*
X-70600Y-187692D01*
X-70833Y-187225D01*
X-70950Y-186692D01*
Y-186158D01*
X-70833Y-185625D01*
X-70600Y-185158D01*
X-70250Y-184758D01*
X-69842Y-184492D01*
X-69375Y-184425D01*
X-68908Y-184492D01*
X-68500Y-184758D01*
X-68150Y-185158D01*
X-67917Y-185625D01*
X-67800Y-186158D01*
Y-186692D01*
X-67917Y-187225D01*
X-68150Y-187692D01*
X-68500Y-188092D01*
X-68908Y-188358D01*
X-69375Y-188425D01*
G01X-63292Y-184758D02*
X-63642Y-184558D01*
X-64050Y-184425D01*
X-64517D01*
X-65042Y-184625D01*
X-65450Y-184958D01*
X-65742Y-185358D01*
X-65975Y-186025D01*
X-66033Y-186625D01*
X-65917Y-187225D01*
X-65742Y-187625D01*
X-65392Y-188025D01*
X-64983Y-188292D01*
X-64575Y-188425D01*
X-64167D01*
X-63758Y-188292D01*
X-63408Y-188092D01*
X-63117Y-187825D01*
G01X-61058Y-184425D02*
Y-187292D01*
X-60825Y-187892D01*
X-60358Y-188292D01*
X-59775Y-188425D01*
X-59192Y-188292D01*
X-58725Y-187892D01*
X-58492Y-187292D01*
Y-184425D01*
G01X-56492Y-188425D02*
Y-184425D01*
X-54975Y-187758D01*
X-53458Y-184425D01*
Y-188425D01*
G01X-49008D02*
X-51342D01*
Y-184425D01*
X-49008D01*
G01X-49942Y-186358D02*
X-51342D01*
G01X-46717Y-188425D02*
Y-184425D01*
X-44033Y-188425D01*
Y-184425D01*
G01X-40575D02*
Y-188425D01*
G01X-41917Y-184425D02*
X-39233D01*
G01X-29692Y-184758D02*
X-30042Y-184558D01*
X-30450Y-184425D01*
X-30917D01*
X-31442Y-184625D01*
X-31850Y-184958D01*
X-32142Y-185358D01*
X-32375Y-186025D01*
X-32433Y-186625D01*
X-32317Y-187225D01*
X-32142Y-187625D01*
X-31792Y-188025D01*
X-31383Y-188292D01*
X-30975Y-188425D01*
X-30567D01*
X-30158Y-188292D01*
X-29808Y-188092D01*
X-29517Y-187825D01*
G01X-26175Y-188425D02*
X-26642Y-188358D01*
X-27050Y-188092D01*
X-27400Y-187692D01*
X-27633Y-187225D01*
X-27750Y-186692D01*
Y-186158D01*
X-27633Y-185625D01*
X-27400Y-185158D01*
X-27050Y-184758D01*
X-26642Y-184492D01*
X-26175Y-184425D01*
X-25708Y-184492D01*
X-25300Y-184758D01*
X-24950Y-185158D01*
X-24717Y-185625D01*
X-24600Y-186158D01*
Y-186692D01*
X-24717Y-187225D01*
X-24950Y-187692D01*
X-25300Y-188092D01*
X-25708Y-188358D01*
X-26175Y-188425D01*
G01X-22717D02*
Y-184425D01*
X-20033Y-188425D01*
Y-184425D01*
G01X-16575D02*
Y-188425D01*
G01X-17917Y-184425D02*
X-15233D01*
G01X-13233Y-188425D02*
X-11775Y-184425D01*
X-10317Y-188425D01*
G01X-10842Y-187025D02*
X-12708D01*
G01X-7675Y-184425D02*
X-6275D01*
G01X-6975D02*
Y-188425D01*
G01X-7675D02*
X-6275D01*
G01X-3517D02*
Y-184425D01*
X-833Y-188425D01*
Y-184425D01*
G01X1400Y-187892D02*
X1867Y-188225D01*
X2392Y-188425D01*
X2858D01*
X3325Y-188225D01*
X3675Y-187892D01*
X3850Y-187425D01*
X3733Y-186958D01*
X3442Y-186558D01*
X2917Y-186292D01*
X2217Y-186158D01*
X1808Y-185892D01*
X1633Y-185425D01*
X1750Y-184958D01*
X2042Y-184625D01*
X2450Y-184425D01*
X2858D01*
X3267Y-184558D01*
X3617Y-184892D01*
G01X11525Y-184425D02*
X12925D01*
G01X12225D02*
Y-188425D01*
G01X11525D02*
X12925D01*
G01X15683D02*
Y-184425D01*
X18367Y-188425D01*
Y-184425D01*
G01X20717Y-188425D02*
Y-184425D01*
X22933D01*
G01X22117Y-186358D02*
X20717D01*
G01X26625Y-188425D02*
X26158Y-188358D01*
X25750Y-188092D01*
X25400Y-187692D01*
X25167Y-187225D01*
X25050Y-186692D01*
Y-186158D01*
X25167Y-185625D01*
X25400Y-185158D01*
X25750Y-184758D01*
X26158Y-184492D01*
X26625Y-184425D01*
X27092Y-184492D01*
X27500Y-184758D01*
X27850Y-185158D01*
X28083Y-185625D01*
X28200Y-186158D01*
Y-186692D01*
X28083Y-187225D01*
X27850Y-187692D01*
X27500Y-188092D01*
X27092Y-188358D01*
X26625Y-188425D01*
G01X30258D02*
Y-184425D01*
X31717D01*
X32183Y-184625D01*
X32475Y-184892D01*
X32592Y-185425D01*
X32475Y-185958D01*
X32125Y-186292D01*
X31717Y-186492D01*
X30258D01*
G01X31717D02*
X32592Y-188425D01*
G01X34708D02*
Y-184425D01*
X36225Y-187758D01*
X37742Y-184425D01*
Y-188425D01*
G01X39567D02*
X41025Y-184425D01*
X42483Y-188425D01*
G01X41958Y-187025D02*
X40092D01*
G01X45825Y-184425D02*
Y-188425D01*
G01X44483Y-184425D02*
X47167D01*
G01X49925D02*
X51325D01*
G01X50625D02*
Y-188425D01*
G01X49925D02*
X51325D01*
G01X55425D02*
X54958Y-188358D01*
X54550Y-188092D01*
X54200Y-187692D01*
X53967Y-187225D01*
X53850Y-186692D01*
Y-186158D01*
X53967Y-185625D01*
X54200Y-185158D01*
X54550Y-184758D01*
X54958Y-184492D01*
X55425Y-184425D01*
X55892Y-184492D01*
X56300Y-184758D01*
X56650Y-185158D01*
X56883Y-185625D01*
X57000Y-186158D01*
Y-186692D01*
X56883Y-187225D01*
X56650Y-187692D01*
X56300Y-188092D01*
X55892Y-188358D01*
X55425Y-188425D01*
G01X58883D02*
Y-184425D01*
X61567Y-188425D01*
Y-184425D01*
G01X-105283Y-169758D02*
X-104875Y-169292D01*
X-104525Y-169025D01*
X-104058Y-168892D01*
X-103650Y-169025D01*
X-103358Y-169292D01*
X-103125Y-169692D01*
X-103067Y-170158D01*
X-103125Y-170558D01*
X-103358Y-170958D01*
X-103708Y-171292D01*
X-104117Y-171425D01*
X-104583Y-171292D01*
X-104992Y-170892D01*
X-105225Y-170292D01*
X-105283Y-169625D01*
X-105167Y-168758D01*
X-104992Y-168292D01*
X-104700Y-167825D01*
X-104292Y-167492D01*
X-103883Y-167425D01*
X-103475Y-167558D01*
X-103183Y-167892D01*
G01X-100658Y-170825D02*
X-100308Y-171158D01*
X-99900Y-171358D01*
X-99375Y-171425D01*
X-98850Y-171292D01*
X-98442Y-171025D01*
X-98150Y-170558D01*
X-98092Y-170025D01*
X-98208Y-169492D01*
X-98500Y-169158D01*
X-98908Y-168892D01*
X-99317Y-168825D01*
X-99725Y-168892D01*
X-100250Y-169158D01*
X-100075Y-167425D01*
X-98500D01*
G01X-94575D02*
X-95042Y-167558D01*
X-95392Y-167892D01*
X-95625Y-168292D01*
X-95800Y-168825D01*
X-95858Y-169425D01*
X-95800Y-170025D01*
X-95625Y-170558D01*
X-95392Y-170958D01*
X-95042Y-171292D01*
X-94575Y-171425D01*
X-94108Y-171292D01*
X-93758Y-170958D01*
X-93525Y-170558D01*
X-93350Y-170025D01*
X-93292Y-169425D01*
X-93350Y-168825D01*
X-93525Y-168292D01*
X-93758Y-167892D01*
X-94108Y-167558D01*
X-94575Y-167425D01*
G01X-89775Y-171425D02*
Y-167425D01*
X-90475Y-168225D01*
G01Y-171425D02*
X-89075D01*
G01X-81925Y-167425D02*
X-81108Y-171425D01*
X-80175Y-167425D01*
X-79242Y-171425D01*
X-78425Y-167425D01*
G01X-76075D02*
X-74675D01*
G01X-75375D02*
Y-171425D01*
G01X-76075D02*
X-74675D01*
G01X-71742Y-167425D02*
Y-171425D01*
X-69408D01*
G01X-66942Y-167425D02*
Y-171425D01*
X-64608D01*
G01X-61675Y-167425D02*
X-60275D01*
G01X-60975D02*
Y-171425D01*
G01X-61675D02*
X-60275D01*
G01X-57633D02*
X-56175Y-167425D01*
X-54717Y-171425D01*
G01X-55242Y-170025D02*
X-57108D01*
G01X-52892Y-171425D02*
Y-167425D01*
X-51375Y-170758D01*
X-49858Y-167425D01*
Y-171425D01*
G01X-40492Y-167758D02*
X-40842Y-167558D01*
X-41250Y-167425D01*
X-41717D01*
X-42242Y-167625D01*
X-42650Y-167958D01*
X-42942Y-168358D01*
X-43175Y-169025D01*
X-43233Y-169625D01*
X-43117Y-170225D01*
X-42942Y-170625D01*
X-42592Y-171025D01*
X-42183Y-171292D01*
X-41775Y-171425D01*
X-41367D01*
X-40958Y-171292D01*
X-40608Y-171092D01*
X-40317Y-170825D01*
G01X-38433Y-171425D02*
X-36975Y-167425D01*
X-35517Y-171425D01*
G01X-36042Y-170025D02*
X-37908D01*
G01X-33517Y-171425D02*
Y-167425D01*
X-30833Y-171425D01*
Y-167425D01*
G01X-28717Y-171425D02*
Y-167425D01*
X-26033Y-171425D01*
Y-167425D01*
G01X-22575Y-171425D02*
X-23042Y-171358D01*
X-23450Y-171092D01*
X-23800Y-170692D01*
X-24033Y-170225D01*
X-24150Y-169692D01*
Y-169158D01*
X-24033Y-168625D01*
X-23800Y-168158D01*
X-23450Y-167758D01*
X-23042Y-167492D01*
X-22575Y-167425D01*
X-22108Y-167492D01*
X-21700Y-167758D01*
X-21350Y-168158D01*
X-21117Y-168625D01*
X-21000Y-169158D01*
Y-169692D01*
X-21117Y-170225D01*
X-21350Y-170692D01*
X-21700Y-171092D01*
X-22108Y-171358D01*
X-22575Y-171425D01*
G01X-19117D02*
Y-167425D01*
X-16433Y-171425D01*
Y-167425D01*
G01X-9458Y-171425D02*
Y-167425D01*
X-8292D01*
X-7825Y-167625D01*
X-7475Y-167892D01*
X-7183Y-168292D01*
X-6950Y-168758D01*
X-6892Y-169425D01*
X-6950Y-170092D01*
X-7183Y-170558D01*
X-7475Y-170958D01*
X-7825Y-171225D01*
X-8292Y-171425D01*
X-9458D01*
G01X-4542D02*
Y-167425D01*
X-3083D01*
X-2617Y-167625D01*
X-2325Y-167892D01*
X-2208Y-168425D01*
X-2325Y-168958D01*
X-2675Y-169292D01*
X-3083Y-169492D01*
X-4542D01*
G01X-3083D02*
X-2208Y-171425D01*
G01X725Y-167425D02*
X2125D01*
G01X1425D02*
Y-171425D01*
G01X725D02*
X2125D01*
G01X4767Y-167425D02*
X6225Y-171425D01*
X7683Y-167425D01*
G01X12192Y-171425D02*
X9858D01*
Y-167425D01*
X12192D01*
G01X11258Y-169358D02*
X9858D01*
G01X18875Y-167425D02*
X19692Y-171425D01*
X20625Y-167425D01*
X21558Y-171425D01*
X22375Y-167425D01*
G01X26592Y-171425D02*
X24258D01*
Y-167425D01*
X26592D01*
G01X25658Y-169358D02*
X24258D01*
G01X29000Y-170892D02*
X29467Y-171225D01*
X29992Y-171425D01*
X30458D01*
X30925Y-171225D01*
X31275Y-170892D01*
X31450Y-170425D01*
X31333Y-169958D01*
X31042Y-169558D01*
X30517Y-169292D01*
X29817Y-169158D01*
X29408Y-168892D01*
X29233Y-168425D01*
X29350Y-167958D01*
X29642Y-167625D01*
X30050Y-167425D01*
X30458D01*
X30867Y-167558D01*
X31217Y-167892D01*
G01X35025Y-167425D02*
Y-171425D01*
G01X33683Y-167425D02*
X36367D01*
G01X-105898Y-163425D02*
Y-155925D01*
X-102352D01*
G01X-103658Y-159550D02*
X-105898D01*
G01X-98492Y-163425D02*
Y-155925D01*
X-96158D01*
X-95412Y-156300D01*
X-94945Y-156800D01*
X-94758Y-157800D01*
X-94945Y-158800D01*
X-95505Y-159425D01*
X-96158Y-159800D01*
X-98492D01*
G01X-96158D02*
X-94758Y-163425D01*
G01X-87258D02*
X-90992D01*
Y-155925D01*
X-87258D01*
G01X-88752Y-159550D02*
X-90992D01*
G01X-79758Y-163425D02*
X-83492D01*
Y-155925D01*
X-79758D01*
G01X-81252Y-159550D02*
X-83492D01*
G01X-76085Y-162425D02*
X-75338Y-163050D01*
X-74498Y-163425D01*
X-73752D01*
X-73005Y-163050D01*
X-72445Y-162425D01*
X-72165Y-161550D01*
X-72352Y-160675D01*
X-72818Y-159925D01*
X-73658Y-159425D01*
X-74778Y-159175D01*
X-75432Y-158675D01*
X-75712Y-157800D01*
X-75525Y-156925D01*
X-75058Y-156300D01*
X-74405Y-155925D01*
X-73752D01*
X-73098Y-156175D01*
X-72538Y-156800D01*
G01X-64572Y-156550D02*
X-65132Y-156175D01*
X-65785Y-155925D01*
X-66532D01*
X-67372Y-156300D01*
X-68025Y-156925D01*
X-68492Y-157675D01*
X-68865Y-158925D01*
X-68958Y-160050D01*
X-68772Y-161175D01*
X-68492Y-161925D01*
X-67932Y-162675D01*
X-67278Y-163175D01*
X-66625Y-163425D01*
X-65972D01*
X-65318Y-163175D01*
X-64758Y-162800D01*
X-64292Y-162300D01*
G01X-61458Y-163425D02*
X-59125Y-155925D01*
X-56792Y-163425D01*
G01X-57632Y-160800D02*
X-60618D01*
G01X-53492Y-155925D02*
Y-163425D01*
X-49758D01*
G01X-42258D02*
X-45992D01*
Y-155925D01*
X-42258D01*
G01X-43752Y-159550D02*
X-45992D01*
G01X-31085Y-162425D02*
X-30338Y-163050D01*
X-29498Y-163425D01*
X-28752D01*
X-28005Y-163050D01*
X-27445Y-162425D01*
X-27165Y-161550D01*
X-27352Y-160675D01*
X-27818Y-159925D01*
X-28658Y-159425D01*
X-29778Y-159175D01*
X-30432Y-158675D01*
X-30712Y-157800D01*
X-30525Y-156925D01*
X-30058Y-156300D01*
X-29405Y-155925D01*
X-28752D01*
X-28098Y-156175D01*
X-27538Y-156800D01*
G01X-19758Y-163425D02*
X-23492D01*
Y-155925D01*
X-19758D01*
G01X-21252Y-159550D02*
X-23492D01*
G01X-16552Y-163425D02*
Y-155925D01*
X-14125Y-162175D01*
X-11698Y-155925D01*
Y-163425D01*
G01X-7745Y-155925D02*
X-5505D01*
G01X-6625D02*
Y-163425D01*
G01X-7745D02*
X-5505D01*
G01X2928Y-156550D02*
X2368Y-156175D01*
X1715Y-155925D01*
X968D01*
X128Y-156300D01*
X-525Y-156925D01*
X-992Y-157675D01*
X-1365Y-158925D01*
X-1458Y-160050D01*
X-1272Y-161175D01*
X-992Y-161925D01*
X-432Y-162675D01*
X222Y-163175D01*
X875Y-163425D01*
X1528D01*
X2182Y-163175D01*
X2742Y-162800D01*
X3208Y-162300D01*
G01X8375Y-163425D02*
X7628Y-163300D01*
X6975Y-162800D01*
X6415Y-162050D01*
X6042Y-161175D01*
X5855Y-160175D01*
Y-159175D01*
X6042Y-158175D01*
X6415Y-157300D01*
X6975Y-156550D01*
X7628Y-156050D01*
X8375Y-155925D01*
X9122Y-156050D01*
X9775Y-156550D01*
X10335Y-157300D01*
X10708Y-158175D01*
X10895Y-159175D01*
Y-160175D01*
X10708Y-161175D01*
X10335Y-162050D01*
X9775Y-162800D01*
X9122Y-163300D01*
X8375Y-163425D01*
G01X13728D02*
Y-155925D01*
X18022Y-163425D01*
Y-155925D01*
G01X21322Y-163425D02*
Y-155925D01*
X23188D01*
X23935Y-156300D01*
X24495Y-156800D01*
X24962Y-157550D01*
X25335Y-158425D01*
X25428Y-159675D01*
X25335Y-160925D01*
X24962Y-161800D01*
X24495Y-162550D01*
X23935Y-163050D01*
X23188Y-163425D01*
X21322D01*
G01X28822Y-155925D02*
Y-161300D01*
X29195Y-162425D01*
X29942Y-163175D01*
X30875Y-163425D01*
X31808Y-163175D01*
X32555Y-162425D01*
X32928Y-161300D01*
Y-155925D01*
G01X40428Y-156550D02*
X39868Y-156175D01*
X39215Y-155925D01*
X38468D01*
X37628Y-156300D01*
X36975Y-156925D01*
X36508Y-157675D01*
X36135Y-158925D01*
X36042Y-160050D01*
X36228Y-161175D01*
X36508Y-161925D01*
X37068Y-162675D01*
X37722Y-163175D01*
X38375Y-163425D01*
X39028D01*
X39682Y-163175D01*
X40242Y-162800D01*
X40708Y-162300D01*
G01X45875Y-155925D02*
Y-163425D01*
G01X43728Y-155925D02*
X48022D01*
G01X53375Y-163425D02*
X52628Y-163300D01*
X51975Y-162800D01*
X51415Y-162050D01*
X51042Y-161175D01*
X50855Y-160175D01*
Y-159175D01*
X51042Y-158175D01*
X51415Y-157300D01*
X51975Y-156550D01*
X52628Y-156050D01*
X53375Y-155925D01*
X54122Y-156050D01*
X54775Y-156550D01*
X55335Y-157300D01*
X55708Y-158175D01*
X55895Y-159175D01*
Y-160175D01*
X55708Y-161175D01*
X55335Y-162050D01*
X54775Y-162800D01*
X54122Y-163300D01*
X53375Y-163425D01*
G01X59008D02*
Y-155925D01*
X61342D01*
X62088Y-156300D01*
X62555Y-156800D01*
X62742Y-157800D01*
X62555Y-158800D01*
X61995Y-159425D01*
X61342Y-159800D01*
X59008D01*
G01X61342D02*
X62742Y-163425D01*
G01X-58220Y-247085D02*
X-57593Y-247610D01*
X-56888Y-247925D01*
X-56262D01*
X-55635Y-247610D01*
X-55165Y-247085D01*
X-54930Y-246350D01*
X-55087Y-245615D01*
X-55478Y-244985D01*
X-56183Y-244565D01*
X-57123Y-244355D01*
X-57672Y-243935D01*
X-57907Y-243200D01*
X-57750Y-242465D01*
X-57358Y-241940D01*
X-56810Y-241625D01*
X-56262D01*
X-55713Y-241835D01*
X-55243Y-242360D01*
G01X-48708Y-247925D02*
X-51842D01*
Y-241625D01*
X-48708D01*
G01X-49962Y-244670D02*
X-51842D01*
G01X-42252Y-242150D02*
X-42722Y-241835D01*
X-43270Y-241625D01*
X-43897D01*
X-44602Y-241940D01*
X-45150Y-242465D01*
X-45542Y-243095D01*
X-45855Y-244145D01*
X-45933Y-245090D01*
X-45777Y-246035D01*
X-45542Y-246665D01*
X-45072Y-247295D01*
X-44523Y-247715D01*
X-43975Y-247925D01*
X-43427D01*
X-42878Y-247715D01*
X-42408Y-247400D01*
X-42017Y-246980D01*
G01X-37675Y-247925D02*
X-38302Y-247820D01*
X-38850Y-247400D01*
X-39320Y-246770D01*
X-39633Y-246035D01*
X-39790Y-245195D01*
Y-244355D01*
X-39633Y-243515D01*
X-39320Y-242780D01*
X-38850Y-242150D01*
X-38302Y-241730D01*
X-37675Y-241625D01*
X-37048Y-241730D01*
X-36500Y-242150D01*
X-36030Y-242780D01*
X-35717Y-243515D01*
X-35560Y-244355D01*
Y-245195D01*
X-35717Y-246035D01*
X-36030Y-246770D01*
X-36500Y-247400D01*
X-37048Y-247820D01*
X-37675Y-247925D01*
G01X-33177D02*
Y-241625D01*
X-29573Y-247925D01*
Y-241625D01*
G01X-26798Y-247925D02*
Y-241625D01*
X-25232D01*
X-24605Y-241940D01*
X-24135Y-242360D01*
X-23743Y-242990D01*
X-23430Y-243725D01*
X-23352Y-244775D01*
X-23430Y-245825D01*
X-23743Y-246560D01*
X-24135Y-247190D01*
X-24605Y-247610D01*
X-25232Y-247925D01*
X-26798D01*
G01X-20733D02*
X-18775Y-241625D01*
X-16817Y-247925D01*
G01X-17522Y-245720D02*
X-20028D01*
G01X-14042Y-247925D02*
Y-241625D01*
X-12083D01*
X-11457Y-241940D01*
X-11065Y-242360D01*
X-10908Y-243200D01*
X-11065Y-244040D01*
X-11535Y-244565D01*
X-12083Y-244880D01*
X-14042D01*
G01X-12083D02*
X-10908Y-247925D01*
G01X-6175D02*
Y-245090D01*
X-7742Y-241625D01*
G01X-4608D02*
X-6175Y-245090D01*
G01X4780Y-247085D02*
X5407Y-247610D01*
X6112Y-247925D01*
X6738D01*
X7365Y-247610D01*
X7835Y-247085D01*
X8070Y-246350D01*
X7913Y-245615D01*
X7522Y-244985D01*
X6817Y-244565D01*
X5877Y-244355D01*
X5328Y-243935D01*
X5093Y-243200D01*
X5250Y-242465D01*
X5642Y-241940D01*
X6190Y-241625D01*
X6738D01*
X7287Y-241835D01*
X7757Y-242360D01*
G01X11785Y-241625D02*
X13665D01*
G01X12725D02*
Y-247925D01*
G01X11785D02*
X13665D01*
G01X17458Y-241625D02*
Y-247925D01*
X20592D01*
G01X23602D02*
Y-241625D01*
G01X26578D02*
X23602Y-245510D01*
G01X27048Y-247925D02*
X24933Y-243725D01*
G01X29980Y-247085D02*
X30607Y-247610D01*
X31312Y-247925D01*
X31938D01*
X32565Y-247610D01*
X33035Y-247085D01*
X33270Y-246350D01*
X33113Y-245615D01*
X32722Y-244985D01*
X32017Y-244565D01*
X31077Y-244355D01*
X30528Y-243935D01*
X30293Y-243200D01*
X30450Y-242465D01*
X30842Y-241940D01*
X31390Y-241625D01*
X31938D01*
X32487Y-241835D01*
X32957Y-242360D01*
G01X39648Y-242150D02*
X39178Y-241835D01*
X38630Y-241625D01*
X38003D01*
X37298Y-241940D01*
X36750Y-242465D01*
X36358Y-243095D01*
X36045Y-244145D01*
X35967Y-245090D01*
X36123Y-246035D01*
X36358Y-246665D01*
X36828Y-247295D01*
X37377Y-247715D01*
X37925Y-247925D01*
X38473D01*
X39022Y-247715D01*
X39492Y-247400D01*
X39883Y-246980D01*
G01X42658Y-247925D02*
Y-241625D01*
X44617D01*
X45243Y-241940D01*
X45635Y-242360D01*
X45792Y-243200D01*
X45635Y-244040D01*
X45165Y-244565D01*
X44617Y-244880D01*
X42658D01*
G01X44617D02*
X45792Y-247925D01*
G01X52092D02*
X48958D01*
Y-241625D01*
X52092D01*
G01X50838Y-244670D02*
X48958D01*
G01X58392Y-247925D02*
X55258D01*
Y-241625D01*
X58392D01*
G01X57138Y-244670D02*
X55258D01*
G01X61323Y-247925D02*
Y-241625D01*
X64927Y-247925D01*
Y-241625D01*
G01X-55283Y-239425D02*
Y-235425D01*
X-53067D01*
G01X-53883Y-237358D02*
X-55283D01*
G01X-50075Y-235425D02*
X-48675D01*
G01X-49375D02*
Y-239425D01*
G01X-50075D02*
X-48675D01*
G01X-45742Y-235425D02*
Y-239425D01*
X-43408D01*
G01X-41292D02*
Y-235425D01*
X-39775Y-238758D01*
X-38258Y-235425D01*
Y-239425D01*
G01X3808Y-10280D02*
X3575Y-10105D01*
X3400Y-9814D01*
X3283Y-9405D01*
X3400Y-9055D01*
X3633Y-8822D01*
X4042Y-8647D01*
X5617D01*
Y-12147D01*
X3692D01*
X3283Y-11914D01*
X3050Y-11564D01*
X2933Y-11155D01*
X3050Y-10747D01*
X3400Y-10397D01*
X3808Y-10280D01*
X5617D01*
G01X1200Y-12147D02*
Y-8647D01*
G01X-1250D02*
Y-12147D01*
G01Y-10397D02*
X1200D01*
G01X-3042Y-11447D02*
X-3392Y-11855D01*
X-3858Y-12089D01*
X-4383Y-12147D01*
X-4850Y-12089D01*
X-5317Y-11797D01*
X-5608Y-11447D01*
X-5667Y-11097D01*
X-5550Y-10689D01*
X-5142Y-10397D01*
X-4733Y-10280D01*
X-4208D01*
G01X-4733D02*
X-5083Y-10105D01*
X-5375Y-9814D01*
X-5492Y-9464D01*
X-5375Y-9114D01*
X-5083Y-8822D01*
X-4558Y-8647D01*
X-4033Y-8705D01*
X-3508Y-8939D01*
G01X8230Y53170D02*
X7938Y52820D01*
X7588Y52587D01*
X7180Y52470D01*
X6713Y52587D01*
X6363Y52820D01*
X6013Y53170D01*
X5896Y53637D01*
Y55970D01*
G01X2763Y52470D02*
Y55970D01*
X3463Y55270D01*
G01Y52470D02*
X2063D01*
G01X-429Y55387D02*
X-779Y55737D01*
X-1187Y55912D01*
X-1654Y55970D01*
X-2237Y55853D01*
X-2645Y55562D01*
X-2762Y55212D01*
X-2704Y54862D01*
X-2470Y54570D01*
X-1304Y53987D01*
X-779Y53578D01*
X-429Y52995D01*
X-312Y52470D01*
X-2762D01*
G01X-9524Y71579D02*
Y75079D01*
X-8824Y74379D01*
G01Y71579D02*
X-10224D01*
G01X12744Y70159D02*
Y85071D01*
X31496D01*
Y81039D01*
X43464D01*
Y104207D01*
X53064D01*
Y77007D01*
X30280D01*
Y68367D01*
X12744D01*
Y70159D01*
G01X27881Y84344D02*
Y80844D01*
G01X29223Y84344D02*
X26539D01*
G01X24748Y80844D02*
Y84344D01*
X23348D01*
X22881Y84169D01*
X22531Y83761D01*
X22414Y83294D01*
X22531Y82827D01*
X22823Y82477D01*
X23348Y82302D01*
X24748D01*
G01X19281Y80844D02*
Y84344D01*
X19981Y83644D01*
G01Y80844D02*
X18581D01*
G01X16264Y81544D02*
X15914Y81136D01*
X15448Y80902D01*
X14923Y80844D01*
X14456Y80902D01*
X13989Y81194D01*
X13698Y81544D01*
X13639Y81894D01*
X13756Y82302D01*
X14164Y82594D01*
X14573Y82711D01*
X15098D01*
G01X14573D02*
X14223Y82886D01*
X13931Y83177D01*
X13814Y83527D01*
X13931Y83877D01*
X14223Y84169D01*
X14748Y84344D01*
X15273Y84286D01*
X15798Y84052D01*
G01X27881Y79096D02*
Y75596D01*
G01X29223Y79096D02*
X26539D01*
G01X24748Y75596D02*
Y79096D01*
X23348D01*
X22881Y78921D01*
X22531Y78513D01*
X22414Y78046D01*
X22531Y77579D01*
X22823Y77229D01*
X23348Y77054D01*
X24748D01*
G01X19281Y75596D02*
Y79096D01*
X19981Y78396D01*
G01Y75596D02*
X18581D01*
G01X16089Y77054D02*
X15681Y77463D01*
X15331Y77696D01*
X14864Y77813D01*
X14456Y77696D01*
X14164Y77463D01*
X13931Y77113D01*
X13873Y76704D01*
X13931Y76354D01*
X14164Y76004D01*
X14514Y75713D01*
X14923Y75596D01*
X15389Y75713D01*
X15798Y76063D01*
X16031Y76588D01*
X16089Y77171D01*
X15973Y77929D01*
X15798Y78338D01*
X15506Y78746D01*
X15098Y79038D01*
X14689Y79096D01*
X14281Y78979D01*
X13989Y78688D01*
G01X27881Y74104D02*
Y70604D01*
G01X29223Y74104D02*
X26539D01*
G01X24748Y70604D02*
Y74104D01*
X23348D01*
X22881Y73929D01*
X22531Y73521D01*
X22414Y73054D01*
X22531Y72587D01*
X22823Y72237D01*
X23348Y72062D01*
X24748D01*
G01X19281Y70604D02*
Y74104D01*
X19981Y73404D01*
G01Y70604D02*
X18581D01*
G01X14981D02*
X14573Y70662D01*
X14106Y70837D01*
X13814Y71129D01*
X13698Y71537D01*
X13814Y71946D01*
X14164Y72296D01*
X14689Y72471D01*
X15273D01*
X15623Y72587D01*
X15914Y72879D01*
X16031Y73287D01*
X15856Y73696D01*
X15448Y73987D01*
X14981Y74104D01*
X14514Y73987D01*
X14106Y73696D01*
X13931Y73287D01*
X14048Y72879D01*
X14339Y72587D01*
X14689Y72471D01*
X15273D01*
X15798Y72296D01*
X16148Y71946D01*
X16264Y71537D01*
X16148Y71129D01*
X15856Y70837D01*
X15389Y70662D01*
X14981Y70604D01*
G01X10876Y95078D02*
Y98578D01*
X11576Y97878D01*
G01Y95078D02*
X10176D01*
G01X2759Y90218D02*
X2467Y89868D01*
X2117Y89635D01*
X1709Y89518D01*
X1242Y89635D01*
X892Y89868D01*
X542Y90218D01*
X425Y90685D01*
Y93018D01*
G01X-1425Y90043D02*
X-1775Y89751D01*
X-2183Y89576D01*
X-2708Y89518D01*
X-3233Y89635D01*
X-3641Y89868D01*
X-3933Y90276D01*
X-3991Y90743D01*
X-3875Y91210D01*
X-3583Y91501D01*
X-3175Y91735D01*
X-2766Y91793D01*
X-2358Y91735D01*
X-1833Y91501D01*
X-2008Y93018D01*
X-3583D01*
G01X28521Y104312D02*
Y100812D01*
G01X29863Y104312D02*
X27179D01*
G01X25388Y100812D02*
Y104312D01*
X23988D01*
X23521Y104137D01*
X23171Y103729D01*
X23054Y103262D01*
X23171Y102795D01*
X23463Y102445D01*
X23988Y102270D01*
X25388D01*
G01X19921Y100812D02*
Y104312D01*
X20621Y103612D01*
G01Y100812D02*
X19221D01*
G01X16904Y101337D02*
X16554Y101045D01*
X16146Y100870D01*
X15621Y100812D01*
X15096Y100929D01*
X14688Y101162D01*
X14396Y101570D01*
X14338Y102037D01*
X14454Y102504D01*
X14746Y102795D01*
X15154Y103029D01*
X15563Y103087D01*
X15971Y103029D01*
X16496Y102795D01*
X16321Y104312D01*
X14746D01*
G01X3364Y135494D02*
X6864D01*
G01X3364Y136836D02*
Y134152D01*
G01X6864Y132361D02*
X3364D01*
Y130961D01*
X3539Y130494D01*
X3947Y130144D01*
X4414Y130027D01*
X4881Y130144D01*
X5231Y130436D01*
X5406Y130961D01*
Y132361D01*
G01X3947Y128002D02*
X3597Y127652D01*
X3422Y127244D01*
X3364Y126777D01*
X3481Y126194D01*
X3772Y125786D01*
X4122Y125669D01*
X4472Y125727D01*
X4764Y125961D01*
X5347Y127127D01*
X5756Y127652D01*
X6339Y128002D01*
X6864Y128119D01*
Y125669D01*
G01X-1679Y135700D02*
X1821D01*
G01X-1679Y137042D02*
Y134358D01*
G01X1821Y132567D02*
X-1679D01*
Y131167D01*
X-1504Y130700D01*
X-1096Y130350D01*
X-629Y130233D01*
X-162Y130350D01*
X188Y130642D01*
X363Y131167D01*
Y132567D01*
G01X1121Y128383D02*
X1529Y128033D01*
X1763Y127567D01*
X1821Y127042D01*
X1763Y126575D01*
X1471Y126108D01*
X1121Y125817D01*
X771Y125758D01*
X363Y125875D01*
X71Y126283D01*
X-46Y126692D01*
Y127217D01*
G01Y126692D02*
X-221Y126342D01*
X-512Y126050D01*
X-862Y125933D01*
X-1212Y126050D01*
X-1504Y126342D01*
X-1679Y126867D01*
X-1621Y127392D01*
X-1387Y127917D01*
G01X-7369Y135712D02*
X-3869D01*
G01X-7369Y137054D02*
Y134370D01*
G01X-3869Y132579D02*
X-7369D01*
Y131179D01*
X-7194Y130712D01*
X-6786Y130362D01*
X-6319Y130245D01*
X-5852Y130362D01*
X-5502Y130654D01*
X-5327Y131179D01*
Y132579D01*
G01X-3869Y126412D02*
X-7369D01*
X-4861Y128570D01*
Y125654D01*
G01X-8598Y137750D02*
X6818D01*
X9506Y140438D01*
Y148347D01*
X9527Y148368D01*
X39184D01*
Y138482D01*
X15458D01*
X11298Y134322D01*
Y124991D01*
X11051Y124744D01*
X-8085D01*
X-8598Y125257D01*
Y137750D01*
G01X12478Y121421D02*
Y124921D01*
X13178Y124221D01*
G01Y121421D02*
X11778D01*
G01X11795Y143950D02*
G02I3141J-591D01*
G01X9655Y161324D02*
Y164824D01*
X10355Y164124D01*
G01Y161324D02*
X8955D01*
G01X10204Y155208D02*
X9854Y155558D01*
X9446Y155733D01*
X8979Y155791D01*
X8396Y155674D01*
X7988Y155383D01*
X7871Y155033D01*
X7929Y154683D01*
X8163Y154391D01*
X9329Y153808D01*
X9854Y153399D01*
X10204Y152816D01*
X10321Y152291D01*
X7871D01*
G01X10379Y172991D02*
X10029Y172583D01*
X9563Y172349D01*
X9038Y172291D01*
X8571Y172349D01*
X8104Y172641D01*
X7813Y172991D01*
X7754Y173341D01*
X7871Y173749D01*
X8279Y174041D01*
X8688Y174158D01*
X9213D01*
G01X8688D02*
X8338Y174333D01*
X8046Y174624D01*
X7929Y174974D01*
X8046Y175324D01*
X8338Y175616D01*
X8863Y175791D01*
X9388Y175733D01*
X9913Y175499D01*
G01X3532Y180513D02*
X3299Y180688D01*
X3124Y180979D01*
X3007Y181388D01*
X3124Y181738D01*
X3357Y181971D01*
X3766Y182146D01*
X5341D01*
Y178646D01*
X3416D01*
X3007Y178879D01*
X2774Y179229D01*
X2657Y179638D01*
X2774Y180046D01*
X3124Y180396D01*
X3532Y180513D01*
X5341D01*
G01X924Y178646D02*
Y182146D01*
G01X-1526D02*
Y178646D01*
G01Y180396D02*
X924D01*
G01X-4601Y178646D02*
Y182146D01*
X-3901Y181446D01*
G01Y178646D02*
X-5301D01*
G01X47472Y-24165D02*
Y-27665D01*
G01X48814Y-24165D02*
X46130D01*
G01X44339Y-27665D02*
Y-24165D01*
X42939D01*
X42472Y-24340D01*
X42122Y-24748D01*
X42005Y-25215D01*
X42122Y-25682D01*
X42414Y-26032D01*
X42939Y-26207D01*
X44339D01*
G01X39980Y-24748D02*
X39630Y-24398D01*
X39222Y-24223D01*
X38755Y-24165D01*
X38172Y-24282D01*
X37764Y-24573D01*
X37647Y-24923D01*
X37705Y-25273D01*
X37939Y-25565D01*
X39105Y-26148D01*
X39630Y-26557D01*
X39980Y-27140D01*
X40097Y-27665D01*
X37647D01*
G01X35855Y-26965D02*
X35505Y-27373D01*
X35039Y-27607D01*
X34514Y-27665D01*
X34047Y-27607D01*
X33580Y-27315D01*
X33289Y-26965D01*
X33230Y-26615D01*
X33347Y-26207D01*
X33755Y-25915D01*
X34164Y-25798D01*
X34689D01*
G01X34164D02*
X33814Y-25623D01*
X33522Y-25332D01*
X33405Y-24982D01*
X33522Y-24632D01*
X33814Y-24340D01*
X34339Y-24165D01*
X34864Y-24223D01*
X35389Y-24457D01*
G01X34011Y-36846D02*
Y-40346D01*
G01X35353Y-36846D02*
X32669D01*
G01X30878Y-40346D02*
Y-36846D01*
X29478D01*
X29011Y-37021D01*
X28661Y-37429D01*
X28544Y-37896D01*
X28661Y-38363D01*
X28953Y-38713D01*
X29478Y-38888D01*
X30878D01*
G01X26519Y-37429D02*
X26169Y-37079D01*
X25761Y-36904D01*
X25294Y-36846D01*
X24711Y-36963D01*
X24303Y-37254D01*
X24186Y-37604D01*
X24244Y-37954D01*
X24478Y-38246D01*
X25644Y-38829D01*
X26169Y-39238D01*
X26519Y-39821D01*
X26636Y-40346D01*
X24186D01*
G01X20411D02*
Y-36846D01*
X22569Y-39354D01*
X19653D01*
G01X45583Y-38041D02*
G02I-3196J0D01*
G01X31038Y-7400D02*
Y-3900D01*
X31738Y-4600D01*
G01Y-7400D02*
X30338D01*
G01X32402Y7741D02*
X32052Y8091D01*
X31644Y8266D01*
X31177Y8324D01*
X30594Y8207D01*
X30186Y7916D01*
X30069Y7566D01*
X30127Y7216D01*
X30361Y6924D01*
X31527Y6341D01*
X32052Y5932D01*
X32402Y5349D01*
X32519Y4824D01*
X30069D01*
G01X39300Y10700D02*
X34300D01*
Y-7747D01*
X37253Y-10700D01*
X39300D01*
G01X26039Y28236D02*
Y31736D01*
X26739Y31036D01*
G01Y28236D02*
X25339D01*
G01X125213Y55325D02*
X124743Y55955D01*
X124195Y56270D01*
X123568Y56375D01*
X122785Y56165D01*
X122237Y55640D01*
X122080Y55010D01*
X122158Y54380D01*
X122472Y53855D01*
X124038Y52805D01*
X124743Y52070D01*
X125213Y51020D01*
X125370Y50075D01*
X122080D01*
G01X117425Y56375D02*
X118052Y56165D01*
X118522Y55640D01*
X118835Y55010D01*
X119070Y54170D01*
X119148Y53225D01*
X119070Y52280D01*
X118835Y51440D01*
X118522Y50810D01*
X118052Y50285D01*
X117425Y50075D01*
X116798Y50285D01*
X116328Y50810D01*
X116015Y51440D01*
X115780Y52280D01*
X115702Y53225D01*
X115780Y54170D01*
X116015Y55010D01*
X116328Y55640D01*
X116798Y56165D01*
X117425Y56375D01*
G01X111125Y50075D02*
Y56375D01*
X112065Y55115D01*
G01Y50075D02*
X110185D01*
G01X106548Y51335D02*
X106078Y50600D01*
X105452Y50180D01*
X104747Y50075D01*
X104120Y50180D01*
X103493Y50705D01*
X103102Y51335D01*
X103023Y51965D01*
X103180Y52700D01*
X103728Y53225D01*
X104277Y53435D01*
X104982D01*
G01X104277D02*
X103807Y53750D01*
X103415Y54275D01*
X103258Y54905D01*
X103415Y55535D01*
X103807Y56060D01*
X104512Y56375D01*
X105217Y56270D01*
X105922Y55850D01*
G01X93713Y50075D02*
Y56375D01*
X90737D01*
G01X91833Y53330D02*
X93713D01*
G01X87492Y50075D02*
Y56375D01*
X85533D01*
X84907Y56060D01*
X84515Y55640D01*
X84358Y54800D01*
X84515Y53960D01*
X84985Y53435D01*
X85533Y53120D01*
X87492D01*
G01X85533D02*
X84358Y50075D01*
G01X78058D02*
X81192D01*
Y56375D01*
X78058D01*
G01X79312Y53330D02*
X81192D01*
G01X71758Y50075D02*
X74892D01*
Y56375D01*
X71758D01*
G01X73012Y53330D02*
X74892D01*
G01X68670Y50915D02*
X68043Y50390D01*
X67338Y50075D01*
X66712D01*
X66085Y50390D01*
X65615Y50915D01*
X65380Y51650D01*
X65537Y52385D01*
X65928Y53015D01*
X66633Y53435D01*
X67573Y53645D01*
X68122Y54065D01*
X68357Y54800D01*
X68200Y55535D01*
X67808Y56060D01*
X67260Y56375D01*
X66712D01*
X66163Y56165D01*
X65693Y55640D01*
G01X59002Y55850D02*
X59472Y56165D01*
X60020Y56375D01*
X60647D01*
X61352Y56060D01*
X61900Y55535D01*
X62292Y54905D01*
X62605Y53855D01*
X62683Y52910D01*
X62527Y51965D01*
X62292Y51335D01*
X61822Y50705D01*
X61273Y50285D01*
X60725Y50075D01*
X60177D01*
X59628Y50285D01*
X59158Y50600D01*
X58767Y51020D01*
G01X56383Y50075D02*
X54425Y56375D01*
X52467Y50075D01*
G01X53172Y52280D02*
X55678D01*
G01X49692Y56375D02*
Y50075D01*
X46558D01*
G01X40258D02*
X43392D01*
Y56375D01*
X40258D01*
G01X41512Y53330D02*
X43392D01*
G01X27147Y42161D02*
X26797Y42511D01*
X26389Y42686D01*
X25922Y42744D01*
X25339Y42627D01*
X24931Y42336D01*
X24814Y41986D01*
X24872Y41636D01*
X25106Y41344D01*
X26272Y40761D01*
X26797Y40352D01*
X27147Y39769D01*
X27264Y39244D01*
X24814D01*
G01X31927Y70220D02*
Y73720D01*
X32627Y73020D01*
G01Y70220D02*
X31227D01*
G01X32530Y61384D02*
X32238Y61034D01*
X31888Y60801D01*
X31480Y60684D01*
X31013Y60801D01*
X30663Y61034D01*
X30313Y61384D01*
X30196Y61851D01*
Y64184D01*
G01X27063Y60684D02*
Y64184D01*
X27763Y63484D01*
G01Y60684D02*
X26363D01*
G01X22763D02*
Y64184D01*
X23463Y63484D01*
G01Y60684D02*
X22063D01*
G01X28837Y89506D02*
X27670D01*
Y88456D01*
X28020Y88106D01*
X28429Y87873D01*
X29012Y87756D01*
X29595Y87873D01*
X30004Y88106D01*
X30354Y88456D01*
X30587Y88864D01*
X30704Y89331D01*
Y89739D01*
X30587Y90089D01*
X30354Y90498D01*
X30004Y90848D01*
X29654Y91081D01*
X29187Y91256D01*
X28779D01*
X28312Y91139D01*
X27962Y90906D01*
G01X26229Y87756D02*
Y91256D01*
X23545Y87756D01*
Y91256D01*
G01X21870Y87756D02*
Y91256D01*
X20704D01*
X20237Y91081D01*
X19887Y90848D01*
X19595Y90498D01*
X19362Y90089D01*
X19304Y89506D01*
X19362Y88923D01*
X19595Y88514D01*
X19887Y88164D01*
X20237Y87931D01*
X20704Y87756D01*
X21870D01*
G01X23997Y96792D02*
G02I3141J-591D01*
G01X32375Y94092D02*
Y97592D01*
X33075Y96892D01*
G01Y94092D02*
X31675D01*
G01X41388Y100616D02*
X41096Y100266D01*
X40746Y100033D01*
X40338Y99916D01*
X39871Y100033D01*
X39521Y100266D01*
X39171Y100616D01*
X39054Y101083D01*
Y103416D01*
G01X36038Y99916D02*
X35921Y100674D01*
X35746Y101316D01*
X35513Y101899D01*
X35221Y102541D01*
X34754Y103416D01*
X37088D01*
G01X22370Y126693D02*
X22078Y126343D01*
X21728Y126110D01*
X21320Y125993D01*
X20853Y126110D01*
X20503Y126343D01*
X20153Y126693D01*
X20036Y127160D01*
Y129493D01*
G01X16203Y125993D02*
Y129493D01*
X18361Y126985D01*
X15445D01*
G01X36087Y126540D02*
Y130040D01*
X36787Y129340D01*
G01Y126540D02*
X35387D01*
G01X20912Y143950D02*
G02I3141J-591D01*
G01X29400D02*
G02I3141J-591D01*
G01X32277Y179977D02*
X31985Y179627D01*
X31635Y179394D01*
X31227Y179277D01*
X30760Y179394D01*
X30410Y179627D01*
X30060Y179977D01*
X29943Y180444D01*
Y182777D01*
G01X26810Y179277D02*
Y182777D01*
X27510Y182077D01*
G01Y179277D02*
X26110D01*
G01X59276Y-25708D02*
G02I-3196J0D01*
G01X107192Y15052D02*
Y18552D01*
X105675Y15635D01*
X104158Y18552D01*
Y15052D01*
G01X101375D02*
X101842Y15110D01*
X102250Y15344D01*
X102600Y15694D01*
X102833Y16102D01*
X102950Y16569D01*
Y17035D01*
X102833Y17502D01*
X102600Y17910D01*
X102250Y18260D01*
X101842Y18494D01*
X101375Y18552D01*
X100908Y18494D01*
X100500Y18260D01*
X100150Y17910D01*
X99917Y17502D01*
X99800Y17035D01*
Y16569D01*
X99917Y16102D01*
X100150Y15694D01*
X100500Y15344D01*
X100908Y15110D01*
X101375Y15052D01*
G01X97075Y18552D02*
Y15052D01*
G01X98417Y18552D02*
X95733D01*
G01X94000Y15052D02*
Y18552D01*
G01X91550D02*
Y15052D01*
G01Y16802D02*
X94000D01*
G01X87308Y15052D02*
X89642D01*
Y18552D01*
X87308D01*
G01X88242Y16860D02*
X89642D01*
G01X85342Y15052D02*
Y18552D01*
X83883D01*
X83417Y18377D01*
X83125Y18144D01*
X83008Y17677D01*
X83125Y17210D01*
X83475Y16919D01*
X83883Y16744D01*
X85342D01*
G01X83883D02*
X83008Y15052D01*
G01X81625Y13885D02*
X78125D01*
G01X75108Y16919D02*
X74875Y17094D01*
X74700Y17385D01*
X74583Y17794D01*
X74700Y18144D01*
X74933Y18377D01*
X75342Y18552D01*
X76917D01*
Y15052D01*
X74992D01*
X74583Y15285D01*
X74350Y15635D01*
X74233Y16044D01*
X74350Y16452D01*
X74700Y16802D01*
X75108Y16919D01*
X76917D01*
G01X72442Y15052D02*
Y18552D01*
X70983D01*
X70517Y18377D01*
X70225Y18144D01*
X70108Y17677D01*
X70225Y17210D01*
X70575Y16919D01*
X70983Y16744D01*
X72442D01*
G01X70983D02*
X70108Y15052D01*
G01X68258D02*
Y18552D01*
X67092D01*
X66625Y18377D01*
X66275Y18144D01*
X65983Y17794D01*
X65750Y17385D01*
X65692Y16802D01*
X65750Y16219D01*
X65983Y15810D01*
X66275Y15460D01*
X66625Y15227D01*
X67092Y15052D01*
X68258D01*
G01X64425Y13885D02*
X60925D01*
G01X57092Y18260D02*
X57442Y18435D01*
X57850Y18552D01*
X58317D01*
X58842Y18377D01*
X59250Y18085D01*
X59542Y17735D01*
X59775Y17152D01*
X59833Y16627D01*
X59717Y16102D01*
X59542Y15752D01*
X59192Y15402D01*
X58783Y15169D01*
X58375Y15052D01*
X57967D01*
X57558Y15169D01*
X57208Y15344D01*
X56917Y15577D01*
G01X54075Y15052D02*
X54542Y15110D01*
X54950Y15344D01*
X55300Y15694D01*
X55533Y16102D01*
X55650Y16569D01*
Y17035D01*
X55533Y17502D01*
X55300Y17910D01*
X54950Y18260D01*
X54542Y18494D01*
X54075Y18552D01*
X53608Y18494D01*
X53200Y18260D01*
X52850Y17910D01*
X52617Y17502D01*
X52500Y17035D01*
Y16569D01*
X52617Y16102D01*
X52850Y15694D01*
X53200Y15344D01*
X53608Y15110D01*
X54075Y15052D01*
G01X51117D02*
Y18552D01*
X48433Y15052D01*
Y18552D01*
G01X46817Y15052D02*
Y18552D01*
X44133Y15052D01*
Y18552D01*
G01X78267Y69368D02*
X76809Y65868D01*
X75351Y69368D01*
G01X73734Y66335D02*
X73267Y66043D01*
X72742Y65868D01*
X72276D01*
X71809Y66043D01*
X71459Y66335D01*
X71284Y66743D01*
X71401Y67151D01*
X71692Y67501D01*
X72217Y67735D01*
X72917Y67851D01*
X73326Y68085D01*
X73501Y68493D01*
X73384Y68901D01*
X73092Y69193D01*
X72684Y69368D01*
X72276D01*
X71867Y69251D01*
X71517Y68960D01*
G01X69434Y66335D02*
X68967Y66043D01*
X68442Y65868D01*
X67976D01*
X67509Y66043D01*
X67159Y66335D01*
X66984Y66743D01*
X67101Y67151D01*
X67392Y67501D01*
X67917Y67735D01*
X68617Y67851D01*
X69026Y68085D01*
X69201Y68493D01*
X69084Y68901D01*
X68792Y69193D01*
X68384Y69368D01*
X67976D01*
X67567Y69251D01*
X67217Y68960D01*
G01X65367Y65868D02*
X63909Y69368D01*
X62451Y65868D01*
G01X62976Y67093D02*
X64842D01*
G01X76809Y74488D02*
Y70988D01*
G01X78151Y74488D02*
X75467D01*
G01X73676Y70988D02*
Y74488D01*
X72276D01*
X71809Y74313D01*
X71459Y73905D01*
X71342Y73438D01*
X71459Y72971D01*
X71751Y72621D01*
X72276Y72446D01*
X73676D01*
G01X68209Y70988D02*
Y74488D01*
X68909Y73788D01*
G01Y70988D02*
X67509D01*
G01X64901Y71396D02*
X64492Y71105D01*
X64026Y70988D01*
X63559Y71105D01*
X63151Y71455D01*
X62859Y71980D01*
X62742Y72505D01*
Y73146D01*
X62859Y73671D01*
X63151Y74138D01*
X63501Y74371D01*
X63909Y74488D01*
X64376Y74371D01*
X64726Y74138D01*
X64959Y73788D01*
X65076Y73321D01*
X64959Y72913D01*
X64667Y72505D01*
X64317Y72271D01*
X63909Y72213D01*
X63442Y72330D01*
X63092Y72621D01*
X62742Y73146D01*
G01X55091Y74540D02*
G02I3141J-591D01*
G01X45189Y82897D02*
G02I3141J-591D01*
G01X55226Y95053D02*
X58726D01*
G01X55226Y96395D02*
Y93711D01*
G01X58726Y91920D02*
X55226D01*
Y90520D01*
X55401Y90053D01*
X55809Y89703D01*
X56276Y89586D01*
X56743Y89703D01*
X57093Y89995D01*
X57268Y90520D01*
Y91920D01*
G01X58726Y86453D02*
X55226D01*
X55926Y87153D01*
G01X58726D02*
Y85753D01*
G01Y81453D02*
X55226D01*
X57734Y83611D01*
Y80695D01*
G01X45751Y71244D02*
Y74744D01*
X46451Y74044D01*
G01Y71244D02*
X45051D01*
G01X57738Y69494D02*
X58088Y69202D01*
X58321Y68852D01*
X58438Y68444D01*
X58321Y67977D01*
X58088Y67627D01*
X57738Y67277D01*
X57271Y67160D01*
X54938D01*
G01X58438Y64027D02*
X54938D01*
X55638Y64727D01*
G01X58438D02*
Y63327D01*
G01X54938Y59727D02*
X55055Y60194D01*
X55346Y60544D01*
X55696Y60777D01*
X56163Y60952D01*
X56688Y61010D01*
X57213Y60952D01*
X57680Y60777D01*
X58030Y60544D01*
X58321Y60194D01*
X58438Y59727D01*
X58321Y59260D01*
X58030Y58910D01*
X57680Y58677D01*
X57213Y58502D01*
X56688Y58444D01*
X56163Y58502D01*
X55696Y58677D01*
X55346Y58910D01*
X55055Y59260D01*
X54938Y59727D01*
G01X45189Y100756D02*
G02I3141J-591D01*
G01X45248Y90865D02*
G02I3141J-591D01*
G01X54042Y100387D02*
G02I3141J-591D01*
G01X48956Y133704D02*
X48664Y133354D01*
X48314Y133121D01*
X47906Y133004D01*
X47439Y133121D01*
X47089Y133354D01*
X46739Y133704D01*
X46622Y134171D01*
Y136504D01*
G01X44772Y133704D02*
X44422Y133296D01*
X43956Y133062D01*
X43431Y133004D01*
X42964Y133062D01*
X42497Y133354D01*
X42206Y133704D01*
X42147Y134054D01*
X42264Y134462D01*
X42672Y134754D01*
X43081Y134871D01*
X43606D01*
G01X43081D02*
X42731Y135046D01*
X42439Y135337D01*
X42322Y135687D01*
X42439Y136037D01*
X42731Y136329D01*
X43256Y136504D01*
X43781Y136446D01*
X44306Y136212D01*
G01X48826Y151066D02*
X48476Y150774D01*
X48068Y150599D01*
X47543Y150541D01*
X47018Y150658D01*
X46610Y150891D01*
X46318Y151299D01*
X46260Y151766D01*
X46376Y152233D01*
X46668Y152524D01*
X47076Y152758D01*
X47485Y152816D01*
X47893Y152758D01*
X48418Y152524D01*
X48243Y154041D01*
X46668D01*
G01X46715Y171789D02*
Y175289D01*
X48873Y172781D01*
X45957D01*
G01X72825Y-247425D02*
Y-243425D01*
X72125Y-244225D01*
G01Y-247425D02*
X73525D01*
G01X77625Y-243425D02*
X77158Y-243558D01*
X76808Y-243892D01*
X76575Y-244292D01*
X76400Y-244825D01*
X76342Y-245425D01*
X76400Y-246025D01*
X76575Y-246558D01*
X76808Y-246958D01*
X77158Y-247292D01*
X77625Y-247425D01*
X78092Y-247292D01*
X78442Y-246958D01*
X78675Y-246558D01*
X78850Y-246025D01*
X78908Y-245425D01*
X78850Y-244825D01*
X78675Y-244292D01*
X78442Y-243892D01*
X78092Y-243558D01*
X77625Y-243425D01*
G01X81667Y-246092D02*
X83183D01*
G01X86117Y-244092D02*
X86467Y-243692D01*
X86875Y-243492D01*
X87342Y-243425D01*
X87925Y-243558D01*
X88333Y-243892D01*
X88450Y-244292D01*
X88392Y-244692D01*
X88158Y-245025D01*
X86992Y-245692D01*
X86467Y-246158D01*
X86117Y-246825D01*
X86000Y-247425D01*
X88450D01*
G01X90917Y-244092D02*
X91267Y-243692D01*
X91675Y-243492D01*
X92142Y-243425D01*
X92725Y-243558D01*
X93133Y-243892D01*
X93250Y-244292D01*
X93192Y-244692D01*
X92958Y-245025D01*
X91792Y-245692D01*
X91267Y-246158D01*
X90917Y-246825D01*
X90800Y-247425D01*
X93250D01*
G01X96067Y-246092D02*
X97583D01*
G01X101625Y-247425D02*
Y-243425D01*
X100925Y-244225D01*
G01Y-247425D02*
X102325D01*
G01X105142Y-246625D02*
X105492Y-247092D01*
X105958Y-247358D01*
X106483Y-247425D01*
X106950Y-247358D01*
X107417Y-247025D01*
X107708Y-246625D01*
X107767Y-246225D01*
X107650Y-245758D01*
X107242Y-245425D01*
X106833Y-245292D01*
X106308D01*
G01X106833D02*
X107183Y-245092D01*
X107475Y-244758D01*
X107592Y-244358D01*
X107475Y-243958D01*
X107183Y-243625D01*
X106658Y-243425D01*
X106133Y-243492D01*
X105608Y-243758D01*
G01X69542Y-239425D02*
Y-235425D01*
X70708D01*
X71175Y-235625D01*
X71525Y-235892D01*
X71817Y-236292D01*
X72050Y-236758D01*
X72108Y-237425D01*
X72050Y-238092D01*
X71817Y-238558D01*
X71525Y-238958D01*
X71175Y-239225D01*
X70708Y-239425D01*
X69542D01*
G01X74167D02*
X75625Y-235425D01*
X77083Y-239425D01*
G01X76558Y-238025D02*
X74692D01*
G01X80425Y-235425D02*
Y-239425D01*
G01X79083Y-235425D02*
X81767D01*
G01X86392Y-239425D02*
X84058D01*
Y-235425D01*
X86392D01*
G01X85458Y-237358D02*
X84058D01*
G01X83780Y-208425D02*
X87070Y-202125D01*
G01X83780D02*
X87070Y-208425D01*
G01X79075Y-225258D02*
X82575D01*
G01X83875D02*
X87375D01*
G01X88675D02*
X92175D01*
G01X98917Y-223925D02*
Y-219925D01*
X101133D01*
G01X100317Y-221858D02*
X98917D01*
G01X106108Y-220258D02*
X105758Y-220058D01*
X105350Y-219925D01*
X104883D01*
X104358Y-220125D01*
X103950Y-220458D01*
X103658Y-220858D01*
X103425Y-221525D01*
X103367Y-222125D01*
X103483Y-222725D01*
X103658Y-223125D01*
X104008Y-223525D01*
X104417Y-223792D01*
X104825Y-223925D01*
X105233D01*
X105642Y-223792D01*
X105992Y-223592D01*
X106283Y-223325D01*
G01X108458Y-223925D02*
Y-219925D01*
X109858D01*
X110325Y-220125D01*
X110675Y-220592D01*
X110792Y-221125D01*
X110675Y-221658D01*
X110383Y-222058D01*
X109858Y-222258D01*
X108458D01*
G01X118933Y-225258D02*
X118350Y-224592D01*
X118058Y-223925D01*
Y-221258D01*
X118350Y-220592D01*
X118933Y-219925D01*
G01X122917Y-223925D02*
Y-219925D01*
X125133D01*
G01X124317Y-221858D02*
X122917D01*
G01X127658Y-223925D02*
Y-219925D01*
X129117D01*
X129583Y-220125D01*
X129875Y-220392D01*
X129992Y-220925D01*
X129875Y-221458D01*
X129525Y-221792D01*
X129117Y-221992D01*
X127658D01*
G01X129117D02*
X129992Y-223925D01*
G01X134792D02*
X132458D01*
Y-219925D01*
X134792D01*
G01X133858Y-221858D02*
X132458D01*
G01X139592Y-223925D02*
X137258D01*
Y-219925D01*
X139592D01*
G01X138658Y-221858D02*
X137258D01*
G01X142000Y-223392D02*
X142467Y-223725D01*
X142992Y-223925D01*
X143458D01*
X143925Y-223725D01*
X144275Y-223392D01*
X144450Y-222925D01*
X144333Y-222458D01*
X144042Y-222058D01*
X143517Y-221792D01*
X142817Y-221658D01*
X142408Y-221392D01*
X142233Y-220925D01*
X142350Y-220458D01*
X142642Y-220125D01*
X143050Y-219925D01*
X143458D01*
X143867Y-220058D01*
X144217Y-220392D01*
G01X149308Y-220258D02*
X148958Y-220058D01*
X148550Y-219925D01*
X148083D01*
X147558Y-220125D01*
X147150Y-220458D01*
X146858Y-220858D01*
X146625Y-221525D01*
X146567Y-222125D01*
X146683Y-222725D01*
X146858Y-223125D01*
X147208Y-223525D01*
X147617Y-223792D01*
X148025Y-223925D01*
X148433D01*
X148842Y-223792D01*
X149192Y-223592D01*
X149483Y-223325D01*
G01X151367Y-223925D02*
X152825Y-219925D01*
X154283Y-223925D01*
G01X153758Y-222525D02*
X151892D01*
G01X156458Y-219925D02*
Y-223925D01*
X158792D01*
G01X163592D02*
X161258D01*
Y-219925D01*
X163592D01*
G01X162658Y-221858D02*
X161258D01*
G01X173308Y-220258D02*
X172958Y-220058D01*
X172550Y-219925D01*
X172083D01*
X171558Y-220125D01*
X171150Y-220458D01*
X170858Y-220858D01*
X170625Y-221525D01*
X170567Y-222125D01*
X170683Y-222725D01*
X170858Y-223125D01*
X171208Y-223525D01*
X171617Y-223792D01*
X172025Y-223925D01*
X172433D01*
X172842Y-223792D01*
X173192Y-223592D01*
X173483Y-223325D01*
G01X176825Y-223925D02*
X176358Y-223858D01*
X175950Y-223592D01*
X175600Y-223192D01*
X175367Y-222725D01*
X175250Y-222192D01*
Y-221658D01*
X175367Y-221125D01*
X175600Y-220658D01*
X175950Y-220258D01*
X176358Y-219992D01*
X176825Y-219925D01*
X177292Y-219992D01*
X177700Y-220258D01*
X178050Y-220658D01*
X178283Y-221125D01*
X178400Y-221658D01*
Y-222192D01*
X178283Y-222725D01*
X178050Y-223192D01*
X177700Y-223592D01*
X177292Y-223858D01*
X176825Y-223925D01*
G01X180283D02*
Y-219925D01*
X182967Y-223925D01*
Y-219925D01*
G01X185317Y-223925D02*
Y-219925D01*
X187533D01*
G01X186717Y-221858D02*
X185317D01*
G01X190525Y-219925D02*
X191925D01*
G01X191225D02*
Y-223925D01*
G01X190525D02*
X191925D01*
G01X194742D02*
Y-219925D01*
X195908D01*
X196375Y-220125D01*
X196725Y-220392D01*
X197017Y-220792D01*
X197250Y-221258D01*
X197308Y-221925D01*
X197250Y-222592D01*
X197017Y-223058D01*
X196725Y-223458D01*
X196375Y-223725D01*
X195908Y-223925D01*
X194742D01*
G01X201992D02*
X199658D01*
Y-219925D01*
X201992D01*
G01X201058Y-221858D02*
X199658D01*
G01X204283Y-223925D02*
Y-219925D01*
X206967Y-223925D01*
Y-219925D01*
G01X210425D02*
Y-223925D01*
G01X209083Y-219925D02*
X211767D01*
G01X214525D02*
X215925D01*
G01X215225D02*
Y-223925D01*
G01X214525D02*
X215925D01*
G01X218567D02*
X220025Y-219925D01*
X221483Y-223925D01*
G01X220958Y-222525D02*
X219092D01*
G01X223658Y-219925D02*
Y-223925D01*
X225992D01*
G01X233258D02*
Y-219925D01*
X234658D01*
X235125Y-220125D01*
X235475Y-220592D01*
X235592Y-221125D01*
X235475Y-221658D01*
X235183Y-222058D01*
X234658Y-222258D01*
X233258D01*
G01X238058Y-223925D02*
Y-219925D01*
X239517D01*
X239983Y-220125D01*
X240275Y-220392D01*
X240392Y-220925D01*
X240275Y-221458D01*
X239925Y-221792D01*
X239517Y-221992D01*
X238058D01*
G01X239517D02*
X240392Y-223925D01*
G01X244025D02*
X243558Y-223858D01*
X243150Y-223592D01*
X242800Y-223192D01*
X242567Y-222725D01*
X242450Y-222192D01*
Y-221658D01*
X242567Y-221125D01*
X242800Y-220658D01*
X243150Y-220258D01*
X243558Y-219992D01*
X244025Y-219925D01*
X244492Y-219992D01*
X244900Y-220258D01*
X245250Y-220658D01*
X245483Y-221125D01*
X245600Y-221658D01*
Y-222192D01*
X245483Y-222725D01*
X245250Y-223192D01*
X244900Y-223592D01*
X244492Y-223858D01*
X244025Y-223925D01*
G01X247658D02*
Y-219925D01*
X249058D01*
X249525Y-220125D01*
X249875Y-220592D01*
X249992Y-221125D01*
X249875Y-221658D01*
X249583Y-222058D01*
X249058Y-222258D01*
X247658D01*
G01X252458Y-223925D02*
Y-219925D01*
X253917D01*
X254383Y-220125D01*
X254675Y-220392D01*
X254792Y-220925D01*
X254675Y-221458D01*
X254325Y-221792D01*
X253917Y-221992D01*
X252458D01*
G01X253917D02*
X254792Y-223925D01*
G01X257725Y-219925D02*
X259125D01*
G01X258425D02*
Y-223925D01*
G01X257725D02*
X259125D01*
G01X264392D02*
X262058D01*
Y-219925D01*
X264392D01*
G01X263458Y-221858D02*
X262058D01*
G01X268025Y-219925D02*
Y-223925D01*
G01X266683Y-219925D02*
X269367D01*
G01X271367Y-223925D02*
X272825Y-219925D01*
X274283Y-223925D01*
G01X273758Y-222525D02*
X271892D01*
G01X276458Y-223925D02*
Y-219925D01*
X277917D01*
X278383Y-220125D01*
X278675Y-220392D01*
X278792Y-220925D01*
X278675Y-221458D01*
X278325Y-221792D01*
X277917Y-221992D01*
X276458D01*
G01X277917D02*
X278792Y-223925D01*
G01X282425D02*
Y-222125D01*
X281258Y-219925D01*
G01X283592D02*
X282425Y-222125D01*
G01X287517Y-225258D02*
X288100Y-224592D01*
X288392Y-223925D01*
Y-221258D01*
X288100Y-220592D01*
X287517Y-219925D01*
G01X79075Y-208758D02*
X82575D01*
G01X83875D02*
X87375D01*
G01X88675D02*
X92175D01*
G01X98917Y-207425D02*
Y-203425D01*
X101133D01*
G01X100317Y-205358D02*
X98917D01*
G01X104125Y-203425D02*
X105525D01*
G01X104825D02*
Y-207425D01*
G01X104125D02*
X105525D01*
G01X108342Y-203425D02*
Y-206292D01*
X108575Y-206892D01*
X109042Y-207292D01*
X109625Y-207425D01*
X110208Y-207292D01*
X110675Y-206892D01*
X110908Y-206292D01*
Y-203425D01*
G01X114425Y-207425D02*
X113958Y-207358D01*
X113550Y-207092D01*
X113200Y-206692D01*
X112967Y-206225D01*
X112850Y-205692D01*
Y-205158D01*
X112967Y-204625D01*
X113200Y-204158D01*
X113550Y-203758D01*
X113958Y-203492D01*
X114425Y-203425D01*
X114892Y-203492D01*
X115300Y-203758D01*
X115650Y-204158D01*
X115883Y-204625D01*
X116000Y-205158D01*
Y-205692D01*
X115883Y-206225D01*
X115650Y-206692D01*
X115300Y-207092D01*
X114892Y-207358D01*
X114425Y-207425D01*
G01X123733Y-208758D02*
X123150Y-208092D01*
X122858Y-207425D01*
Y-204758D01*
X123150Y-204092D01*
X123733Y-203425D01*
G01X127717Y-207425D02*
Y-203425D01*
X129933D01*
G01X129117Y-205358D02*
X127717D01*
G01X132458Y-207425D02*
Y-203425D01*
X133917D01*
X134383Y-203625D01*
X134675Y-203892D01*
X134792Y-204425D01*
X134675Y-204958D01*
X134325Y-205292D01*
X133917Y-205492D01*
X132458D01*
G01X133917D02*
X134792Y-207425D01*
G01X139592D02*
X137258D01*
Y-203425D01*
X139592D01*
G01X138658Y-205358D02*
X137258D01*
G01X144392Y-207425D02*
X142058D01*
Y-203425D01*
X144392D01*
G01X143458Y-205358D02*
X142058D01*
G01X146800Y-206892D02*
X147267Y-207225D01*
X147792Y-207425D01*
X148258D01*
X148725Y-207225D01*
X149075Y-206892D01*
X149250Y-206425D01*
X149133Y-205958D01*
X148842Y-205558D01*
X148317Y-205292D01*
X147617Y-205158D01*
X147208Y-204892D01*
X147033Y-204425D01*
X147150Y-203958D01*
X147442Y-203625D01*
X147850Y-203425D01*
X148258D01*
X148667Y-203558D01*
X149017Y-203892D01*
G01X154108Y-203758D02*
X153758Y-203558D01*
X153350Y-203425D01*
X152883D01*
X152358Y-203625D01*
X151950Y-203958D01*
X151658Y-204358D01*
X151425Y-205025D01*
X151367Y-205625D01*
X151483Y-206225D01*
X151658Y-206625D01*
X152008Y-207025D01*
X152417Y-207292D01*
X152825Y-207425D01*
X153233D01*
X153642Y-207292D01*
X153992Y-207092D01*
X154283Y-206825D01*
G01X156167Y-207425D02*
X157625Y-203425D01*
X159083Y-207425D01*
G01X158558Y-206025D02*
X156692D01*
G01X161258Y-203425D02*
Y-207425D01*
X163592D01*
G01X168392D02*
X166058D01*
Y-203425D01*
X168392D01*
G01X167458Y-205358D02*
X166058D01*
G01X176125Y-203425D02*
X177525D01*
G01X176825D02*
Y-207425D01*
G01X176125D02*
X177525D01*
G01X180283D02*
Y-203425D01*
X182967Y-207425D01*
Y-203425D01*
G01X186425D02*
Y-207425D01*
G01X185083Y-203425D02*
X187767D01*
G01X192392Y-207425D02*
X190058D01*
Y-203425D01*
X192392D01*
G01X191458Y-205358D02*
X190058D01*
G01X194858Y-207425D02*
Y-203425D01*
X196317D01*
X196783Y-203625D01*
X197075Y-203892D01*
X197192Y-204425D01*
X197075Y-204958D01*
X196725Y-205292D01*
X196317Y-205492D01*
X194858D01*
G01X196317D02*
X197192Y-207425D01*
G01X199483D02*
Y-203425D01*
X202167Y-207425D01*
Y-203425D01*
G01X204167Y-207425D02*
X205625Y-203425D01*
X207083Y-207425D01*
G01X206558Y-206025D02*
X204692D01*
G01X209258Y-203425D02*
Y-207425D01*
X211592D01*
G01X218742Y-203425D02*
Y-206292D01*
X218975Y-206892D01*
X219442Y-207292D01*
X220025Y-207425D01*
X220608Y-207292D01*
X221075Y-206892D01*
X221308Y-206292D01*
Y-203425D01*
G01X223600Y-206892D02*
X224067Y-207225D01*
X224592Y-207425D01*
X225058D01*
X225525Y-207225D01*
X225875Y-206892D01*
X226050Y-206425D01*
X225933Y-205958D01*
X225642Y-205558D01*
X225117Y-205292D01*
X224417Y-205158D01*
X224008Y-204892D01*
X223833Y-204425D01*
X223950Y-203958D01*
X224242Y-203625D01*
X224650Y-203425D01*
X225058D01*
X225467Y-203558D01*
X225817Y-203892D01*
G01X230792Y-207425D02*
X228458D01*
Y-203425D01*
X230792D01*
G01X229858Y-205358D02*
X228458D01*
G01X239225Y-207425D02*
X238758Y-207358D01*
X238350Y-207092D01*
X238000Y-206692D01*
X237767Y-206225D01*
X237650Y-205692D01*
Y-205158D01*
X237767Y-204625D01*
X238000Y-204158D01*
X238350Y-203758D01*
X238758Y-203492D01*
X239225Y-203425D01*
X239692Y-203492D01*
X240100Y-203758D01*
X240450Y-204158D01*
X240683Y-204625D01*
X240800Y-205158D01*
Y-205692D01*
X240683Y-206225D01*
X240450Y-206692D01*
X240100Y-207092D01*
X239692Y-207358D01*
X239225Y-207425D01*
G01X242683D02*
Y-203425D01*
X245367Y-207425D01*
Y-203425D01*
G01X247658D02*
Y-207425D01*
X249992D01*
G01X253625D02*
Y-205625D01*
X252458Y-203425D01*
G01X254792D02*
X253625Y-205625D01*
G01X258717Y-208758D02*
X259300Y-208092D01*
X259592Y-207425D01*
Y-204758D01*
X259300Y-204092D01*
X258717Y-203425D01*
G01X79075Y-192758D02*
X82575D01*
G01X83875D02*
X87375D01*
G01X88675D02*
X92175D01*
G01X98858Y-191425D02*
Y-187425D01*
X100258D01*
X100725Y-187625D01*
X101075Y-188092D01*
X101192Y-188625D01*
X101075Y-189158D01*
X100783Y-189558D01*
X100258Y-189758D01*
X98858D01*
G01X103542Y-187425D02*
Y-190292D01*
X103775Y-190892D01*
X104242Y-191292D01*
X104825Y-191425D01*
X105408Y-191292D01*
X105875Y-190892D01*
X106108Y-190292D01*
Y-187425D01*
G01X110092Y-189292D02*
X110325Y-189092D01*
X110500Y-188758D01*
X110617Y-188292D01*
X110500Y-187892D01*
X110267Y-187625D01*
X109858Y-187425D01*
X108283D01*
Y-191425D01*
X110208D01*
X110617Y-191158D01*
X110850Y-190758D01*
X110967Y-190292D01*
X110850Y-189825D01*
X110500Y-189425D01*
X110092Y-189292D01*
X108283D01*
G01X113725Y-187425D02*
X115125D01*
G01X114425D02*
Y-191425D01*
G01X113725D02*
X115125D01*
G01X123733Y-192758D02*
X123150Y-192092D01*
X122858Y-191425D01*
Y-188758D01*
X123150Y-188092D01*
X123733Y-187425D01*
G01X127658Y-191425D02*
Y-187425D01*
X129058D01*
X129525Y-187625D01*
X129875Y-188092D01*
X129992Y-188625D01*
X129875Y-189158D01*
X129583Y-189558D01*
X129058Y-189758D01*
X127658D01*
G01X132342Y-187425D02*
Y-190292D01*
X132575Y-190892D01*
X133042Y-191292D01*
X133625Y-191425D01*
X134208Y-191292D01*
X134675Y-190892D01*
X134908Y-190292D01*
Y-187425D01*
G01X138892Y-189292D02*
X139125Y-189092D01*
X139300Y-188758D01*
X139417Y-188292D01*
X139300Y-187892D01*
X139067Y-187625D01*
X138658Y-187425D01*
X137083D01*
Y-191425D01*
X139008D01*
X139417Y-191158D01*
X139650Y-190758D01*
X139767Y-190292D01*
X139650Y-189825D01*
X139300Y-189425D01*
X138892Y-189292D01*
X137083D01*
G01X142058Y-187425D02*
Y-191425D01*
X144392D01*
G01X147325Y-187425D02*
X148725D01*
G01X148025D02*
Y-191425D01*
G01X147325D02*
X148725D01*
G01X154108Y-187758D02*
X153758Y-187558D01*
X153350Y-187425D01*
X152883D01*
X152358Y-187625D01*
X151950Y-187958D01*
X151658Y-188358D01*
X151425Y-189025D01*
X151367Y-189625D01*
X151483Y-190225D01*
X151658Y-190625D01*
X152008Y-191025D01*
X152417Y-191292D01*
X152825Y-191425D01*
X153233D01*
X153642Y-191292D01*
X153992Y-191092D01*
X154283Y-190825D01*
G01X161725Y-187425D02*
X163125D01*
G01X162425D02*
Y-191425D01*
G01X161725D02*
X163125D01*
G01X165883D02*
Y-187425D01*
X168567Y-191425D01*
Y-187425D01*
G01X170917Y-191425D02*
Y-187425D01*
X173133D01*
G01X172317Y-189358D02*
X170917D01*
G01X176825Y-191425D02*
X176358Y-191358D01*
X175950Y-191092D01*
X175600Y-190692D01*
X175367Y-190225D01*
X175250Y-189692D01*
Y-189158D01*
X175367Y-188625D01*
X175600Y-188158D01*
X175950Y-187758D01*
X176358Y-187492D01*
X176825Y-187425D01*
X177292Y-187492D01*
X177700Y-187758D01*
X178050Y-188158D01*
X178283Y-188625D01*
X178400Y-189158D01*
Y-189692D01*
X178283Y-190225D01*
X178050Y-190692D01*
X177700Y-191092D01*
X177292Y-191358D01*
X176825Y-191425D01*
G01X180458D02*
Y-187425D01*
X181917D01*
X182383Y-187625D01*
X182675Y-187892D01*
X182792Y-188425D01*
X182675Y-188958D01*
X182325Y-189292D01*
X181917Y-189492D01*
X180458D01*
G01X181917D02*
X182792Y-191425D01*
G01X184908D02*
Y-187425D01*
X186425Y-190758D01*
X187942Y-187425D01*
Y-191425D01*
G01X189767D02*
X191225Y-187425D01*
X192683Y-191425D01*
G01X192158Y-190025D02*
X190292D01*
G01X196025Y-187425D02*
Y-191425D01*
G01X194683Y-187425D02*
X197367D01*
G01X200125D02*
X201525D01*
G01X200825D02*
Y-191425D01*
G01X200125D02*
X201525D01*
G01X205625D02*
X205158Y-191358D01*
X204750Y-191092D01*
X204400Y-190692D01*
X204167Y-190225D01*
X204050Y-189692D01*
Y-189158D01*
X204167Y-188625D01*
X204400Y-188158D01*
X204750Y-187758D01*
X205158Y-187492D01*
X205625Y-187425D01*
X206092Y-187492D01*
X206500Y-187758D01*
X206850Y-188158D01*
X207083Y-188625D01*
X207200Y-189158D01*
Y-189692D01*
X207083Y-190225D01*
X206850Y-190692D01*
X206500Y-191092D01*
X206092Y-191358D01*
X205625Y-191425D01*
G01X209083D02*
Y-187425D01*
X211767Y-191425D01*
Y-187425D01*
G01X215517Y-192758D02*
X216100Y-192092D01*
X216392Y-191425D01*
Y-188758D01*
X216100Y-188092D01*
X215517Y-187425D01*
G01X69483Y-159425D02*
Y-155425D01*
X72167Y-159425D01*
Y-155425D01*
G01X74167Y-159425D02*
X75625Y-155425D01*
X77083Y-159425D01*
G01X76558Y-158025D02*
X74692D01*
G01X78908Y-159425D02*
Y-155425D01*
X80425Y-158758D01*
X81942Y-155425D01*
Y-159425D01*
G01X86392D02*
X84058D01*
Y-155425D01*
X86392D01*
G01X85458Y-157358D02*
X84058D01*
G01X90525Y61182D02*
X90175Y60774D01*
X89709Y60540D01*
X89184Y60482D01*
X88717Y60540D01*
X88250Y60832D01*
X87959Y61182D01*
X87900Y61532D01*
X88017Y61940D01*
X88425Y62232D01*
X88834Y62349D01*
X89359D01*
G01X88834D02*
X88484Y62524D01*
X88192Y62815D01*
X88075Y63165D01*
X88192Y63515D01*
X88484Y63807D01*
X89009Y63982D01*
X89534Y63924D01*
X90059Y63690D01*
G01X119483Y-239425D02*
Y-235425D01*
X122167Y-239425D01*
Y-235425D01*
G01X124342D02*
Y-238292D01*
X124575Y-238892D01*
X125042Y-239292D01*
X125625Y-239425D01*
X126208Y-239292D01*
X126675Y-238892D01*
X126908Y-238292D01*
Y-235425D01*
G01X128908Y-239425D02*
Y-235425D01*
X130425Y-238758D01*
X131942Y-235425D01*
Y-239425D01*
G01X135692Y-237292D02*
X135925Y-237092D01*
X136100Y-236758D01*
X136217Y-236292D01*
X136100Y-235892D01*
X135867Y-235625D01*
X135458Y-235425D01*
X133883D01*
Y-239425D01*
X135808D01*
X136217Y-239158D01*
X136450Y-238758D01*
X136567Y-238292D01*
X136450Y-237825D01*
X136100Y-237425D01*
X135692Y-237292D01*
X133883D01*
G01X141192Y-239425D02*
X138858D01*
Y-235425D01*
X141192D01*
G01X140258Y-237358D02*
X138858D01*
G01X143658Y-239425D02*
Y-235425D01*
X145117D01*
X145583Y-235625D01*
X145875Y-235892D01*
X145992Y-236425D01*
X145875Y-236958D01*
X145525Y-237292D01*
X145117Y-237492D01*
X143658D01*
G01X145117D02*
X145992Y-239425D01*
G01X120743Y-70317D02*
Y-66817D01*
X121443Y-67517D01*
G01Y-70317D02*
X120043D01*
G01X111510Y-50617D02*
X111218Y-50967D01*
X110868Y-51200D01*
X110460Y-51317D01*
X109993Y-51200D01*
X109643Y-50967D01*
X109293Y-50617D01*
X109176Y-50150D01*
Y-47817D01*
G01X106043Y-51317D02*
Y-47817D01*
X106743Y-48517D01*
G01Y-51317D02*
X105343D01*
G01X101860D02*
X101743Y-50559D01*
X101568Y-49917D01*
X101335Y-49334D01*
X101043Y-48692D01*
X100576Y-47817D01*
X102910D01*
G01X121476Y-33651D02*
X121126Y-34059D01*
X120660Y-34293D01*
X120135Y-34351D01*
X119668Y-34293D01*
X119201Y-34001D01*
X118910Y-33651D01*
X118851Y-33301D01*
X118968Y-32893D01*
X119376Y-32601D01*
X119785Y-32484D01*
X120310D01*
G01X119785D02*
X119435Y-32309D01*
X119143Y-32018D01*
X119026Y-31668D01*
X119143Y-31318D01*
X119435Y-31026D01*
X119960Y-30851D01*
X120485Y-30909D01*
X121010Y-31143D01*
G01X108454Y-19082D02*
Y-15582D01*
X110612Y-18090D01*
X107696D01*
G01X128667Y-18776D02*
X128375Y-19126D01*
X128025Y-19359D01*
X127617Y-19476D01*
X127150Y-19359D01*
X126800Y-19126D01*
X126450Y-18776D01*
X126333Y-18309D01*
Y-15976D01*
G01X123200Y-19476D02*
Y-15976D01*
X123900Y-16676D01*
G01Y-19476D02*
X122500D01*
G01X118900D02*
X118492Y-19418D01*
X118025Y-19243D01*
X117733Y-18951D01*
X117617Y-18543D01*
X117733Y-18134D01*
X118083Y-17784D01*
X118608Y-17609D01*
X119192D01*
X119542Y-17493D01*
X119833Y-17201D01*
X119950Y-16793D01*
X119775Y-16384D01*
X119367Y-16093D01*
X118900Y-15976D01*
X118433Y-16093D01*
X118025Y-16384D01*
X117850Y-16793D01*
X117967Y-17201D01*
X118258Y-17493D01*
X118608Y-17609D01*
X119192D01*
X119717Y-17784D01*
X120067Y-18134D01*
X120183Y-18543D01*
X120067Y-18951D01*
X119775Y-19243D01*
X119308Y-19418D01*
X118900Y-19476D01*
G01X109242Y60482D02*
Y63982D01*
X109942Y63282D01*
G01Y60482D02*
X108542D01*
G01X103347Y61012D02*
X103055Y60662D01*
X102705Y60429D01*
X102297Y60312D01*
X101830Y60429D01*
X101480Y60662D01*
X101130Y61012D01*
X101013Y61479D01*
Y63812D01*
G01X97880Y60312D02*
X97472Y60370D01*
X97005Y60545D01*
X96713Y60837D01*
X96597Y61245D01*
X96713Y61654D01*
X97063Y62004D01*
X97588Y62179D01*
X98172D01*
X98522Y62295D01*
X98813Y62587D01*
X98930Y62995D01*
X98755Y63404D01*
X98347Y63695D01*
X97880Y63812D01*
X97413Y63695D01*
X97005Y63404D01*
X96830Y62995D01*
X96947Y62587D01*
X97238Y62295D01*
X97588Y62179D01*
X98172D01*
X98697Y62004D01*
X99047Y61654D01*
X99163Y61245D01*
X99047Y60837D01*
X98755Y60545D01*
X98288Y60370D01*
X97880Y60312D01*
G01X133102Y125874D02*
Y122374D01*
G01X134444Y125874D02*
X131760D01*
G01X129969Y122374D02*
Y125874D01*
X128569D01*
X128102Y125699D01*
X127752Y125291D01*
X127635Y124824D01*
X127752Y124357D01*
X128044Y124007D01*
X128569Y123832D01*
X129969D01*
G01X124502Y122374D02*
Y125874D01*
X125202Y125174D01*
G01Y122374D02*
X123802D01*
G01X121310Y125291D02*
X120960Y125641D01*
X120552Y125816D01*
X120085Y125874D01*
X119502Y125757D01*
X119094Y125466D01*
X118977Y125116D01*
X119035Y124766D01*
X119269Y124474D01*
X120435Y123891D01*
X120960Y123482D01*
X121310Y122899D01*
X121427Y122374D01*
X118977D01*
G01X117136Y156358D02*
X116923Y156150D01*
X116683Y156025D01*
X116469D01*
X116256Y156150D01*
X116096Y156358D01*
X116016Y156650D01*
X116069Y156942D01*
X116203Y157192D01*
X116443Y157358D01*
X116763Y157442D01*
X116949Y157608D01*
X117029Y157900D01*
X116976Y158192D01*
X116843Y158400D01*
X116656Y158525D01*
X116469D01*
X116283Y158442D01*
X116123Y158233D01*
G01X113789Y158317D02*
X113949Y158442D01*
X114136Y158525D01*
X114349D01*
X114589Y158400D01*
X114776Y158192D01*
X114909Y157942D01*
X115016Y157525D01*
X115043Y157150D01*
X114989Y156775D01*
X114909Y156525D01*
X114749Y156275D01*
X114563Y156108D01*
X114376Y156025D01*
X114189D01*
X114003Y156108D01*
X113843Y156233D01*
X113709Y156400D01*
G01X112736Y156025D02*
Y158525D01*
G01X111616D02*
Y156025D01*
G01Y157275D02*
X112736D01*
G01X110323Y156858D02*
X109629D01*
G01X108336Y156025D02*
X107216Y158525D01*
G01X108336D02*
X107216Y156025D01*
G01X106136D02*
X105016Y158525D01*
G01X106136D02*
X105016Y156025D01*
G01X103936D02*
X102816Y158525D01*
G01X103936D02*
X102816Y156025D01*
G01X101736D02*
X100616Y158525D01*
G01X101736D02*
X100616Y156025D01*
G01X99536D02*
X98416Y158525D01*
G01X99536D02*
X98416Y156025D01*
G01X97123Y156858D02*
X96429D01*
G01X95136Y156025D02*
X94016Y158525D01*
G01X95136D02*
X94016Y156025D01*
G01X116629Y152125D02*
X116576Y152667D01*
X116496Y153125D01*
X116389Y153542D01*
X116256Y154000D01*
X116043Y154625D01*
X117109D01*
G01X114376D02*
X114589Y154542D01*
X114749Y154333D01*
X114856Y154083D01*
X114936Y153750D01*
X114963Y153375D01*
X114936Y153000D01*
X114856Y152667D01*
X114749Y152417D01*
X114589Y152208D01*
X114376Y152125D01*
X114163Y152208D01*
X114003Y152417D01*
X113896Y152667D01*
X113816Y153000D01*
X113789Y153375D01*
X113816Y153750D01*
X113896Y154083D01*
X114003Y154333D01*
X114163Y154542D01*
X114376Y154625D01*
G01X112176D02*
X112389Y154542D01*
X112549Y154333D01*
X112656Y154083D01*
X112736Y153750D01*
X112763Y153375D01*
X112736Y153000D01*
X112656Y152667D01*
X112549Y152417D01*
X112389Y152208D01*
X112176Y152125D01*
X111963Y152208D01*
X111803Y152417D01*
X111696Y152667D01*
X111616Y153000D01*
X111589Y153375D01*
X111616Y153750D01*
X111696Y154083D01*
X111803Y154333D01*
X111963Y154542D01*
X112176Y154625D01*
G01X110323Y152958D02*
X109629D01*
G01X108336Y152125D02*
X107216Y154625D01*
G01X108336D02*
X107216Y152125D01*
G01X106136D02*
X105016Y154625D01*
G01X106136D02*
X105016Y152125D01*
G01X103936D02*
X102816Y154625D01*
G01X103936D02*
X102816Y152125D01*
G01X101736D02*
X100616Y154625D01*
G01X101736D02*
X100616Y152125D01*
G01X99536D02*
X98416Y154625D01*
G01X99536D02*
X98416Y152125D01*
G01X97123Y152958D02*
X96429D01*
G01X95136Y152125D02*
X94016Y154625D01*
G01X95136D02*
X94016Y152125D01*
G01X126558Y144496D02*
Y140996D01*
G01X127900Y144496D02*
X125216D01*
G01X123425Y140996D02*
Y144496D01*
X122025D01*
X121558Y144321D01*
X121208Y143913D01*
X121091Y143446D01*
X121208Y142979D01*
X121500Y142629D01*
X122025Y142454D01*
X123425D01*
G01X117958Y140996D02*
Y144496D01*
X118658Y143796D01*
G01Y140996D02*
X117258D01*
G01X117136Y168058D02*
X116923Y167850D01*
X116683Y167725D01*
X116469D01*
X116256Y167850D01*
X116096Y168058D01*
X116016Y168350D01*
X116069Y168642D01*
X116203Y168892D01*
X116443Y169058D01*
X116763Y169142D01*
X116949Y169308D01*
X117029Y169600D01*
X116976Y169892D01*
X116843Y170100D01*
X116656Y170225D01*
X116469D01*
X116283Y170142D01*
X116123Y169933D01*
G01X114856Y167642D02*
X113896Y170225D01*
G01X112789Y167725D02*
Y170225D01*
X111563Y167725D01*
Y170225D01*
G01X141727Y-18799D02*
Y-15299D01*
X142427Y-15999D01*
G01Y-18799D02*
X141027D01*
G01X143736Y7549D02*
X143386Y7899D01*
X142978Y8074D01*
X142511Y8132D01*
X141928Y8015D01*
X141520Y7724D01*
X141403Y7374D01*
X141461Y7024D01*
X141695Y6732D01*
X142861Y6149D01*
X143386Y5740D01*
X143736Y5157D01*
X143853Y4632D01*
X141403D01*
G01X138328Y8132D02*
X138795Y8015D01*
X139145Y7724D01*
X139378Y7374D01*
X139553Y6907D01*
X139611Y6382D01*
X139553Y5857D01*
X139378Y5390D01*
X139145Y5040D01*
X138795Y4749D01*
X138328Y4632D01*
X137861Y4749D01*
X137511Y5040D01*
X137278Y5390D01*
X137103Y5857D01*
X137045Y6382D01*
X137103Y6907D01*
X137278Y7374D01*
X137511Y7724D01*
X137861Y8015D01*
X138328Y8132D01*
G01X143140Y-7912D02*
Y-4412D01*
X143840Y-5112D01*
G01Y-7912D02*
X142440D01*
G01X139832Y-7504D02*
X139423Y-7795D01*
X138957Y-7912D01*
X138490Y-7795D01*
X138082Y-7445D01*
X137790Y-6920D01*
X137673Y-6395D01*
Y-5754D01*
X137790Y-5229D01*
X138082Y-4762D01*
X138432Y-4529D01*
X138840Y-4412D01*
X139307Y-4529D01*
X139657Y-4762D01*
X139890Y-5112D01*
X140007Y-5579D01*
X139890Y-5987D01*
X139598Y-6395D01*
X139248Y-6629D01*
X138840Y-6687D01*
X138373Y-6570D01*
X138023Y-6279D01*
X137673Y-5754D01*
G01X130700Y10700D02*
X135700D01*
Y-10700D01*
X130700D01*
G01X152603Y19960D02*
X151145Y16460D01*
X149687Y19960D01*
G01X148595Y15293D02*
X145095D01*
G01X143245Y19960D02*
X141845D01*
G01X142545D02*
Y16460D01*
G01X143245D02*
X141845D01*
G01X136962Y19668D02*
X137312Y19843D01*
X137720Y19960D01*
X138187D01*
X138712Y19785D01*
X139120Y19493D01*
X139412Y19143D01*
X139645Y18560D01*
X139703Y18035D01*
X139587Y17510D01*
X139412Y17160D01*
X139062Y16810D01*
X138653Y16577D01*
X138245Y16460D01*
X137837D01*
X137428Y16577D01*
X137078Y16752D01*
X136787Y16985D01*
G01X128676Y26008D02*
Y29508D01*
X129376Y28808D01*
G01Y26008D02*
X127976D01*
G01X124493D02*
X124376Y26766D01*
X124201Y27408D01*
X123968Y27991D01*
X123676Y28633D01*
X123209Y29508D01*
X125543D01*
G01X153066Y31359D02*
Y27859D01*
G01X154408Y31359D02*
X151724D01*
G01X149933Y27859D02*
Y31359D01*
X148533D01*
X148066Y31184D01*
X147716Y30776D01*
X147599Y30309D01*
X147716Y29842D01*
X148008Y29492D01*
X148533Y29317D01*
X149933D01*
G01X145574Y30776D02*
X145224Y31126D01*
X144816Y31301D01*
X144349Y31359D01*
X143766Y31242D01*
X143358Y30951D01*
X143241Y30601D01*
X143299Y30251D01*
X143533Y29959D01*
X144699Y29376D01*
X145224Y28967D01*
X145574Y28384D01*
X145691Y27859D01*
X143241D01*
G01X141274Y30776D02*
X140924Y31126D01*
X140516Y31301D01*
X140049Y31359D01*
X139466Y31242D01*
X139058Y30951D01*
X138941Y30601D01*
X138999Y30251D01*
X139233Y29959D01*
X140399Y29376D01*
X140924Y28967D01*
X141274Y28384D01*
X141391Y27859D01*
X138941D01*
G01X133302Y12994D02*
X133010Y12644D01*
X132660Y12411D01*
X132252Y12294D01*
X131785Y12411D01*
X131435Y12644D01*
X131085Y12994D01*
X130968Y13461D01*
Y15794D01*
G01X127835Y12294D02*
Y15794D01*
X128535Y15094D01*
G01Y12294D02*
X127135D01*
G01X124818Y12819D02*
X124468Y12527D01*
X124060Y12352D01*
X123535Y12294D01*
X123010Y12411D01*
X122602Y12644D01*
X122310Y13052D01*
X122252Y13519D01*
X122368Y13986D01*
X122660Y14277D01*
X123068Y14511D01*
X123477Y14569D01*
X123885Y14511D01*
X124410Y14277D01*
X124235Y15794D01*
X122660D01*
G01X128548Y38296D02*
Y41796D01*
X129248Y41096D01*
G01Y38296D02*
X127848D01*
G01X124248D02*
X123840Y38354D01*
X123373Y38529D01*
X123081Y38821D01*
X122965Y39229D01*
X123081Y39638D01*
X123431Y39988D01*
X123956Y40163D01*
X124540D01*
X124890Y40279D01*
X125181Y40571D01*
X125298Y40979D01*
X125123Y41388D01*
X124715Y41679D01*
X124248Y41796D01*
X123781Y41679D01*
X123373Y41388D01*
X123198Y40979D01*
X123315Y40571D01*
X123606Y40279D01*
X123956Y40163D01*
X124540D01*
X125065Y39988D01*
X125415Y39638D01*
X125531Y39229D01*
X125415Y38821D01*
X125123Y38529D01*
X124656Y38354D01*
X124248Y38296D01*
G01X141344Y59624D02*
G02I3141J-591D01*
G01X134629Y44785D02*
X134337Y44435D01*
X133987Y44202D01*
X133579Y44085D01*
X133112Y44202D01*
X132762Y44435D01*
X132412Y44785D01*
X132295Y45252D01*
Y47585D01*
G01X129162Y44085D02*
Y47585D01*
X129862Y46885D01*
G01Y44085D02*
X128462D01*
G01X124162D02*
Y47585D01*
X126320Y45077D01*
X123404D01*
G01X125661Y68898D02*
Y72398D01*
X126361Y71698D01*
G01Y68898D02*
X124961D01*
G01X140473Y77987D02*
X140181Y77637D01*
X139831Y77404D01*
X139423Y77287D01*
X138956Y77404D01*
X138606Y77637D01*
X138256Y77987D01*
X138139Y78454D01*
Y80787D01*
G01X135998Y77695D02*
X135589Y77404D01*
X135123Y77287D01*
X134656Y77404D01*
X134248Y77754D01*
X133956Y78279D01*
X133839Y78804D01*
Y79445D01*
X133956Y79970D01*
X134248Y80437D01*
X134598Y80670D01*
X135006Y80787D01*
X135473Y80670D01*
X135823Y80437D01*
X136056Y80087D01*
X136173Y79620D01*
X136056Y79212D01*
X135764Y78804D01*
X135414Y78570D01*
X135006Y78512D01*
X134539Y78629D01*
X134189Y78920D01*
X133839Y79445D01*
G01X156329Y113400D02*
Y109900D01*
G01X157671Y113400D02*
X154987D01*
G01X153196Y109900D02*
Y113400D01*
X151796D01*
X151329Y113225D01*
X150979Y112817D01*
X150862Y112350D01*
X150979Y111883D01*
X151271Y111533D01*
X151796Y111358D01*
X153196D01*
G01X147729Y109900D02*
Y113400D01*
X148429Y112700D01*
G01Y109900D02*
X147029D01*
G01X143429Y113400D02*
X143896Y113283D01*
X144246Y112992D01*
X144479Y112642D01*
X144654Y112175D01*
X144712Y111650D01*
X144654Y111125D01*
X144479Y110658D01*
X144246Y110308D01*
X143896Y110017D01*
X143429Y109900D01*
X142962Y110017D01*
X142612Y110308D01*
X142379Y110658D01*
X142204Y111125D01*
X142146Y111650D01*
X142204Y112175D01*
X142379Y112642D01*
X142612Y112992D01*
X142962Y113283D01*
X143429Y113400D01*
G01X124158Y136847D02*
X127658D01*
G01X124158Y138189D02*
Y135505D01*
G01X127658Y133714D02*
X124158D01*
Y132314D01*
X124333Y131847D01*
X124741Y131497D01*
X125208Y131380D01*
X125675Y131497D01*
X126025Y131789D01*
X126200Y132314D01*
Y133714D01*
G01X127658Y128247D02*
X127600Y127839D01*
X127425Y127372D01*
X127133Y127080D01*
X126725Y126964D01*
X126316Y127080D01*
X125966Y127430D01*
X125791Y127955D01*
Y128539D01*
X125675Y128889D01*
X125383Y129180D01*
X124975Y129297D01*
X124566Y129122D01*
X124275Y128714D01*
X124158Y128247D01*
X124275Y127780D01*
X124566Y127372D01*
X124975Y127197D01*
X125383Y127314D01*
X125675Y127605D01*
X125791Y127955D01*
Y128539D01*
X125966Y129064D01*
X126316Y129414D01*
X126725Y129530D01*
X127133Y129414D01*
X127425Y129122D01*
X127600Y128655D01*
X127658Y128247D01*
G01X128934Y130666D02*
G02I3141J-591D01*
G01X137934D02*
G02I3141J-591D01*
G01X149779Y126068D02*
Y122568D01*
G01X151121Y126068D02*
X148437D01*
G01X146646Y122568D02*
Y126068D01*
X145246D01*
X144779Y125893D01*
X144429Y125485D01*
X144312Y125018D01*
X144429Y124551D01*
X144721Y124201D01*
X145246Y124026D01*
X146646D01*
G01X141179Y122568D02*
Y126068D01*
X141879Y125368D01*
G01Y122568D02*
X140479D01*
G01X136879D02*
Y126068D01*
X137579Y125368D01*
G01Y122568D02*
X136179D01*
G01X138434Y119166D02*
G02I3141J-591D01*
G01X128934D02*
G02I3141J-591D01*
G01X125003Y154930D02*
X124653Y155280D01*
X124245Y155455D01*
X123778Y155513D01*
X123195Y155396D01*
X122787Y155105D01*
X122670Y154755D01*
X122728Y154405D01*
X122962Y154113D01*
X124128Y153530D01*
X124653Y153121D01*
X125003Y152538D01*
X125120Y152013D01*
X122670D01*
G01X139674Y145959D02*
X143174D01*
G01X139674Y147301D02*
Y144617D01*
G01X143174Y142826D02*
X139674D01*
Y141426D01*
X139849Y140959D01*
X140257Y140609D01*
X140724Y140492D01*
X141191Y140609D01*
X141541Y140901D01*
X141716Y141426D01*
Y142826D01*
G01X143174Y137476D02*
X142416Y137359D01*
X141774Y137184D01*
X141191Y136951D01*
X140549Y136659D01*
X139674Y136192D01*
Y138526D01*
G01X128934Y143950D02*
G02I3141J-591D01*
G01X125690Y171849D02*
X125340Y171441D01*
X124874Y171207D01*
X124349Y171149D01*
X123882Y171207D01*
X123415Y171499D01*
X123124Y171849D01*
X123065Y172199D01*
X123182Y172607D01*
X123590Y172899D01*
X123999Y173016D01*
X124524D01*
G01X123999D02*
X123649Y173191D01*
X123357Y173482D01*
X123240Y173832D01*
X123357Y174182D01*
X123649Y174474D01*
X124174Y174649D01*
X124699Y174591D01*
X125224Y174357D01*
G01X143933Y179977D02*
X143641Y179627D01*
X143291Y179394D01*
X142883Y179277D01*
X142416Y179394D01*
X142066Y179627D01*
X141716Y179977D01*
X141599Y180444D01*
Y182777D01*
G01X139574Y182194D02*
X139224Y182544D01*
X138816Y182719D01*
X138349Y182777D01*
X137766Y182660D01*
X137358Y182369D01*
X137241Y182019D01*
X137299Y181669D01*
X137533Y181377D01*
X138699Y180794D01*
X139224Y180385D01*
X139574Y179802D01*
X139691Y179277D01*
X137241D01*
G01X154425Y-246425D02*
Y-240125D01*
X153485Y-241385D01*
G01Y-246425D02*
X155365D01*
G01X160568D02*
X160725Y-245060D01*
X160960Y-243905D01*
X161273Y-242855D01*
X161665Y-241700D01*
X162292Y-240125D01*
X159158D01*
G01X167025D02*
X166398Y-240335D01*
X165928Y-240860D01*
X165615Y-241490D01*
X165380Y-242330D01*
X165302Y-243275D01*
X165380Y-244220D01*
X165615Y-245060D01*
X165928Y-245690D01*
X166398Y-246215D01*
X167025Y-246425D01*
X167652Y-246215D01*
X168122Y-245690D01*
X168435Y-245060D01*
X168670Y-244220D01*
X168748Y-243275D01*
X168670Y-242330D01*
X168435Y-241490D01*
X168122Y-240860D01*
X167652Y-240335D01*
X167025Y-240125D01*
G01X172307Y-244325D02*
X174343D01*
G01X178137Y-241175D02*
X178607Y-240545D01*
X179155Y-240230D01*
X179782Y-240125D01*
X180565Y-240335D01*
X181113Y-240860D01*
X181270Y-241490D01*
X181192Y-242120D01*
X180878Y-242645D01*
X179312Y-243695D01*
X178607Y-244430D01*
X178137Y-245480D01*
X177980Y-246425D01*
X181270D01*
G01X185768D02*
X185925Y-245060D01*
X186160Y-243905D01*
X186473Y-242855D01*
X186865Y-241700D01*
X187492Y-240125D01*
X184358D01*
G01X192068Y-246425D02*
X192225Y-245060D01*
X192460Y-243905D01*
X192773Y-242855D01*
X193165Y-241700D01*
X193792Y-240125D01*
X190658D01*
G01X197193Y-245690D02*
X197742Y-246215D01*
X198368Y-246425D01*
X198995Y-246215D01*
X199543Y-245585D01*
X199935Y-244640D01*
X200092Y-243695D01*
Y-242540D01*
X199935Y-241595D01*
X199543Y-240755D01*
X199073Y-240335D01*
X198525Y-240125D01*
X197898Y-240335D01*
X197428Y-240755D01*
X197115Y-241385D01*
X196958Y-242225D01*
X197115Y-242960D01*
X197507Y-243695D01*
X197977Y-244115D01*
X198525Y-244220D01*
X199152Y-244010D01*
X199622Y-243485D01*
X200092Y-242540D01*
G01X203337Y-241175D02*
X203807Y-240545D01*
X204355Y-240230D01*
X204982Y-240125D01*
X205765Y-240335D01*
X206313Y-240860D01*
X206470Y-241490D01*
X206392Y-242120D01*
X206078Y-242645D01*
X204512Y-243695D01*
X203807Y-244430D01*
X203337Y-245480D01*
X203180Y-246425D01*
X206470D01*
G01X247358D02*
Y-240125D01*
X249317D01*
X249943Y-240440D01*
X250335Y-240860D01*
X250492Y-241700D01*
X250335Y-242540D01*
X249865Y-243065D01*
X249317Y-243380D01*
X247358D01*
G01X249317D02*
X250492Y-246425D01*
G01X256792D02*
X253658D01*
Y-240125D01*
X256792D01*
G01X255538Y-243170D02*
X253658D01*
G01X259567Y-240125D02*
X261525Y-246425D01*
X263483Y-240125D01*
G01X272402Y-246425D02*
Y-240125D01*
X273968D01*
X274595Y-240440D01*
X275065Y-240860D01*
X275457Y-241490D01*
X275770Y-242225D01*
X275848Y-243275D01*
X275770Y-244325D01*
X275457Y-245060D01*
X275065Y-245690D01*
X274595Y-246110D01*
X273968Y-246425D01*
X272402D01*
G01X154388Y-173425D02*
Y-167125D01*
X156425Y-172375D01*
X158462Y-167125D01*
Y-173425D01*
G01X161158D02*
Y-167125D01*
X163117D01*
X163743Y-167440D01*
X164135Y-167860D01*
X164292Y-168700D01*
X164135Y-169540D01*
X163665Y-170065D01*
X163117Y-170380D01*
X161158D01*
G01X163117D02*
X164292Y-173425D01*
G01X169652Y-170065D02*
X169965Y-169750D01*
X170200Y-169225D01*
X170357Y-168490D01*
X170200Y-167860D01*
X169887Y-167440D01*
X169338Y-167125D01*
X167223D01*
Y-173425D01*
X169808D01*
X170357Y-173005D01*
X170670Y-172375D01*
X170827Y-171640D01*
X170670Y-170905D01*
X170200Y-170275D01*
X169652Y-170065D01*
X167223D01*
G01X174307Y-171325D02*
X176343D01*
G01X179902Y-173425D02*
Y-167125D01*
G01X182878D02*
X179902Y-171010D01*
G01X183348Y-173425D02*
X181233Y-169225D01*
G01X185575Y-167125D02*
X186672Y-173425D01*
X187925Y-167125D01*
X189178Y-173425D01*
X190275Y-167125D01*
G01X194225D02*
X193598Y-167335D01*
X193128Y-167860D01*
X192815Y-168490D01*
X192580Y-169330D01*
X192502Y-170275D01*
X192580Y-171220D01*
X192815Y-172060D01*
X193128Y-172690D01*
X193598Y-173215D01*
X194225Y-173425D01*
X194852Y-173215D01*
X195322Y-172690D01*
X195635Y-172060D01*
X195870Y-171220D01*
X195948Y-170275D01*
X195870Y-169330D01*
X195635Y-168490D01*
X195322Y-167860D01*
X194852Y-167335D01*
X194225Y-167125D01*
G01X200525Y-173425D02*
Y-167125D01*
X199585Y-168385D01*
G01Y-173425D02*
X201465D01*
G01X205493Y-172690D02*
X206042Y-173215D01*
X206668Y-173425D01*
X207295Y-173215D01*
X207843Y-172585D01*
X208235Y-171640D01*
X208392Y-170695D01*
Y-169540D01*
X208235Y-168595D01*
X207843Y-167755D01*
X207373Y-167335D01*
X206825Y-167125D01*
X206198Y-167335D01*
X205728Y-167755D01*
X205415Y-168385D01*
X205258Y-169225D01*
X205415Y-169960D01*
X205807Y-170695D01*
X206277Y-171115D01*
X206825Y-171220D01*
X207452Y-171010D01*
X207922Y-170485D01*
X208392Y-169540D01*
G01X213125Y-167125D02*
X212498Y-167335D01*
X212028Y-167860D01*
X211715Y-168490D01*
X211480Y-169330D01*
X211402Y-170275D01*
X211480Y-171220D01*
X211715Y-172060D01*
X212028Y-172690D01*
X212498Y-173215D01*
X213125Y-173425D01*
X213752Y-173215D01*
X214222Y-172690D01*
X214535Y-172060D01*
X214770Y-171220D01*
X214848Y-170275D01*
X214770Y-169330D01*
X214535Y-168490D01*
X214222Y-167860D01*
X213752Y-167335D01*
X213125Y-167125D01*
G01X217702Y-172165D02*
X218172Y-172900D01*
X218798Y-173320D01*
X219503Y-173425D01*
X220130Y-173320D01*
X220757Y-172795D01*
X221148Y-172165D01*
X221227Y-171535D01*
X221070Y-170800D01*
X220522Y-170275D01*
X219973Y-170065D01*
X219268D01*
G01X219973D02*
X220443Y-169750D01*
X220835Y-169225D01*
X220992Y-168595D01*
X220835Y-167965D01*
X220443Y-167440D01*
X219738Y-167125D01*
X219033Y-167230D01*
X218328Y-167650D01*
G01X224237Y-168175D02*
X224707Y-167545D01*
X225255Y-167230D01*
X225882Y-167125D01*
X226665Y-167335D01*
X227213Y-167860D01*
X227370Y-168490D01*
X227292Y-169120D01*
X226978Y-169645D01*
X225412Y-170695D01*
X224707Y-171430D01*
X224237Y-172480D01*
X224080Y-173425D01*
X227370D01*
G01X165043Y-71151D02*
Y-67651D01*
X165743Y-68351D01*
G01Y-71151D02*
X164343D01*
G01X162026Y-70451D02*
X161676Y-70859D01*
X161210Y-71093D01*
X160685Y-71151D01*
X160218Y-71093D01*
X159751Y-70801D01*
X159460Y-70451D01*
X159401Y-70101D01*
X159518Y-69693D01*
X159926Y-69401D01*
X160335Y-69284D01*
X160860D01*
G01X160335D02*
X159985Y-69109D01*
X159693Y-68818D01*
X159576Y-68468D01*
X159693Y-68118D01*
X159985Y-67826D01*
X160510Y-67651D01*
X161035Y-67709D01*
X161560Y-67943D01*
G01X164343Y-34051D02*
Y-30551D01*
X165043Y-31251D01*
G01Y-34051D02*
X163643D01*
G01X161326Y-33526D02*
X160976Y-33818D01*
X160568Y-33993D01*
X160043Y-34051D01*
X159518Y-33934D01*
X159110Y-33701D01*
X158818Y-33293D01*
X158760Y-32826D01*
X158876Y-32359D01*
X159168Y-32068D01*
X159576Y-31834D01*
X159985Y-31776D01*
X160393Y-31834D01*
X160918Y-32068D01*
X160743Y-30551D01*
X159168D01*
G01X173922Y-9929D02*
X173689Y-9754D01*
X173514Y-9463D01*
X173397Y-9054D01*
X173514Y-8704D01*
X173747Y-8471D01*
X174156Y-8296D01*
X175731D01*
Y-11796D01*
X173806D01*
X173397Y-11563D01*
X173164Y-11213D01*
X173047Y-10804D01*
X173164Y-10396D01*
X173514Y-10046D01*
X173922Y-9929D01*
X175731D01*
G01X171314Y-11796D02*
Y-8296D01*
G01X168864D02*
Y-11796D01*
G01Y-10046D02*
X171314D01*
G01X165089Y-11796D02*
Y-8296D01*
X167247Y-10804D01*
X164331D01*
G01X177385Y12884D02*
Y9384D01*
G01X178727Y12884D02*
X176043D01*
G01X174252Y9384D02*
Y12884D01*
X172852D01*
X172385Y12709D01*
X172035Y12301D01*
X171918Y11834D01*
X172035Y11367D01*
X172327Y11017D01*
X172852Y10842D01*
X174252D01*
G01X169893Y12301D02*
X169543Y12651D01*
X169135Y12826D01*
X168668Y12884D01*
X168085Y12767D01*
X167677Y12476D01*
X167560Y12126D01*
X167618Y11776D01*
X167852Y11484D01*
X169018Y10901D01*
X169543Y10492D01*
X169893Y9909D01*
X170010Y9384D01*
X167560D01*
G01X165768Y9909D02*
X165418Y9617D01*
X165010Y9442D01*
X164485Y9384D01*
X163960Y9501D01*
X163552Y9734D01*
X163260Y10142D01*
X163202Y10609D01*
X163318Y11076D01*
X163610Y11367D01*
X164018Y11601D01*
X164427Y11659D01*
X164835Y11601D01*
X165360Y11367D01*
X165185Y12884D01*
X163610D01*
G01X183684Y20284D02*
X182226Y16784D01*
X180768Y20284D01*
G01X179676Y15617D02*
X176176D01*
G01X173159Y18651D02*
X172926Y18826D01*
X172751Y19117D01*
X172634Y19526D01*
X172751Y19876D01*
X172984Y20109D01*
X173393Y20284D01*
X174968D01*
Y16784D01*
X173043D01*
X172634Y17017D01*
X172401Y17367D01*
X172284Y17776D01*
X172401Y18184D01*
X172751Y18534D01*
X173159Y18651D01*
X174968D01*
G01X170493Y16784D02*
Y20284D01*
X169034D01*
X168568Y20109D01*
X168276Y19876D01*
X168159Y19409D01*
X168276Y18942D01*
X168626Y18651D01*
X169034Y18476D01*
X170493D01*
G01X169034D02*
X168159Y16784D01*
G01X166309D02*
Y20284D01*
X165143D01*
X164676Y20109D01*
X164326Y19876D01*
X164034Y19526D01*
X163801Y19117D01*
X163743Y18534D01*
X163801Y17951D01*
X164034Y17542D01*
X164326Y17192D01*
X164676Y16959D01*
X165143Y16784D01*
X166309D01*
G01X147837Y24593D02*
G02I3141J-591D01*
G01X180457Y26872D02*
Y23372D01*
G01X181799Y26872D02*
X179115D01*
G01X177324Y23372D02*
Y26872D01*
X175924D01*
X175457Y26697D01*
X175107Y26289D01*
X174990Y25822D01*
X175107Y25355D01*
X175399Y25005D01*
X175924Y24830D01*
X177324D01*
G01X172965Y26289D02*
X172615Y26639D01*
X172207Y26814D01*
X171740Y26872D01*
X171157Y26755D01*
X170749Y26464D01*
X170632Y26114D01*
X170690Y25764D01*
X170924Y25472D01*
X172090Y24889D01*
X172615Y24480D01*
X172965Y23897D01*
X173082Y23372D01*
X170632D01*
G01X167557D02*
Y26872D01*
X168257Y26172D01*
G01Y23372D02*
X166857D01*
G01X159698Y24593D02*
G02I3141J-591D01*
G01X151450Y60877D02*
X154950D01*
G01X151450Y62219D02*
Y59535D01*
G01X154950Y57744D02*
X151450D01*
Y56344D01*
X151625Y55877D01*
X152033Y55527D01*
X152500Y55410D01*
X152967Y55527D01*
X153317Y55819D01*
X153492Y56344D01*
Y57744D01*
G01X152033Y53385D02*
X151683Y53035D01*
X151508Y52627D01*
X151450Y52160D01*
X151567Y51577D01*
X151858Y51169D01*
X152208Y51052D01*
X152558Y51110D01*
X152850Y51344D01*
X153433Y52510D01*
X153842Y53035D01*
X154425Y53385D01*
X154950Y53502D01*
Y51052D01*
G01X151450Y47977D02*
X151567Y48444D01*
X151858Y48794D01*
X152208Y49027D01*
X152675Y49202D01*
X153200Y49260D01*
X153725Y49202D01*
X154192Y49027D01*
X154542Y48794D01*
X154833Y48444D01*
X154950Y47977D01*
X154833Y47510D01*
X154542Y47160D01*
X154192Y46927D01*
X153725Y46752D01*
X153200Y46694D01*
X152675Y46752D01*
X152208Y46927D01*
X151858Y47160D01*
X151567Y47510D01*
X151450Y47977D01*
G01X154284Y34124D02*
X154167Y34882D01*
X153992Y35524D01*
X153759Y36107D01*
X153467Y36749D01*
X153000Y37624D01*
X155334D01*
G01X169577Y81528D02*
Y78028D01*
G01X170919Y81528D02*
X168235D01*
G01X166444Y78028D02*
Y81528D01*
X165044D01*
X164577Y81353D01*
X164227Y80945D01*
X164110Y80478D01*
X164227Y80011D01*
X164519Y79661D01*
X165044Y79486D01*
X166444D01*
G01X160977Y78028D02*
Y81528D01*
X161677Y80828D01*
G01Y78028D02*
X160277D01*
G01X156794D02*
X156677Y78786D01*
X156502Y79428D01*
X156269Y80011D01*
X155977Y80653D01*
X155510Y81528D01*
X157844D01*
G01X153974Y64829D02*
Y68329D01*
X154674Y67629D01*
G01Y64829D02*
X153274D01*
G01X171853Y72345D02*
X171561Y71995D01*
X171211Y71762D01*
X170803Y71645D01*
X170336Y71762D01*
X169986Y71995D01*
X169636Y72345D01*
X169519Y72812D01*
Y75145D01*
G01X166386Y71645D02*
Y75145D01*
X167086Y74445D01*
G01Y71645D02*
X165686D01*
G01X163369Y72345D02*
X163019Y71937D01*
X162553Y71703D01*
X162028Y71645D01*
X161561Y71703D01*
X161094Y71995D01*
X160803Y72345D01*
X160744Y72695D01*
X160861Y73103D01*
X161269Y73395D01*
X161678Y73512D01*
X162203D01*
G01X161678D02*
X161328Y73687D01*
X161036Y73978D01*
X160919Y74328D01*
X161036Y74678D01*
X161328Y74970D01*
X161853Y75145D01*
X162378Y75087D01*
X162903Y74853D01*
G01X165996Y108906D02*
X169496Y107448D01*
X165996Y105990D01*
G01X170663Y104898D02*
Y101398D01*
G01X169496Y100015D02*
X165996D01*
Y98556D01*
X166171Y98090D01*
X166404Y97798D01*
X166871Y97681D01*
X167338Y97798D01*
X167629Y98148D01*
X167804Y98556D01*
Y100015D01*
G01Y98556D02*
X169496Y97681D01*
G01Y95656D02*
X165996D01*
Y93440D01*
G01X167688Y94256D02*
Y95656D01*
G01X164120Y88446D02*
G02I3141J-591D01*
G01X160503Y98700D02*
Y102200D01*
X161203Y101500D01*
G01Y98700D02*
X159803D01*
G01X160876Y105224D02*
X160584Y104874D01*
X160234Y104641D01*
X159826Y104524D01*
X159359Y104641D01*
X159009Y104874D01*
X158659Y105224D01*
X158542Y105691D01*
Y108024D01*
G01X156517Y105982D02*
X156109Y106391D01*
X155759Y106624D01*
X155292Y106741D01*
X154884Y106624D01*
X154592Y106391D01*
X154359Y106041D01*
X154301Y105632D01*
X154359Y105282D01*
X154592Y104932D01*
X154942Y104641D01*
X155351Y104524D01*
X155817Y104641D01*
X156226Y104991D01*
X156459Y105516D01*
X156517Y106099D01*
X156401Y106857D01*
X156226Y107266D01*
X155934Y107674D01*
X155526Y107966D01*
X155117Y108024D01*
X154709Y107907D01*
X154417Y107616D01*
G01X170451Y126223D02*
Y122723D01*
G01X171793Y126223D02*
X169109D01*
G01X167318Y122723D02*
Y126223D01*
X165918D01*
X165451Y126048D01*
X165101Y125640D01*
X164984Y125173D01*
X165101Y124706D01*
X165393Y124356D01*
X165918Y124181D01*
X167318D01*
G01X162843Y123131D02*
X162434Y122840D01*
X161968Y122723D01*
X161501Y122840D01*
X161093Y123190D01*
X160801Y123715D01*
X160684Y124240D01*
Y124881D01*
X160801Y125406D01*
X161093Y125873D01*
X161443Y126106D01*
X161851Y126223D01*
X162318Y126106D01*
X162668Y125873D01*
X162901Y125523D01*
X163018Y125056D01*
X162901Y124648D01*
X162609Y124240D01*
X162259Y124006D01*
X161851Y123948D01*
X161384Y124065D01*
X161034Y124356D01*
X160684Y124881D01*
G01X156934Y119166D02*
G02I3141J-591D01*
G01X148762Y145447D02*
X152262D01*
G01X148762Y146789D02*
Y144105D01*
G01X152262Y142314D02*
X148762D01*
Y140914D01*
X148937Y140447D01*
X149345Y140097D01*
X149812Y139980D01*
X150279Y140097D01*
X150629Y140389D01*
X150804Y140914D01*
Y142314D01*
G01Y137955D02*
X150395Y137547D01*
X150162Y137197D01*
X150045Y136730D01*
X150162Y136322D01*
X150395Y136030D01*
X150745Y135797D01*
X151154Y135739D01*
X151504Y135797D01*
X151854Y136030D01*
X152145Y136380D01*
X152262Y136789D01*
X152145Y137255D01*
X151795Y137664D01*
X151270Y137897D01*
X150687Y137955D01*
X149929Y137839D01*
X149520Y137664D01*
X149112Y137372D01*
X148820Y136964D01*
X148762Y136555D01*
X148879Y136147D01*
X149170Y135855D01*
G01X147434Y130666D02*
G02I3141J-591D01*
G01Y119166D02*
G02I3141J-591D01*
G01X156698Y145191D02*
X160198D01*
G01X156698Y146533D02*
Y143849D01*
G01X160198Y142058D02*
X156698D01*
Y140658D01*
X156873Y140191D01*
X157281Y139841D01*
X157748Y139724D01*
X158215Y139841D01*
X158565Y140133D01*
X158740Y140658D01*
Y142058D01*
G01X159673Y137874D02*
X159965Y137524D01*
X160140Y137116D01*
X160198Y136591D01*
X160081Y136066D01*
X159848Y135658D01*
X159440Y135366D01*
X158973Y135308D01*
X158506Y135424D01*
X158215Y135716D01*
X157981Y136124D01*
X157923Y136533D01*
X157981Y136941D01*
X158215Y137466D01*
X156698Y137291D01*
Y135716D01*
G01X156434Y130666D02*
G02I3141J-591D01*
G01X180976Y142228D02*
X179518Y138728D01*
X178060Y142228D01*
G01X176968Y137561D02*
X173468D01*
G01X172085Y142228D02*
Y138728D01*
X169751D01*
G01X165451D02*
X167785D01*
Y142228D01*
X165451D01*
G01X166385Y140536D02*
X167785D01*
G01X163601Y138728D02*
Y142228D01*
X162435D01*
X161968Y142053D01*
X161618Y141820D01*
X161326Y141470D01*
X161093Y141061D01*
X161035Y140478D01*
X161093Y139895D01*
X161326Y139486D01*
X161618Y139136D01*
X161968Y138903D01*
X162435Y138728D01*
X163601D01*
G01X159546Y151481D02*
X159196Y151189D01*
X158788Y151014D01*
X158263Y150956D01*
X157738Y151073D01*
X157330Y151306D01*
X157038Y151714D01*
X156980Y152181D01*
X157096Y152648D01*
X157388Y152939D01*
X157796Y153173D01*
X158205Y153231D01*
X158613Y153173D01*
X159138Y152939D01*
X158963Y154456D01*
X157388D01*
G01X158007Y161580D02*
Y165080D01*
X158707Y164380D01*
G01Y161580D02*
X157307D01*
G01X157051Y172460D02*
Y175960D01*
X159209Y173452D01*
X156293D01*
G01X174384Y180887D02*
X174151Y181062D01*
X173976Y181353D01*
X173859Y181762D01*
X173976Y182112D01*
X174209Y182345D01*
X174618Y182520D01*
X176193D01*
Y179020D01*
X174268D01*
X173859Y179253D01*
X173626Y179603D01*
X173509Y180012D01*
X173626Y180420D01*
X173976Y180770D01*
X174384Y180887D01*
X176193D01*
G01X171776Y179020D02*
Y182520D01*
G01X169326D02*
Y179020D01*
G01Y180770D02*
X171776D01*
G01X167359Y181937D02*
X167009Y182287D01*
X166601Y182462D01*
X166134Y182520D01*
X165551Y182403D01*
X165143Y182112D01*
X165026Y181762D01*
X165084Y181412D01*
X165318Y181120D01*
X166484Y180537D01*
X167009Y180128D01*
X167359Y179545D01*
X167476Y179020D01*
X165026D01*
G01X177207Y34508D02*
X176799Y34566D01*
X176332Y34741D01*
X176040Y35033D01*
X175924Y35441D01*
X176040Y35850D01*
X176390Y36200D01*
X176915Y36375D01*
X177499D01*
X177849Y36491D01*
X178140Y36783D01*
X178257Y37191D01*
X178082Y37600D01*
X177674Y37891D01*
X177207Y38008D01*
X176740Y37891D01*
X176332Y37600D01*
X176157Y37191D01*
X176274Y36783D01*
X176565Y36491D01*
X176915Y36375D01*
X177499D01*
X178024Y36200D01*
X178374Y35850D01*
X178490Y35441D01*
X178374Y35033D01*
X178082Y34741D01*
X177615Y34566D01*
X177207Y34508D01*
G01X177733Y67088D02*
X177383Y67438D01*
X176975Y67613D01*
X176508Y67671D01*
X175925Y67554D01*
X175517Y67263D01*
X175400Y66913D01*
X175458Y66563D01*
X175692Y66271D01*
X176858Y65688D01*
X177383Y65279D01*
X177733Y64696D01*
X177850Y64171D01*
X175400D01*
G54D14*
G01X-3625Y29375D02*
G02X-1225Y28275I0J-3168D01*
G03X-525Y27675I2331J2011D01*
G01X3075Y26475D01*
G02X5575Y24075I0J-2502D01*
G03X6475Y23775I572J217D01*
G01X6575Y23975D01*
G03X6475Y25675I-1530J763D01*
G03X5775Y26675I-17462J-11479D01*
G03X3775Y27875I-2459J-1832D01*
G01X-2325Y32575D02*
G02X-1625Y32475I0J-2500D01*
G03X-1025Y32375I720J2469D01*
G03X475I750J16061D01*
G03X2975Y32775I-529J11319D01*
G02X6875Y31975I1168J-4210D01*
G02X7375Y31275I-987J-1234D01*
G03X8075Y30475I1358J482D01*
G01X8575Y30075D01*
X9175Y29575D01*
G02X9775Y28475I-1090J-1308D01*
G01Y28375D01*
X9675Y27975D01*
X9575Y27375D01*
X9475Y26575D01*
Y25275D01*
G02X8775Y23575I-2414J0D01*
G02X7975Y24175I-350J367D01*
G01X8275Y24775D01*
X8075Y26175D01*
G02X8175Y26975I1511J217D01*
G03X8475Y27775I-13600J5556D01*
G01X7875Y27875D01*
G02X7375Y28075I207J1242D01*
G02X5875Y29175I15546J22772D01*
G01X137975Y53075D02*
G03I-3900J0D01*
G01X132575Y54575D02*
G02X132075Y52075I1500J-1600D01*
G54D15*
G01X29094Y24252D02*
X120827D01*
Y45906D01*
X29094D01*
Y24252D01*
X29882D01*
M02*
